<svg width="1413" height="526" viewBox="0 0 1413 526" fill="none" xmlns="http://www.w3.org/2000/svg">
<g clip-path="url(#clip0)">
<rect width="1413" height="526" fill="#252B42"/>
<g clip-path="url(#clip1)">
<g clip-path="url(#clip2)">
<path d="M188.512 227.792C189.739 227.792 190.741 227.307 191.52 226.336L193.12 227.984C191.851 229.413 190.352 230.128 188.624 230.128C186.907 230.128 185.488 229.584 184.368 228.496C183.259 227.408 182.704 226.037 182.704 224.384C182.704 222.72 183.269 221.333 184.4 220.224C185.541 219.115 186.933 218.56 188.576 218.56C190.411 218.56 191.947 219.259 193.184 220.656L191.632 222.416C190.843 221.435 189.861 220.944 188.688 220.944C187.749 220.944 186.944 221.253 186.272 221.872C185.611 222.48 185.28 223.307 185.28 224.352C185.28 225.387 185.595 226.219 186.224 226.848C186.853 227.477 187.616 227.792 188.512 227.792ZM196.531 225.696C196.531 226.4 196.728 226.976 197.123 227.424C197.528 227.861 198.04 228.08 198.659 228.08C199.288 228.08 199.8 227.861 200.195 227.424C200.6 226.976 200.803 226.4 200.803 225.696C200.803 224.992 200.6 224.416 200.195 223.968C199.8 223.52 199.288 223.296 198.659 223.296C198.04 223.296 197.528 223.52 197.123 223.968C196.728 224.416 196.531 224.992 196.531 225.696ZM203.219 225.696C203.219 226.944 202.787 227.995 201.923 228.848C201.059 229.701 199.971 230.128 198.659 230.128C197.358 230.128 196.275 229.701 195.411 228.848C194.547 227.995 194.115 226.944 194.115 225.696C194.115 224.448 194.547 223.397 195.411 222.544C196.275 221.68 197.358 221.248 198.659 221.248C199.971 221.248 201.059 221.68 201.923 222.544C202.787 223.397 203.219 224.448 203.219 225.696ZM213.006 225.36V230H210.59V225.296C210.59 224.613 210.483 224.112 210.27 223.792C210.067 223.472 209.731 223.312 209.262 223.312C208.803 223.312 208.392 223.488 208.03 223.84C207.678 224.181 207.502 224.688 207.502 225.36V230H205.102V221.392H207.502V222.368C208.163 221.621 208.92 221.248 209.774 221.248C210.318 221.248 210.808 221.408 211.246 221.728C211.694 222.048 212.03 222.437 212.254 222.896C212.584 222.373 213.027 221.968 213.582 221.68C214.147 221.392 214.712 221.248 215.278 221.248C216.291 221.248 217.107 221.552 217.726 222.16C218.344 222.757 218.654 223.627 218.654 224.768V230H216.238V225.296C216.238 223.973 215.752 223.312 214.782 223.312C214.302 223.312 213.886 223.488 213.534 223.84C213.182 224.181 213.006 224.688 213.006 225.36ZM225.944 221.248C226.947 221.248 227.837 221.669 228.616 222.512C229.405 223.344 229.8 224.395 229.8 225.664C229.8 226.933 229.405 227.995 228.616 228.848C227.837 229.701 226.92 230.128 225.864 230.128C224.819 230.128 223.976 229.707 223.336 228.864V233.104H220.936V221.392H223.336V222.352C224.072 221.616 224.941 221.248 225.944 221.248ZM223.304 225.712C223.304 226.405 223.496 226.976 223.88 227.424C224.275 227.861 224.749 228.08 225.304 228.08C225.859 228.08 226.344 227.861 226.76 227.424C227.176 226.976 227.384 226.405 227.384 225.712C227.384 225.019 227.181 224.437 226.776 223.968C226.371 223.499 225.885 223.264 225.32 223.264C224.755 223.264 224.275 223.499 223.88 223.968C223.496 224.427 223.304 225.008 223.304 225.712ZM239.004 230H236.748V228.96C236.13 229.739 235.362 230.128 234.444 230.128C233.538 230.128 232.775 229.867 232.156 229.344C231.538 228.811 231.228 228.107 231.228 227.232C231.228 226.347 231.548 225.685 232.188 225.248C232.828 224.811 233.703 224.592 234.812 224.592H236.604V224.544C236.604 223.627 236.119 223.168 235.148 223.168C234.732 223.168 234.29 223.253 233.82 223.424C233.362 223.584 232.972 223.787 232.652 224.032L231.58 222.48C232.711 221.659 234.002 221.248 235.452 221.248C236.498 221.248 237.351 221.509 238.012 222.032C238.674 222.555 239.004 223.381 239.004 224.512V230ZM236.588 226.72V226.304H235.084C234.124 226.304 233.644 226.603 233.644 227.2C233.644 227.509 233.756 227.749 233.98 227.92C234.215 228.08 234.546 228.16 234.972 228.16C235.399 228.16 235.772 228.032 236.092 227.776C236.423 227.509 236.588 227.157 236.588 226.72ZM243.692 225.2V230H241.292V221.392H243.692V222.352C244.418 221.616 245.234 221.248 246.14 221.248C247.047 221.248 247.804 221.568 248.412 222.208C249.031 222.848 249.34 223.701 249.34 224.768V230H246.94V225.136C246.94 223.813 246.455 223.152 245.484 223.152C245.004 223.152 244.583 223.328 244.22 223.68C243.868 224.021 243.692 224.528 243.692 225.2ZM252.958 233.392C252.116 233.392 251.321 233.051 250.574 232.368L251.662 230.592C252.068 230.987 252.484 231.184 252.91 231.184C253.134 231.184 253.326 231.072 253.486 230.848C253.646 230.635 253.726 230.405 253.726 230.16C253.726 229.915 252.617 226.992 250.398 221.392H252.958L255.054 226.752L257.15 221.392H259.71L255.71 231.536C255.476 232.123 255.108 232.576 254.606 232.896C254.116 233.227 253.566 233.392 252.958 233.392ZM265.567 218.816H268.063V230H265.567V218.816ZM272.999 225.2V230H270.599V221.392H272.999V222.352C273.724 221.616 274.54 221.248 275.447 221.248C276.353 221.248 277.111 221.568 277.719 222.208C278.337 222.848 278.647 223.701 278.647 224.768V230H276.247V225.136C276.247 223.813 275.761 223.152 274.791 223.152C274.311 223.152 273.889 223.328 273.527 223.68C273.175 224.021 272.999 224.528 272.999 225.2ZM283.703 220.896V221.472H285.783V223.2H283.703V230H281.287V223.2H280.279V221.472H281.287V220.944C281.287 220.005 281.57 219.264 282.135 218.72C282.711 218.165 283.42 217.888 284.263 217.888C285.116 217.888 285.89 218.208 286.583 218.848L285.719 220.464C285.367 220.059 284.978 219.856 284.551 219.856C284.306 219.856 284.103 219.947 283.943 220.128C283.783 220.299 283.703 220.555 283.703 220.896ZM289.093 225.696C289.093 226.4 289.291 226.976 289.685 227.424C290.091 227.861 290.603 228.08 291.221 228.08C291.851 228.08 292.363 227.861 292.757 227.424C293.163 226.976 293.365 226.4 293.365 225.696C293.365 224.992 293.163 224.416 292.757 223.968C292.363 223.52 291.851 223.296 291.221 223.296C290.603 223.296 290.091 223.52 289.685 223.968C289.291 224.416 289.093 224.992 289.093 225.696ZM295.781 225.696C295.781 226.944 295.349 227.995 294.485 228.848C293.621 229.701 292.533 230.128 291.221 230.128C289.92 230.128 288.837 229.701 287.973 228.848C287.109 227.995 286.677 226.944 286.677 225.696C286.677 224.448 287.109 223.397 287.973 222.544C288.837 221.68 289.92 221.248 291.221 221.248C292.533 221.248 293.621 221.68 294.485 222.544C295.349 223.397 295.781 224.448 295.781 225.696Z" fill="white"/>
<path d="M190.652 273H192.556L188.132 263.2H186.34L181.93 273H183.806L184.772 270.732H189.672L190.652 273ZM185.388 269.304L187.222 265.02L189.07 269.304H185.388ZM197.978 265.44C197.026 265.44 196.186 265.762 195.584 266.434V262.612H193.834V273H195.5V272.034C196.088 272.748 196.956 273.098 197.978 273.098C200.162 273.098 201.772 271.586 201.772 269.262C201.772 266.938 200.162 265.44 197.978 265.44ZM197.782 271.6C196.522 271.6 195.556 270.69 195.556 269.262C195.556 267.834 196.522 266.924 197.782 266.924C199.042 266.924 199.994 267.834 199.994 269.262C199.994 270.69 199.042 271.6 197.782 271.6ZM206.992 273.098C209.316 273.098 210.982 271.502 210.982 269.262C210.982 267.022 209.316 265.44 206.992 265.44C204.696 265.44 203.016 267.022 203.016 269.262C203.016 271.502 204.696 273.098 206.992 273.098ZM206.992 271.6C205.732 271.6 204.78 270.69 204.78 269.262C204.78 267.834 205.732 266.924 206.992 266.924C208.266 266.924 209.218 267.834 209.218 269.262C209.218 270.69 208.266 271.6 206.992 271.6ZM218.343 265.524V269.304C218.343 270.802 217.517 271.558 216.299 271.558C215.193 271.558 214.549 270.914 214.549 269.556V265.524H212.799V269.794C212.799 272.048 214.101 273.098 216.019 273.098C216.985 273.098 217.867 272.734 218.427 272.048V273H220.093V265.524H218.343ZM226.589 271.348C226.323 271.558 225.973 271.656 225.609 271.656C224.937 271.656 224.573 271.264 224.573 270.536V266.98H226.575V265.58H224.573V263.872H222.823V265.58H221.591V266.98H222.823V270.578C222.823 272.23 223.761 273.098 225.399 273.098C226.029 273.098 226.659 272.93 227.079 272.594L226.589 271.348ZM237.169 273.14C239.843 273.14 241.453 271.586 241.453 268.73V263.2H239.661V268.66C239.661 270.676 238.765 271.544 237.183 271.544C235.601 271.544 234.691 270.676 234.691 268.66V263.2H232.871V268.73C232.871 271.586 234.481 273.14 237.169 273.14ZM246.344 273.098C248.444 273.098 249.732 272.188 249.732 270.788C249.732 267.862 245.112 269.206 245.112 267.694C245.112 267.204 245.616 266.854 246.68 266.854C247.394 266.854 248.108 266.994 248.822 267.414L249.494 266.084C248.822 265.678 247.688 265.44 246.694 265.44C244.678 265.44 243.404 266.364 243.404 267.778C243.404 270.76 248.024 269.416 248.024 270.844C248.024 271.362 247.562 271.67 246.456 271.67C245.518 271.67 244.51 271.362 243.852 270.928L243.18 272.258C243.852 272.734 245.098 273.098 246.344 273.098Z" fill="#BDBDBD"/>
<path d="M187.852 307.14C189.462 307.14 190.834 306.566 191.744 305.502L190.568 304.382C189.854 305.166 188.972 305.544 187.95 305.544C185.92 305.544 184.45 304.116 184.45 302.1C184.45 300.084 185.92 298.656 187.95 298.656C188.972 298.656 189.854 299.034 190.568 299.804L191.744 298.698C190.834 297.634 189.462 297.06 187.866 297.06C184.856 297.06 182.616 299.174 182.616 302.1C182.616 305.026 184.856 307.14 187.852 307.14ZM196.308 299.44C195.104 299.44 193.942 299.748 193.144 300.364L193.83 301.638C194.39 301.176 195.258 300.896 196.098 300.896C197.344 300.896 197.96 301.498 197.96 302.52V302.632H196.028C193.76 302.632 192.92 303.612 192.92 304.858C192.92 306.16 193.998 307.098 195.706 307.098C196.826 307.098 197.638 306.734 198.058 306.09V307H199.71V302.618C199.71 300.462 198.464 299.44 196.308 299.44ZM196.07 305.824C195.174 305.824 194.642 305.418 194.642 304.788C194.642 304.242 194.964 303.794 196.154 303.794H197.96V304.662C197.666 305.432 196.924 305.824 196.07 305.824ZM203.821 300.616V299.524H202.155V307H203.905V303.374C203.905 301.848 204.745 301.064 206.075 301.064C206.201 301.064 206.327 301.078 206.481 301.106V299.44C205.235 299.44 204.325 299.832 203.821 300.616ZM209.832 300.616V299.524H208.166V307H209.916V303.374C209.916 301.848 210.756 301.064 212.086 301.064C212.212 301.064 212.338 301.078 212.492 301.106V299.44C211.246 299.44 210.336 299.832 209.832 300.616ZM215.059 298.292C215.717 298.292 216.179 297.816 216.179 297.2C216.179 296.626 215.703 296.192 215.059 296.192C214.415 296.192 213.939 296.654 213.939 297.242C213.939 297.83 214.415 298.292 215.059 298.292ZM214.177 307H215.927V299.524H214.177V307ZM225.451 303.304C225.451 300.966 223.855 299.44 221.671 299.44C219.445 299.44 217.807 301.036 217.807 303.262C217.807 305.488 219.431 307.098 221.937 307.098C223.225 307.098 224.275 306.678 224.947 305.88L224.009 304.802C223.477 305.348 222.819 305.614 221.979 305.614C220.677 305.614 219.767 304.914 219.557 303.822H225.423C225.437 303.654 225.451 303.444 225.451 303.304ZM221.671 300.84C222.819 300.84 223.645 301.582 223.785 302.66H219.543C219.711 301.568 220.537 300.84 221.671 300.84ZM228.998 300.616V299.524H227.332V307H229.082V303.374C229.082 301.848 229.922 301.064 231.252 301.064C231.378 301.064 231.504 301.078 231.658 301.106V299.44C230.412 299.44 229.502 299.832 228.998 300.616Z" fill="#BDBDBD"/>
<path d="M195.902 331.2L193.396 338.69L190.918 331.2H189.238L186.704 338.648L184.268 331.2H182.378L185.626 341H187.572L190.036 333.748L192.458 341H194.39L197.638 331.2H195.902ZM205.62 337.304C205.62 334.966 204.024 333.44 201.84 333.44C199.614 333.44 197.976 335.036 197.976 337.262C197.976 339.488 199.6 341.098 202.106 341.098C203.394 341.098 204.444 340.678 205.116 339.88L204.178 338.802C203.646 339.348 202.988 339.614 202.148 339.614C200.846 339.614 199.936 338.914 199.726 337.822H205.592C205.606 337.654 205.62 337.444 205.62 337.304ZM201.84 334.84C202.988 334.84 203.814 335.582 203.954 336.66H199.712C199.88 335.568 200.706 334.84 201.84 334.84ZM214.426 333.44C213.222 333.44 212.06 333.748 211.262 334.364L211.948 335.638C212.508 335.176 213.376 334.896 214.216 334.896C215.462 334.896 216.078 335.498 216.078 336.52V336.632H214.146C211.878 336.632 211.038 337.612 211.038 338.858C211.038 340.16 212.116 341.098 213.824 341.098C214.944 341.098 215.756 340.734 216.176 340.09V341H217.828V336.618C217.828 334.462 216.582 333.44 214.426 333.44ZM214.188 339.824C213.292 339.824 212.76 339.418 212.76 338.788C212.76 338.242 213.082 337.794 214.272 337.794H216.078V338.662C215.784 339.432 215.042 339.824 214.188 339.824ZM221.94 334.616V333.524H220.274V341H222.024V337.374C222.024 335.848 222.864 335.064 224.194 335.064C224.32 335.064 224.446 335.078 224.6 335.106V333.44C223.354 333.44 222.444 333.832 221.94 334.616ZM233.244 337.304C233.244 334.966 231.648 333.44 229.464 333.44C227.238 333.44 225.6 335.036 225.6 337.262C225.6 339.488 227.224 341.098 229.73 341.098C231.018 341.098 232.068 340.678 232.74 339.88L231.802 338.802C231.27 339.348 230.612 339.614 229.772 339.614C228.47 339.614 227.56 338.914 227.35 337.822H233.216C233.23 337.654 233.244 337.444 233.244 337.304ZM229.464 334.84C230.612 334.84 231.438 335.582 231.578 336.66H227.336C227.504 335.568 228.33 334.84 229.464 334.84ZM243.436 333.44C242.4 333.44 241.518 333.776 240.944 334.392V330.612H239.194V341H240.944V337.22C240.944 335.722 241.784 334.966 243.03 334.966C244.15 334.966 244.808 335.61 244.808 336.94V341H246.558V336.716C246.558 334.462 245.228 333.44 243.436 333.44ZM249.86 332.292C250.518 332.292 250.98 331.816 250.98 331.2C250.98 330.626 250.504 330.192 249.86 330.192C249.216 330.192 248.74 330.654 248.74 331.242C248.74 331.83 249.216 332.292 249.86 332.292ZM248.978 341H250.728V333.524H248.978V341ZM254.891 334.616V333.524H253.225V341H254.975V337.374C254.975 335.848 255.815 335.064 257.145 335.064C257.271 335.064 257.397 335.078 257.551 335.106V333.44C256.305 333.44 255.395 333.832 254.891 334.616ZM260.118 332.292C260.776 332.292 261.238 331.816 261.238 331.2C261.238 330.626 260.762 330.192 260.118 330.192C259.474 330.192 258.998 330.654 258.998 331.242C258.998 331.83 259.474 332.292 260.118 332.292ZM259.236 341H260.986V333.524H259.236V341ZM267.725 333.44C266.633 333.44 265.723 333.804 265.149 334.49V333.524H263.483V341H265.233V337.22C265.233 335.722 266.073 334.966 267.319 334.966C268.439 334.966 269.097 335.61 269.097 336.94V341H270.847V336.716C270.847 334.462 269.517 333.44 267.725 333.44ZM279.089 333.524V334.518C278.473 333.776 277.549 333.44 276.499 333.44C274.357 333.44 272.719 334.868 272.719 337.038C272.719 339.208 274.357 340.664 276.499 340.664C277.507 340.664 278.389 340.342 279.005 339.67V340.062C279.005 341.574 278.277 342.33 276.625 342.33C275.589 342.33 274.525 341.98 273.867 341.434L273.083 342.75C273.937 343.45 275.323 343.814 276.723 343.814C279.341 343.814 280.755 342.582 280.755 339.866V333.524H279.089ZM276.765 339.18C275.435 339.18 274.483 338.312 274.483 337.038C274.483 335.778 275.435 334.924 276.765 334.924C278.081 334.924 279.033 335.778 279.033 337.038C279.033 338.312 278.081 339.18 276.765 339.18Z" fill="#BDBDBD"/>
<path d="M190.26 369.904C191.016 369.498 191.52 368.756 191.52 367.748C191.52 366.194 190.26 365.2 187.908 365.2H183.316V375H188.188C190.708 375 192.024 374.02 192.024 372.34C192.024 371.066 191.31 370.24 190.26 369.904ZM187.712 366.628C188.972 366.628 189.686 367.076 189.686 367.986C189.686 368.882 188.972 369.33 187.712 369.33H185.136V366.628H187.712ZM188.076 373.572H185.136V370.744H188.076C189.448 370.744 190.19 371.178 190.19 372.158C190.19 373.138 189.448 373.572 188.076 373.572ZM193.998 375H195.748V364.612H193.998V375ZM201.605 375.098C203.929 375.098 205.595 373.502 205.595 371.262C205.595 369.022 203.929 367.44 201.605 367.44C199.309 367.44 197.629 369.022 197.629 371.262C197.629 373.502 199.309 375.098 201.605 375.098ZM201.605 373.6C200.345 373.6 199.393 372.69 199.393 371.262C199.393 369.834 200.345 368.924 201.605 368.924C202.879 368.924 203.831 369.834 203.831 371.262C203.831 372.69 202.879 373.6 201.605 373.6ZM213.223 367.524V368.518C212.607 367.776 211.683 367.44 210.633 367.44C208.491 367.44 206.853 368.868 206.853 371.038C206.853 373.208 208.491 374.664 210.633 374.664C211.641 374.664 212.523 374.342 213.139 373.67V374.062C213.139 375.574 212.411 376.33 210.759 376.33C209.723 376.33 208.659 375.98 208.001 375.434L207.217 376.75C208.071 377.45 209.457 377.814 210.857 377.814C213.475 377.814 214.889 376.582 214.889 373.866V367.524H213.223ZM210.899 373.18C209.569 373.18 208.617 372.312 208.617 371.038C208.617 369.778 209.569 368.924 210.899 368.924C212.215 368.924 213.167 369.778 213.167 371.038C213.167 372.312 212.215 373.18 210.899 373.18Z" fill="#BDBDBD"/>
</g>
<g clip-path="url(#clip3)">
<path d="M361.376 230V218.816H363.872V227.776H368.64V230H361.376ZM377.786 228.752C376.815 229.669 375.674 230.128 374.362 230.128C373.06 230.128 371.983 229.728 371.13 228.928C370.276 228.117 369.85 227.035 369.85 225.68C369.85 224.325 370.282 223.248 371.146 222.448C372.02 221.648 373.05 221.248 374.234 221.248C375.418 221.248 376.42 221.605 377.242 222.32C378.074 223.035 378.49 224.016 378.49 225.264V226.544H372.218C372.292 227.013 372.538 227.397 372.954 227.696C373.37 227.995 373.839 228.144 374.362 228.144C375.204 228.144 375.898 227.861 376.442 227.296L377.786 228.752ZM376.058 224.832C376.004 224.32 375.812 223.925 375.482 223.648C375.151 223.371 374.746 223.232 374.266 223.232C373.796 223.232 373.364 223.376 372.97 223.664C372.575 223.952 372.346 224.341 372.282 224.832H376.058ZM386.352 225.52C386.352 224.827 386.16 224.283 385.776 223.888C385.392 223.493 384.918 223.296 384.352 223.296C383.787 223.296 383.296 223.493 382.88 223.888C382.475 224.283 382.272 224.821 382.272 225.504C382.272 226.187 382.47 226.741 382.864 227.168C383.27 227.584 383.76 227.792 384.336 227.792C384.912 227.792 385.392 227.584 385.776 227.168C386.16 226.752 386.352 226.203 386.352 225.52ZM386.688 228.544C385.931 229.387 384.987 229.808 383.856 229.808C382.736 229.808 381.787 229.429 381.008 228.672C380.24 227.904 379.856 226.885 379.856 225.616C379.856 224.336 380.251 223.291 381.04 222.48C381.84 221.659 382.752 221.248 383.776 221.248C384.8 221.248 385.648 221.669 386.32 222.512V221.376H388.72V228.88C388.72 229.648 388.587 230.331 388.32 230.928C388.054 231.525 387.696 231.995 387.248 232.336C386.363 233.04 385.318 233.392 384.112 233.392C383.472 233.392 382.816 233.285 382.144 233.072C381.483 232.869 380.902 232.576 380.4 232.192L381.328 230.384C382.118 230.981 382.95 231.28 383.824 231.28C384.71 231.28 385.408 231.061 385.92 230.624C386.432 230.187 386.688 229.493 386.688 228.544ZM398.404 230H396.148V228.96C395.53 229.739 394.762 230.128 393.844 230.128C392.938 230.128 392.175 229.867 391.556 229.344C390.938 228.811 390.628 228.107 390.628 227.232C390.628 226.347 390.948 225.685 391.588 225.248C392.228 224.811 393.103 224.592 394.212 224.592H396.004V224.544C396.004 223.627 395.519 223.168 394.548 223.168C394.132 223.168 393.69 223.253 393.22 223.424C392.762 223.584 392.372 223.787 392.052 224.032L390.98 222.48C392.111 221.659 393.402 221.248 394.852 221.248C395.898 221.248 396.751 221.509 397.412 222.032C398.074 222.555 398.404 223.381 398.404 224.512V230ZM395.988 226.72V226.304H394.484C393.524 226.304 393.044 226.603 393.044 227.2C393.044 227.509 393.156 227.749 393.38 227.92C393.615 228.08 393.946 228.16 394.372 228.16C394.799 228.16 395.172 228.032 395.492 227.776C395.823 227.509 395.988 227.157 395.988 226.72ZM403.092 230H400.692V218.128H403.092V230Z" fill="white"/>
<path d="M368.652 273H370.556L366.132 263.2H364.34L359.93 273H361.806L362.772 270.732H367.672L368.652 273ZM363.388 269.304L365.222 265.02L367.07 269.304H363.388ZM375.978 265.44C375.026 265.44 374.186 265.762 373.584 266.434V262.612H371.834V273H373.5V272.034C374.088 272.748 374.956 273.098 375.978 273.098C378.162 273.098 379.772 271.586 379.772 269.262C379.772 266.938 378.162 265.44 375.978 265.44ZM375.782 271.6C374.522 271.6 373.556 270.69 373.556 269.262C373.556 267.834 374.522 266.924 375.782 266.924C377.042 266.924 377.994 267.834 377.994 269.262C377.994 270.69 377.042 271.6 375.782 271.6ZM384.992 273.098C387.316 273.098 388.982 271.502 388.982 269.262C388.982 267.022 387.316 265.44 384.992 265.44C382.696 265.44 381.016 267.022 381.016 269.262C381.016 271.502 382.696 273.098 384.992 273.098ZM384.992 271.6C383.732 271.6 382.78 270.69 382.78 269.262C382.78 267.834 383.732 266.924 384.992 266.924C386.266 266.924 387.218 267.834 387.218 269.262C387.218 270.69 386.266 271.6 384.992 271.6ZM396.343 265.524V269.304C396.343 270.802 395.517 271.558 394.299 271.558C393.193 271.558 392.549 270.914 392.549 269.556V265.524H390.799V269.794C390.799 272.048 392.101 273.098 394.019 273.098C394.985 273.098 395.867 272.734 396.427 272.048V273H398.093V265.524H396.343ZM404.589 271.348C404.323 271.558 403.973 271.656 403.609 271.656C402.937 271.656 402.573 271.264 402.573 270.536V266.98H404.575V265.58H402.573V263.872H400.823V265.58H399.591V266.98H400.823V270.578C400.823 272.23 401.761 273.098 403.399 273.098C404.029 273.098 404.659 272.93 405.079 272.594L404.589 271.348ZM415.169 273.14C417.843 273.14 419.453 271.586 419.453 268.73V263.2H417.661V268.66C417.661 270.676 416.765 271.544 415.183 271.544C413.601 271.544 412.691 270.676 412.691 268.66V263.2H410.871V268.73C410.871 271.586 412.481 273.14 415.169 273.14ZM424.344 273.098C426.444 273.098 427.732 272.188 427.732 270.788C427.732 267.862 423.112 269.206 423.112 267.694C423.112 267.204 423.616 266.854 424.68 266.854C425.394 266.854 426.108 266.994 426.822 267.414L427.494 266.084C426.822 265.678 425.688 265.44 424.694 265.44C422.678 265.44 421.404 266.364 421.404 267.778C421.404 270.76 426.024 269.416 426.024 270.844C426.024 271.362 425.562 271.67 424.456 271.67C423.518 271.67 422.51 271.362 421.852 270.928L421.18 272.258C421.852 272.734 423.098 273.098 424.344 273.098Z" fill="#BDBDBD"/>
<path d="M365.852 307.14C367.462 307.14 368.834 306.566 369.744 305.502L368.568 304.382C367.854 305.166 366.972 305.544 365.95 305.544C363.92 305.544 362.45 304.116 362.45 302.1C362.45 300.084 363.92 298.656 365.95 298.656C366.972 298.656 367.854 299.034 368.568 299.804L369.744 298.698C368.834 297.634 367.462 297.06 365.866 297.06C362.856 297.06 360.616 299.174 360.616 302.1C360.616 305.026 362.856 307.14 365.852 307.14ZM374.308 299.44C373.104 299.44 371.942 299.748 371.144 300.364L371.83 301.638C372.39 301.176 373.258 300.896 374.098 300.896C375.344 300.896 375.96 301.498 375.96 302.52V302.632H374.028C371.76 302.632 370.92 303.612 370.92 304.858C370.92 306.16 371.998 307.098 373.706 307.098C374.826 307.098 375.638 306.734 376.058 306.09V307H377.71V302.618C377.71 300.462 376.464 299.44 374.308 299.44ZM374.07 305.824C373.174 305.824 372.642 305.418 372.642 304.788C372.642 304.242 372.964 303.794 374.154 303.794H375.96V304.662C375.666 305.432 374.924 305.824 374.07 305.824ZM381.821 300.616V299.524H380.155V307H381.905V303.374C381.905 301.848 382.745 301.064 384.075 301.064C384.201 301.064 384.327 301.078 384.481 301.106V299.44C383.235 299.44 382.325 299.832 381.821 300.616ZM387.832 300.616V299.524H386.166V307H387.916V303.374C387.916 301.848 388.756 301.064 390.086 301.064C390.212 301.064 390.338 301.078 390.492 301.106V299.44C389.246 299.44 388.336 299.832 387.832 300.616ZM393.059 298.292C393.717 298.292 394.179 297.816 394.179 297.2C394.179 296.626 393.703 296.192 393.059 296.192C392.415 296.192 391.939 296.654 391.939 297.242C391.939 297.83 392.415 298.292 393.059 298.292ZM392.177 307H393.927V299.524H392.177V307ZM403.451 303.304C403.451 300.966 401.855 299.44 399.671 299.44C397.445 299.44 395.807 301.036 395.807 303.262C395.807 305.488 397.431 307.098 399.937 307.098C401.225 307.098 402.275 306.678 402.947 305.88L402.009 304.802C401.477 305.348 400.819 305.614 399.979 305.614C398.677 305.614 397.767 304.914 397.557 303.822H403.423C403.437 303.654 403.451 303.444 403.451 303.304ZM399.671 300.84C400.819 300.84 401.645 301.582 401.785 302.66H397.543C397.711 301.568 398.537 300.84 399.671 300.84ZM406.998 300.616V299.524H405.332V307H407.082V303.374C407.082 301.848 407.922 301.064 409.252 301.064C409.378 301.064 409.504 301.078 409.658 301.106V299.44C408.412 299.44 407.502 299.832 406.998 300.616Z" fill="#BDBDBD"/>
<path d="M373.902 331.2L371.396 338.69L368.918 331.2H367.238L364.704 338.648L362.268 331.2H360.378L363.626 341H365.572L368.036 333.748L370.458 341H372.39L375.638 331.2H373.902ZM383.62 337.304C383.62 334.966 382.024 333.44 379.84 333.44C377.614 333.44 375.976 335.036 375.976 337.262C375.976 339.488 377.6 341.098 380.106 341.098C381.394 341.098 382.444 340.678 383.116 339.88L382.178 338.802C381.646 339.348 380.988 339.614 380.148 339.614C378.846 339.614 377.936 338.914 377.726 337.822H383.592C383.606 337.654 383.62 337.444 383.62 337.304ZM379.84 334.84C380.988 334.84 381.814 335.582 381.954 336.66H377.712C377.88 335.568 378.706 334.84 379.84 334.84ZM392.426 333.44C391.222 333.44 390.06 333.748 389.262 334.364L389.948 335.638C390.508 335.176 391.376 334.896 392.216 334.896C393.462 334.896 394.078 335.498 394.078 336.52V336.632H392.146C389.878 336.632 389.038 337.612 389.038 338.858C389.038 340.16 390.116 341.098 391.824 341.098C392.944 341.098 393.756 340.734 394.176 340.09V341H395.828V336.618C395.828 334.462 394.582 333.44 392.426 333.44ZM392.188 339.824C391.292 339.824 390.76 339.418 390.76 338.788C390.76 338.242 391.082 337.794 392.272 337.794H394.078V338.662C393.784 339.432 393.042 339.824 392.188 339.824ZM399.94 334.616V333.524H398.274V341H400.024V337.374C400.024 335.848 400.864 335.064 402.194 335.064C402.32 335.064 402.446 335.078 402.6 335.106V333.44C401.354 333.44 400.444 333.832 399.94 334.616ZM411.244 337.304C411.244 334.966 409.648 333.44 407.464 333.44C405.238 333.44 403.6 335.036 403.6 337.262C403.6 339.488 405.224 341.098 407.73 341.098C409.018 341.098 410.068 340.678 410.74 339.88L409.802 338.802C409.27 339.348 408.612 339.614 407.772 339.614C406.47 339.614 405.56 338.914 405.35 337.822H411.216C411.23 337.654 411.244 337.444 411.244 337.304ZM407.464 334.84C408.612 334.84 409.438 335.582 409.578 336.66H405.336C405.504 335.568 406.33 334.84 407.464 334.84ZM421.436 333.44C420.4 333.44 419.518 333.776 418.944 334.392V330.612H417.194V341H418.944V337.22C418.944 335.722 419.784 334.966 421.03 334.966C422.15 334.966 422.808 335.61 422.808 336.94V341H424.558V336.716C424.558 334.462 423.228 333.44 421.436 333.44ZM427.86 332.292C428.518 332.292 428.98 331.816 428.98 331.2C428.98 330.626 428.504 330.192 427.86 330.192C427.216 330.192 426.74 330.654 426.74 331.242C426.74 331.83 427.216 332.292 427.86 332.292ZM426.978 341H428.728V333.524H426.978V341ZM432.891 334.616V333.524H431.225V341H432.975V337.374C432.975 335.848 433.815 335.064 435.145 335.064C435.271 335.064 435.397 335.078 435.551 335.106V333.44C434.305 333.44 433.395 333.832 432.891 334.616ZM438.118 332.292C438.776 332.292 439.238 331.816 439.238 331.2C439.238 330.626 438.762 330.192 438.118 330.192C437.474 330.192 436.998 330.654 436.998 331.242C436.998 331.83 437.474 332.292 438.118 332.292ZM437.236 341H438.986V333.524H437.236V341ZM445.725 333.44C444.633 333.44 443.723 333.804 443.149 334.49V333.524H441.483V341H443.233V337.22C443.233 335.722 444.073 334.966 445.319 334.966C446.439 334.966 447.097 335.61 447.097 336.94V341H448.847V336.716C448.847 334.462 447.517 333.44 445.725 333.44ZM457.089 333.524V334.518C456.473 333.776 455.549 333.44 454.499 333.44C452.357 333.44 450.719 334.868 450.719 337.038C450.719 339.208 452.357 340.664 454.499 340.664C455.507 340.664 456.389 340.342 457.005 339.67V340.062C457.005 341.574 456.277 342.33 454.625 342.33C453.589 342.33 452.525 341.98 451.867 341.434L451.083 342.75C451.937 343.45 453.323 343.814 454.723 343.814C457.341 343.814 458.755 342.582 458.755 339.866V333.524H457.089ZM454.765 339.18C453.435 339.18 452.483 338.312 452.483 337.038C452.483 335.778 453.435 334.924 454.765 334.924C456.081 334.924 457.033 335.778 457.033 337.038C457.033 338.312 456.081 339.18 454.765 339.18Z" fill="#BDBDBD"/>
<path d="M368.26 369.904C369.016 369.498 369.52 368.756 369.52 367.748C369.52 366.194 368.26 365.2 365.908 365.2H361.316V375H366.188C368.708 375 370.024 374.02 370.024 372.34C370.024 371.066 369.31 370.24 368.26 369.904ZM365.712 366.628C366.972 366.628 367.686 367.076 367.686 367.986C367.686 368.882 366.972 369.33 365.712 369.33H363.136V366.628H365.712ZM366.076 373.572H363.136V370.744H366.076C367.448 370.744 368.19 371.178 368.19 372.158C368.19 373.138 367.448 373.572 366.076 373.572ZM371.998 375H373.748V364.612H371.998V375ZM379.605 375.098C381.929 375.098 383.595 373.502 383.595 371.262C383.595 369.022 381.929 367.44 379.605 367.44C377.309 367.44 375.629 369.022 375.629 371.262C375.629 373.502 377.309 375.098 379.605 375.098ZM379.605 373.6C378.345 373.6 377.393 372.69 377.393 371.262C377.393 369.834 378.345 368.924 379.605 368.924C380.879 368.924 381.831 369.834 381.831 371.262C381.831 372.69 380.879 373.6 379.605 373.6ZM391.223 367.524V368.518C390.607 367.776 389.683 367.44 388.633 367.44C386.491 367.44 384.853 368.868 384.853 371.038C384.853 373.208 386.491 374.664 388.633 374.664C389.641 374.664 390.523 374.342 391.139 373.67V374.062C391.139 375.574 390.411 376.33 388.759 376.33C387.723 376.33 386.659 375.98 386.001 375.434L385.217 376.75C386.071 377.45 387.457 377.814 388.857 377.814C391.475 377.814 392.889 376.582 392.889 373.866V367.524H391.223ZM388.899 373.18C387.569 373.18 386.617 372.312 386.617 371.038C386.617 369.778 387.569 368.924 388.899 368.924C390.215 368.924 391.167 369.778 391.167 371.038C391.167 372.312 390.215 373.18 388.899 373.18Z" fill="#BDBDBD"/>
</g>
<path d="M551.056 218.816V221.008H545.872V223.424H550.8V225.616H545.872V230H543.376V218.816H551.056ZM560.489 228.752C559.518 229.669 558.377 230.128 557.065 230.128C555.764 230.128 554.686 229.728 553.833 228.928C552.98 228.117 552.553 227.035 552.553 225.68C552.553 224.325 552.985 223.248 553.849 222.448C554.724 221.648 555.753 221.248 556.937 221.248C558.121 221.248 559.124 221.605 559.945 222.32C560.777 223.035 561.193 224.016 561.193 225.264V226.544H554.921C554.996 227.013 555.241 227.397 555.657 227.696C556.073 227.995 556.542 228.144 557.065 228.144C557.908 228.144 558.601 227.861 559.145 227.296L560.489 228.752ZM558.761 224.832C558.708 224.32 558.516 223.925 558.185 223.648C557.854 223.371 557.449 223.232 556.969 223.232C556.5 223.232 556.068 223.376 555.673 223.664C555.278 223.952 555.049 224.341 554.985 224.832H558.761ZM570.336 230H568.08V228.96C567.461 229.739 566.693 230.128 565.776 230.128C564.869 230.128 564.106 229.867 563.488 229.344C562.869 228.811 562.56 228.107 562.56 227.232C562.56 226.347 562.88 225.685 563.52 225.248C564.16 224.811 565.034 224.592 566.144 224.592H567.936V224.544C567.936 223.627 567.45 223.168 566.48 223.168C566.064 223.168 565.621 223.253 565.152 223.424C564.693 223.584 564.304 223.787 563.984 224.032L562.912 222.48C564.042 221.659 565.333 221.248 566.784 221.248C567.829 221.248 568.682 221.509 569.344 222.032C570.005 222.555 570.336 223.381 570.336 224.512V230ZM567.92 226.72V226.304H566.416C565.456 226.304 564.976 226.603 564.976 227.2C564.976 227.509 565.088 227.749 565.312 227.92C565.546 228.08 565.877 228.16 566.304 228.16C566.73 228.16 567.104 228.032 567.424 227.776C567.754 227.509 567.92 227.157 567.92 226.72ZM575.394 223.12V226.976C575.394 227.307 575.479 227.568 575.65 227.76C575.82 227.941 576.023 228.032 576.258 228.032C576.706 228.032 577.084 227.829 577.394 227.424L578.29 229.104C577.543 229.787 576.754 230.128 575.922 230.128C575.1 230.128 574.402 229.856 573.826 229.312C573.26 228.768 572.978 228.027 572.978 227.088V223.12H571.97V221.392H572.978V218.816H575.394V221.392H577.474V223.12H575.394ZM585.229 226.032V221.392H587.645V230H585.229V228.864C584.631 229.707 583.858 230.128 582.909 230.128C581.97 230.128 581.181 229.835 580.541 229.248C579.901 228.651 579.581 227.771 579.581 226.608V221.392H581.997V226.08C581.997 227.403 582.482 228.064 583.453 228.064C583.933 228.064 584.349 227.893 584.701 227.552C585.053 227.2 585.229 226.693 585.229 226.032ZM594.539 223.504C593.824 223.504 593.291 223.76 592.939 224.272C592.587 224.773 592.411 225.44 592.411 226.272V230H590.011V221.392H592.411V222.528C592.72 222.176 593.104 221.877 593.563 221.632C594.032 221.387 594.507 221.259 594.987 221.248L595.003 223.504H594.539ZM604.145 228.752C603.174 229.669 602.033 230.128 600.721 230.128C599.42 230.128 598.342 229.728 597.489 228.928C596.636 228.117 596.209 227.035 596.209 225.68C596.209 224.325 596.641 223.248 597.505 222.448C598.38 221.648 599.409 221.248 600.593 221.248C601.777 221.248 602.78 221.605 603.601 222.32C604.433 223.035 604.849 224.016 604.849 225.264V226.544H598.577C598.652 227.013 598.897 227.397 599.313 227.696C599.729 227.995 600.198 228.144 600.721 228.144C601.564 228.144 602.257 227.861 602.801 227.296L604.145 228.752ZM602.417 224.832C602.364 224.32 602.172 223.925 601.841 223.648C601.51 223.371 601.105 223.232 600.625 223.232C600.156 223.232 599.724 223.376 599.329 223.664C598.934 223.952 598.705 224.341 598.641 224.832H602.417ZM613.16 227.328C613.16 228.171 612.845 228.848 612.216 229.36C611.597 229.872 610.808 230.128 609.848 230.128C609.208 230.128 608.541 230.016 607.848 229.792C607.154 229.557 606.53 229.216 605.976 228.768L607.032 227.264C607.928 227.957 608.882 228.304 609.896 228.304C610.205 228.304 610.45 228.245 610.632 228.128C610.813 228 610.904 227.835 610.904 227.632C610.904 227.429 610.776 227.243 610.52 227.072C610.274 226.901 609.912 226.741 609.432 226.592C608.962 226.443 608.6 226.315 608.344 226.208C608.098 226.101 607.816 225.947 607.496 225.744C606.845 225.339 606.52 224.741 606.52 223.952C606.52 223.152 606.84 222.501 607.48 222C608.12 221.499 608.946 221.248 609.96 221.248C610.973 221.248 611.986 221.589 613 222.272L612.104 223.872C611.357 223.36 610.61 223.104 609.864 223.104C609.128 223.104 608.76 223.307 608.76 223.712C608.76 223.936 608.877 224.112 609.112 224.24C609.346 224.368 609.736 224.517 610.28 224.688C610.824 224.859 611.208 224.992 611.432 225.088C611.666 225.173 611.944 225.312 612.264 225.504C612.861 225.867 613.16 226.475 613.16 227.328Z" fill="white"/>
<path d="M550.26 267.904C551.016 267.498 551.52 266.756 551.52 265.748C551.52 264.194 550.26 263.2 547.908 263.2H543.316V273H548.188C550.708 273 552.024 272.02 552.024 270.34C552.024 269.066 551.31 268.24 550.26 267.904ZM547.712 264.628C548.972 264.628 549.686 265.076 549.686 265.986C549.686 266.882 548.972 267.33 547.712 267.33H545.136V264.628H547.712ZM548.076 271.572H545.136V268.744H548.076C549.448 268.744 550.19 269.178 550.19 270.158C550.19 271.138 549.448 271.572 548.076 271.572ZM559.486 265.524V269.304C559.486 270.802 558.66 271.558 557.442 271.558C556.336 271.558 555.692 270.914 555.692 269.556V265.524H553.942V269.794C553.942 272.048 555.244 273.098 557.162 273.098C558.128 273.098 559.01 272.734 559.57 272.048V273H561.236V265.524H559.486ZM566.038 273.098C568.138 273.098 569.426 272.188 569.426 270.788C569.426 267.862 564.806 269.206 564.806 267.694C564.806 267.204 565.31 266.854 566.374 266.854C567.088 266.854 567.802 266.994 568.516 267.414L569.188 266.084C568.516 265.678 567.382 265.44 566.388 265.44C564.372 265.44 563.098 266.364 563.098 267.778C563.098 270.76 567.718 269.416 567.718 270.844C567.718 271.362 567.256 271.67 566.15 271.67C565.212 271.67 564.204 271.362 563.546 270.928L562.874 272.258C563.546 272.734 564.792 273.098 566.038 273.098ZM572.015 264.292C572.673 264.292 573.135 263.816 573.135 263.2C573.135 262.626 572.659 262.192 572.015 262.192C571.371 262.192 570.895 262.654 570.895 263.242C570.895 263.83 571.371 264.292 572.015 264.292ZM571.133 273H572.883V265.524H571.133V273ZM579.622 265.44C578.53 265.44 577.62 265.804 577.046 266.49V265.524H575.38V273H577.13V269.22C577.13 267.722 577.97 266.966 579.216 266.966C580.336 266.966 580.994 267.61 580.994 268.94V273H582.744V268.716C582.744 266.462 581.414 265.44 579.622 265.44ZM592.26 269.304C592.26 266.966 590.664 265.44 588.48 265.44C586.254 265.44 584.616 267.036 584.616 269.262C584.616 271.488 586.24 273.098 588.746 273.098C590.034 273.098 591.084 272.678 591.756 271.88L590.818 270.802C590.286 271.348 589.628 271.614 588.788 271.614C587.486 271.614 586.576 270.914 586.366 269.822H592.232C592.246 269.654 592.26 269.444 592.26 269.304ZM588.48 266.84C589.628 266.84 590.454 267.582 590.594 268.66H586.352C586.52 267.568 587.346 266.84 588.48 266.84ZM596.451 273.098C598.551 273.098 599.839 272.188 599.839 270.788C599.839 267.862 595.219 269.206 595.219 267.694C595.219 267.204 595.723 266.854 596.787 266.854C597.501 266.854 598.215 266.994 598.929 267.414L599.601 266.084C598.929 265.678 597.795 265.44 596.801 265.44C594.785 265.44 593.511 266.364 593.511 267.778C593.511 270.76 598.131 269.416 598.131 270.844C598.131 271.362 597.669 271.67 596.563 271.67C595.625 271.67 594.617 271.362 593.959 270.928L593.287 272.258C593.959 272.734 595.205 273.098 596.451 273.098ZM603.856 273.098C605.956 273.098 607.244 272.188 607.244 270.788C607.244 267.862 602.624 269.206 602.624 267.694C602.624 267.204 603.128 266.854 604.192 266.854C604.906 266.854 605.62 266.994 606.334 267.414L607.006 266.084C606.334 265.678 605.2 265.44 604.206 265.44C602.19 265.44 600.916 266.364 600.916 267.778C600.916 270.76 605.536 269.416 605.536 270.844C605.536 271.362 605.074 271.67 603.968 271.67C603.03 271.67 602.022 271.362 601.364 270.928L600.692 272.258C601.364 272.734 602.61 273.098 603.856 273.098ZM623.912 273L623.898 263.2H622.4L618.578 269.696L614.686 263.2H613.188V273H614.924V266.588L618.144 271.88H618.956L622.176 266.504L622.19 273H623.912ZM629.447 265.44C628.243 265.44 627.081 265.748 626.283 266.364L626.969 267.638C627.529 267.176 628.397 266.896 629.237 266.896C630.483 266.896 631.099 267.498 631.099 268.52V268.632H629.167C626.899 268.632 626.059 269.612 626.059 270.858C626.059 272.16 627.137 273.098 628.845 273.098C629.965 273.098 630.777 272.734 631.197 272.09V273H632.849V268.618C632.849 266.462 631.603 265.44 629.447 265.44ZM629.209 271.824C628.313 271.824 627.781 271.418 627.781 270.788C627.781 270.242 628.103 269.794 629.293 269.794H631.099V270.662C630.805 271.432 630.063 271.824 629.209 271.824ZM636.961 266.616V265.524H635.295V273H637.045V269.374C637.045 267.848 637.885 267.064 639.215 267.064C639.341 267.064 639.467 267.078 639.621 267.106V265.44C638.375 265.44 637.465 265.832 636.961 266.616ZM646.948 273H649.076L645.66 268.66L648.782 265.524H646.682L643.056 268.884V262.612H641.306V273H643.056V271.026L644.358 269.794L646.948 273ZM657.12 269.304C657.12 266.966 655.524 265.44 653.34 265.44C651.114 265.44 649.476 267.036 649.476 269.262C649.476 271.488 651.1 273.098 653.606 273.098C654.894 273.098 655.944 272.678 656.616 271.88L655.678 270.802C655.146 271.348 654.488 271.614 653.648 271.614C652.346 271.614 651.436 270.914 651.226 269.822H657.092C657.106 269.654 657.12 269.444 657.12 269.304ZM653.34 266.84C654.488 266.84 655.314 267.582 655.454 268.66H651.212C651.38 267.568 652.206 266.84 653.34 266.84ZM663.005 271.348C662.739 271.558 662.389 271.656 662.025 271.656C661.353 271.656 660.989 271.264 660.989 270.536V266.98H662.991V265.58H660.989V263.872H659.239V265.58H658.007V266.98H659.239V270.578C659.239 272.23 660.177 273.098 661.815 273.098C662.445 273.098 663.075 272.93 663.495 272.594L663.005 271.348ZM666.016 264.292C666.674 264.292 667.136 263.816 667.136 263.2C667.136 262.626 666.66 262.192 666.016 262.192C665.372 262.192 664.896 262.654 664.896 263.242C664.896 263.83 665.372 264.292 666.016 264.292ZM665.134 273H666.884V265.524H665.134V273ZM673.623 265.44C672.531 265.44 671.621 265.804 671.047 266.49V265.524H669.381V273H671.131V269.22C671.131 267.722 671.971 266.966 673.217 266.966C674.337 266.966 674.995 267.61 674.995 268.94V273H676.745V268.716C676.745 266.462 675.415 265.44 673.623 265.44ZM684.988 265.524V266.518C684.372 265.776 683.448 265.44 682.398 265.44C680.256 265.44 678.618 266.868 678.618 269.038C678.618 271.208 680.256 272.664 682.398 272.664C683.406 272.664 684.288 272.342 684.904 271.67V272.062C684.904 273.574 684.176 274.33 682.524 274.33C681.488 274.33 680.424 273.98 679.766 273.434L678.982 274.75C679.836 275.45 681.222 275.814 682.622 275.814C685.24 275.814 686.654 274.582 686.654 271.866V265.524H684.988ZM682.664 271.18C681.334 271.18 680.382 270.312 680.382 269.038C680.382 267.778 681.334 266.924 682.664 266.924C683.98 266.924 684.932 267.778 684.932 269.038C684.932 270.312 683.98 271.18 682.664 271.18Z" fill="#BDBDBD"/>
<path d="M547.53 307.14C550.204 307.14 551.814 305.586 551.814 302.73V297.2H550.022V302.66C550.022 304.676 549.126 305.544 547.544 305.544C545.962 305.544 545.052 304.676 545.052 302.66V297.2H543.232V302.73C543.232 305.586 544.842 307.14 547.53 307.14ZM556.705 307.098C558.805 307.098 560.093 306.188 560.093 304.788C560.093 301.862 555.473 303.206 555.473 301.694C555.473 301.204 555.977 300.854 557.041 300.854C557.755 300.854 558.469 300.994 559.183 301.414L559.855 300.084C559.183 299.678 558.049 299.44 557.055 299.44C555.039 299.44 553.765 300.364 553.765 301.778C553.765 304.76 558.385 303.416 558.385 304.844C558.385 305.362 557.923 305.67 556.817 305.67C555.879 305.67 554.871 305.362 554.213 304.928L553.541 306.258C554.213 306.734 555.459 307.098 556.705 307.098ZM568.828 303.304C568.828 300.966 567.232 299.44 565.048 299.44C562.822 299.44 561.184 301.036 561.184 303.262C561.184 305.488 562.808 307.098 565.314 307.098C566.602 307.098 567.652 306.678 568.324 305.88L567.386 304.802C566.854 305.348 566.196 305.614 565.356 305.614C564.054 305.614 563.144 304.914 562.934 303.822H568.8C568.814 303.654 568.828 303.444 568.828 303.304ZM565.048 300.84C566.196 300.84 567.022 301.582 567.162 302.66H562.92C563.088 301.568 563.914 300.84 565.048 300.84ZM572.375 300.616V299.524H570.709V307H572.459V303.374C572.459 301.848 573.299 301.064 574.629 301.064C574.755 301.064 574.881 301.078 575.035 301.106V299.44C573.789 299.44 572.879 299.832 572.375 300.616ZM588.361 307H590.265L585.841 297.2H584.049L579.639 307H581.515L582.481 304.732H587.381L588.361 307ZM583.097 303.304L584.931 299.02L586.779 303.304H583.097ZM595.785 299.44C594.693 299.44 593.783 299.804 593.209 300.49V299.524H591.543V307H593.293V303.22C593.293 301.722 594.133 300.966 595.379 300.966C596.499 300.966 597.157 301.61 597.157 302.94V307H598.907V302.716C598.907 300.462 597.577 299.44 595.785 299.44ZM604.183 299.44C602.979 299.44 601.817 299.748 601.019 300.364L601.705 301.638C602.265 301.176 603.133 300.896 603.973 300.896C605.219 300.896 605.835 301.498 605.835 302.52V302.632H603.903C601.635 302.632 600.795 303.612 600.795 304.858C600.795 306.16 601.873 307.098 603.581 307.098C604.701 307.098 605.513 306.734 605.933 306.09V307H607.585V302.618C607.585 300.462 606.339 299.44 604.183 299.44ZM603.945 305.824C603.049 305.824 602.517 305.418 602.517 304.788C602.517 304.242 602.839 303.794 604.029 303.794H605.835V304.662C605.541 305.432 604.799 305.824 603.945 305.824ZM610.031 307H611.781V296.612H610.031V307ZM619.598 299.524L617.232 305.054L614.88 299.524H613.06L616.322 307.028L616.196 307.322C615.86 308.064 615.496 308.358 614.88 308.358C614.404 308.358 613.928 308.162 613.592 307.84L612.892 309.128C613.368 309.562 614.152 309.814 614.894 309.814C616.14 309.814 617.092 309.296 617.778 307.602L621.278 299.524H619.598ZM626.781 305.348C626.515 305.558 626.165 305.656 625.801 305.656C625.129 305.656 624.765 305.264 624.765 304.536V300.98H626.767V299.58H624.765V297.872H623.015V299.58H621.783V300.98H623.015V304.578C623.015 306.23 623.953 307.098 625.591 307.098C626.221 307.098 626.851 306.93 627.271 306.594L626.781 305.348ZM629.792 298.292C630.45 298.292 630.912 297.816 630.912 297.2C630.912 296.626 630.436 296.192 629.792 296.192C629.148 296.192 628.672 296.654 628.672 297.242C628.672 297.83 629.148 298.292 629.792 298.292ZM628.91 307H630.66V299.524H628.91V307ZM636.587 307.098C638.043 307.098 639.205 306.468 639.779 305.348L638.435 304.564C637.987 305.278 637.315 305.6 636.573 305.6C635.285 305.6 634.305 304.718 634.305 303.262C634.305 301.82 635.285 300.924 636.573 300.924C637.315 300.924 637.987 301.246 638.435 301.96L639.779 301.176C639.205 300.042 638.043 299.44 636.587 299.44C634.221 299.44 632.541 301.022 632.541 303.262C632.541 305.502 634.221 307.098 636.587 307.098Z" fill="#BDBDBD"/>
<path d="M543.316 341H550.26V339.46H545.136V331.2H543.316V341ZM552.611 332.292C553.269 332.292 553.731 331.816 553.731 331.2C553.731 330.626 553.255 330.192 552.611 330.192C551.967 330.192 551.491 330.654 551.491 331.242C551.491 331.83 551.967 332.292 552.611 332.292ZM551.729 341H553.479V333.524H551.729V341ZM561.296 333.524L558.902 339.068L556.578 333.524H554.758L557.964 341H559.77L562.976 333.524H561.296ZM571.092 337.304C571.092 334.966 569.496 333.44 567.312 333.44C565.086 333.44 563.448 335.036 563.448 337.262C563.448 339.488 565.072 341.098 567.578 341.098C568.866 341.098 569.916 340.678 570.588 339.88L569.65 338.802C569.118 339.348 568.46 339.614 567.62 339.614C566.318 339.614 565.408 338.914 565.198 337.822H571.064C571.078 337.654 571.092 337.444 571.092 337.304ZM567.312 334.84C568.46 334.84 569.286 335.582 569.426 336.66H565.184C565.352 335.568 566.178 334.84 567.312 334.84ZM581.747 341.14C583.357 341.14 584.729 340.566 585.639 339.502L584.463 338.382C583.749 339.166 582.867 339.544 581.845 339.544C579.815 339.544 578.345 338.116 578.345 336.1C578.345 334.084 579.815 332.656 581.845 332.656C582.867 332.656 583.749 333.034 584.463 333.804L585.639 332.698C584.729 331.634 583.357 331.06 581.761 331.06C578.751 331.06 576.511 333.174 576.511 336.1C576.511 339.026 578.751 341.14 581.747 341.14ZM591.656 333.44C590.62 333.44 589.738 333.776 589.164 334.392V330.612H587.414V341H589.164V337.22C589.164 335.722 590.004 334.966 591.25 334.966C592.37 334.966 593.028 335.61 593.028 336.94V341H594.778V336.716C594.778 334.462 593.448 333.44 591.656 333.44ZM600.054 333.44C598.85 333.44 597.688 333.748 596.89 334.364L597.576 335.638C598.136 335.176 599.004 334.896 599.844 334.896C601.09 334.896 601.706 335.498 601.706 336.52V336.632H599.774C597.506 336.632 596.666 337.612 596.666 338.858C596.666 340.16 597.744 341.098 599.452 341.098C600.572 341.098 601.384 340.734 601.804 340.09V341H603.456V336.618C603.456 334.462 602.21 333.44 600.054 333.44ZM599.816 339.824C598.92 339.824 598.388 339.418 598.388 338.788C598.388 338.242 598.71 337.794 599.9 337.794H601.706V338.662C601.412 339.432 600.67 339.824 599.816 339.824ZM609.906 339.348C609.64 339.558 609.29 339.656 608.926 339.656C608.254 339.656 607.89 339.264 607.89 338.536V334.98H609.892V333.58H607.89V331.872H606.14V333.58H604.908V334.98H606.14V338.578C606.14 340.23 607.078 341.098 608.716 341.098C609.346 341.098 609.976 340.93 610.396 340.594L609.906 339.348Z" fill="#BDBDBD"/>
<path d="M547.53 375.14C550.204 375.14 551.814 373.586 551.814 370.73V365.2H550.022V370.66C550.022 372.676 549.126 373.544 547.544 373.544C545.962 373.544 545.052 372.676 545.052 370.66V365.2H543.232V370.73C543.232 373.586 544.842 375.14 547.53 375.14ZM558.637 367.44C557.545 367.44 556.635 367.804 556.061 368.49V367.524H554.395V375H556.145V371.22C556.145 369.722 556.985 368.966 558.231 368.966C559.351 368.966 560.009 369.61 560.009 370.94V375H561.759V370.716C561.759 368.462 560.429 367.44 558.637 367.44ZM564.179 375H565.929V364.612H564.179V375ZM569.308 366.292C569.966 366.292 570.428 365.816 570.428 365.2C570.428 364.626 569.952 364.192 569.308 364.192C568.664 364.192 568.188 364.654 568.188 365.242C568.188 365.83 568.664 366.292 569.308 366.292ZM568.426 375H570.176V367.524H568.426V375ZM582.109 367.44C580.919 367.44 579.911 367.916 579.309 368.686C578.791 367.846 577.881 367.44 576.789 367.44C575.767 367.44 574.899 367.804 574.339 368.476V367.524H572.673V375H574.423V371.206C574.423 369.722 575.207 368.966 576.369 368.966C577.433 368.966 578.049 369.61 578.049 370.94V375H579.799V371.206C579.799 369.722 580.597 368.966 581.745 368.966C582.809 368.966 583.425 369.61 583.425 370.94V375H585.175V370.716C585.175 368.462 583.915 367.44 582.109 367.44ZM588.493 366.292C589.151 366.292 589.613 365.816 589.613 365.2C589.613 364.626 589.137 364.192 588.493 364.192C587.849 364.192 587.373 364.654 587.373 365.242C587.373 365.83 587.849 366.292 588.493 366.292ZM587.611 375H589.361V367.524H587.611V375ZM595.862 373.348C595.596 373.558 595.246 373.656 594.882 373.656C594.21 373.656 593.846 373.264 593.846 372.536V368.98H595.848V367.58H593.846V365.872H592.096V367.58H590.864V368.98H592.096V372.578C592.096 374.23 593.034 375.098 594.672 375.098C595.302 375.098 595.932 374.93 596.352 374.594L595.862 373.348ZM604.773 371.304C604.773 368.966 603.177 367.44 600.993 367.44C598.767 367.44 597.129 369.036 597.129 371.262C597.129 373.488 598.753 375.098 601.259 375.098C602.547 375.098 603.597 374.678 604.269 373.88L603.331 372.802C602.799 373.348 602.141 373.614 601.301 373.614C599.999 373.614 599.089 372.914 598.879 371.822H604.745C604.759 371.654 604.773 371.444 604.773 371.304ZM600.993 368.84C602.141 368.84 602.967 369.582 603.107 370.66H598.865C599.033 369.568 599.859 368.84 600.993 368.84ZM612.226 364.612V368.448C611.638 367.762 610.784 367.44 609.818 367.44C607.648 367.44 606.038 368.938 606.038 371.262C606.038 373.586 607.648 375.098 609.818 375.098C610.84 375.098 611.708 374.748 612.296 374.034V375H613.976V364.612H612.226ZM610.028 373.6C608.768 373.6 607.802 372.69 607.802 371.262C607.802 369.834 608.768 368.924 610.028 368.924C611.288 368.924 612.254 369.834 612.254 371.262C612.254 372.69 611.288 373.6 610.028 373.6ZM623.741 375.14C626.429 375.14 627.703 373.796 627.703 372.228C627.703 368.63 621.893 369.988 621.893 367.902C621.893 367.16 622.509 366.572 624.021 366.572C624.875 366.572 625.841 366.824 626.723 367.342L627.297 365.928C626.443 365.368 625.211 365.06 624.035 365.06C621.347 365.06 620.087 366.404 620.087 367.986C620.087 371.626 625.911 370.24 625.911 372.354C625.911 373.082 625.267 373.628 623.741 373.628C622.537 373.628 621.291 373.18 620.507 372.55L619.877 373.964C620.689 374.664 622.215 375.14 623.741 375.14ZM635.027 367.524V371.304C635.027 372.802 634.201 373.558 632.983 373.558C631.877 373.558 631.233 372.914 631.233 371.556V367.524H629.483V371.794C629.483 374.048 630.785 375.098 632.703 375.098C633.669 375.098 634.551 374.734 635.111 374.048V375H636.777V367.524H635.027ZM643.413 367.44C642.391 367.44 641.523 367.79 640.935 368.504V367.524H639.269V377.716H641.019V374.09C641.621 374.776 642.461 375.098 643.413 375.098C645.597 375.098 647.207 373.586 647.207 371.262C647.207 368.952 645.597 367.44 643.413 367.44ZM643.217 373.6C641.957 373.6 640.991 372.69 640.991 371.262C640.991 369.834 641.957 368.924 643.217 368.924C644.477 368.924 645.429 369.834 645.429 371.262C645.429 372.69 644.477 373.6 643.217 373.6ZM653.21 367.44C652.188 367.44 651.32 367.79 650.732 368.504V367.524H649.066V377.716H650.816V374.09C651.418 374.776 652.258 375.098 653.21 375.098C655.394 375.098 657.004 373.586 657.004 371.262C657.004 368.952 655.394 367.44 653.21 367.44ZM653.014 373.6C651.754 373.6 650.788 372.69 650.788 371.262C650.788 369.834 651.754 368.924 653.014 368.924C654.274 368.924 655.226 369.834 655.226 371.262C655.226 372.69 654.274 373.6 653.014 373.6ZM662.224 375.098C664.548 375.098 666.214 373.502 666.214 371.262C666.214 369.022 664.548 367.44 662.224 367.44C659.928 367.44 658.248 369.022 658.248 371.262C658.248 373.502 659.928 375.098 662.224 375.098ZM662.224 373.6C660.964 373.6 660.012 372.69 660.012 371.262C660.012 369.834 660.964 368.924 662.224 368.924C663.498 368.924 664.45 369.834 664.45 371.262C664.45 372.69 663.498 373.6 662.224 373.6ZM669.753 368.616V367.524H668.087V375H669.837V371.374C669.837 369.848 670.677 369.064 672.007 369.064C672.133 369.064 672.259 369.078 672.413 369.106V367.44C671.167 367.44 670.257 367.832 669.753 368.616ZM678.375 373.348C678.109 373.558 677.759 373.656 677.395 373.656C676.723 373.656 676.359 373.264 676.359 372.536V368.98H678.361V367.58H676.359V365.872H674.609V367.58H673.377V368.98H674.609V372.578C674.609 374.23 675.547 375.098 677.185 375.098C677.815 375.098 678.445 374.93 678.865 374.594L678.375 373.348Z" fill="#BDBDBD"/>
<g clip-path="url(#clip4)">
<path d="M730.448 222.528C730.448 224.32 729.739 225.477 728.32 226L731.152 230H728.08L725.6 226.432H723.872V230H721.376V218.816H725.616C727.355 218.816 728.592 219.109 729.328 219.696C730.075 220.283 730.448 221.227 730.448 222.528ZM725.696 224.272C726.549 224.272 727.131 224.133 727.44 223.856C727.749 223.579 727.904 223.141 727.904 222.544C727.904 221.936 727.744 221.52 727.424 221.296C727.104 221.072 726.544 220.96 725.744 220.96H723.872V224.272H725.696ZM740.317 228.752C739.346 229.669 738.205 230.128 736.893 230.128C735.592 230.128 734.514 229.728 733.661 228.928C732.808 228.117 732.381 227.035 732.381 225.68C732.381 224.325 732.813 223.248 733.677 222.448C734.552 221.648 735.581 221.248 736.765 221.248C737.949 221.248 738.952 221.605 739.773 222.32C740.605 223.035 741.021 224.016 741.021 225.264V226.544H734.749C734.824 227.013 735.069 227.397 735.485 227.696C735.901 227.995 736.37 228.144 736.893 228.144C737.736 228.144 738.429 227.861 738.973 227.296L740.317 228.752ZM738.589 224.832C738.536 224.32 738.344 223.925 738.013 223.648C737.682 223.371 737.277 223.232 736.797 223.232C736.328 223.232 735.896 223.376 735.501 223.664C735.106 223.952 734.877 224.341 734.813 224.832H738.589ZM749.332 227.328C749.332 228.171 749.017 228.848 748.388 229.36C747.769 229.872 746.98 230.128 746.02 230.128C745.38 230.128 744.713 230.016 744.02 229.792C743.326 229.557 742.702 229.216 742.148 228.768L743.204 227.264C744.1 227.957 745.054 228.304 746.068 228.304C746.377 228.304 746.622 228.245 746.804 228.128C746.985 228 747.076 227.835 747.076 227.632C747.076 227.429 746.948 227.243 746.692 227.072C746.446 226.901 746.084 226.741 745.604 226.592C745.134 226.443 744.772 226.315 744.516 226.208C744.27 226.101 743.988 225.947 743.668 225.744C743.017 225.339 742.692 224.741 742.692 223.952C742.692 223.152 743.012 222.501 743.652 222C744.292 221.499 745.118 221.248 746.132 221.248C747.145 221.248 748.158 221.589 749.172 222.272L748.276 223.872C747.529 223.36 746.782 223.104 746.036 223.104C745.3 223.104 744.932 223.307 744.932 223.712C744.932 223.936 745.049 224.112 745.284 224.24C745.518 224.368 745.908 224.517 746.452 224.688C746.996 224.859 747.38 224.992 747.604 225.088C747.838 225.173 748.116 225.312 748.436 225.504C749.033 225.867 749.332 226.475 749.332 227.328ZM753.184 225.696C753.184 226.4 753.381 226.976 753.776 227.424C754.181 227.861 754.693 228.08 755.312 228.08C755.941 228.08 756.453 227.861 756.848 227.424C757.253 226.976 757.456 226.4 757.456 225.696C757.456 224.992 757.253 224.416 756.848 223.968C756.453 223.52 755.941 223.296 755.312 223.296C754.693 223.296 754.181 223.52 753.776 223.968C753.381 224.416 753.184 224.992 753.184 225.696ZM759.872 225.696C759.872 226.944 759.44 227.995 758.576 228.848C757.712 229.701 756.624 230.128 755.312 230.128C754.011 230.128 752.928 229.701 752.064 228.848C751.2 227.995 750.768 226.944 750.768 225.696C750.768 224.448 751.2 223.397 752.064 222.544C752.928 221.68 754.011 221.248 755.312 221.248C756.624 221.248 757.712 221.68 758.576 222.544C759.44 223.397 759.872 224.448 759.872 225.696ZM767.307 226.032V221.392H769.723V230H767.307V228.864C766.709 229.707 765.936 230.128 764.987 230.128C764.048 230.128 763.259 229.835 762.619 229.248C761.979 228.651 761.659 227.771 761.659 226.608V221.392H764.075V226.08C764.075 227.403 764.56 228.064 765.531 228.064C766.011 228.064 766.427 227.893 766.779 227.552C767.131 227.2 767.307 226.693 767.307 226.032ZM776.617 223.504C775.902 223.504 775.369 223.76 775.017 224.272C774.665 224.773 774.489 225.44 774.489 226.272V230H772.089V221.392H774.489V222.528C774.798 222.176 775.182 221.877 775.641 221.632C776.11 221.387 776.585 221.259 777.065 221.248L777.081 223.504H776.617ZM782.895 228C783.695 228 784.415 227.6 785.055 226.8L786.479 228.4C785.37 229.552 784.17 230.128 782.879 230.128C781.589 230.128 780.495 229.723 779.599 228.912C778.714 228.091 778.271 227.024 778.271 225.712C778.271 224.389 778.719 223.317 779.615 222.496C780.522 221.664 781.594 221.248 782.831 221.248C783.45 221.248 784.074 221.376 784.703 221.632C785.343 221.888 785.903 222.267 786.383 222.768L785.135 224.4C784.858 224.069 784.517 223.813 784.111 223.632C783.717 223.451 783.322 223.36 782.927 223.36C782.298 223.36 781.754 223.568 781.295 223.984C780.847 224.389 780.623 224.96 780.623 225.696C780.623 226.421 780.847 226.987 781.295 227.392C781.754 227.797 782.287 228 782.895 228ZM795.636 228.752C794.665 229.669 793.524 230.128 792.212 230.128C790.91 230.128 789.833 229.728 788.98 228.928C788.126 228.117 787.7 227.035 787.7 225.68C787.7 224.325 788.132 223.248 788.996 222.448C789.87 221.648 790.9 221.248 792.084 221.248C793.268 221.248 794.27 221.605 795.092 222.32C795.924 223.035 796.34 224.016 796.34 225.264V226.544H790.068C790.142 227.013 790.388 227.397 790.804 227.696C791.22 227.995 791.689 228.144 792.212 228.144C793.054 228.144 793.748 227.861 794.292 227.296L795.636 228.752ZM793.908 224.832C793.854 224.32 793.662 223.925 793.332 223.648C793.001 223.371 792.596 223.232 792.116 223.232C791.646 223.232 791.214 223.376 790.82 223.664C790.425 223.952 790.196 224.341 790.132 224.832H793.908ZM804.65 227.328C804.65 228.171 804.336 228.848 803.706 229.36C803.088 229.872 802.298 230.128 801.338 230.128C800.698 230.128 800.032 230.016 799.338 229.792C798.645 229.557 798.021 229.216 797.466 228.768L798.522 227.264C799.418 227.957 800.373 228.304 801.386 228.304C801.696 228.304 801.941 228.245 802.122 228.128C802.304 228 802.394 227.835 802.394 227.632C802.394 227.429 802.266 227.243 802.01 227.072C801.765 226.901 801.402 226.741 800.922 226.592C800.453 226.443 800.09 226.315 799.834 226.208C799.589 226.101 799.306 225.947 798.986 225.744C798.336 225.339 798.01 224.741 798.01 223.952C798.01 223.152 798.33 222.501 798.97 222C799.61 221.499 800.437 221.248 801.45 221.248C802.464 221.248 803.477 221.589 804.49 222.272L803.594 223.872C802.848 223.36 802.101 223.104 801.354 223.104C800.618 223.104 800.25 223.307 800.25 223.712C800.25 223.936 800.368 224.112 800.602 224.24C800.837 224.368 801.226 224.517 801.77 224.688C802.314 224.859 802.698 224.992 802.922 225.088C803.157 225.173 803.434 225.312 803.754 225.504C804.352 225.867 804.65 226.475 804.65 227.328Z" fill="white"/>
<path d="M721.316 273H723.136V263.2H721.316V273ZM730.565 273.14C733.603 273.14 735.843 271.012 735.843 268.1C735.843 265.188 733.603 263.06 730.565 263.06C727.527 263.06 725.287 265.202 725.287 268.1C725.287 270.998 727.527 273.14 730.565 273.14ZM730.565 271.544C728.591 271.544 727.121 270.102 727.121 268.1C727.121 266.098 728.591 264.656 730.565 264.656C732.539 264.656 734.009 266.098 734.009 268.1C734.009 270.102 732.539 271.544 730.565 271.544ZM741.01 273.14C743.698 273.14 744.972 271.796 744.972 270.228C744.972 266.63 739.162 267.988 739.162 265.902C739.162 265.16 739.778 264.572 741.29 264.572C742.144 264.572 743.11 264.824 743.992 265.342L744.566 263.928C743.712 263.368 742.48 263.06 741.304 263.06C738.616 263.06 737.356 264.404 737.356 265.986C737.356 269.626 743.18 268.24 743.18 270.354C743.18 271.082 742.536 271.628 741.01 271.628C739.806 271.628 738.56 271.18 737.776 270.55L737.146 271.964C737.958 272.664 739.484 273.14 741.01 273.14ZM759.362 272.02L758.13 270.844C758.536 270.214 758.83 269.458 759.012 268.604L757.598 268.142C757.472 268.772 757.29 269.332 757.052 269.794L754.938 267.778C756.352 266.98 756.94 266.252 756.94 265.244C756.94 263.914 755.904 263.088 754.322 263.088C752.6 263.088 751.48 264.026 751.48 265.398C751.48 266.112 751.774 266.756 752.572 267.554C750.976 268.45 750.304 269.304 750.304 270.522C750.304 272.062 751.802 273.14 753.874 273.14C755.162 273.14 756.282 272.72 757.164 271.964L758.396 273.154L759.362 272.02ZM754.322 264.334C755.05 264.334 755.456 264.712 755.456 265.272C755.456 265.804 755.092 266.21 753.958 266.826C753.258 266.126 753.076 265.804 753.076 265.37C753.076 264.768 753.538 264.334 754.322 264.334ZM754 271.712C752.796 271.712 752.012 271.152 752.012 270.34C752.012 269.64 752.404 269.122 753.538 268.492L756.128 270.97C755.526 271.46 754.812 271.712 754 271.712ZM772.536 273H774.44L770.016 263.2H768.224L763.814 273H765.69L766.656 270.732H771.556L772.536 273ZM767.272 269.304L769.106 265.02L770.954 269.304H767.272ZM779.96 265.44C778.868 265.44 777.958 265.804 777.384 266.49V265.524H775.718V273H777.468V269.22C777.468 267.722 778.308 266.966 779.554 266.966C780.674 266.966 781.332 267.61 781.332 268.94V273H783.082V268.716C783.082 266.462 781.752 265.44 779.96 265.44ZM791.142 262.612V266.448C790.554 265.762 789.7 265.44 788.734 265.44C786.564 265.44 784.954 266.938 784.954 269.262C784.954 271.586 786.564 273.098 788.734 273.098C789.756 273.098 790.624 272.748 791.212 272.034V273H792.892V262.612H791.142ZM788.944 271.6C787.684 271.6 786.718 270.69 786.718 269.262C786.718 267.834 787.684 266.924 788.944 266.924C790.204 266.924 791.17 267.834 791.17 269.262C791.17 270.69 790.204 271.6 788.944 271.6ZM797.048 266.616V265.524H795.382V273H797.132V269.374C797.132 267.848 797.972 267.064 799.302 267.064C799.428 267.064 799.554 267.078 799.708 267.106V265.44C798.462 265.44 797.552 265.832 797.048 266.616ZM804.684 273.098C807.008 273.098 808.674 271.502 808.674 269.262C808.674 267.022 807.008 265.44 804.684 265.44C802.388 265.44 800.708 267.022 800.708 269.262C800.708 271.502 802.388 273.098 804.684 273.098ZM804.684 271.6C803.424 271.6 802.472 270.69 802.472 269.262C802.472 267.834 803.424 266.924 804.684 266.924C805.958 266.924 806.91 267.834 806.91 269.262C806.91 270.69 805.958 271.6 804.684 271.6ZM811.429 264.292C812.087 264.292 812.549 263.816 812.549 263.2C812.549 262.626 812.073 262.192 811.429 262.192C810.785 262.192 810.309 262.654 810.309 263.242C810.309 263.83 810.785 264.292 811.429 264.292ZM810.547 273H812.297V265.524H810.547V273ZM820.366 262.612V266.448C819.778 265.762 818.924 265.44 817.958 265.44C815.788 265.44 814.178 266.938 814.178 269.262C814.178 271.586 815.788 273.098 817.958 273.098C818.98 273.098 819.848 272.748 820.436 272.034V273H822.116V262.612H820.366ZM818.168 271.6C816.908 271.6 815.942 270.69 815.942 269.262C815.942 267.834 816.908 266.924 818.168 266.924C819.428 266.924 820.394 267.834 820.394 269.262C820.394 270.69 819.428 271.6 818.168 271.6Z" fill="#BDBDBD"/>
<path d="M733.902 297.2L731.396 304.69L728.918 297.2H727.238L724.704 304.648L722.268 297.2H720.378L723.626 307H725.572L728.036 299.748L730.458 307H732.39L735.638 297.2H733.902ZM739.448 299.44C738.244 299.44 737.082 299.748 736.284 300.364L736.97 301.638C737.53 301.176 738.398 300.896 739.238 300.896C740.484 300.896 741.1 301.498 741.1 302.52V302.632H739.168C736.9 302.632 736.06 303.612 736.06 304.858C736.06 306.16 737.138 307.098 738.846 307.098C739.966 307.098 740.778 306.734 741.198 306.09V307H742.85V302.618C742.85 300.462 741.604 299.44 739.448 299.44ZM739.21 305.824C738.314 305.824 737.782 305.418 737.782 304.788C737.782 304.242 738.104 303.794 739.294 303.794H741.1V304.662C740.806 305.432 740.064 305.824 739.21 305.824ZM749.3 305.348C749.034 305.558 748.684 305.656 748.32 305.656C747.648 305.656 747.284 305.264 747.284 304.536V300.98H749.286V299.58H747.284V297.872H745.534V299.58H744.302V300.98H745.534V304.578C745.534 306.23 746.472 307.098 748.11 307.098C748.74 307.098 749.37 306.93 749.79 306.594L749.3 305.348ZM754.614 307.098C756.07 307.098 757.232 306.468 757.806 305.348L756.462 304.564C756.014 305.278 755.342 305.6 754.6 305.6C753.312 305.6 752.332 304.718 752.332 303.262C752.332 301.82 753.312 300.924 754.6 300.924C755.342 300.924 756.014 301.246 756.462 301.96L757.806 301.176C757.232 300.042 756.07 299.44 754.614 299.44C752.248 299.44 750.568 301.022 750.568 303.262C750.568 305.502 752.248 307.098 754.614 307.098ZM763.692 299.44C762.656 299.44 761.774 299.776 761.2 300.392V296.612H759.45V307H761.2V303.22C761.2 301.722 762.04 300.966 763.286 300.966C764.406 300.966 765.064 301.61 765.064 302.94V307H766.814V302.716C766.814 300.462 765.484 299.44 763.692 299.44ZM776.159 299.44C774.955 299.44 773.793 299.748 772.995 300.364L773.681 301.638C774.241 301.176 775.109 300.896 775.949 300.896C777.195 300.896 777.811 301.498 777.811 302.52V302.632H775.879C773.611 302.632 772.771 303.612 772.771 304.858C772.771 306.16 773.849 307.098 775.557 307.098C776.677 307.098 777.489 306.734 777.909 306.09V307H779.561V302.618C779.561 300.462 778.315 299.44 776.159 299.44ZM775.921 305.824C775.025 305.824 774.493 305.418 774.493 304.788C774.493 304.242 774.815 303.794 776.005 303.794H777.811V304.662C777.517 305.432 776.775 305.824 775.921 305.824ZM786.244 307H790.528C793.706 307 795.876 305.04 795.876 302.1C795.876 299.16 793.706 297.2 790.528 297.2H786.244V307ZM788.064 305.46V298.74H790.444C792.628 298.74 794.042 300.07 794.042 302.1C794.042 304.13 792.628 305.46 790.444 305.46H788.064ZM804.871 303.304C804.871 300.966 803.275 299.44 801.091 299.44C798.865 299.44 797.227 301.036 797.227 303.262C797.227 305.488 798.851 307.098 801.357 307.098C802.645 307.098 803.695 306.678 804.367 305.88L803.429 304.802C802.897 305.348 802.239 305.614 801.399 305.614C800.097 305.614 799.187 304.914 798.977 303.822H804.843C804.857 303.654 804.871 303.444 804.871 303.304ZM801.091 300.84C802.239 300.84 803.065 301.582 803.205 302.66H798.963C799.131 301.568 799.957 300.84 801.091 300.84ZM816.188 299.44C814.998 299.44 813.99 299.916 813.388 300.686C812.87 299.846 811.96 299.44 810.868 299.44C809.846 299.44 808.978 299.804 808.418 300.476V299.524H806.752V307H808.502V303.206C808.502 301.722 809.286 300.966 810.448 300.966C811.512 300.966 812.128 301.61 812.128 302.94V307H813.878V303.206C813.878 301.722 814.676 300.966 815.824 300.966C816.888 300.966 817.504 301.61 817.504 302.94V307H819.254V302.716C819.254 300.462 817.994 299.44 816.188 299.44ZM825.118 307.098C827.442 307.098 829.108 305.502 829.108 303.262C829.108 301.022 827.442 299.44 825.118 299.44C822.822 299.44 821.142 301.022 821.142 303.262C821.142 305.502 822.822 307.098 825.118 307.098ZM825.118 305.6C823.858 305.6 822.906 304.69 822.906 303.262C822.906 301.834 823.858 300.924 825.118 300.924C826.392 300.924 827.344 301.834 827.344 303.262C827.344 304.69 826.392 305.6 825.118 305.6Z" fill="#BDBDBD"/>
<path d="M725.852 341.14C727.462 341.14 728.834 340.566 729.744 339.502L728.568 338.382C727.854 339.166 726.972 339.544 725.95 339.544C723.92 339.544 722.45 338.116 722.45 336.1C722.45 334.084 723.92 332.656 725.95 332.656C726.972 332.656 727.854 333.034 728.568 333.804L729.744 332.698C728.834 331.634 727.462 331.06 725.866 331.06C722.856 331.06 720.616 333.174 720.616 336.1C720.616 339.026 722.856 341.14 725.852 341.14ZM736.803 333.524V337.304C736.803 338.802 735.977 339.558 734.759 339.558C733.653 339.558 733.009 338.914 733.009 337.556V333.524H731.259V337.794C731.259 340.048 732.561 341.098 734.479 341.098C735.445 341.098 736.327 340.734 736.887 340.048V341H738.553V333.524H736.803ZM743.354 341.098C745.454 341.098 746.742 340.188 746.742 338.788C746.742 335.862 742.122 337.206 742.122 335.694C742.122 335.204 742.626 334.854 743.69 334.854C744.404 334.854 745.118 334.994 745.832 335.414L746.504 334.084C745.832 333.678 744.698 333.44 743.704 333.44C741.688 333.44 740.414 334.364 740.414 335.778C740.414 338.76 745.034 337.416 745.034 338.844C745.034 339.362 744.572 339.67 743.466 339.67C742.528 339.67 741.52 339.362 740.862 338.928L740.19 340.258C740.862 340.734 742.108 341.098 743.354 341.098ZM752.453 339.348C752.187 339.558 751.837 339.656 751.473 339.656C750.801 339.656 750.437 339.264 750.437 338.536V334.98H752.439V333.58H750.437V331.872H748.687V333.58H747.455V334.98H748.687V338.578C748.687 340.23 749.625 341.098 751.263 341.098C751.893 341.098 752.523 340.93 752.943 340.594L752.453 339.348ZM757.697 341.098C760.021 341.098 761.687 339.502 761.687 337.262C761.687 335.022 760.021 333.44 757.697 333.44C755.401 333.44 753.721 335.022 753.721 337.262C753.721 339.502 755.401 341.098 757.697 341.098ZM757.697 339.6C756.437 339.6 755.485 338.69 755.485 337.262C755.485 335.834 756.437 334.924 757.697 334.924C758.971 334.924 759.923 335.834 759.923 337.262C759.923 338.69 758.971 339.6 757.697 339.6ZM772.996 333.44C771.806 333.44 770.798 333.916 770.196 334.686C769.678 333.846 768.768 333.44 767.676 333.44C766.654 333.44 765.786 333.804 765.226 334.476V333.524H763.56V341H765.31V337.206C765.31 335.722 766.094 334.966 767.256 334.966C768.32 334.966 768.936 335.61 768.936 336.94V341H770.686V337.206C770.686 335.722 771.484 334.966 772.632 334.966C773.696 334.966 774.312 335.61 774.312 336.94V341H776.062V336.716C776.062 334.462 774.802 333.44 772.996 333.44ZM785.595 337.304C785.595 334.966 783.999 333.44 781.815 333.44C779.589 333.44 777.951 335.036 777.951 337.262C777.951 339.488 779.575 341.098 782.081 341.098C783.369 341.098 784.419 340.678 785.091 339.88L784.153 338.802C783.621 339.348 782.963 339.614 782.123 339.614C780.821 339.614 779.911 338.914 779.701 337.822H785.567C785.581 337.654 785.595 337.444 785.595 337.304ZM781.815 334.84C782.963 334.84 783.789 335.582 783.929 336.66H779.687C779.855 335.568 780.681 334.84 781.815 334.84ZM789.142 334.616V333.524H787.476V341H789.226V337.374C789.226 335.848 790.066 335.064 791.396 335.064C791.522 335.064 791.648 335.078 791.802 335.106V333.44C790.556 333.44 789.646 333.832 789.142 334.616ZM795.824 341.098C797.924 341.098 799.212 340.188 799.212 338.788C799.212 335.862 794.592 337.206 794.592 335.694C794.592 335.204 795.096 334.854 796.16 334.854C796.874 334.854 797.588 334.994 798.302 335.414L798.974 334.084C798.302 333.678 797.168 333.44 796.174 333.44C794.158 333.44 792.884 334.364 792.884 335.778C792.884 338.76 797.504 337.416 797.504 338.844C797.504 339.362 797.042 339.67 795.936 339.67C794.998 339.67 793.99 339.362 793.332 338.928L792.66 340.258C793.332 340.734 794.578 341.098 795.824 341.098Z" fill="#BDBDBD"/>
<path d="M728.652 375H730.556L726.132 365.2H724.34L719.93 375H721.806L722.772 372.732H727.672L728.652 375ZM723.388 371.304L725.222 367.02L727.07 371.304H723.388ZM736.034 365.2H732.002V375H733.822V372.172H736.034C738.61 372.172 740.206 370.842 740.206 368.686C740.206 366.516 738.61 365.2 736.034 365.2ZM735.95 370.632H733.822V366.74H735.95C737.546 366.74 738.372 367.454 738.372 368.686C738.372 369.918 737.546 370.632 735.95 370.632ZM742.224 375H744.044V365.2H742.224V375Z" fill="#BDBDBD"/>
</g>
<path d="M910.64 224.304H913.152V228.272C912.043 229.509 910.507 230.128 908.544 230.128C906.901 230.128 905.52 229.584 904.4 228.496C903.291 227.408 902.736 226.037 902.736 224.384C902.736 222.72 903.301 221.333 904.432 220.224C905.573 219.115 906.944 218.56 908.544 218.56C910.155 218.56 911.552 219.088 912.736 220.144L911.44 222.016C910.939 221.579 910.475 221.28 910.048 221.12C909.632 220.949 909.179 220.864 908.688 220.864C907.739 220.864 906.939 221.189 906.288 221.84C905.637 222.48 905.312 223.328 905.312 224.384C905.312 225.44 905.621 226.288 906.24 226.928C906.869 227.557 907.616 227.872 908.48 227.872C909.344 227.872 910.064 227.707 910.64 227.376V224.304ZM922.692 228.752C921.721 229.669 920.58 230.128 919.268 230.128C917.967 230.128 916.889 229.728 916.036 228.928C915.183 228.117 914.756 227.035 914.756 225.68C914.756 224.325 915.188 223.248 916.052 222.448C916.927 221.648 917.956 221.248 919.14 221.248C920.324 221.248 921.327 221.605 922.148 222.32C922.98 223.035 923.396 224.016 923.396 225.264V226.544H917.124C917.199 227.013 917.444 227.397 917.86 227.696C918.276 227.995 918.745 228.144 919.268 228.144C920.111 228.144 920.804 227.861 921.348 227.296L922.692 228.752ZM920.964 224.832C920.911 224.32 920.719 223.925 920.388 223.648C920.057 223.371 919.652 223.232 919.172 223.232C918.703 223.232 918.271 223.376 917.876 223.664C917.481 223.952 917.252 224.341 917.188 224.832H920.964ZM927.997 223.12V226.976C927.997 227.307 928.082 227.568 928.253 227.76C928.424 227.941 928.626 228.032 928.861 228.032C929.309 228.032 929.688 227.829 929.997 227.424L930.893 229.104C930.146 229.787 929.357 230.128 928.525 230.128C927.704 230.128 927.005 229.856 926.429 229.312C925.864 228.768 925.581 228.027 925.581 227.088V223.12H924.573V221.392H925.581V218.816H927.997V221.392H930.077V223.12H927.997ZM936.839 218.816H939.335V230H936.839V218.816ZM944.27 225.2V230H941.87V221.392H944.27V222.352C944.996 221.616 945.812 221.248 946.718 221.248C947.625 221.248 948.382 221.568 948.99 222.208C949.609 222.848 949.918 223.701 949.918 224.768V230H947.518V225.136C947.518 223.813 947.033 223.152 946.062 223.152C945.582 223.152 945.161 223.328 944.798 223.68C944.446 224.021 944.27 224.528 944.27 225.2ZM961.484 220.976V230H958.988V220.976H955.82V218.816H964.652V220.976H961.484ZM967.309 225.696C967.309 226.4 967.506 226.976 967.901 227.424C968.306 227.861 968.818 228.08 969.437 228.08C970.066 228.08 970.578 227.861 970.973 227.424C971.378 226.976 971.581 226.4 971.581 225.696C971.581 224.992 971.378 224.416 970.973 223.968C970.578 223.52 970.066 223.296 969.437 223.296C968.818 223.296 968.306 223.52 967.901 223.968C967.506 224.416 967.309 224.992 967.309 225.696ZM973.997 225.696C973.997 226.944 973.565 227.995 972.701 228.848C971.837 229.701 970.749 230.128 969.437 230.128C968.136 230.128 967.053 229.701 966.189 228.848C965.325 227.995 964.893 226.944 964.893 225.696C964.893 224.448 965.325 223.397 966.189 222.544C967.053 221.68 968.136 221.248 969.437 221.248C970.749 221.248 971.837 221.68 972.701 222.544C973.565 223.397 973.997 224.448 973.997 225.696ZM981.432 226.032V221.392H983.848V230H981.432V228.864C980.834 229.707 980.061 230.128 979.112 230.128C978.173 230.128 977.384 229.835 976.744 229.248C976.104 228.651 975.784 227.771 975.784 226.608V221.392H978.2V226.08C978.2 227.403 978.685 228.064 979.656 228.064C980.136 228.064 980.552 227.893 980.904 227.552C981.256 227.2 981.432 226.693 981.432 226.032ZM990.342 228C991.142 228 991.862 227.6 992.502 226.8L993.926 228.4C992.817 229.552 991.617 230.128 990.326 230.128C989.035 230.128 987.942 229.723 987.046 228.912C986.161 228.091 985.718 227.024 985.718 225.712C985.718 224.389 986.166 223.317 987.062 222.496C987.969 221.664 989.041 221.248 990.278 221.248C990.897 221.248 991.521 221.376 992.15 221.632C992.79 221.888 993.35 222.267 993.83 222.768L992.582 224.4C992.305 224.069 991.963 223.813 991.558 223.632C991.163 223.451 990.769 223.36 990.374 223.36C989.745 223.36 989.201 223.568 988.742 223.984C988.294 224.389 988.07 224.96 988.07 225.696C988.07 226.421 988.294 226.987 988.742 227.392C989.201 227.797 989.734 228 990.342 228ZM998.027 225.36V230H995.627V218.128H998.027V222.352C998.752 221.616 999.563 221.248 1000.46 221.248C1001.37 221.248 1002.13 221.568 1002.75 222.208C1003.37 222.848 1003.67 223.701 1003.67 224.768V230H1001.27V225.296C1001.27 223.973 1000.79 223.312 999.819 223.312C999.339 223.312 998.917 223.488 998.555 223.84C998.203 224.181 998.027 224.688 998.027 225.36Z" fill="white"/>
<rect x="902.5" y="256.5" width="320" height="57" rx="4.5" fill="#F9F9F9"/>
<path d="M927.208 290H925.528V286.136L921.888 280.214H923.694L926.368 284.666L929.042 280.214H930.848L927.208 286.136V290ZM932.972 288.04C933.42 288.488 933.985 288.712 934.666 288.712C935.348 288.712 935.908 288.488 936.346 288.04C936.794 287.583 937.018 286.995 937.018 286.276C937.018 285.557 936.794 284.974 936.346 284.526C935.908 284.069 935.348 283.84 934.666 283.84C933.985 283.84 933.42 284.069 932.972 284.526C932.534 284.974 932.314 285.557 932.314 286.276C932.314 286.995 932.534 287.583 932.972 288.04ZM937.466 289.006C936.72 289.743 935.786 290.112 934.666 290.112C933.546 290.112 932.613 289.743 931.866 289.006C931.12 288.259 930.746 287.349 930.746 286.276C930.746 285.203 931.12 284.297 931.866 283.56C932.613 282.813 933.546 282.44 934.666 282.44C935.786 282.44 936.72 282.813 937.466 283.56C938.213 284.297 938.586 285.203 938.586 286.276C938.586 287.349 938.213 288.259 937.466 289.006ZM945.777 286.584V282.552H947.345V290H945.777V288.642C945.525 289.099 945.175 289.459 944.727 289.72C944.288 289.981 943.812 290.112 943.299 290.112C942.459 290.112 941.778 289.855 941.255 289.342C940.742 288.829 940.485 288.087 940.485 287.116V282.552H942.053V286.64C942.053 288.012 942.622 288.698 943.761 288.698C944.302 288.698 944.774 288.521 945.175 288.166C945.576 287.802 945.777 287.275 945.777 286.584ZM953.726 284.022C952.951 284.022 952.368 284.274 951.976 284.778C951.584 285.282 951.388 285.959 951.388 286.808V290H949.82V282.552H951.388V284.05C951.64 283.583 951.981 283.201 952.41 282.902C952.849 282.603 953.311 282.449 953.796 282.44L953.81 284.022C953.782 284.022 953.754 284.022 953.726 284.022ZM966.724 280.214V281.768H961.502V284.358H966.192V285.828H961.502V288.446H966.892V290H959.85V280.214H966.724ZM970.554 285.968V290H968.986V282.552H970.554V283.91C970.778 283.453 971.114 283.093 971.562 282.832C972.02 282.571 972.51 282.44 973.032 282.44C974.208 282.44 975.006 282.925 975.426 283.896C976.164 282.925 977.083 282.44 978.184 282.44C979.024 282.44 979.701 282.697 980.214 283.21C980.737 283.723 980.998 284.465 980.998 285.436V290H979.43V285.912C979.43 284.54 978.861 283.854 977.722 283.854C977.19 283.854 976.724 284.027 976.322 284.372C975.93 284.708 975.725 285.203 975.706 285.856V290H974.138V285.912C974.138 285.203 974.012 284.685 973.76 284.358C973.508 284.022 973.112 283.854 972.57 283.854C972.029 283.854 971.558 284.036 971.156 284.4C970.755 284.755 970.554 285.277 970.554 285.968ZM989.412 290H987.984V289.006C987.368 289.743 986.542 290.112 985.506 290.112C984.731 290.112 984.087 289.893 983.574 289.454C983.07 289.015 982.818 288.432 982.818 287.704C982.818 286.967 983.088 286.416 983.63 286.052C984.171 285.688 984.904 285.506 985.828 285.506H987.858V285.226C987.858 284.237 987.307 283.742 986.206 283.742C985.515 283.742 984.796 283.994 984.05 284.498L983.35 283.518C984.255 282.799 985.282 282.44 986.43 282.44C987.307 282.44 988.021 282.664 988.572 283.112C989.132 283.551 989.412 284.246 989.412 285.198V290ZM987.844 287.228V286.598H986.08C984.95 286.598 984.386 286.953 984.386 287.662C984.386 288.026 984.526 288.306 984.806 288.502C985.086 288.689 985.473 288.782 985.968 288.782C986.472 288.782 986.91 288.642 987.284 288.362C987.657 288.082 987.844 287.704 987.844 287.228ZM993.363 290H991.795V282.552H993.363V290ZM991.893 281.068C991.697 280.872 991.599 280.639 991.599 280.368C991.599 280.097 991.697 279.864 991.893 279.668C992.089 279.472 992.322 279.374 992.593 279.374C992.863 279.374 993.097 279.472 993.293 279.668C993.489 279.864 993.587 280.097 993.587 280.368C993.587 280.639 993.489 280.872 993.293 281.068C993.097 281.264 992.863 281.362 992.593 281.362C992.322 281.362 992.089 281.264 991.893 281.068ZM997.404 290H995.836V279.612H997.404V290Z" fill="#BDBDBD"/>
<rect x="902.5" y="256.5" width="320" height="57" rx="4.5" stroke="#E6E6E6"/>
<path d="M1106.5 256.5H1218C1220.49 256.5 1222.5 258.515 1222.5 261V309C1222.5 311.485 1220.49 313.5 1218 313.5H1106.5V256.5Z" fill="#FF7B47"/>
<path d="M1133.26 290.084C1135.77 290.084 1136.92 288.852 1136.92 287.41C1136.92 283.84 1130.88 285.464 1130.88 282.776C1130.88 281.796 1131.68 280.998 1133.47 280.998C1134.34 280.998 1135.32 281.264 1136.16 281.81L1136.51 280.984C1135.73 280.438 1134.58 280.116 1133.47 280.116C1130.98 280.116 1129.86 281.362 1129.86 282.804C1129.86 286.43 1135.9 284.778 1135.9 287.466C1135.9 288.432 1135.1 289.202 1133.26 289.202C1131.98 289.202 1130.73 288.698 1130.03 288.012L1129.62 288.81C1130.35 289.566 1131.79 290.084 1133.26 290.084ZM1144.81 282.636V286.5C1144.81 288.18 1143.84 289.174 1142.3 289.174C1140.9 289.174 1140.09 288.376 1140.09 286.808V282.636H1139.1V286.906C1139.1 289.02 1140.33 290.07 1142.2 290.07C1143.38 290.07 1144.33 289.552 1144.85 288.656V290H1145.8V282.636H1144.81ZM1152.58 282.58C1151.4 282.58 1150.4 283.084 1149.78 284.036V279.612H1148.79V290H1149.74V288.544C1150.34 289.538 1151.36 290.07 1152.58 290.07C1154.68 290.07 1156.25 288.544 1156.25 286.318C1156.25 284.092 1154.68 282.58 1152.58 282.58ZM1152.51 289.188C1150.94 289.188 1149.77 288.04 1149.77 286.318C1149.77 284.596 1150.94 283.448 1152.51 283.448C1154.06 283.448 1155.25 284.596 1155.25 286.318C1155.25 288.04 1154.06 289.188 1152.51 289.188ZM1160.45 290.07C1162.37 290.07 1163.49 289.244 1163.49 287.97C1163.49 285.142 1158.71 286.64 1158.71 284.652C1158.71 283.952 1159.3 283.434 1160.63 283.434C1161.39 283.434 1162.16 283.616 1162.8 284.064L1163.23 283.266C1162.62 282.846 1161.58 282.58 1160.63 282.58C1158.75 282.58 1157.72 283.476 1157.72 284.68C1157.72 287.592 1162.49 286.08 1162.49 287.998C1162.49 288.726 1161.92 289.202 1160.52 289.202C1159.48 289.202 1158.49 288.838 1157.9 288.376L1157.45 289.16C1158.05 289.678 1159.23 290.07 1160.45 290.07ZM1168.58 290.07C1169.82 290.07 1170.87 289.566 1171.46 288.614L1170.72 288.11C1170.21 288.852 1169.43 289.188 1168.58 289.188C1166.97 289.188 1165.79 288.054 1165.79 286.318C1165.79 284.596 1166.97 283.448 1168.58 283.448C1169.43 283.448 1170.21 283.798 1170.72 284.54L1171.46 284.036C1170.87 283.07 1169.82 282.58 1168.58 282.58C1166.38 282.58 1164.78 284.12 1164.78 286.318C1164.78 288.516 1166.38 290.07 1168.58 290.07ZM1174.56 284.078V282.636H1173.61V290H1174.61V286.248C1174.61 284.512 1175.54 283.532 1177.08 283.532C1177.15 283.532 1177.24 283.546 1177.32 283.546V282.58C1175.96 282.58 1175.03 283.098 1174.56 284.078ZM1179.83 281.026C1180.25 281.026 1180.55 280.704 1180.55 280.298C1180.55 279.92 1180.23 279.612 1179.83 279.612C1179.42 279.612 1179.1 279.934 1179.1 280.312C1179.1 280.704 1179.42 281.026 1179.83 281.026ZM1179.32 290H1180.32V282.636H1179.32V290ZM1187.08 282.58C1185.9 282.58 1184.89 283.084 1184.28 284.036V279.612H1183.28V290H1184.23V288.544C1184.84 289.538 1185.86 290.07 1187.08 290.07C1189.18 290.07 1190.74 288.544 1190.74 286.318C1190.74 284.092 1189.18 282.58 1187.08 282.58ZM1187.01 289.188C1185.44 289.188 1184.26 288.04 1184.26 286.318C1184.26 284.596 1185.44 283.448 1187.01 283.448C1188.56 283.448 1189.75 284.596 1189.75 286.318C1189.75 288.04 1188.56 289.188 1187.01 289.188ZM1199.4 286.318C1199.4 284.106 1197.9 282.58 1195.83 282.58C1193.75 282.58 1192.23 284.134 1192.23 286.318C1192.23 288.502 1193.8 290.07 1196.09 290.07C1197.25 290.07 1198.28 289.65 1198.93 288.866L1198.37 288.222C1197.81 288.866 1197.02 289.188 1196.12 289.188C1194.51 289.188 1193.33 288.166 1193.22 286.626H1199.38C1199.38 286.514 1199.4 286.402 1199.4 286.318ZM1195.83 283.434C1197.27 283.434 1198.32 284.442 1198.44 285.884H1193.22C1193.35 284.442 1194.4 283.434 1195.83 283.434Z" fill="white"/>
<path d="M1106.5 256.5H1218C1220.49 256.5 1222.5 258.515 1222.5 261V309C1222.5 311.485 1220.49 313.5 1218 313.5H1106.5V256.5Z" stroke="#E6E6E6"/>
</g>
<g clip-path="url(#clip5)">
<path d="M191.264 61.2C192.752 61.2 194.04 61.448 195.128 61.944C196.232 62.44 197.08 63.144 197.672 64.056C198.264 64.968 198.56 66.048 198.56 67.296C198.56 68.528 198.264 69.608 197.672 70.536C197.08 71.448 196.232 72.152 195.128 72.648C194.04 73.128 192.752 73.368 191.264 73.368H187.88V78H183.992V61.2H191.264ZM191.048 70.2C192.216 70.2 193.104 69.952 193.712 69.456C194.32 68.944 194.624 68.224 194.624 67.296C194.624 66.352 194.32 65.632 193.712 65.136C193.104 64.624 192.216 64.368 191.048 64.368H187.88V70.2H191.048ZM211.656 74.4H203.856L202.368 78H198.384L205.872 61.2H209.712L217.224 78H213.144L211.656 74.4ZM210.432 71.448L207.768 65.016L205.104 71.448H210.432ZM221.703 64.368H216.327V61.2H230.967V64.368H225.591V78H221.703V64.368ZM247.328 61.2C248.816 61.2 250.104 61.448 251.192 61.944C252.296 62.44 253.144 63.144 253.736 64.056C254.328 64.968 254.624 66.048 254.624 67.296C254.624 68.528 254.328 69.608 253.736 70.536C253.144 71.448 252.296 72.152 251.192 72.648C250.104 73.128 248.816 73.368 247.328 73.368H243.944V78H240.056V61.2H247.328ZM247.112 70.2C248.28 70.2 249.168 69.952 249.776 69.456C250.384 68.944 250.688 68.224 250.688 67.296C250.688 66.352 250.384 65.632 249.776 65.136C249.168 64.624 248.28 64.368 247.112 64.368H243.944V70.2H247.112ZM270.508 74.88V78H257.5V61.2H270.196V64.32H261.364V67.968H269.164V70.992H261.364V74.88H270.508ZM277.181 64.368H271.805V61.2H286.445V64.368H281.069V78H277.181V64.368Z" fill="white"/>
<g clip-path="url(#clip6)">
<g clip-path="url(#clip7)">
<path d="M1054.54 57H1032.46C1031.93 57 1031.5 57.429 1031.5 57.96V80.04C1031.5 80.571 1031.93 81 1032.46 81H1054.54C1055.07 81 1055.5 80.571 1055.5 80.04V57.96C1055.5 57.429 1055.07 57 1054.54 57ZM1051.77 64.005H1049.85C1048.35 64.005 1048.06 64.719 1048.06 65.769V68.082H1051.65L1051.18 71.703H1048.06V81H1044.32V71.706H1041.19V68.082H1044.32V65.412C1044.32 62.313 1046.21 60.624 1048.98 60.624C1050.3 60.624 1051.44 60.723 1051.77 60.768V64.005H1051.77Z" fill="#335BF5"/>
</g>
<g clip-path="url(#clip8)">
<path d="M1087.5 62.8474C1084.1 62.8474 1081.35 65.5954 1081.35 69.0004C1081.35 72.4054 1084.1 75.1534 1087.5 75.1534C1090.91 75.1534 1093.65 72.4054 1093.65 69.0004C1093.65 65.5954 1090.91 62.8474 1087.5 62.8474ZM1087.5 72.9994C1085.3 72.9994 1083.5 71.2024 1083.5 69.0004C1083.5 66.7984 1085.3 65.0014 1087.5 65.0014C1089.7 65.0014 1091.5 66.7984 1091.5 69.0004C1091.5 71.2024 1089.7 72.9994 1087.5 72.9994ZM1093.91 61.1614C1093.11 61.1614 1092.47 61.8034 1092.47 62.5984C1092.47 63.3934 1093.11 64.0354 1093.91 64.0354C1094.7 64.0354 1095.34 63.3964 1095.34 62.5984C1095.34 62.4097 1095.31 62.2227 1095.23 62.0482C1095.16 61.8738 1095.06 61.7153 1094.92 61.5818C1094.79 61.4483 1094.63 61.3425 1094.46 61.2703C1094.28 61.1982 1094.1 61.1612 1093.91 61.1614ZM1099.5 69.0004C1099.5 67.3444 1099.51 65.7034 1099.42 64.0504C1099.32 62.1304 1098.89 60.4264 1097.48 59.0224C1096.08 57.6154 1094.37 57.1804 1092.45 57.0874C1090.8 56.9944 1089.16 57.0094 1087.5 57.0094C1085.85 57.0094 1084.21 56.9944 1082.55 57.0874C1080.63 57.1804 1078.93 57.6184 1077.53 59.0224C1076.12 60.4294 1075.68 62.1304 1075.59 64.0504C1075.5 65.7064 1075.51 67.3474 1075.51 69.0004C1075.51 70.6534 1075.5 72.2974 1075.59 73.9504C1075.68 75.8704 1076.12 77.5744 1077.53 78.9784C1078.93 80.3854 1080.63 80.8204 1082.55 80.9134C1084.21 81.0064 1085.85 80.9914 1087.5 80.9914C1089.16 80.9914 1090.8 81.0064 1092.45 80.9134C1094.37 80.8204 1096.08 80.3824 1097.48 78.9784C1098.89 77.5714 1099.32 75.8704 1099.42 73.9504C1099.51 72.2974 1099.5 70.6564 1099.5 69.0004ZM1096.86 76.0744C1096.64 76.6204 1096.37 77.0284 1095.95 77.4484C1095.53 77.8714 1095.12 78.1354 1094.58 78.3544C1093 78.9814 1089.25 78.8404 1087.5 78.8404C1085.75 78.8404 1082 78.9814 1080.42 78.3574C1079.88 78.1384 1079.47 77.8744 1079.05 77.4514C1078.63 77.0284 1078.36 76.6234 1078.14 76.0774C1077.52 74.4964 1077.66 70.7494 1077.66 69.0004C1077.66 67.2514 1077.52 63.5014 1078.14 61.9234C1078.36 61.3774 1078.63 60.9694 1079.05 60.5494C1079.47 60.1294 1079.88 59.8624 1080.42 59.6434C1082 59.0194 1085.75 59.1604 1087.5 59.1604C1089.25 59.1604 1093 59.0194 1094.58 59.6434C1095.12 59.8624 1095.53 60.1264 1095.95 60.5494C1096.38 60.9724 1096.64 61.3774 1096.86 61.9234C1097.48 63.5014 1097.34 67.2514 1097.34 69.0004C1097.34 70.7494 1097.48 74.4964 1096.86 76.0744Z" fill="#E61F5A"/>
</g>
<g clip-path="url(#clip9)">
<path d="M1143.5 61.4655C1142.62 61.8514 1141.66 62.1292 1140.67 62.2374C1141.7 61.6188 1142.47 60.6416 1142.83 59.489C1141.87 60.0702 1140.81 60.4778 1139.71 60.6936C1139.25 60.1949 1138.7 59.7976 1138.08 59.5265C1137.46 59.2553 1136.8 59.1162 1136.12 59.1177C1133.4 59.1177 1131.21 61.3573 1131.21 64.1056C1131.21 64.4916 1131.26 64.8775 1131.33 65.2488C1127.26 65.0325 1123.62 63.056 1121.2 60.0299C1120.76 60.7933 1120.53 61.6626 1120.53 62.5473C1120.53 64.2781 1121.4 65.8044 1122.72 66.702C1121.95 66.6708 1121.18 66.4534 1120.5 66.0675V66.1289C1120.5 68.5527 1122.19 70.5613 1124.44 71.0233C1124.02 71.1347 1123.58 71.1916 1123.15 71.1929C1122.83 71.1929 1122.53 71.1607 1122.22 71.1168C1122.84 73.0933 1124.65 74.5289 1126.81 74.5757C1125.12 75.9177 1123.01 76.7071 1120.71 76.7071C1120.3 76.7071 1119.92 76.6925 1119.53 76.6457C1121.7 78.0637 1124.29 78.8824 1127.07 78.8824C1136.11 78.8824 1141.05 71.2864 1141.05 64.6933C1141.05 64.477 1141.05 64.2606 1141.04 64.0442C1141.99 63.3338 1142.83 62.4537 1143.5 61.4655Z" fill="#21A6DF"/>
</g>
<g clip-path="url(#clip10)">
<path d="M1186.97 62.9318C1186.83 62.3988 1186.57 61.9129 1186.2 61.5226C1185.82 61.1323 1185.36 60.8514 1184.86 60.708C1182.99 60.1768 1175.49 60.1768 1175.49 60.1768C1175.49 60.1768 1167.99 60.1768 1166.12 60.708C1165.61 60.8514 1165.15 61.1323 1164.78 61.5226C1164.41 61.9129 1164.14 62.3988 1164.01 62.9318C1163.66 64.9335 1163.49 66.9651 1163.5 69.0001C1163.49 71.035 1163.66 73.0666 1164.01 75.0683C1164.14 75.6013 1164.41 76.0872 1164.78 76.4775C1165.15 76.8678 1165.61 77.1487 1166.12 77.2921C1167.99 77.8233 1175.49 77.8233 1175.49 77.8233C1175.49 77.8233 1182.99 77.8233 1184.86 77.2921C1185.36 77.1487 1185.82 76.8678 1186.2 76.4775C1186.57 76.0872 1186.83 75.6013 1186.97 75.0683C1187.32 73.0666 1187.49 71.035 1187.48 69.0001C1187.49 66.9651 1187.32 64.9335 1186.97 62.9318ZM1173.09 72.7815V65.2186L1179.32 69.0001L1173.09 72.7815Z" fill="#E42F08"/>
</g>
</g>
</g>
<line x1="179" y1="141.5" x2="1236" y2="141.5" stroke="#364067"/>
<g clip-path="url(#clip11)">
<rect width="1413" height="74" transform="translate(0 452)" fill="#17213C"/>
</g>
</g>
<defs>
<clipPath id="clip0">
<rect width="1413" height="526" fill="white"/>
</clipPath>
<clipPath id="clip1">
<rect width="1413" height="310" fill="white" transform="translate(0 142)"/>
</clipPath>
<clipPath id="clip2">
<rect width="148" height="170" fill="white" transform="translate(182 212)"/>
</clipPath>
<clipPath id="clip3">
<rect width="152" height="170" fill="white" transform="translate(360 212)"/>
</clipPath>
<clipPath id="clip4">
<rect width="152" height="170" fill="white" transform="translate(720 212)"/>
</clipPath>
<clipPath id="clip5">
<rect width="1413" height="142" fill="white"/>
</clipPath>
<clipPath id="clip6">
<rect width="156" height="24" fill="white" transform="translate(1031.5 57)"/>
</clipPath>
<clipPath id="clip7">
<rect width="24" height="24" fill="white" transform="translate(1031.5 57)"/>
</clipPath>
<clipPath id="clip8">
<rect width="24" height="24" fill="white" transform="translate(1075.5 57)"/>
</clipPath>
<clipPath id="clip9">
<rect width="24" height="19.7647" fill="white" transform="translate(1119.5 59.1177)"/>
</clipPath>
<clipPath id="clip10">
<rect width="24" height="17.6842" fill="white" transform="translate(1163.5 60.158)"/>
</clipPath>
<clipPath id="clip11">
<rect width="1413" height="74" fill="white" transform="translate(0 452)"/>
</clipPath>
</defs>
</svg>
