<svg width="472" height="141" viewBox="0 0 472 141" fill="none" xmlns="http://www.w3.org/2000/svg">
<g filter="url(#filter0_d)">
<path d="M4.06984 46.716C4.21384 45.108 4.70584 43.512 5.54584 41.928C6.40984 40.344 7.40584 39.072 8.53384 38.112C10.5498 39.336 12.8418 40.428 15.4098 41.388C17.9778 42.348 20.5458 42.828 23.1138 42.828C25.2018 42.828 26.7018 42.324 27.6138 41.316C28.5258 40.308 28.9818 39.228 28.9818 38.076C28.9818 37.284 28.7298 36.396 28.2258 35.412C27.7218 34.428 26.4618 33.516 24.4458 32.676L15.7698 29.076C12.7938 27.828 10.3338 26.16 8.38984 24.072C6.44584 21.984 5.47384 19.224 5.47384 15.792C5.47384 12.792 6.25384 10.164 7.81384 7.908C9.37384 5.652 11.4738 3.9 14.1138 2.652C16.7778 1.38 19.7418 0.743999 23.0058 0.743999C26.3898 0.743999 29.5818 1.2 32.5818 2.112C35.5818 3 38.0178 3.924 39.8898 4.884C39.7938 6.54 39.3978 8.136 38.7018 9.672C38.0298 11.184 37.1298 12.456 36.0018 13.488C34.1778 12.624 32.0418 11.832 29.5938 11.112C27.1458 10.368 24.9498 9.996 23.0058 9.996C20.9418 9.996 19.4658 10.464 18.5778 11.4C17.7138 12.336 17.2818 13.284 17.2818 14.244C17.2818 15.156 17.5818 15.972 18.1818 16.692C18.8058 17.412 19.9098 18.108 21.4938 18.78L30.3498 22.416C33.8298 23.856 36.5058 25.812 38.3778 28.284C40.2738 30.756 41.2218 33.54 41.2218 36.636C41.2218 39.54 40.5138 42.156 39.0978 44.484C37.7058 46.812 35.6058 48.66 32.7978 50.028C29.9898 51.396 26.4858 52.08 22.2858 52.08C19.3818 52.08 16.2858 51.624 12.9978 50.712C9.70984 49.776 6.73384 48.444 4.06984 46.716ZM50.5861 1.896C51.8101 1.68 53.1421 1.536 54.5821 1.464C56.0461 1.392 57.3061 1.356 58.3621 1.356C59.4181 1.356 60.5941 1.392 61.8901 1.464C63.1861 1.536 64.4461 1.68 65.6701 1.896L69.9181 19.5C70.0141 19.932 70.1701 20.676 70.3861 21.732C70.6261 22.788 70.8901 23.988 71.1781 25.332C71.4661 26.676 71.7301 27.996 71.9701 29.292C72.2341 30.588 72.4381 31.692 72.5821 32.604H73.0861C73.2301 31.692 73.4341 30.588 73.6981 29.292C73.9621 27.996 74.2261 26.676 74.4901 25.332C74.7781 23.988 75.0421 22.788 75.2821 21.732C75.5221 20.676 75.6901 19.932 75.7861 19.5L80.0341 1.896C81.2581 1.68 82.5061 1.536 83.7781 1.464C85.0741 1.392 86.2501 1.356 87.3061 1.356C88.3621 1.356 89.6221 1.392 91.0861 1.464C92.5501 1.536 93.8821 1.68 95.0821 1.896L98.8981 50.856C98.0821 51.072 97.1341 51.216 96.0541 51.288C94.9981 51.384 94.0021 51.432 93.0661 51.432C92.2021 51.432 91.3501 51.408 90.5101 51.36C89.6941 51.312 88.8661 51.216 88.0261 51.072L86.9461 31.02C86.8021 28.476 86.6701 25.668 86.5501 22.596C86.4301 19.524 86.3701 16.812 86.3701 14.46H85.8661L78.7741 43.764C77.9101 43.908 76.9021 44.016 75.7501 44.088C74.5981 44.136 73.6141 44.16 72.7981 44.16C72.0781 44.16 71.1301 44.136 69.9541 44.088C68.7781 44.016 67.7581 43.908 66.8941 43.764L59.8021 14.46H59.3341C59.3101 16.812 59.2381 19.524 59.1181 22.596C59.0221 25.668 58.9021 28.476 58.7581 31.02L57.6421 51.072C56.8261 51.216 55.9981 51.312 55.1581 51.36C54.3181 51.408 53.4661 51.432 52.6021 51.432C51.6901 51.432 50.6941 51.384 49.6141 51.288C48.5581 51.216 47.6101 51.072 46.7701 50.856L50.5861 1.896ZM120.411 40.704C120.027 40.704 119.571 40.692 119.043 40.668C118.539 40.644 118.047 40.632 117.567 40.632L114.507 51.072C113.787 51.24 113.007 51.348 112.167 51.396C111.351 51.468 110.499 51.504 109.611 51.504C108.747 51.504 107.763 51.432 106.659 51.288C105.579 51.168 104.715 50.976 104.067 50.712L103.635 50.1L119.547 1.824C120.459 1.68 121.551 1.572 122.823 1.5C124.119 1.428 125.247 1.392 126.207 1.392C127.119 1.392 128.223 1.44 129.519 1.536C130.815 1.608 131.931 1.728 132.867 1.896L148.347 50.244C147.555 50.7 146.523 51.048 145.251 51.288C144.003 51.528 142.839 51.648 141.759 51.648C139.935 51.648 138.507 51.228 137.475 50.388C136.443 49.524 135.579 47.856 134.883 45.384L133.515 40.632C133.059 40.632 132.567 40.644 132.039 40.668C131.511 40.692 131.055 40.704 130.671 40.704H120.411ZM121.851 26.052L120.231 31.632C120.687 31.632 121.179 31.632 121.707 31.632C122.235 31.608 122.703 31.596 123.111 31.596H128.367C128.727 31.596 129.135 31.608 129.591 31.632C130.071 31.632 130.539 31.632 130.995 31.632L129.735 27.132C129.183 25.116 128.535 22.74 127.791 20.004C127.047 17.268 126.375 14.712 125.775 12.336H125.343C125.103 13.68 124.779 15.168 124.371 16.8C123.963 18.432 123.531 20.064 123.075 21.696C122.643 23.304 122.235 24.756 121.851 26.052ZM189.889 17.052C189.889 19.356 189.445 21.408 188.557 23.208C187.669 24.984 186.553 26.472 185.209 27.672C183.865 28.848 182.509 29.7 181.141 30.228C182.485 30.708 183.601 31.536 184.489 32.712C185.401 33.888 186.133 35.268 186.685 36.852L188.845 42.936C189.661 45.264 190.849 47.04 192.409 48.264C191.665 49.224 190.585 50.028 189.169 50.676C187.753 51.324 186.277 51.648 184.741 51.648C182.677 51.648 181.177 51.096 180.241 49.992C179.305 48.864 178.453 47.196 177.685 44.988L175.093 37.464C174.685 36.216 174.049 35.16 173.185 34.296C172.321 33.408 170.929 32.964 169.009 32.964H166.021V51C165.061 51.168 164.065 51.276 163.033 51.324C162.001 51.396 161.089 51.432 160.297 51.432C159.601 51.432 158.713 51.396 157.633 51.324C156.553 51.276 155.545 51.168 154.609 51V2.184L155.113 1.68C158.185 1.608 161.137 1.548 163.969 1.5C166.825 1.428 169.621 1.392 172.357 1.392C175.693 1.392 178.681 1.944 181.321 3.048C183.985 4.152 186.073 5.856 187.585 8.16C189.121 10.464 189.889 13.428 189.889 17.052ZM166.021 10.032V24.144C167.149 24.096 168.205 24.06 169.189 24.036C170.197 24.012 170.929 24 171.385 24C173.209 24 174.601 23.676 175.561 23.028C176.545 22.356 177.217 21.492 177.577 20.436C177.961 19.38 178.153 18.252 178.153 17.052C178.153 15.804 177.961 14.652 177.577 13.596C177.217 12.54 176.545 11.7 175.561 11.076C174.601 10.428 173.209 10.104 171.385 10.104C170.641 10.104 169.813 10.104 168.901 10.104C168.013 10.104 167.053 10.08 166.021 10.032ZM205.496 16.656C205.496 15.672 205.508 14.796 205.532 14.028C205.556 13.236 205.568 12.336 205.568 11.328H205.496C204.968 11.328 204.212 11.34 203.228 11.364C202.244 11.388 201.488 11.4 200.96 11.4H193.508C193.34 10.536 193.232 9.696 193.184 8.88C193.136 8.04 193.112 7.296 193.112 6.648C193.112 5.976 193.136 5.22 193.184 4.38C193.232 3.54 193.34 2.688 193.508 1.824H229.148C229.316 2.424 229.448 3.132 229.544 3.948C229.664 4.74 229.724 5.508 229.724 6.252C229.724 8.124 229.232 9.456 228.248 10.248C227.288 11.016 225.776 11.4 223.712 11.4H221.588C221.06 11.4 220.304 11.388 219.32 11.364C218.336 11.34 217.58 11.328 217.052 11.328H216.98C216.98 12.336 216.992 13.236 217.016 14.028C217.04 14.796 217.052 15.672 217.052 16.656V51C216.068 51.168 215.06 51.276 214.028 51.324C212.996 51.396 212.084 51.432 211.292 51.432C210.476 51.432 209.552 51.396 208.52 51.324C207.488 51.276 206.48 51.168 205.496 51V16.656ZM281.964 41.28C281.964 44.928 281.364 47.496 280.164 48.984C278.988 50.472 276.972 51.216 274.116 51.216H257.88C255.816 51.216 254.184 50.616 252.984 49.416C251.784 48.216 251.184 46.572 251.184 44.484V1.824L251.688 1.356H255.9C258.108 1.356 259.8 1.932 260.976 3.084C262.152 4.212 262.74 6.06 262.74 8.628V41.532C265.092 41.364 267.336 41.28 269.472 41.28H281.964ZM289.217 1.824C290.153 1.656 291.173 1.548 292.277 1.5C293.381 1.428 294.293 1.392 295.013 1.392C295.781 1.392 296.693 1.428 297.749 1.5C298.805 1.548 299.813 1.656 300.773 1.824V51C299.813 51.168 298.805 51.276 297.749 51.324C296.693 51.396 295.781 51.432 295.013 51.432C294.293 51.432 293.381 51.396 292.277 51.324C291.173 51.276 290.153 51.168 289.217 51V1.824ZM338.944 1.824C339.784 1.608 340.636 1.488 341.5 1.464C342.364 1.416 343.18 1.392 343.948 1.392C344.644 1.392 345.496 1.452 346.504 1.572C347.536 1.692 348.448 1.884 349.24 2.148L349.708 2.796L336.208 51C334.864 51.144 333.364 51.252 331.708 51.324C330.076 51.396 328.516 51.432 327.028 51.432C324.868 51.432 323.176 51.072 321.952 50.352C320.728 49.632 319.828 48.264 319.252 46.248L307.264 2.868C308.296 2.412 309.4 2.016 310.576 1.68C311.752 1.344 312.964 1.176 314.212 1.176C315.94 1.176 317.272 1.644 318.208 2.58C319.168 3.492 319.9 4.932 320.404 6.9L325.948 27.384C326.524 29.496 327.04 31.68 327.496 33.936C327.952 36.192 328.348 38.376 328.684 40.488C328.756 40.872 328.84 41.124 328.936 41.244C329.056 41.34 329.224 41.388 329.44 41.388L338.944 1.824ZM356.132 1.824C357.068 1.656 358.088 1.548 359.192 1.5C360.296 1.428 361.208 1.392 361.928 1.392C362.696 1.392 363.608 1.428 364.664 1.5C365.72 1.548 366.728 1.656 367.688 1.824V51C366.728 51.168 365.72 51.276 364.664 51.324C363.608 51.396 362.696 51.432 361.928 51.432C361.208 51.432 360.296 51.396 359.192 51.324C358.088 51.276 357.068 51.168 356.132 51V1.824ZM393.188 25.224C392.396 23.376 391.652 21.564 390.956 19.788C390.26 18.012 389.66 16.44 389.156 15.072L388.868 15.18C389.06 17.22 389.216 19.536 389.336 22.128C389.48 24.696 389.588 27.264 389.66 29.832C389.732 32.4 389.768 34.68 389.768 36.672V51C388.832 51.168 387.908 51.276 386.996 51.324C386.084 51.396 385.268 51.432 384.548 51.432C383.852 51.432 382.976 51.396 381.92 51.324C380.888 51.276 379.928 51.168 379.04 51V2.04C379.928 1.824 381.104 1.668 382.568 1.572C384.032 1.452 385.124 1.392 385.844 1.392C386.588 1.392 387.572 1.428 388.796 1.5C390.02 1.548 391.268 1.656 392.54 1.824L403.628 27.528C404.54 29.64 405.38 31.656 406.148 33.576C406.94 35.496 407.6 37.116 408.128 38.436L408.416 38.328C408.224 36.096 408.056 33.648 407.912 30.984C407.792 28.32 407.696 25.752 407.624 23.28C407.552 20.808 407.516 18.744 407.516 17.088V8.304C407.516 5.736 408.032 3.936 409.064 2.904C410.12 1.872 411.752 1.356 413.96 1.356H417.704L418.172 1.824V50.784C417.26 51 416.06 51.156 414.572 51.252C413.108 51.372 411.992 51.432 411.224 51.432C410.48 51.432 409.496 51.396 408.272 51.324C407.048 51.276 405.812 51.168 404.564 51L393.188 25.224ZM456.481 37.644C456.481 36.852 456.493 36.036 456.517 35.196C456.541 34.356 456.577 33.504 456.625 32.64H453.097C451.249 32.64 449.869 32.292 448.957 31.596C448.045 30.9 447.589 29.64 447.589 27.816C447.589 27.072 447.661 26.268 447.805 25.404C447.973 24.54 448.177 23.76 448.417 23.064H459.685C462.541 23.064 464.521 23.736 465.625 25.08C466.729 26.4 467.281 28.104 467.281 30.192V49.092C465.193 49.788 462.493 50.46 459.181 51.108C455.869 51.756 452.245 52.08 448.309 52.08C443.389 52.08 439.309 51.048 436.069 48.984C432.853 46.92 430.453 43.992 428.869 40.2C427.285 36.408 426.493 31.92 426.493 26.736C426.493 22.368 427.129 18.564 428.401 15.324C429.673 12.06 431.401 9.36 433.585 7.224C435.769 5.064 438.229 3.444 440.965 2.364C443.701 1.284 446.533 0.743999 449.461 0.743999C452.773 0.743999 455.941 1.224 458.965 2.184C461.989 3.144 464.725 4.38 467.173 5.892C467.053 7.524 466.453 9.12 465.373 10.68C464.317 12.24 463.201 13.404 462.025 14.172C460.273 12.996 458.353 12.06 456.265 11.364C454.201 10.644 452.161 10.284 450.145 10.284C446.497 10.284 443.605 11.604 441.469 14.244C439.333 16.86 438.265 21.048 438.265 26.808C438.265 32.424 439.297 36.528 441.361 39.12C443.449 41.712 446.425 43.008 450.289 43.008C451.441 43.008 452.533 42.948 453.565 42.828C454.597 42.708 455.569 42.564 456.481 42.396V37.644ZM62.1316 82.508C62.9716 82.148 63.9316 81.836 65.0116 81.572C66.1156 81.308 67.1836 81.176 68.2156 81.176C70.2316 81.176 71.6956 81.62 72.6076 82.508C73.5436 83.372 74.2036 85.04 74.5876 87.512L77.6116 106.124C77.8756 107.684 78.1396 109.352 78.4036 111.128C78.6676 112.88 78.9076 114.584 79.1236 116.24C79.3396 117.872 79.4956 119.264 79.5916 120.416C79.6396 120.872 79.7116 121.148 79.8076 121.244C79.9036 121.34 80.0716 121.388 80.3116 121.388L86.2516 82.76C87.4036 82.568 88.6396 82.436 89.9596 82.364C91.2796 82.268 92.5036 82.22 93.6316 82.22C94.7836 82.22 96.0196 82.268 97.3396 82.364C98.6836 82.436 99.8956 82.568 100.976 82.76L106.484 120.416C106.556 120.896 106.652 121.184 106.772 121.28C106.892 121.352 107.06 121.388 107.276 121.388C107.396 120.068 107.564 118.52 107.78 116.744C108.02 114.968 108.272 113.144 108.536 111.272C108.824 109.376 109.112 107.612 109.4 105.98L113.504 81.824C114.368 81.656 115.244 81.548 116.132 81.5C117.02 81.428 117.86 81.392 118.652 81.392C119.54 81.392 120.476 81.464 121.46 81.608C122.468 81.728 123.344 81.908 124.088 82.148L124.664 82.868L115.124 130.928C113.804 131.072 112.208 131.192 110.336 131.288C108.488 131.384 106.808 131.432 105.296 131.432C103.592 131.432 102.08 131.144 100.76 130.568C99.4636 129.992 98.6356 128.54 98.2756 126.212L95.8276 110.66C95.3956 107.828 94.9876 104.9 94.6036 101.876C94.2436 98.852 93.9676 96.212 93.7756 93.956H93.1996C92.9596 96.212 92.6236 98.852 92.1916 101.876C91.7836 104.876 91.3396 107.804 90.8596 110.66L87.5836 130.928C86.2156 131.072 84.6556 131.192 82.9036 131.288C81.1756 131.384 79.5316 131.432 77.9716 131.432C76.0996 131.432 74.5156 131.144 73.2196 130.568C71.9476 129.992 71.0836 128.54 70.6276 126.212L62.1316 82.508ZM131.907 81.824C132.843 81.656 133.863 81.548 134.967 81.5C136.071 81.428 136.983 81.392 137.703 81.392C138.471 81.392 139.383 81.428 140.439 81.5C141.495 81.548 142.503 81.656 143.463 81.824V131C142.503 131.168 141.495 131.276 140.439 131.324C139.383 131.396 138.471 131.432 137.703 131.432C136.983 131.432 136.071 131.396 134.967 131.324C133.863 131.276 132.843 131.168 131.907 131V81.824ZM161.978 96.656C161.978 95.672 161.99 94.796 162.014 94.028C162.038 93.236 162.05 92.336 162.05 91.328H161.978C161.45 91.328 160.694 91.34 159.71 91.364C158.726 91.388 157.97 91.4 157.442 91.4H149.99C149.822 90.536 149.714 89.696 149.666 88.88C149.618 88.04 149.594 87.296 149.594 86.648C149.594 85.976 149.618 85.22 149.666 84.38C149.714 83.54 149.822 82.688 149.99 81.824H185.63C185.798 82.424 185.93 83.132 186.026 83.948C186.146 84.74 186.206 85.508 186.206 86.252C186.206 88.124 185.714 89.456 184.73 90.248C183.77 91.016 182.258 91.4 180.194 91.4H178.07C177.542 91.4 176.786 91.388 175.802 91.364C174.818 91.34 174.062 91.328 173.534 91.328H173.462C173.462 92.336 173.474 93.236 173.498 94.028C173.522 94.796 173.534 95.672 173.534 96.656V131C172.55 131.168 171.542 131.276 170.51 131.324C169.478 131.396 168.566 131.432 167.774 131.432C166.958 131.432 166.034 131.396 165.002 131.324C163.97 131.276 162.962 131.168 161.978 131V96.656ZM203.273 131C202.313 131.168 201.293 131.276 200.213 131.324C199.157 131.396 198.245 131.432 197.477 131.432C196.781 131.432 195.881 131.396 194.777 131.324C193.673 131.276 192.653 131.168 191.717 131V81.824C192.653 81.656 193.673 81.548 194.777 81.5C195.881 81.428 196.781 81.392 197.477 81.392C198.245 81.392 199.157 81.428 200.213 81.5C201.293 81.548 202.313 81.656 203.273 81.824V95.576C203.273 96.584 203.261 97.484 203.237 98.276C203.213 99.044 203.201 99.92 203.201 100.904C203.705 100.904 204.293 100.892 204.965 100.868C205.661 100.844 206.273 100.832 206.801 100.832H215.117C215.621 100.832 216.209 100.844 216.881 100.868C217.577 100.892 218.189 100.904 218.717 100.904C218.717 99.92 218.705 99.044 218.681 98.276C218.657 97.484 218.645 96.584 218.645 95.576V81.824C219.605 81.656 220.613 81.548 221.669 81.5C222.725 81.428 223.637 81.392 224.405 81.392C225.101 81.392 226.001 81.428 227.105 81.5C228.233 81.548 229.253 81.656 230.165 81.824V131C229.181 131.168 228.197 131.276 227.213 131.324C226.229 131.396 225.341 131.432 224.549 131.432C223.733 131.432 222.785 131.396 221.705 131.324C220.649 131.276 219.629 131.168 218.645 131V115.736C218.645 114.728 218.657 113.828 218.681 113.036C218.705 112.244 218.717 111.368 218.717 110.408C218.189 110.408 217.577 110.42 216.881 110.444C216.209 110.468 215.621 110.48 215.117 110.48H206.801C206.273 110.48 205.661 110.468 204.965 110.444C204.293 110.42 203.705 110.408 203.201 110.408C203.201 111.368 203.213 112.244 203.237 113.036C203.261 113.828 203.273 114.728 203.273 115.736V131ZM292.215 98.528C292.215 102.296 291.447 105.452 289.911 107.996C288.399 110.516 286.311 112.412 283.647 113.684C281.007 114.956 277.983 115.592 274.575 115.592H268.923V131C267.963 131.168 266.943 131.276 265.863 131.324C264.807 131.396 263.895 131.432 263.127 131.432C262.431 131.432 261.531 131.396 260.427 131.324C259.323 131.276 258.303 131.168 257.367 131V82.184L257.871 81.68C260.943 81.608 263.811 81.548 266.475 81.5C269.163 81.428 271.863 81.392 274.575 81.392C277.983 81.392 281.007 82.016 283.647 83.264C286.311 84.488 288.399 86.372 289.911 88.916C291.447 91.436 292.215 94.64 292.215 98.528ZM268.923 90.176V106.952C269.931 106.928 270.867 106.904 271.731 106.88C272.619 106.856 273.243 106.844 273.603 106.844C275.523 106.844 276.975 106.388 277.959 105.476C278.943 104.564 279.603 103.472 279.939 102.2C280.275 100.904 280.443 99.68 280.443 98.528C280.443 97.4 280.275 96.2 279.939 94.928C279.603 93.632 278.943 92.528 277.959 91.616C276.975 90.704 275.523 90.248 273.603 90.248C272.883 90.248 272.163 90.248 271.443 90.248C270.723 90.224 269.883 90.2 268.923 90.176ZM333.23 121.568C333.23 124.736 332.726 127.136 331.718 128.768C330.734 130.4 328.718 131.216 325.67 131.216H306.518C304.454 131.216 302.834 130.616 301.658 129.416C300.482 128.216 299.894 126.572 299.894 124.484V82.328L300.398 81.824H331.43C331.598 82.688 331.706 83.504 331.754 84.272C331.802 85.016 331.826 85.712 331.826 86.36C331.826 87.008 331.742 87.812 331.574 88.772C331.43 89.708 331.202 90.608 330.89 91.472H316.166C315.638 91.472 314.918 91.472 314.006 91.472C313.118 91.448 312.194 91.424 311.234 91.4C311.234 92.384 311.246 93.272 311.27 94.064C311.294 94.832 311.306 95.696 311.306 96.656V101.66C312.266 101.636 313.19 101.624 314.078 101.624C314.966 101.6 315.662 101.588 316.166 101.588H327.146C327.386 102.284 327.554 103.088 327.65 104C327.77 104.912 327.83 105.68 327.83 106.304C327.83 106.952 327.77 107.708 327.65 108.572C327.554 109.436 327.386 110.24 327.146 110.984H316.166C315.662 110.984 314.966 110.984 314.078 110.984C313.19 110.96 312.266 110.936 311.306 110.912V116.456C311.306 117.392 311.294 118.256 311.27 119.048C311.246 119.816 311.234 120.68 311.234 121.64V121.712C312.05 121.664 312.89 121.628 313.754 121.604C314.618 121.58 315.554 121.568 316.562 121.568H333.23ZM348.603 96.656C348.603 95.672 348.615 94.796 348.639 94.028C348.663 93.236 348.675 92.336 348.675 91.328H348.603C348.075 91.328 347.319 91.34 346.335 91.364C345.351 91.388 344.595 91.4 344.067 91.4H336.615C336.447 90.536 336.339 89.696 336.291 88.88C336.243 88.04 336.219 87.296 336.219 86.648C336.219 85.976 336.243 85.22 336.291 84.38C336.339 83.54 336.447 82.688 336.615 81.824H372.255C372.423 82.424 372.555 83.132 372.651 83.948C372.771 84.74 372.831 85.508 372.831 86.252C372.831 88.124 372.339 89.456 371.355 90.248C370.395 91.016 368.883 91.4 366.819 91.4H364.695C364.167 91.4 363.411 91.388 362.427 91.364C361.443 91.34 360.687 91.328 360.159 91.328H360.087C360.087 92.336 360.099 93.236 360.123 94.028C360.147 94.796 360.159 95.672 360.159 96.656V131C359.175 131.168 358.167 131.276 357.135 131.324C356.103 131.396 355.191 131.432 354.399 131.432C353.583 131.432 352.659 131.396 351.627 131.324C350.595 131.276 349.587 131.168 348.603 131V96.656ZM373.95 126.716C374.094 125.108 374.586 123.512 375.426 121.928C376.29 120.344 377.286 119.072 378.414 118.112C380.43 119.336 382.722 120.428 385.29 121.388C387.858 122.348 390.426 122.828 392.994 122.828C395.082 122.828 396.582 122.324 397.494 121.316C398.406 120.308 398.862 119.228 398.862 118.076C398.862 117.284 398.61 116.396 398.106 115.412C397.602 114.428 396.342 113.516 394.326 112.676L385.65 109.076C382.674 107.828 380.214 106.16 378.27 104.072C376.326 101.984 375.354 99.224 375.354 95.792C375.354 92.792 376.134 90.164 377.694 87.908C379.254 85.652 381.354 83.9 383.994 82.652C386.658 81.38 389.622 80.744 392.886 80.744C396.27 80.744 399.462 81.2 402.462 82.112C405.462 83 407.898 83.924 409.77 84.884C409.674 86.54 409.278 88.136 408.582 89.672C407.91 91.184 407.01 92.456 405.882 93.488C404.058 92.624 401.922 91.832 399.474 91.112C397.026 90.368 394.83 89.996 392.886 89.996C390.822 89.996 389.346 90.464 388.458 91.4C387.594 92.336 387.162 93.284 387.162 94.244C387.162 95.156 387.462 95.972 388.062 96.692C388.686 97.412 389.79 98.108 391.374 98.78L400.23 102.416C403.71 103.856 406.386 105.812 408.258 108.284C410.154 110.756 411.102 113.54 411.102 116.636C411.102 119.54 410.394 122.156 408.978 124.484C407.586 126.812 405.486 128.66 402.678 130.028C399.87 131.396 396.366 132.08 392.166 132.08C389.262 132.08 386.166 131.624 382.878 130.712C379.59 129.776 376.614 128.444 373.95 126.716Z" fill="#252B42"/>
</g>
<defs>
<filter id="filter0_d" x="0.0698376" y="0.744141" width="471.211" height="139.336" filterUnits="userSpaceOnUse" color-interpolation-filters="sRGB">
<feFlood flood-opacity="0" result="BackgroundImageFix"/>
<feColorMatrix in="SourceAlpha" type="matrix" values="0 0 0 0 0 0 0 0 0 0 0 0 0 0 0 0 0 0 127 0"/>
<feOffset dy="4"/>
<feGaussianBlur stdDeviation="2"/>
<feColorMatrix type="matrix" values="0 0 0 0 0 0 0 0 0 0 0 0 0 0 0 0 0 0 0.25 0"/>
<feBlend mode="normal" in2="BackgroundImageFix" result="effect1_dropShadow"/>
<feBlend mode="normal" in="SourceGraphic" in2="effect1_dropShadow" result="shape"/>
</filter>
</defs>
</svg>
