<svg width="860" height="398" viewBox="0 0 860 398" fill="none" xmlns="http://www.w3.org/2000/svg">
<g filter="url(#filter0_d)">
<path d="M197.07 98.716C197.214 97.108 197.706 95.512 198.546 93.928C199.41 92.344 200.406 91.072 201.534 90.112C203.55 91.336 205.842 92.428 208.41 93.388C210.978 94.348 213.546 94.828 216.114 94.828C218.202 94.828 219.702 94.324 220.614 93.316C221.526 92.308 221.982 91.228 221.982 90.076C221.982 89.284 221.73 88.396 221.226 87.412C220.722 86.428 219.462 85.516 217.446 84.676L208.77 81.076C205.794 79.828 203.334 78.16 201.39 76.072C199.446 73.984 198.474 71.224 198.474 67.792C198.474 64.792 199.254 62.164 200.814 59.908C202.374 57.652 204.474 55.9 207.114 54.652C209.778 53.38 212.742 52.744 216.006 52.744C219.39 52.744 222.582 53.2 225.582 54.112C228.582 55 231.018 55.924 232.89 56.884C232.794 58.54 232.398 60.136 231.702 61.672C231.03 63.184 230.13 64.456 229.002 65.488C227.178 64.624 225.042 63.832 222.594 63.112C220.146 62.368 217.95 61.996 216.006 61.996C213.942 61.996 212.466 62.464 211.578 63.4C210.714 64.336 210.282 65.284 210.282 66.244C210.282 67.156 210.582 67.972 211.182 68.692C211.806 69.412 212.91 70.108 214.494 70.78L223.35 74.416C226.83 75.856 229.506 77.812 231.378 80.284C233.274 82.756 234.222 85.54 234.222 88.636C234.222 91.54 233.514 94.156 232.098 96.484C230.706 98.812 228.606 100.66 225.798 102.028C222.99 103.396 219.486 104.08 215.286 104.08C212.382 104.08 209.286 103.624 205.998 102.712C202.71 101.776 199.734 100.444 197.07 98.716ZM243.586 53.896C244.81 53.68 246.142 53.536 247.582 53.464C249.046 53.392 250.306 53.356 251.362 53.356C252.418 53.356 253.594 53.392 254.89 53.464C256.186 53.536 257.446 53.68 258.67 53.896L262.918 71.5C263.014 71.932 263.17 72.676 263.386 73.732C263.626 74.788 263.89 75.988 264.178 77.332C264.466 78.676 264.73 79.996 264.97 81.292C265.234 82.588 265.438 83.692 265.582 84.604H266.086C266.23 83.692 266.434 82.588 266.698 81.292C266.962 79.996 267.226 78.676 267.49 77.332C267.778 75.988 268.042 74.788 268.282 73.732C268.522 72.676 268.69 71.932 268.786 71.5L273.034 53.896C274.258 53.68 275.506 53.536 276.778 53.464C278.074 53.392 279.25 53.356 280.306 53.356C281.362 53.356 282.622 53.392 284.086 53.464C285.55 53.536 286.882 53.68 288.082 53.896L291.898 102.856C291.082 103.072 290.134 103.216 289.054 103.288C287.998 103.384 287.002 103.432 286.066 103.432C285.202 103.432 284.35 103.408 283.51 103.36C282.694 103.312 281.866 103.216 281.026 103.072L279.946 83.02C279.802 80.476 279.67 77.668 279.55 74.596C279.43 71.524 279.37 68.812 279.37 66.46H278.866L271.774 95.764C270.91 95.908 269.902 96.016 268.75 96.088C267.598 96.136 266.614 96.16 265.798 96.16C265.078 96.16 264.13 96.136 262.954 96.088C261.778 96.016 260.758 95.908 259.894 95.764L252.802 66.46H252.334C252.31 68.812 252.238 71.524 252.118 74.596C252.022 77.668 251.902 80.476 251.758 83.02L250.642 103.072C249.826 103.216 248.998 103.312 248.158 103.36C247.318 103.408 246.466 103.432 245.602 103.432C244.69 103.432 243.694 103.384 242.614 103.288C241.558 103.216 240.61 103.072 239.77 102.856L243.586 53.896ZM313.411 92.704C313.027 92.704 312.571 92.692 312.043 92.668C311.539 92.644 311.047 92.632 310.567 92.632L307.507 103.072C306.787 103.24 306.007 103.348 305.167 103.396C304.351 103.468 303.499 103.504 302.611 103.504C301.747 103.504 300.763 103.432 299.659 103.288C298.579 103.168 297.715 102.976 297.067 102.712L296.635 102.1L312.547 53.824C313.459 53.68 314.551 53.572 315.823 53.5C317.119 53.428 318.247 53.392 319.207 53.392C320.119 53.392 321.223 53.44 322.519 53.536C323.815 53.608 324.931 53.728 325.867 53.896L341.347 102.244C340.555 102.7 339.523 103.048 338.251 103.288C337.003 103.528 335.839 103.648 334.759 103.648C332.935 103.648 331.507 103.228 330.475 102.388C329.443 101.524 328.579 99.856 327.883 97.384L326.515 92.632C326.059 92.632 325.567 92.644 325.039 92.668C324.511 92.692 324.055 92.704 323.671 92.704H313.411ZM314.851 78.052L313.231 83.632C313.687 83.632 314.179 83.632 314.707 83.632C315.235 83.608 315.703 83.596 316.111 83.596H321.367C321.727 83.596 322.135 83.608 322.591 83.632C323.071 83.632 323.539 83.632 323.995 83.632L322.735 79.132C322.183 77.116 321.535 74.74 320.791 72.004C320.047 69.268 319.375 66.712 318.775 64.336H318.343C318.103 65.68 317.779 67.168 317.371 68.8C316.963 70.432 316.531 72.064 316.075 73.696C315.643 75.304 315.235 76.756 314.851 78.052ZM382.889 69.052C382.889 71.356 382.445 73.408 381.557 75.208C380.669 76.984 379.553 78.472 378.209 79.672C376.865 80.848 375.509 81.7 374.141 82.228C375.485 82.708 376.601 83.536 377.489 84.712C378.401 85.888 379.133 87.268 379.685 88.852L381.845 94.936C382.661 97.264 383.849 99.04 385.409 100.264C384.665 101.224 383.585 102.028 382.169 102.676C380.753 103.324 379.277 103.648 377.741 103.648C375.677 103.648 374.177 103.096 373.241 101.992C372.305 100.864 371.453 99.196 370.685 96.988L368.093 89.464C367.685 88.216 367.049 87.16 366.185 86.296C365.321 85.408 363.929 84.964 362.009 84.964H359.021V103C358.061 103.168 357.065 103.276 356.033 103.324C355.001 103.396 354.089 103.432 353.297 103.432C352.601 103.432 351.713 103.396 350.633 103.324C349.553 103.276 348.545 103.168 347.609 103V54.184L348.113 53.68C351.185 53.608 354.137 53.548 356.969 53.5C359.825 53.428 362.621 53.392 365.357 53.392C368.693 53.392 371.681 53.944 374.321 55.048C376.985 56.152 379.073 57.856 380.585 60.16C382.121 62.464 382.889 65.428 382.889 69.052ZM359.021 62.032V76.144C360.149 76.096 361.205 76.06 362.189 76.036C363.197 76.012 363.929 76 364.385 76C366.209 76 367.601 75.676 368.561 75.028C369.545 74.356 370.217 73.492 370.577 72.436C370.961 71.38 371.153 70.252 371.153 69.052C371.153 67.804 370.961 66.652 370.577 65.596C370.217 64.54 369.545 63.7 368.561 63.076C367.601 62.428 366.209 62.104 364.385 62.104C363.641 62.104 362.813 62.104 361.901 62.104C361.013 62.104 360.053 62.08 359.021 62.032ZM398.496 68.656C398.496 67.672 398.508 66.796 398.532 66.028C398.556 65.236 398.568 64.336 398.568 63.328H398.496C397.968 63.328 397.212 63.34 396.228 63.364C395.244 63.388 394.488 63.4 393.96 63.4H386.508C386.34 62.536 386.232 61.696 386.184 60.88C386.136 60.04 386.112 59.296 386.112 58.648C386.112 57.976 386.136 57.22 386.184 56.38C386.232 55.54 386.34 54.688 386.508 53.824H422.148C422.316 54.424 422.448 55.132 422.544 55.948C422.664 56.74 422.724 57.508 422.724 58.252C422.724 60.124 422.232 61.456 421.248 62.248C420.288 63.016 418.776 63.4 416.712 63.4H414.588C414.06 63.4 413.304 63.388 412.32 63.364C411.336 63.34 410.58 63.328 410.052 63.328H409.98C409.98 64.336 409.992 65.236 410.016 66.028C410.04 66.796 410.052 67.672 410.052 68.656V103C409.068 103.168 408.06 103.276 407.028 103.324C405.996 103.396 405.084 103.432 404.292 103.432C403.476 103.432 402.552 103.396 401.52 103.324C400.488 103.276 399.48 103.168 398.496 103V68.656ZM474.964 93.28C474.964 96.928 474.364 99.496 473.164 100.984C471.988 102.472 469.972 103.216 467.116 103.216H450.88C448.816 103.216 447.184 102.616 445.984 101.416C444.784 100.216 444.184 98.572 444.184 96.484V53.824L444.688 53.356H448.9C451.108 53.356 452.8 53.932 453.976 55.084C455.152 56.212 455.74 58.06 455.74 60.628V93.532C458.092 93.364 460.336 93.28 462.472 93.28H474.964ZM482.217 53.824C483.153 53.656 484.173 53.548 485.277 53.5C486.381 53.428 487.293 53.392 488.013 53.392C488.781 53.392 489.693 53.428 490.749 53.5C491.805 53.548 492.813 53.656 493.773 53.824V103C492.813 103.168 491.805 103.276 490.749 103.324C489.693 103.396 488.781 103.432 488.013 103.432C487.293 103.432 486.381 103.396 485.277 103.324C484.173 103.276 483.153 103.168 482.217 103V53.824ZM531.944 53.824C532.784 53.608 533.636 53.488 534.5 53.464C535.364 53.416 536.18 53.392 536.948 53.392C537.644 53.392 538.496 53.452 539.504 53.572C540.536 53.692 541.448 53.884 542.24 54.148L542.708 54.796L529.208 103C527.864 103.144 526.364 103.252 524.708 103.324C523.076 103.396 521.516 103.432 520.028 103.432C517.868 103.432 516.176 103.072 514.952 102.352C513.728 101.632 512.828 100.264 512.252 98.248L500.264 54.868C501.296 54.412 502.4 54.016 503.576 53.68C504.752 53.344 505.964 53.176 507.212 53.176C508.94 53.176 510.272 53.644 511.208 54.58C512.168 55.492 512.9 56.932 513.404 58.9L518.948 79.384C519.524 81.496 520.04 83.68 520.496 85.936C520.952 88.192 521.348 90.376 521.684 92.488C521.756 92.872 521.84 93.124 521.936 93.244C522.056 93.34 522.224 93.388 522.44 93.388L531.944 53.824ZM549.132 53.824C550.068 53.656 551.088 53.548 552.192 53.5C553.296 53.428 554.208 53.392 554.928 53.392C555.696 53.392 556.608 53.428 557.664 53.5C558.72 53.548 559.728 53.656 560.688 53.824V103C559.728 103.168 558.72 103.276 557.664 103.324C556.608 103.396 555.696 103.432 554.928 103.432C554.208 103.432 553.296 103.396 552.192 103.324C551.088 103.276 550.068 103.168 549.132 103V53.824ZM586.188 77.224C585.396 75.376 584.652 73.564 583.956 71.788C583.26 70.012 582.66 68.44 582.156 67.072L581.868 67.18C582.06 69.22 582.216 71.536 582.336 74.128C582.48 76.696 582.588 79.264 582.66 81.832C582.732 84.4 582.768 86.68 582.768 88.672V103C581.832 103.168 580.908 103.276 579.996 103.324C579.084 103.396 578.268 103.432 577.548 103.432C576.852 103.432 575.976 103.396 574.92 103.324C573.888 103.276 572.928 103.168 572.04 103V54.04C572.928 53.824 574.104 53.668 575.568 53.572C577.032 53.452 578.124 53.392 578.844 53.392C579.588 53.392 580.572 53.428 581.796 53.5C583.02 53.548 584.268 53.656 585.54 53.824L596.628 79.528C597.54 81.64 598.38 83.656 599.148 85.576C599.94 87.496 600.6 89.116 601.128 90.436L601.416 90.328C601.224 88.096 601.056 85.648 600.912 82.984C600.792 80.32 600.696 77.752 600.624 75.28C600.552 72.808 600.516 70.744 600.516 69.088V60.304C600.516 57.736 601.032 55.936 602.064 54.904C603.12 53.872 604.752 53.356 606.96 53.356H610.704L611.172 53.824V102.784C610.26 103 609.06 103.156 607.572 103.252C606.108 103.372 604.992 103.432 604.224 103.432C603.48 103.432 602.496 103.396 601.272 103.324C600.048 103.276 598.812 103.168 597.564 103L586.188 77.224ZM649.481 89.644C649.481 88.852 649.493 88.036 649.517 87.196C649.541 86.356 649.577 85.504 649.625 84.64H646.097C644.249 84.64 642.869 84.292 641.957 83.596C641.045 82.9 640.589 81.64 640.589 79.816C640.589 79.072 640.661 78.268 640.805 77.404C640.973 76.54 641.177 75.76 641.417 75.064H652.685C655.541 75.064 657.521 75.736 658.625 77.08C659.729 78.4 660.281 80.104 660.281 82.192V101.092C658.193 101.788 655.493 102.46 652.181 103.108C648.869 103.756 645.245 104.08 641.309 104.08C636.389 104.08 632.309 103.048 629.069 100.984C625.853 98.92 623.453 95.992 621.869 92.2C620.285 88.408 619.493 83.92 619.493 78.736C619.493 74.368 620.129 70.564 621.401 67.324C622.673 64.06 624.401 61.36 626.585 59.224C628.769 57.064 631.229 55.444 633.965 54.364C636.701 53.284 639.533 52.744 642.461 52.744C645.773 52.744 648.941 53.224 651.965 54.184C654.989 55.144 657.725 56.38 660.173 57.892C660.053 59.524 659.453 61.12 658.373 62.68C657.317 64.24 656.201 65.404 655.025 66.172C653.273 64.996 651.353 64.06 649.265 63.364C647.201 62.644 645.161 62.284 643.145 62.284C639.497 62.284 636.605 63.604 634.469 66.244C632.333 68.86 631.265 73.048 631.265 78.808C631.265 84.424 632.297 88.528 634.361 91.12C636.449 93.712 639.425 95.008 643.289 95.008C644.441 95.008 645.533 94.948 646.565 94.828C647.597 94.708 648.569 94.564 649.481 94.396V89.644ZM255.132 134.508C255.972 134.148 256.932 133.836 258.012 133.572C259.116 133.308 260.184 133.176 261.216 133.176C263.232 133.176 264.696 133.62 265.608 134.508C266.544 135.372 267.204 137.04 267.588 139.512L270.612 158.124C270.876 159.684 271.14 161.352 271.404 163.128C271.668 164.88 271.908 166.584 272.124 168.24C272.34 169.872 272.496 171.264 272.592 172.416C272.64 172.872 272.712 173.148 272.808 173.244C272.904 173.34 273.072 173.388 273.312 173.388L279.252 134.76C280.404 134.568 281.64 134.436 282.96 134.364C284.28 134.268 285.504 134.22 286.632 134.22C287.784 134.22 289.02 134.268 290.34 134.364C291.684 134.436 292.896 134.568 293.976 134.76L299.484 172.416C299.556 172.896 299.652 173.184 299.772 173.28C299.892 173.352 300.06 173.388 300.276 173.388C300.396 172.068 300.564 170.52 300.78 168.744C301.02 166.968 301.272 165.144 301.536 163.272C301.824 161.376 302.112 159.612 302.4 157.98L306.504 133.824C307.368 133.656 308.244 133.548 309.132 133.5C310.02 133.428 310.86 133.392 311.652 133.392C312.54 133.392 313.476 133.464 314.46 133.608C315.468 133.728 316.344 133.908 317.088 134.148L317.664 134.868L308.124 182.928C306.804 183.072 305.208 183.192 303.336 183.288C301.488 183.384 299.808 183.432 298.296 183.432C296.592 183.432 295.08 183.144 293.76 182.568C292.464 181.992 291.636 180.54 291.276 178.212L288.828 162.66C288.396 159.828 287.988 156.9 287.604 153.876C287.244 150.852 286.968 148.212 286.776 145.956H286.2C285.96 148.212 285.624 150.852 285.192 153.876C284.784 156.876 284.34 159.804 283.86 162.66L280.584 182.928C279.216 183.072 277.656 183.192 275.904 183.288C274.176 183.384 272.532 183.432 270.972 183.432C269.1 183.432 267.516 183.144 266.22 182.568C264.948 181.992 264.084 180.54 263.628 178.212L255.132 134.508ZM324.907 133.824C325.843 133.656 326.863 133.548 327.967 133.5C329.071 133.428 329.983 133.392 330.703 133.392C331.471 133.392 332.383 133.428 333.439 133.5C334.495 133.548 335.503 133.656 336.463 133.824V183C335.503 183.168 334.495 183.276 333.439 183.324C332.383 183.396 331.471 183.432 330.703 183.432C329.983 183.432 329.071 183.396 327.967 183.324C326.863 183.276 325.843 183.168 324.907 183V133.824ZM354.978 148.656C354.978 147.672 354.99 146.796 355.014 146.028C355.038 145.236 355.05 144.336 355.05 143.328H354.978C354.45 143.328 353.694 143.34 352.71 143.364C351.726 143.388 350.97 143.4 350.442 143.4H342.99C342.822 142.536 342.714 141.696 342.666 140.88C342.618 140.04 342.594 139.296 342.594 138.648C342.594 137.976 342.618 137.22 342.666 136.38C342.714 135.54 342.822 134.688 342.99 133.824H378.63C378.798 134.424 378.93 135.132 379.026 135.948C379.146 136.74 379.206 137.508 379.206 138.252C379.206 140.124 378.714 141.456 377.73 142.248C376.77 143.016 375.258 143.4 373.194 143.4H371.07C370.542 143.4 369.786 143.388 368.802 143.364C367.818 143.34 367.062 143.328 366.534 143.328H366.462C366.462 144.336 366.474 145.236 366.498 146.028C366.522 146.796 366.534 147.672 366.534 148.656V183C365.55 183.168 364.542 183.276 363.51 183.324C362.478 183.396 361.566 183.432 360.774 183.432C359.958 183.432 359.034 183.396 358.002 183.324C356.97 183.276 355.962 183.168 354.978 183V148.656ZM396.273 183C395.313 183.168 394.293 183.276 393.213 183.324C392.157 183.396 391.245 183.432 390.477 183.432C389.781 183.432 388.881 183.396 387.777 183.324C386.673 183.276 385.653 183.168 384.717 183V133.824C385.653 133.656 386.673 133.548 387.777 133.5C388.881 133.428 389.781 133.392 390.477 133.392C391.245 133.392 392.157 133.428 393.213 133.5C394.293 133.548 395.313 133.656 396.273 133.824V147.576C396.273 148.584 396.261 149.484 396.237 150.276C396.213 151.044 396.201 151.92 396.201 152.904C396.705 152.904 397.293 152.892 397.965 152.868C398.661 152.844 399.273 152.832 399.801 152.832H408.117C408.621 152.832 409.209 152.844 409.881 152.868C410.577 152.892 411.189 152.904 411.717 152.904C411.717 151.92 411.705 151.044 411.681 150.276C411.657 149.484 411.645 148.584 411.645 147.576V133.824C412.605 133.656 413.613 133.548 414.669 133.5C415.725 133.428 416.637 133.392 417.405 133.392C418.101 133.392 419.001 133.428 420.105 133.5C421.233 133.548 422.253 133.656 423.165 133.824V183C422.181 183.168 421.197 183.276 420.213 183.324C419.229 183.396 418.341 183.432 417.549 183.432C416.733 183.432 415.785 183.396 414.705 183.324C413.649 183.276 412.629 183.168 411.645 183V167.736C411.645 166.728 411.657 165.828 411.681 165.036C411.705 164.244 411.717 163.368 411.717 162.408C411.189 162.408 410.577 162.42 409.881 162.444C409.209 162.468 408.621 162.48 408.117 162.48H399.801C399.273 162.48 398.661 162.468 397.965 162.444C397.293 162.42 396.705 162.408 396.201 162.408C396.201 163.368 396.213 164.244 396.237 165.036C396.261 165.828 396.273 166.728 396.273 167.736V183ZM485.215 150.528C485.215 154.296 484.447 157.452 482.911 159.996C481.399 162.516 479.311 164.412 476.647 165.684C474.007 166.956 470.983 167.592 467.575 167.592H461.923V183C460.963 183.168 459.943 183.276 458.863 183.324C457.807 183.396 456.895 183.432 456.127 183.432C455.431 183.432 454.531 183.396 453.427 183.324C452.323 183.276 451.303 183.168 450.367 183V134.184L450.871 133.68C453.943 133.608 456.811 133.548 459.475 133.5C462.163 133.428 464.863 133.392 467.575 133.392C470.983 133.392 474.007 134.016 476.647 135.264C479.311 136.488 481.399 138.372 482.911 140.916C484.447 143.436 485.215 146.64 485.215 150.528ZM461.923 142.176V158.952C462.931 158.928 463.867 158.904 464.731 158.88C465.619 158.856 466.243 158.844 466.603 158.844C468.523 158.844 469.975 158.388 470.959 157.476C471.943 156.564 472.603 155.472 472.939 154.2C473.275 152.904 473.443 151.68 473.443 150.528C473.443 149.4 473.275 148.2 472.939 146.928C472.603 145.632 471.943 144.528 470.959 143.616C469.975 142.704 468.523 142.248 466.603 142.248C465.883 142.248 465.163 142.248 464.443 142.248C463.723 142.224 462.883 142.2 461.923 142.176ZM526.23 173.568C526.23 176.736 525.726 179.136 524.718 180.768C523.734 182.4 521.718 183.216 518.67 183.216H499.518C497.454 183.216 495.834 182.616 494.658 181.416C493.482 180.216 492.894 178.572 492.894 176.484V134.328L493.398 133.824H524.43C524.598 134.688 524.706 135.504 524.754 136.272C524.802 137.016 524.826 137.712 524.826 138.36C524.826 139.008 524.742 139.812 524.574 140.772C524.43 141.708 524.202 142.608 523.89 143.472H509.166C508.638 143.472 507.918 143.472 507.006 143.472C506.118 143.448 505.194 143.424 504.234 143.4C504.234 144.384 504.246 145.272 504.27 146.064C504.294 146.832 504.306 147.696 504.306 148.656V153.66C505.266 153.636 506.19 153.624 507.078 153.624C507.966 153.6 508.662 153.588 509.166 153.588H520.146C520.386 154.284 520.554 155.088 520.65 156C520.77 156.912 520.83 157.68 520.83 158.304C520.83 158.952 520.77 159.708 520.65 160.572C520.554 161.436 520.386 162.24 520.146 162.984H509.166C508.662 162.984 507.966 162.984 507.078 162.984C506.19 162.96 505.266 162.936 504.306 162.912V168.456C504.306 169.392 504.294 170.256 504.27 171.048C504.246 171.816 504.234 172.68 504.234 173.64V173.712C505.05 173.664 505.89 173.628 506.754 173.604C507.618 173.58 508.554 173.568 509.562 173.568H526.23ZM541.603 148.656C541.603 147.672 541.615 146.796 541.639 146.028C541.663 145.236 541.675 144.336 541.675 143.328H541.603C541.075 143.328 540.319 143.34 539.335 143.364C538.351 143.388 537.595 143.4 537.067 143.4H529.615C529.447 142.536 529.339 141.696 529.291 140.88C529.243 140.04 529.219 139.296 529.219 138.648C529.219 137.976 529.243 137.22 529.291 136.38C529.339 135.54 529.447 134.688 529.615 133.824H565.255C565.423 134.424 565.555 135.132 565.651 135.948C565.771 136.74 565.831 137.508 565.831 138.252C565.831 140.124 565.339 141.456 564.355 142.248C563.395 143.016 561.883 143.4 559.819 143.4H557.695C557.167 143.4 556.411 143.388 555.427 143.364C554.443 143.34 553.687 143.328 553.159 143.328H553.087C553.087 144.336 553.099 145.236 553.123 146.028C553.147 146.796 553.159 147.672 553.159 148.656V183C552.175 183.168 551.167 183.276 550.135 183.324C549.103 183.396 548.191 183.432 547.399 183.432C546.583 183.432 545.659 183.396 544.627 183.324C543.595 183.276 542.587 183.168 541.603 183V148.656ZM566.95 178.716C567.094 177.108 567.586 175.512 568.426 173.928C569.29 172.344 570.286 171.072 571.414 170.112C573.43 171.336 575.722 172.428 578.29 173.388C580.858 174.348 583.426 174.828 585.994 174.828C588.082 174.828 589.582 174.324 590.494 173.316C591.406 172.308 591.862 171.228 591.862 170.076C591.862 169.284 591.61 168.396 591.106 167.412C590.602 166.428 589.342 165.516 587.326 164.676L578.65 161.076C575.674 159.828 573.214 158.16 571.27 156.072C569.326 153.984 568.354 151.224 568.354 147.792C568.354 144.792 569.134 142.164 570.694 139.908C572.254 137.652 574.354 135.9 576.994 134.652C579.658 133.38 582.622 132.744 585.886 132.744C589.27 132.744 592.462 133.2 595.462 134.112C598.462 135 600.898 135.924 602.77 136.884C602.674 138.54 602.278 140.136 601.582 141.672C600.91 143.184 600.01 144.456 598.882 145.488C597.058 144.624 594.922 143.832 592.474 143.112C590.026 142.368 587.83 141.996 585.886 141.996C583.822 141.996 582.346 142.464 581.458 143.4C580.594 144.336 580.162 145.284 580.162 146.244C580.162 147.156 580.462 147.972 581.062 148.692C581.686 149.412 582.79 150.108 584.374 150.78L593.23 154.416C596.71 155.856 599.386 157.812 601.258 160.284C603.154 162.756 604.102 165.54 604.102 168.636C604.102 171.54 603.394 174.156 601.978 176.484C600.586 178.812 598.486 180.66 595.678 182.028C592.87 183.396 589.366 184.08 585.166 184.08C582.262 184.08 579.166 183.624 575.878 182.712C572.59 181.776 569.614 180.444 566.95 178.716Z" fill="#252B42"/>
</g>
<path d="M250.033 248H255.933C257.413 248 258.727 248.293 259.873 248.88C261.02 249.467 261.907 250.293 262.533 251.36C263.173 252.413 263.493 253.627 263.493 255C263.493 256.373 263.173 257.593 262.533 258.66C261.907 259.713 261.02 260.533 259.873 261.12C258.727 261.707 257.413 262 255.933 262H250.033V248ZM255.813 260.26C256.947 260.26 257.94 260.04 258.793 259.6C259.66 259.16 260.327 258.547 260.793 257.76C261.26 256.96 261.493 256.04 261.493 255C261.493 253.96 261.26 253.047 260.793 252.26C260.327 251.46 259.66 250.84 258.793 250.4C257.94 249.96 256.947 249.74 255.813 249.74H252.033V260.26H255.813ZM266.477 251.4H268.397V262H266.477V251.4ZM267.437 249.36C267.063 249.36 266.75 249.24 266.497 249C266.257 248.76 266.137 248.467 266.137 248.12C266.137 247.773 266.257 247.48 266.497 247.24C266.75 246.987 267.063 246.86 267.437 246.86C267.81 246.86 268.117 246.98 268.357 247.22C268.61 247.447 268.737 247.733 268.737 248.08C268.737 248.44 268.61 248.747 268.357 249C268.117 249.24 267.81 249.36 267.437 249.36ZM275.303 262.12C274.436 262.12 273.603 262.007 272.803 261.78C272.003 261.54 271.376 261.24 270.923 260.88L271.723 259.36C272.189 259.693 272.756 259.96 273.423 260.16C274.089 260.36 274.763 260.46 275.443 260.46C277.123 260.46 277.963 259.98 277.963 259.02C277.963 258.7 277.849 258.447 277.623 258.26C277.396 258.073 277.109 257.94 276.763 257.86C276.429 257.767 275.949 257.667 275.323 257.56C274.469 257.427 273.769 257.273 273.223 257.1C272.689 256.927 272.229 256.633 271.843 256.22C271.456 255.807 271.263 255.227 271.263 254.48C271.263 253.52 271.663 252.753 272.463 252.18C273.263 251.593 274.336 251.3 275.683 251.3C276.389 251.3 277.096 251.387 277.803 251.56C278.509 251.733 279.089 251.967 279.543 252.26L278.723 253.78C277.856 253.22 276.836 252.94 275.663 252.94C274.849 252.94 274.229 253.073 273.803 253.34C273.376 253.607 273.163 253.96 273.163 254.4C273.163 254.747 273.283 255.02 273.523 255.22C273.763 255.42 274.056 255.567 274.403 255.66C274.763 255.753 275.263 255.86 275.903 255.98C276.756 256.127 277.443 256.287 277.963 256.46C278.496 256.62 278.949 256.9 279.323 257.3C279.696 257.7 279.883 258.26 279.883 258.98C279.883 259.94 279.469 260.707 278.643 261.28C277.829 261.84 276.716 262.12 275.303 262.12ZM287.102 262.12C286.022 262.12 285.055 261.887 284.202 261.42C283.362 260.953 282.702 260.313 282.222 259.5C281.742 258.673 281.502 257.74 281.502 256.7C281.502 255.66 281.742 254.733 282.222 253.92C282.702 253.093 283.362 252.453 284.202 252C285.055 251.533 286.022 251.3 287.102 251.3C288.062 251.3 288.915 251.493 289.662 251.88C290.422 252.267 291.009 252.827 291.422 253.56L289.962 254.5C289.629 253.993 289.215 253.613 288.722 253.36C288.229 253.107 287.682 252.98 287.082 252.98C286.389 252.98 285.762 253.133 285.202 253.44C284.655 253.747 284.222 254.187 283.902 254.76C283.595 255.32 283.442 255.967 283.442 256.7C283.442 257.447 283.595 258.107 283.902 258.68C284.222 259.24 284.655 259.673 285.202 259.98C285.762 260.287 286.389 260.44 287.082 260.44C287.682 260.44 288.229 260.313 288.722 260.06C289.215 259.807 289.629 259.427 289.962 258.92L291.422 259.84C291.009 260.573 290.422 261.14 289.662 261.54C288.915 261.927 288.062 262.12 287.102 262.12ZM298.492 262.12C297.438 262.12 296.492 261.887 295.652 261.42C294.812 260.953 294.152 260.313 293.672 259.5C293.205 258.673 292.972 257.74 292.972 256.7C292.972 255.66 293.205 254.733 293.672 253.92C294.152 253.093 294.812 252.453 295.652 252C296.492 251.533 297.438 251.3 298.492 251.3C299.545 251.3 300.485 251.533 301.312 252C302.152 252.453 302.805 253.093 303.272 253.92C303.752 254.733 303.992 255.66 303.992 256.7C303.992 257.74 303.752 258.673 303.272 259.5C302.805 260.313 302.152 260.953 301.312 261.42C300.485 261.887 299.545 262.12 298.492 262.12ZM298.492 260.44C299.172 260.44 299.778 260.287 300.312 259.98C300.858 259.66 301.285 259.22 301.592 258.66C301.898 258.087 302.052 257.433 302.052 256.7C302.052 255.967 301.898 255.32 301.592 254.76C301.285 254.187 300.858 253.747 300.312 253.44C299.778 253.133 299.172 252.98 298.492 252.98C297.812 252.98 297.198 253.133 296.652 253.44C296.118 253.747 295.692 254.187 295.372 254.76C295.065 255.32 294.912 255.967 294.912 256.7C294.912 257.433 295.065 258.087 295.372 258.66C295.692 259.22 296.118 259.66 296.652 259.98C297.198 260.287 297.812 260.44 298.492 260.44ZM315.934 251.4L311.294 262H309.334L304.694 251.4H306.694L310.334 259.9L314.054 251.4H315.934ZM327.213 256.76C327.213 256.907 327.2 257.1 327.173 257.34H318.573C318.693 258.273 319.1 259.027 319.793 259.6C320.5 260.16 321.373 260.44 322.413 260.44C323.68 260.44 324.7 260.013 325.473 259.16L326.533 260.4C326.053 260.96 325.453 261.387 324.733 261.68C324.026 261.973 323.233 262.12 322.353 262.12C321.233 262.12 320.24 261.893 319.373 261.44C318.506 260.973 317.833 260.327 317.353 259.5C316.886 258.673 316.653 257.74 316.653 256.7C316.653 255.673 316.88 254.747 317.333 253.92C317.8 253.093 318.433 252.453 319.233 252C320.046 251.533 320.96 251.3 321.973 251.3C322.986 251.3 323.886 251.533 324.673 252C325.473 252.453 326.093 253.093 326.533 253.92C326.986 254.747 327.213 255.693 327.213 256.76ZM321.973 252.92C321.053 252.92 320.28 253.2 319.653 253.76C319.04 254.32 318.68 255.053 318.573 255.96H325.373C325.266 255.067 324.9 254.34 324.273 253.78C323.66 253.207 322.893 252.92 321.973 252.92ZM331.919 253.18C332.252 252.567 332.746 252.1 333.399 251.78C334.052 251.46 334.846 251.3 335.779 251.3V253.16C335.672 253.147 335.526 253.14 335.339 253.14C334.299 253.14 333.479 253.453 332.879 254.08C332.292 254.693 331.999 255.573 331.999 256.72V262H330.079V251.4H331.919V253.18ZM349.713 251.3C351.06 251.3 352.127 251.693 352.913 252.48C353.713 253.253 354.113 254.393 354.113 255.9V262H352.193V256.12C352.193 255.093 351.947 254.32 351.453 253.8C350.96 253.28 350.253 253.02 349.333 253.02C348.293 253.02 347.473 253.327 346.873 253.94C346.273 254.54 345.973 255.407 345.973 256.54V262H344.053V251.4H345.893V253C346.28 252.453 346.8 252.033 347.453 251.74C348.12 251.447 348.873 251.3 349.713 251.3ZM367.505 256.76C367.505 256.907 367.492 257.1 367.465 257.34H358.865C358.985 258.273 359.392 259.027 360.085 259.6C360.792 260.16 361.665 260.44 362.705 260.44C363.972 260.44 364.992 260.013 365.765 259.16L366.825 260.4C366.345 260.96 365.745 261.387 365.025 261.68C364.318 261.973 363.525 262.12 362.645 262.12C361.525 262.12 360.532 261.893 359.665 261.44C358.798 260.973 358.125 260.327 357.645 259.5C357.178 258.673 356.945 257.74 356.945 256.7C356.945 255.673 357.172 254.747 357.625 253.92C358.092 253.093 358.725 252.453 359.525 252C360.338 251.533 361.252 251.3 362.265 251.3C363.278 251.3 364.178 251.533 364.965 252C365.765 252.453 366.385 253.093 366.825 253.92C367.278 254.747 367.505 255.693 367.505 256.76ZM362.265 252.92C361.345 252.92 360.572 253.2 359.945 253.76C359.332 254.32 358.972 255.053 358.865 255.96H365.665C365.558 255.067 365.192 254.34 364.565 253.78C363.952 253.207 363.185 252.92 362.265 252.92ZM386.216 251.4L382.256 262H380.416L377.356 253.96L374.256 262H372.416L368.476 251.4H370.296L373.376 259.84L376.576 251.4H378.196L381.336 259.88L384.496 251.4H386.216ZM393.935 247.16H395.855V262H393.935V247.16ZM399.721 251.4H401.641V262H399.721V251.4ZM400.681 249.36C400.308 249.36 399.995 249.24 399.741 249C399.501 248.76 399.381 248.467 399.381 248.12C399.381 247.773 399.501 247.48 399.741 247.24C399.995 246.987 400.308 246.86 400.681 246.86C401.055 246.86 401.361 246.98 401.601 247.22C401.855 247.447 401.981 247.733 401.981 248.08C401.981 248.44 401.855 248.747 401.601 249C401.361 249.24 401.055 249.36 400.681 249.36ZM409.387 248.62C408.24 248.62 407.667 249.24 407.667 250.48V251.4H410.747V252.98H407.707V262H405.787V252.98H403.987V251.4H405.787V250.46C405.787 249.407 406.094 248.573 406.707 247.96C407.32 247.347 408.18 247.04 409.287 247.04C409.714 247.04 410.114 247.093 410.487 247.2C410.86 247.307 411.18 247.46 411.447 247.66L410.867 249.12C410.427 248.787 409.934 248.62 409.387 248.62ZM422.182 256.76C422.182 256.907 422.168 257.1 422.142 257.34H413.542C413.662 258.273 414.068 259.027 414.762 259.6C415.468 260.16 416.342 260.44 417.382 260.44C418.648 260.44 419.668 260.013 420.442 259.16L421.502 260.4C421.022 260.96 420.422 261.387 419.702 261.68C418.995 261.973 418.202 262.12 417.322 262.12C416.202 262.12 415.208 261.893 414.342 261.44C413.475 260.973 412.802 260.327 412.322 259.5C411.855 258.673 411.622 257.74 411.622 256.7C411.622 255.673 411.848 254.747 412.302 253.92C412.768 253.093 413.402 252.453 414.202 252C415.015 251.533 415.928 251.3 416.942 251.3C417.955 251.3 418.855 251.533 419.642 252C420.442 252.453 421.062 253.093 421.502 253.92C421.955 254.747 422.182 255.693 422.182 256.76ZM416.942 252.92C416.022 252.92 415.248 253.2 414.622 253.76C414.008 254.32 413.648 255.053 413.542 255.96H420.342C420.235 255.067 419.868 254.34 419.242 253.78C418.628 253.207 417.862 252.92 416.942 252.92ZM428.088 262.12C427.221 262.12 426.388 262.007 425.588 261.78C424.788 261.54 424.161 261.24 423.708 260.88L424.508 259.36C424.974 259.693 425.541 259.96 426.208 260.16C426.874 260.36 427.548 260.46 428.228 260.46C429.908 260.46 430.748 259.98 430.748 259.02C430.748 258.7 430.634 258.447 430.408 258.26C430.181 258.073 429.894 257.94 429.548 257.86C429.214 257.767 428.734 257.667 428.108 257.56C427.254 257.427 426.554 257.273 426.008 257.1C425.474 256.927 425.014 256.633 424.628 256.22C424.241 255.807 424.048 255.227 424.048 254.48C424.048 253.52 424.448 252.753 425.248 252.18C426.048 251.593 427.121 251.3 428.468 251.3C429.174 251.3 429.881 251.387 430.588 251.56C431.294 251.733 431.874 251.967 432.328 252.26L431.508 253.78C430.641 253.22 429.621 252.94 428.448 252.94C427.634 252.94 427.014 253.073 426.588 253.34C426.161 253.607 425.948 253.96 425.948 254.4C425.948 254.747 426.068 255.02 426.308 255.22C426.548 255.42 426.841 255.567 427.188 255.66C427.548 255.753 428.048 255.86 428.688 255.98C429.541 256.127 430.228 256.287 430.748 256.46C431.281 256.62 431.734 256.9 432.108 257.3C432.481 257.7 432.668 258.26 432.668 258.98C432.668 259.94 432.254 260.707 431.428 261.28C430.614 261.84 429.501 262.12 428.088 262.12ZM441.227 261.38C440.947 261.62 440.601 261.807 440.187 261.94C439.774 262.06 439.347 262.12 438.907 262.12C437.841 262.12 437.014 261.833 436.427 261.26C435.841 260.687 435.547 259.867 435.547 258.8V252.98H433.747V251.4H435.547V249.08H437.467V251.4H440.507V252.98H437.467V258.72C437.467 259.293 437.607 259.733 437.887 260.04C438.181 260.347 438.594 260.5 439.127 260.5C439.714 260.5 440.214 260.333 440.627 260L441.227 261.38ZM452.933 251.4L447.793 263.06C447.34 264.14 446.807 264.9 446.193 265.34C445.593 265.78 444.867 266 444.013 266C443.493 266 442.987 265.913 442.493 265.74C442.013 265.58 441.613 265.34 441.293 265.02L442.113 263.58C442.66 264.1 443.293 264.36 444.013 264.36C444.48 264.36 444.867 264.233 445.173 263.98C445.493 263.74 445.78 263.32 446.033 262.72L446.373 261.98L441.693 251.4H443.693L447.393 259.88L451.053 251.4H452.933ZM454.925 247.16H456.845V262H454.925V247.16ZM470.291 256.76C470.291 256.907 470.278 257.1 470.251 257.34H461.651C461.771 258.273 462.178 259.027 462.871 259.6C463.578 260.16 464.451 260.44 465.491 260.44C466.758 260.44 467.778 260.013 468.551 259.16L469.611 260.4C469.131 260.96 468.531 261.387 467.811 261.68C467.104 261.973 466.311 262.12 465.431 262.12C464.311 262.12 463.318 261.893 462.451 261.44C461.584 260.973 460.911 260.327 460.431 259.5C459.964 258.673 459.731 257.74 459.731 256.7C459.731 255.673 459.958 254.747 460.411 253.92C460.878 253.093 461.511 252.453 462.311 252C463.124 251.533 464.038 251.3 465.051 251.3C466.064 251.3 466.964 251.533 467.751 252C468.551 252.453 469.171 253.093 469.611 253.92C470.064 254.747 470.291 255.693 470.291 256.76ZM465.051 252.92C464.131 252.92 463.358 253.2 462.731 253.76C462.118 254.32 461.758 255.053 461.651 255.96H468.451C468.344 255.067 467.978 254.34 467.351 253.78C466.738 253.207 465.971 252.92 465.051 252.92ZM482.608 248.62C481.462 248.62 480.888 249.24 480.888 250.48V251.4H483.968V252.98H480.928V262H479.008V252.98H477.208V251.4H479.008V250.46C479.008 249.407 479.315 248.573 479.928 247.96C480.542 247.347 481.402 247.04 482.508 247.04C482.935 247.04 483.335 247.093 483.708 247.2C484.082 247.307 484.402 247.46 484.668 247.66L484.088 249.12C483.648 248.787 483.155 248.62 482.608 248.62ZM490.363 262.12C489.309 262.12 488.363 261.887 487.523 261.42C486.683 260.953 486.023 260.313 485.543 259.5C485.076 258.673 484.843 257.74 484.843 256.7C484.843 255.66 485.076 254.733 485.543 253.92C486.023 253.093 486.683 252.453 487.523 252C488.363 251.533 489.309 251.3 490.363 251.3C491.416 251.3 492.356 251.533 493.183 252C494.023 252.453 494.676 253.093 495.143 253.92C495.623 254.733 495.863 255.66 495.863 256.7C495.863 257.74 495.623 258.673 495.143 259.5C494.676 260.313 494.023 260.953 493.183 261.42C492.356 261.887 491.416 262.12 490.363 262.12ZM490.363 260.44C491.043 260.44 491.649 260.287 492.183 259.98C492.729 259.66 493.156 259.22 493.463 258.66C493.769 258.087 493.923 257.433 493.923 256.7C493.923 255.967 493.769 255.32 493.463 254.76C493.156 254.187 492.729 253.747 492.183 253.44C491.649 253.133 491.043 252.98 490.363 252.98C489.683 252.98 489.069 253.133 488.523 253.44C487.989 253.747 487.563 254.187 487.243 254.76C486.936 255.32 486.783 255.967 486.783 256.7C486.783 257.433 486.936 258.087 487.243 258.66C487.563 259.22 487.989 259.66 488.523 259.98C489.069 260.287 489.683 260.44 490.363 260.44ZM500.558 253.18C500.891 252.567 501.385 252.1 502.038 251.78C502.691 251.46 503.485 251.3 504.418 251.3V253.16C504.311 253.147 504.165 253.14 503.978 253.14C502.938 253.14 502.118 253.453 501.518 254.08C500.931 254.693 500.638 255.573 500.638 256.72V262H498.718V251.4H500.558V253.18ZM522.072 251.4L516.932 263.06C516.479 264.14 515.946 264.9 515.332 265.34C514.732 265.78 514.006 266 513.152 266C512.632 266 512.126 265.913 511.632 265.74C511.152 265.58 510.752 265.34 510.432 265.02L511.252 263.58C511.799 264.1 512.432 264.36 513.152 264.36C513.619 264.36 514.006 264.233 514.312 263.98C514.632 263.74 514.919 263.32 515.172 262.72L515.512 261.98L510.832 251.4H512.832L516.532 259.88L520.192 251.4H522.072ZM528.311 262.12C527.258 262.12 526.311 261.887 525.471 261.42C524.631 260.953 523.971 260.313 523.491 259.5C523.025 258.673 522.791 257.74 522.791 256.7C522.791 255.66 523.025 254.733 523.491 253.92C523.971 253.093 524.631 252.453 525.471 252C526.311 251.533 527.258 251.3 528.311 251.3C529.365 251.3 530.305 251.533 531.131 252C531.971 252.453 532.625 253.093 533.091 253.92C533.571 254.733 533.811 255.66 533.811 256.7C533.811 257.74 533.571 258.673 533.091 259.5C532.625 260.313 531.971 260.953 531.131 261.42C530.305 261.887 529.365 262.12 528.311 262.12ZM528.311 260.44C528.991 260.44 529.598 260.287 530.131 259.98C530.678 259.66 531.105 259.22 531.411 258.66C531.718 258.087 531.871 257.433 531.871 256.7C531.871 255.967 531.718 255.32 531.411 254.76C531.105 254.187 530.678 253.747 530.131 253.44C529.598 253.133 528.991 252.98 528.311 252.98C527.631 252.98 527.018 253.133 526.471 253.44C525.938 253.747 525.511 254.187 525.191 254.76C524.885 255.32 524.731 255.967 524.731 256.7C524.731 257.433 524.885 258.087 525.191 258.66C525.511 259.22 525.938 259.66 526.471 259.98C527.018 260.287 527.631 260.44 528.311 260.44ZM546.546 251.4V262H544.726V260.4C544.34 260.947 543.826 261.373 543.186 261.68C542.56 261.973 541.873 262.12 541.126 262.12C539.713 262.12 538.6 261.733 537.786 260.96C536.973 260.173 536.566 259.02 536.566 257.5V251.4H538.486V257.28C538.486 258.307 538.733 259.087 539.226 259.62C539.72 260.14 540.426 260.4 541.346 260.4C542.36 260.4 543.16 260.093 543.746 259.48C544.333 258.867 544.626 258 544.626 256.88V251.4H546.546ZM552.242 253.18C552.575 252.567 553.068 252.1 553.722 251.78C554.375 251.46 555.168 251.3 556.102 251.3V253.16C555.995 253.147 555.848 253.14 555.662 253.14C554.622 253.14 553.802 253.453 553.202 254.08C552.615 254.693 552.322 255.573 552.322 256.72V262H550.402V251.4H552.242V253.18ZM569.996 251.3C571.023 251.3 571.943 251.527 572.756 251.98C573.569 252.433 574.203 253.067 574.656 253.88C575.123 254.693 575.356 255.633 575.356 256.7C575.356 257.767 575.123 258.713 574.656 259.54C574.203 260.353 573.569 260.987 572.756 261.44C571.943 261.893 571.023 262.12 569.996 262.12C569.236 262.12 568.536 261.973 567.896 261.68C567.269 261.387 566.736 260.96 566.296 260.4V265.88H564.376V251.4H566.216V253.08C566.643 252.493 567.183 252.053 567.836 251.76C568.489 251.453 569.209 251.3 569.996 251.3ZM569.836 260.44C570.516 260.44 571.123 260.287 571.656 259.98C572.203 259.66 572.629 259.22 572.936 258.66C573.256 258.087 573.416 257.433 573.416 256.7C573.416 255.967 573.256 255.32 572.936 254.76C572.629 254.187 572.203 253.747 571.656 253.44C571.123 253.133 570.516 252.98 569.836 252.98C569.169 252.98 568.563 253.14 568.016 253.46C567.483 253.767 567.056 254.2 566.736 254.76C566.429 255.32 566.276 255.967 566.276 256.7C566.276 257.433 566.429 258.087 566.736 258.66C567.043 259.22 567.469 259.66 568.016 259.98C568.563 260.287 569.169 260.44 569.836 260.44ZM587.789 256.76C587.789 256.907 587.775 257.1 587.749 257.34H579.149C579.269 258.273 579.675 259.027 580.369 259.6C581.075 260.16 581.949 260.44 582.989 260.44C584.255 260.44 585.275 260.013 586.049 259.16L587.109 260.4C586.629 260.96 586.029 261.387 585.309 261.68C584.602 261.973 583.809 262.12 582.929 262.12C581.809 262.12 580.815 261.893 579.949 261.44C579.082 260.973 578.409 260.327 577.929 259.5C577.462 258.673 577.229 257.74 577.229 256.7C577.229 255.673 577.455 254.747 577.909 253.92C578.375 253.093 579.009 252.453 579.809 252C580.622 251.533 581.535 251.3 582.549 251.3C583.562 251.3 584.462 251.533 585.249 252C586.049 252.453 586.669 253.093 587.109 253.92C587.562 254.747 587.789 255.693 587.789 256.76ZM582.549 252.92C581.629 252.92 580.855 253.2 580.229 253.76C579.615 254.32 579.255 255.053 579.149 255.96H585.949C585.842 255.067 585.475 254.34 584.849 253.78C584.235 253.207 583.469 252.92 582.549 252.92ZM596.615 261.38C596.335 261.62 595.988 261.807 595.575 261.94C595.161 262.06 594.735 262.12 594.295 262.12C593.228 262.12 592.401 261.833 591.815 261.26C591.228 260.687 590.935 259.867 590.935 258.8V252.98H589.135V251.4H590.935V249.08H592.855V251.4H595.895V252.98H592.855V258.72C592.855 259.293 592.995 259.733 593.275 260.04C593.568 260.347 593.981 260.5 594.515 260.5C595.101 260.5 595.601 260.333 596.015 260L596.615 261.38ZM602.176 262.12C601.309 262.12 600.476 262.007 599.676 261.78C598.876 261.54 598.249 261.24 597.796 260.88L598.596 259.36C599.063 259.693 599.629 259.96 600.296 260.16C600.963 260.36 601.636 260.46 602.316 260.46C603.996 260.46 604.836 259.98 604.836 259.02C604.836 258.7 604.723 258.447 604.496 258.26C604.269 258.073 603.983 257.94 603.636 257.86C603.303 257.767 602.823 257.667 602.196 257.56C601.343 257.427 600.643 257.273 600.096 257.1C599.563 256.927 599.103 256.633 598.716 256.22C598.329 255.807 598.136 255.227 598.136 254.48C598.136 253.52 598.536 252.753 599.336 252.18C600.136 251.593 601.209 251.3 602.556 251.3C603.263 251.3 603.969 251.387 604.676 251.56C605.383 251.733 605.963 251.967 606.416 252.26L605.596 253.78C604.729 253.22 603.709 252.94 602.536 252.94C601.723 252.94 601.103 253.073 600.676 253.34C600.249 253.607 600.036 253.96 600.036 254.4C600.036 254.747 600.156 255.02 600.396 255.22C600.636 255.42 600.929 255.567 601.276 255.66C601.636 255.753 602.136 255.86 602.776 255.98C603.629 256.127 604.316 256.287 604.836 256.46C605.369 256.62 605.823 256.9 606.196 257.3C606.569 257.7 606.756 258.26 606.756 258.98C606.756 259.94 606.343 260.707 605.516 261.28C604.703 261.84 603.589 262.12 602.176 262.12ZM609.816 262.12C609.442 262.12 609.122 261.993 608.856 261.74C608.589 261.473 608.456 261.14 608.456 260.74C608.456 260.353 608.589 260.033 608.856 259.78C609.122 259.513 609.442 259.38 609.816 259.38C610.189 259.38 610.502 259.507 610.756 259.76C611.009 260.013 611.136 260.34 611.136 260.74C611.136 261.14 611.002 261.473 610.736 261.74C610.482 261.993 610.176 262.12 609.816 262.12Z" fill="#737373"/>
<rect x="300" y="310" width="131" height="48" rx="24" fill="#FF7B47"/>
<path d="M340.639 339.168C339.865 339.168 339.113 339.065 338.385 338.86C337.667 338.645 337.088 338.37 336.649 338.034L337.419 336.326C337.839 336.634 338.339 336.881 338.917 337.068C339.496 337.255 340.075 337.348 340.653 337.348C341.297 337.348 341.773 337.255 342.081 337.068C342.389 336.872 342.543 336.615 342.543 336.298C342.543 336.065 342.45 335.873 342.263 335.724C342.086 335.565 341.853 335.439 341.563 335.346C341.283 335.253 340.901 335.15 340.415 335.038C339.669 334.861 339.057 334.683 338.581 334.506C338.105 334.329 337.695 334.044 337.349 333.652C337.013 333.26 336.845 332.737 336.845 332.084C336.845 331.515 336.999 331.001 337.307 330.544C337.615 330.077 338.077 329.709 338.693 329.438C339.319 329.167 340.079 329.032 340.975 329.032C341.601 329.032 342.212 329.107 342.809 329.256C343.407 329.405 343.929 329.62 344.377 329.9L343.677 331.622C342.772 331.109 341.867 330.852 340.961 330.852C340.327 330.852 339.855 330.955 339.547 331.16C339.249 331.365 339.099 331.636 339.099 331.972C339.099 332.308 339.272 332.56 339.617 332.728C339.972 332.887 340.509 333.045 341.227 333.204C341.974 333.381 342.585 333.559 343.061 333.736C343.537 333.913 343.943 334.193 344.279 334.576C344.625 334.959 344.797 335.477 344.797 336.13C344.797 336.69 344.639 337.203 344.321 337.67C344.013 338.127 343.547 338.491 342.921 338.762C342.296 339.033 341.535 339.168 340.639 339.168ZM346.393 331.468H348.577V339H346.393V331.468ZM347.485 330.418C347.084 330.418 346.757 330.301 346.505 330.068C346.253 329.835 346.127 329.545 346.127 329.2C346.127 328.855 346.253 328.565 346.505 328.332C346.757 328.099 347.084 327.982 347.485 327.982C347.886 327.982 348.213 328.094 348.465 328.318C348.717 328.542 348.843 328.822 348.843 329.158C348.843 329.522 348.717 329.825 348.465 330.068C348.213 330.301 347.886 330.418 347.485 330.418ZM358.574 331.468V337.74C358.574 339.121 358.215 340.148 357.496 340.82C356.777 341.492 355.727 341.828 354.346 341.828C353.618 341.828 352.927 341.739 352.274 341.562C351.621 341.385 351.079 341.128 350.65 340.792L351.518 339.224C351.835 339.485 352.237 339.691 352.722 339.84C353.207 339.999 353.693 340.078 354.178 340.078C354.934 340.078 355.489 339.905 355.844 339.56C356.208 339.224 356.39 338.711 356.39 338.02V337.698C355.821 338.323 355.027 338.636 354.01 338.636C353.319 338.636 352.685 338.487 352.106 338.188C351.537 337.88 351.084 337.451 350.748 336.9C350.412 336.349 350.244 335.715 350.244 334.996C350.244 334.277 350.412 333.643 350.748 333.092C351.084 332.541 351.537 332.117 352.106 331.818C352.685 331.51 353.319 331.356 354.01 331.356C355.102 331.356 355.933 331.715 356.502 332.434V331.468H358.574ZM354.444 336.844C355.023 336.844 355.494 336.676 355.858 336.34C356.231 335.995 356.418 335.547 356.418 334.996C356.418 334.445 356.231 334.002 355.858 333.666C355.494 333.321 355.023 333.148 354.444 333.148C353.865 333.148 353.389 333.321 353.016 333.666C352.643 334.002 352.456 334.445 352.456 334.996C352.456 335.547 352.643 335.995 353.016 336.34C353.389 336.676 353.865 336.844 354.444 336.844ZM365.385 331.356C366.318 331.356 367.069 331.636 367.639 332.196C368.217 332.756 368.507 333.587 368.507 334.688V339H366.323V335.024C366.323 334.427 366.192 333.983 365.931 333.694C365.669 333.395 365.291 333.246 364.797 333.246C364.246 333.246 363.807 333.419 363.481 333.764C363.154 334.1 362.991 334.604 362.991 335.276V339H360.807V331.468H362.893V332.35C363.182 332.033 363.541 331.79 363.971 331.622C364.4 331.445 364.871 331.356 365.385 331.356ZM379.359 339.168C377.959 339.168 376.867 338.781 376.083 338.006C375.309 337.231 374.921 336.125 374.921 334.688V329.2H377.189V334.604C377.189 336.359 377.917 337.236 379.373 337.236C380.083 337.236 380.624 337.026 380.997 336.606C381.371 336.177 381.557 335.509 381.557 334.604V329.2H383.797V334.688C383.797 336.125 383.405 337.231 382.621 338.006C381.847 338.781 380.759 339.168 379.359 339.168ZM390.537 331.356C391.237 331.356 391.871 331.519 392.441 331.846C393.019 332.163 393.472 332.616 393.799 333.204C394.125 333.783 394.289 334.459 394.289 335.234C394.289 336.009 394.125 336.69 393.799 337.278C393.472 337.857 393.019 338.309 392.441 338.636C391.871 338.953 391.237 339.112 390.537 339.112C389.575 339.112 388.819 338.809 388.269 338.202V341.716H386.085V331.468H388.171V332.336C388.712 331.683 389.501 331.356 390.537 331.356ZM390.159 337.32C390.719 337.32 391.176 337.133 391.531 336.76C391.895 336.377 392.077 335.869 392.077 335.234C392.077 334.599 391.895 334.095 391.531 333.722C391.176 333.339 390.719 333.148 390.159 333.148C389.599 333.148 389.137 333.339 388.773 333.722C388.418 334.095 388.241 334.599 388.241 335.234C388.241 335.869 388.418 336.377 388.773 336.76C389.137 337.133 389.599 337.32 390.159 337.32Z" fill="white"/>
<path d="M478.549 329.2H480.817V337.152H485.731V339H478.549V329.2ZM490.573 339.112C489.78 339.112 489.066 338.949 488.431 338.622C487.806 338.286 487.316 337.824 486.961 337.236C486.607 336.648 486.429 335.981 486.429 335.234C486.429 334.487 486.607 333.82 486.961 333.232C487.316 332.644 487.806 332.187 488.431 331.86C489.066 331.524 489.78 331.356 490.573 331.356C491.367 331.356 492.076 331.524 492.701 331.86C493.327 332.187 493.817 332.644 494.171 333.232C494.526 333.82 494.703 334.487 494.703 335.234C494.703 335.981 494.526 336.648 494.171 337.236C493.817 337.824 493.327 338.286 492.701 338.622C492.076 338.949 491.367 339.112 490.573 339.112ZM490.573 337.32C491.133 337.32 491.591 337.133 491.945 336.76C492.309 336.377 492.491 335.869 492.491 335.234C492.491 334.599 492.309 334.095 491.945 333.722C491.591 333.339 491.133 333.148 490.573 333.148C490.013 333.148 489.551 333.339 489.187 333.722C488.823 334.095 488.641 334.599 488.641 335.234C488.641 335.869 488.823 336.377 489.187 336.76C489.551 337.133 490.013 337.32 490.573 337.32ZM504.133 331.468V337.74C504.133 339.121 503.774 340.148 503.055 340.82C502.336 341.492 501.286 341.828 499.905 341.828C499.177 341.828 498.486 341.739 497.833 341.562C497.18 341.385 496.638 341.128 496.209 340.792L497.077 339.224C497.394 339.485 497.796 339.691 498.281 339.84C498.766 339.999 499.252 340.078 499.737 340.078C500.493 340.078 501.048 339.905 501.403 339.56C501.767 339.224 501.949 338.711 501.949 338.02V337.698C501.38 338.323 500.586 338.636 499.569 338.636C498.878 338.636 498.244 338.487 497.665 338.188C497.096 337.88 496.643 337.451 496.307 336.9C495.971 336.349 495.803 335.715 495.803 334.996C495.803 334.277 495.971 333.643 496.307 333.092C496.643 332.541 497.096 332.117 497.665 331.818C498.244 331.51 498.878 331.356 499.569 331.356C500.661 331.356 501.492 331.715 502.061 332.434V331.468H504.133ZM500.003 336.844C500.582 336.844 501.053 336.676 501.417 336.34C501.79 335.995 501.977 335.547 501.977 334.996C501.977 334.445 501.79 334.002 501.417 333.666C501.053 333.321 500.582 333.148 500.003 333.148C499.424 333.148 498.948 333.321 498.575 333.666C498.202 334.002 498.015 334.445 498.015 334.996C498.015 335.547 498.202 335.995 498.575 336.34C498.948 336.676 499.424 336.844 500.003 336.844ZM510.531 331.468H512.715V339H510.531V331.468ZM511.623 330.418C511.221 330.418 510.895 330.301 510.643 330.068C510.391 329.835 510.265 329.545 510.265 329.2C510.265 328.855 510.391 328.565 510.643 328.332C510.895 328.099 511.221 327.982 511.623 327.982C512.024 327.982 512.351 328.094 512.603 328.318C512.855 328.542 512.981 328.822 512.981 329.158C512.981 329.522 512.855 329.825 512.603 330.068C512.351 330.301 512.024 330.418 511.623 330.418ZM519.52 331.356C520.453 331.356 521.204 331.636 521.774 332.196C522.352 332.756 522.642 333.587 522.642 334.688V339H520.458V335.024C520.458 334.427 520.327 333.983 520.066 333.694C519.804 333.395 519.426 333.246 518.932 333.246C518.381 333.246 517.942 333.419 517.616 333.764C517.289 334.1 517.126 334.604 517.126 335.276V339H514.942V331.468H517.028V332.35C517.317 332.033 517.676 331.79 518.106 331.622C518.535 331.445 519.006 331.356 519.52 331.356Z" fill="#0D5C63"/>
<rect x="441.5" y="310.5" width="118" height="47" rx="23.5" stroke="#0D5C63"/>
<defs>
<filter id="filter0_d" x="193.07" y="52.7441" width="471.211" height="139.336" filterUnits="userSpaceOnUse" color-interpolation-filters="sRGB">
<feFlood flood-opacity="0" result="BackgroundImageFix"/>
<feColorMatrix in="SourceAlpha" type="matrix" values="0 0 0 0 0 0 0 0 0 0 0 0 0 0 0 0 0 0 127 0"/>
<feOffset dy="4"/>
<feGaussianBlur stdDeviation="2"/>
<feColorMatrix type="matrix" values="0 0 0 0 0 0 0 0 0 0 0 0 0 0 0 0 0 0 0.25 0"/>
<feBlend mode="normal" in2="BackgroundImageFix" result="effect1_dropShadow"/>
<feBlend mode="normal" in="SourceGraphic" in2="effect1_dropShadow" result="shape"/>
</filter>
</defs>
</svg>
