<svg width="304" height="94" viewBox="0 0 304 94" fill="none" xmlns="http://www.w3.org/2000/svg">
<path d="M9.714 8.55H4.506L3.428 11H1.986L6.424 1.2H7.81L12.262 11H10.792L9.714 8.55ZM9.224 7.43L7.11 2.628L4.996 7.43H9.224ZM16.8935 11.084C16.1375 11.084 15.4609 10.9207 14.8635 10.594C14.2755 10.2673 13.8135 9.81933 13.4775 9.25C13.1415 8.67133 12.9735 8.018 12.9735 7.29C12.9735 6.562 13.1415 5.91333 13.4775 5.344C13.8135 4.76533 14.2755 4.31733 14.8635 4C15.4609 3.67333 16.1375 3.51 16.8935 3.51C17.5655 3.51 18.1629 3.64533 18.6855 3.916C19.2175 4.18667 19.6282 4.57867 19.9175 5.092L18.8955 5.75C18.6622 5.39533 18.3729 5.12933 18.0275 4.952C17.6822 4.77467 17.2995 4.686 16.8795 4.686C16.3942 4.686 15.9555 4.79333 15.5635 5.008C15.1809 5.22267 14.8775 5.53067 14.6535 5.932C14.4389 6.324 14.3315 6.77667 14.3315 7.29C14.3315 7.81267 14.4389 8.27467 14.6535 8.676C14.8775 9.068 15.1809 9.37133 15.5635 9.586C15.9555 9.80067 16.3942 9.908 16.8795 9.908C17.2995 9.908 17.6822 9.81933 18.0275 9.642C18.3729 9.46467 18.6622 9.19867 18.8955 8.844L19.9175 9.488C19.6282 10.0013 19.2175 10.398 18.6855 10.678C18.1629 10.9487 17.5655 11.084 16.8935 11.084ZM24.9822 11.084C24.2262 11.084 23.5496 10.9207 22.9522 10.594C22.3642 10.2673 21.9022 9.81933 21.5662 9.25C21.2302 8.67133 21.0622 8.018 21.0622 7.29C21.0622 6.562 21.2302 5.91333 21.5662 5.344C21.9022 4.76533 22.3642 4.31733 22.9522 4C23.5496 3.67333 24.2262 3.51 24.9822 3.51C25.6542 3.51 26.2516 3.64533 26.7742 3.916C27.3062 4.18667 27.7169 4.57867 28.0062 5.092L26.9842 5.75C26.7509 5.39533 26.4616 5.12933 26.1162 4.952C25.7709 4.77467 25.3882 4.686 24.9682 4.686C24.4829 4.686 24.0442 4.79333 23.6522 5.008C23.2696 5.22267 22.9662 5.53067 22.7422 5.932C22.5276 6.324 22.4202 6.77667 22.4202 7.29C22.4202 7.81267 22.5276 8.27467 22.7422 8.676C22.9662 9.068 23.2696 9.37133 23.6522 9.586C24.0442 9.80067 24.4829 9.908 24.9682 9.908C25.3882 9.908 25.7709 9.81933 26.1162 9.642C26.4616 9.46467 26.7509 9.19867 26.9842 8.844L28.0062 9.488C27.7169 10.0013 27.3062 10.398 26.7742 10.678C26.2516 10.9487 25.6542 11.084 24.9822 11.084ZM36.5429 7.332C36.5429 7.43467 36.5336 7.57 36.5149 7.738H30.4949C30.5789 8.39133 30.8636 8.91867 31.3489 9.32C31.8436 9.712 32.4549 9.908 33.1829 9.908C34.0696 9.908 34.7836 9.60933 35.3249 9.012L36.0669 9.88C35.7309 10.272 35.3109 10.5707 34.8069 10.776C34.3122 10.9813 33.7569 11.084 33.1409 11.084C32.3569 11.084 31.6616 10.9253 31.0549 10.608C30.4482 10.2813 29.9769 9.82867 29.6409 9.25C29.3142 8.67133 29.1509 8.018 29.1509 7.29C29.1509 6.57133 29.3096 5.92267 29.6269 5.344C29.9536 4.76533 30.3969 4.31733 30.9569 4C31.5262 3.67333 32.1656 3.51 32.8749 3.51C33.5842 3.51 34.2142 3.67333 34.7649 4C35.3249 4.31733 35.7589 4.76533 36.0669 5.344C36.3842 5.92267 36.5429 6.58533 36.5429 7.332ZM32.8749 4.644C32.2309 4.644 31.6896 4.84 31.2509 5.232C30.8216 5.624 30.5696 6.13733 30.4949 6.772H35.2549C35.1802 6.14667 34.9236 5.638 34.4849 5.246C34.0556 4.84467 33.5189 4.644 32.8749 4.644ZM40.7372 11.084C40.1305 11.084 39.5472 11.0047 38.9872 10.846C38.4272 10.678 37.9885 10.468 37.6712 10.216L38.2312 9.152C38.5578 9.38533 38.9545 9.572 39.4212 9.712C39.8878 9.852 40.3592 9.922 40.8352 9.922C42.0112 9.922 42.5992 9.586 42.5992 8.914C42.5992 8.69 42.5198 8.51267 42.3612 8.382C42.2025 8.25133 42.0018 8.158 41.7592 8.102C41.5258 8.03667 41.1898 7.96667 40.7512 7.892C40.1538 7.79867 39.6638 7.69133 39.2812 7.57C38.9078 7.44867 38.5858 7.24333 38.3152 6.954C38.0445 6.66467 37.9092 6.25867 37.9092 5.736C37.9092 5.064 38.1892 4.52733 38.7492 4.126C39.3092 3.71533 40.0605 3.51 41.0032 3.51C41.4978 3.51 41.9925 3.57067 42.4872 3.692C42.9818 3.81333 43.3878 3.97667 43.7052 4.182L43.1312 5.246C42.5245 4.854 41.8105 4.658 40.9892 4.658C40.4198 4.658 39.9858 4.75133 39.6872 4.938C39.3885 5.12467 39.2392 5.372 39.2392 5.68C39.2392 5.92267 39.3232 6.114 39.4912 6.254C39.6592 6.394 39.8645 6.49667 40.1072 6.562C40.3592 6.62733 40.7092 6.702 41.1572 6.786C41.7545 6.88867 42.2352 7.00067 42.5992 7.122C42.9725 7.234 43.2898 7.43 43.5512 7.71C43.8125 7.99 43.9432 8.382 43.9432 8.886C43.9432 9.558 43.6538 10.0947 43.0752 10.496C42.5058 10.888 41.7265 11.084 40.7372 11.084ZM47.9508 11.084C47.3442 11.084 46.7608 11.0047 46.2008 10.846C45.6408 10.678 45.2022 10.468 44.8848 10.216L45.4448 9.152C45.7715 9.38533 46.1682 9.572 46.6348 9.712C47.1015 9.852 47.5728 9.922 48.0488 9.922C49.2248 9.922 49.8128 9.586 49.8128 8.914C49.8128 8.69 49.7335 8.51267 49.5748 8.382C49.4162 8.25133 49.2155 8.158 48.9728 8.102C48.7395 8.03667 48.4035 7.96667 47.9648 7.892C47.3675 7.79867 46.8775 7.69133 46.4948 7.57C46.1215 7.44867 45.7995 7.24333 45.5288 6.954C45.2582 6.66467 45.1228 6.25867 45.1228 5.736C45.1228 5.064 45.4028 4.52733 45.9628 4.126C46.5228 3.71533 47.2742 3.51 48.2168 3.51C48.7115 3.51 49.2062 3.57067 49.7008 3.692C50.1955 3.81333 50.6015 3.97667 50.9188 4.182L50.3448 5.246C49.7382 4.854 49.0242 4.658 48.2028 4.658C47.6335 4.658 47.1995 4.75133 46.9008 4.938C46.6022 5.12467 46.4528 5.372 46.4528 5.68C46.4528 5.92267 46.5368 6.114 46.7048 6.254C46.8728 6.394 47.0782 6.49667 47.3208 6.562C47.5728 6.62733 47.9228 6.702 48.3708 6.786C48.9682 6.88867 49.4488 7.00067 49.8128 7.122C50.1862 7.234 50.5035 7.43 50.7648 7.71C51.0262 7.99 51.1568 8.382 51.1568 8.886C51.1568 9.558 50.8675 10.0947 50.2888 10.496C49.7195 10.888 48.9402 11.084 47.9508 11.084ZM53.0365 3.58H54.3805V11H53.0365V3.58ZM53.7085 2.152C53.4472 2.152 53.2278 2.068 53.0505 1.9C52.8825 1.732 52.7985 1.52667 52.7985 1.284C52.7985 1.04133 52.8825 0.836 53.0505 0.668C53.2278 0.490666 53.4472 0.402 53.7085 0.402C53.9698 0.402 54.1845 0.486 54.3525 0.654C54.5298 0.812666 54.6185 1.01333 54.6185 1.256C54.6185 1.508 54.5298 1.72267 54.3525 1.9C54.1845 2.068 53.9698 2.152 53.7085 2.152ZM61.0807 3.51C61.7993 3.51 62.4433 3.66867 63.0127 3.986C63.582 4.30333 64.0253 4.74667 64.3427 5.316C64.6693 5.88533 64.8327 6.54333 64.8327 7.29C64.8327 8.03667 64.6693 8.69933 64.3427 9.278C64.0253 9.84733 63.582 10.2907 63.0127 10.608C62.4433 10.9253 61.7993 11.084 61.0807 11.084C60.53 11.084 60.026 10.9767 59.5687 10.762C59.1113 10.5473 58.7333 10.2347 58.4347 9.824V11H57.1467V0.611999H58.4907V4.7C58.7893 4.308 59.1627 4.014 59.6107 3.818C60.0587 3.61267 60.5487 3.51 61.0807 3.51ZM60.9687 9.908C61.4447 9.908 61.8693 9.80067 62.2427 9.586C62.6253 9.362 62.924 9.054 63.1387 8.662C63.3627 8.26067 63.4747 7.80333 63.4747 7.29C63.4747 6.77667 63.3627 6.324 63.1387 5.932C62.924 5.53067 62.6253 5.22267 62.2427 5.008C61.8693 4.79333 61.4447 4.686 60.9687 4.686C60.502 4.686 60.0773 4.79333 59.6947 5.008C59.312 5.22267 59.0133 5.53067 58.7987 5.932C58.584 6.324 58.4767 6.77667 58.4767 7.29C58.4767 7.80333 58.584 8.26067 58.7987 8.662C59.0133 9.054 59.312 9.362 59.6947 9.586C60.0773 9.80067 60.502 9.908 60.9687 9.908ZM66.8896 0.611999H68.2336V11H66.8896V0.611999ZM77.7058 7.332C77.7058 7.43467 77.6965 7.57 77.6778 7.738H71.6578C71.7418 8.39133 72.0265 8.91867 72.5118 9.32C73.0065 9.712 73.6178 9.908 74.3458 9.908C75.2325 9.908 75.9465 9.60933 76.4878 9.012L77.2298 9.88C76.8938 10.272 76.4738 10.5707 75.9698 10.776C75.4751 10.9813 74.9198 11.084 74.3038 11.084C73.5198 11.084 72.8245 10.9253 72.2178 10.608C71.6111 10.2813 71.1398 9.82867 70.8038 9.25C70.4771 8.67133 70.3138 8.018 70.3138 7.29C70.3138 6.57133 70.4725 5.92267 70.7898 5.344C71.1165 4.76533 71.5598 4.31733 72.1198 4C72.6891 3.67333 73.3285 3.51 74.0378 3.51C74.7471 3.51 75.3771 3.67333 75.9278 4C76.4878 4.31733 76.9218 4.76533 77.2298 5.344C77.5471 5.92267 77.7058 6.58533 77.7058 7.332ZM74.0378 4.644C73.3938 4.644 72.8525 4.84 72.4138 5.232C71.9845 5.624 71.7325 6.13733 71.6578 6.772H76.4178C76.3431 6.14667 76.0865 5.638 75.6478 5.246C75.2185 4.84467 74.6818 4.644 74.0378 4.644ZM86.4338 3.51C87.4605 3.51 88.2445 3.762 88.7858 4.266C89.3365 4.77 89.6118 5.52133 89.6118 6.52V11H88.3378V10.02C88.1138 10.3653 87.7918 10.6313 87.3718 10.818C86.9611 10.9953 86.4711 11.084 85.9018 11.084C85.0711 11.084 84.4038 10.8833 83.8998 10.482C83.4051 10.0807 83.1578 9.55333 83.1578 8.9C83.1578 8.24667 83.3958 7.724 83.8718 7.332C84.3478 6.93067 85.1038 6.73 86.1398 6.73H88.2678V6.464C88.2678 5.88533 88.0998 5.442 87.7638 5.134C87.4278 4.826 86.9331 4.672 86.2798 4.672C85.8411 4.672 85.4118 4.74667 84.9918 4.896C84.5718 5.036 84.2171 5.22733 83.9278 5.47L83.3678 4.462C83.7505 4.154 84.2078 3.92067 84.7398 3.762C85.2718 3.594 85.8365 3.51 86.4338 3.51ZM86.1258 10.048C86.6391 10.048 87.0825 9.936 87.4558 9.712C87.8291 9.47867 88.0998 9.152 88.2678 8.732V7.696H86.1958C85.0571 7.696 84.4878 8.07867 84.4878 8.844C84.4878 9.21733 84.6325 9.51133 84.9218 9.726C85.2111 9.94067 85.6125 10.048 86.1258 10.048ZM96.261 3.51C97.2037 3.51 97.9503 3.78533 98.501 4.336C99.061 4.87733 99.341 5.67533 99.341 6.73V11H97.997V6.884C97.997 6.16533 97.8243 5.624 97.479 5.26C97.1337 4.896 96.639 4.714 95.995 4.714C95.267 4.714 94.693 4.92867 94.273 5.358C93.853 5.778 93.643 6.38467 93.643 7.178V11H92.299V3.58H93.587V4.7C93.8577 4.31733 94.2217 4.02333 94.679 3.818C95.1457 3.61267 95.673 3.51 96.261 3.51ZM109.069 0.611999V11H107.781V9.824C107.483 10.2347 107.105 10.5473 106.647 10.762C106.19 10.9767 105.686 11.084 105.135 11.084C104.417 11.084 103.773 10.9253 103.203 10.608C102.634 10.2907 102.186 9.84733 101.859 9.278C101.542 8.69933 101.383 8.03667 101.383 7.29C101.383 6.54333 101.542 5.88533 101.859 5.316C102.186 4.74667 102.634 4.30333 103.203 3.986C103.773 3.66867 104.417 3.51 105.135 3.51C105.667 3.51 106.157 3.61267 106.605 3.818C107.053 4.014 107.427 4.308 107.725 4.7V0.611999H109.069ZM105.247 9.908C105.714 9.908 106.139 9.80067 106.521 9.586C106.904 9.362 107.203 9.054 107.417 8.662C107.632 8.26067 107.739 7.80333 107.739 7.29C107.739 6.77667 107.632 6.324 107.417 5.932C107.203 5.53067 106.904 5.22267 106.521 5.008C106.139 4.79333 105.714 4.686 105.247 4.686C104.771 4.686 104.342 4.79333 103.959 5.008C103.586 5.22267 103.287 5.53067 103.063 5.932C102.849 6.324 102.741 6.77667 102.741 7.29C102.741 7.80333 102.849 8.26067 103.063 8.662C103.287 9.054 103.586 9.362 103.959 9.586C104.342 9.80067 104.771 9.908 105.247 9.908ZM122.478 7.332C122.478 7.43467 122.469 7.57 122.45 7.738H116.43C116.514 8.39133 116.799 8.91867 117.284 9.32C117.779 9.712 118.39 9.908 119.118 9.908C120.005 9.908 120.719 9.60933 121.26 9.012L122.002 9.88C121.666 10.272 121.246 10.5707 120.742 10.776C120.247 10.9813 119.692 11.084 119.076 11.084C118.292 11.084 117.597 10.9253 116.99 10.608C116.383 10.2813 115.912 9.82867 115.576 9.25C115.249 8.67133 115.086 8.018 115.086 7.29C115.086 6.57133 115.245 5.92267 115.562 5.344C115.889 4.76533 116.332 4.31733 116.892 4C117.461 3.67333 118.101 3.51 118.81 3.51C119.519 3.51 120.149 3.67333 120.7 4C121.26 4.31733 121.694 4.76533 122.002 5.344C122.319 5.92267 122.478 6.58533 122.478 7.332ZM118.81 4.644C118.166 4.644 117.625 4.84 117.186 5.232C116.757 5.624 116.505 6.13733 116.43 6.772H121.19C121.115 6.14667 120.859 5.638 120.42 5.246C119.991 4.84467 119.454 4.644 118.81 4.644ZM128.506 3.51C129.449 3.51 130.196 3.78533 130.746 4.336C131.306 4.87733 131.586 5.67533 131.586 6.73V11H130.242V6.884C130.242 6.16533 130.07 5.624 129.724 5.26C129.379 4.896 128.884 4.714 128.24 4.714C127.512 4.714 126.938 4.92867 126.518 5.358C126.098 5.778 125.888 6.38467 125.888 7.178V11H124.544V3.58H125.832V4.7C126.103 4.31733 126.467 4.02333 126.924 3.818C127.391 3.61267 127.918 3.51 128.506 3.51ZM141.413 3.58V9.992C141.413 11.2893 141.091 12.246 140.447 12.862C139.803 13.4873 138.841 13.8 137.563 13.8C136.863 13.8 136.195 13.702 135.561 13.506C134.926 13.3193 134.413 13.0487 134.021 12.694L134.665 11.658C135.01 11.9567 135.435 12.19 135.939 12.358C136.452 12.5353 136.979 12.624 137.521 12.624C138.389 12.624 139.028 12.4187 139.439 12.008C139.859 11.5973 140.069 10.972 140.069 10.132V9.544C139.751 9.92667 139.359 10.216 138.893 10.412C138.435 10.5987 137.936 10.692 137.395 10.692C136.685 10.692 136.041 10.5427 135.463 10.244C134.893 9.936 134.445 9.51133 134.119 8.97C133.792 8.41933 133.629 7.794 133.629 7.094C133.629 6.394 133.792 5.77333 134.119 5.232C134.445 4.68133 134.893 4.25667 135.463 3.958C136.041 3.65933 136.685 3.51 137.395 3.51C137.955 3.51 138.473 3.61267 138.949 3.818C139.434 4.02333 139.831 4.32667 140.139 4.728V3.58H141.413ZM137.549 9.516C138.034 9.516 138.468 9.41333 138.851 9.208C139.243 9.00267 139.546 8.718 139.761 8.354C139.985 7.98067 140.097 7.56067 140.097 7.094C140.097 6.37533 139.859 5.79667 139.383 5.358C138.907 4.91 138.295 4.686 137.549 4.686C136.793 4.686 136.177 4.91 135.701 5.358C135.225 5.79667 134.987 6.37533 134.987 7.094C134.987 7.56067 135.094 7.98067 135.309 8.354C135.533 8.718 135.836 9.00267 136.219 9.208C136.611 9.41333 137.054 9.516 137.549 9.516ZM146.883 3.51C147.909 3.51 148.693 3.762 149.235 4.266C149.785 4.77 150.061 5.52133 150.061 6.52V11H148.787V10.02C148.563 10.3653 148.241 10.6313 147.821 10.818C147.41 10.9953 146.92 11.084 146.351 11.084C145.52 11.084 144.853 10.8833 144.349 10.482C143.854 10.0807 143.607 9.55333 143.607 8.9C143.607 8.24667 143.845 7.724 144.321 7.332C144.797 6.93067 145.553 6.73 146.589 6.73H148.717V6.464C148.717 5.88533 148.549 5.442 148.213 5.134C147.877 4.826 147.382 4.672 146.729 4.672C146.29 4.672 145.861 4.74667 145.441 4.896C145.021 5.036 144.666 5.22733 144.377 5.47L143.817 4.462C144.199 4.154 144.657 3.92067 145.189 3.762C145.721 3.594 146.285 3.51 146.883 3.51ZM146.575 10.048C147.088 10.048 147.531 9.936 147.905 9.712C148.278 9.47867 148.549 9.152 148.717 8.732V7.696H146.645C145.506 7.696 144.937 8.07867 144.937 8.844C144.937 9.21733 145.081 9.51133 145.371 9.726C145.66 9.94067 146.061 10.048 146.575 10.048ZM159.887 3.58V9.992C159.887 11.2893 159.565 12.246 158.921 12.862C158.277 13.4873 157.316 13.8 156.037 13.8C155.337 13.8 154.67 13.702 154.035 13.506C153.4 13.3193 152.887 13.0487 152.495 12.694L153.139 11.658C153.484 11.9567 153.909 12.19 154.413 12.358C154.926 12.5353 155.454 12.624 155.995 12.624C156.863 12.624 157.502 12.4187 157.913 12.008C158.333 11.5973 158.543 10.972 158.543 10.132V9.544C158.226 9.92667 157.834 10.216 157.367 10.412C156.91 10.5987 156.41 10.692 155.869 10.692C155.16 10.692 154.516 10.5427 153.937 10.244C153.368 9.936 152.92 9.51133 152.593 8.97C152.266 8.41933 152.103 7.794 152.103 7.094C152.103 6.394 152.266 5.77333 152.593 5.232C152.92 4.68133 153.368 4.25667 153.937 3.958C154.516 3.65933 155.16 3.51 155.869 3.51C156.429 3.51 156.947 3.61267 157.423 3.818C157.908 4.02333 158.305 4.32667 158.613 4.728V3.58H159.887ZM156.023 9.516C156.508 9.516 156.942 9.41333 157.325 9.208C157.717 9.00267 158.02 8.718 158.235 8.354C158.459 7.98067 158.571 7.56067 158.571 7.094C158.571 6.37533 158.333 5.79667 157.857 5.358C157.381 4.91 156.77 4.686 156.023 4.686C155.267 4.686 154.651 4.91 154.175 5.358C153.699 5.79667 153.461 6.37533 153.461 7.094C153.461 7.56067 153.568 7.98067 153.783 8.354C154.007 8.718 154.31 9.00267 154.693 9.208C155.085 9.41333 155.528 9.516 156.023 9.516ZM162.655 3.58H163.999V11H162.655V3.58ZM163.327 2.152C163.066 2.152 162.846 2.068 162.669 1.9C162.501 1.732 162.417 1.52667 162.417 1.284C162.417 1.04133 162.501 0.836 162.669 0.668C162.846 0.490666 163.066 0.402 163.327 0.402C163.588 0.402 163.803 0.486 163.971 0.654C164.148 0.812666 164.237 1.01333 164.237 1.256C164.237 1.508 164.148 1.72267 163.971 1.9C163.803 2.068 163.588 2.152 163.327 2.152ZM170.727 3.51C171.67 3.51 172.416 3.78533 172.967 4.336C173.527 4.87733 173.807 5.67533 173.807 6.73V11H172.463V6.884C172.463 6.16533 172.29 5.624 171.945 5.26C171.6 4.896 171.105 4.714 170.461 4.714C169.733 4.714 169.159 4.92867 168.739 5.358C168.319 5.778 168.109 6.38467 168.109 7.178V11H166.765V3.58H168.053V4.7C168.324 4.31733 168.688 4.02333 169.145 3.818C169.612 3.61267 170.139 3.51 170.727 3.51ZM183.633 3.58V9.992C183.633 11.2893 183.311 12.246 182.667 12.862C182.023 13.4873 181.062 13.8 179.783 13.8C179.083 13.8 178.416 13.702 177.781 13.506C177.147 13.3193 176.633 13.0487 176.241 12.694L176.885 11.658C177.231 11.9567 177.655 12.19 178.159 12.358C178.673 12.5353 179.2 12.624 179.741 12.624C180.609 12.624 181.249 12.4187 181.659 12.008C182.079 11.5973 182.289 10.972 182.289 10.132V9.544C181.972 9.92667 181.58 10.216 181.113 10.412C180.656 10.5987 180.157 10.692 179.615 10.692C178.906 10.692 178.262 10.5427 177.683 10.244C177.114 9.936 176.666 9.51133 176.339 8.97C176.013 8.41933 175.849 7.794 175.849 7.094C175.849 6.394 176.013 5.77333 176.339 5.232C176.666 4.68133 177.114 4.25667 177.683 3.958C178.262 3.65933 178.906 3.51 179.615 3.51C180.175 3.51 180.693 3.61267 181.169 3.818C181.655 4.02333 182.051 4.32667 182.359 4.728V3.58H183.633ZM179.769 9.516C180.255 9.516 180.689 9.41333 181.071 9.208C181.463 9.00267 181.767 8.718 181.981 8.354C182.205 7.98067 182.317 7.56067 182.317 7.094C182.317 6.37533 182.079 5.79667 181.603 5.358C181.127 4.91 180.516 4.686 179.769 4.686C179.013 4.686 178.397 4.91 177.921 5.358C177.445 5.79667 177.207 6.37533 177.207 7.094C177.207 7.56067 177.315 7.98067 177.529 8.354C177.753 8.718 178.057 9.00267 178.439 9.208C178.831 9.41333 179.275 9.516 179.769 9.516ZM193.245 7.542L191.705 8.97V11H190.361V0.611999H191.705V7.276L195.751 3.58H197.375L194.253 6.646L197.683 11H196.031L193.245 7.542ZM203.054 3.51C203.997 3.51 204.744 3.78533 205.294 4.336C205.854 4.87733 206.134 5.67533 206.134 6.73V11H204.79V6.884C204.79 6.16533 204.618 5.624 204.272 5.26C203.927 4.896 203.432 4.714 202.788 4.714C202.06 4.714 201.486 4.92867 201.066 5.358C200.646 5.778 200.436 6.38467 200.436 7.178V11H199.092V3.58H200.38V4.7C200.651 4.31733 201.015 4.02333 201.472 3.818C201.939 3.61267 202.466 3.51 203.054 3.51ZM212.041 11.084C211.303 11.084 210.641 10.9207 210.053 10.594C209.465 10.2673 209.003 9.81933 208.667 9.25C208.34 8.67133 208.177 8.018 208.177 7.29C208.177 6.562 208.34 5.91333 208.667 5.344C209.003 4.76533 209.465 4.31733 210.053 4C210.641 3.67333 211.303 3.51 212.041 3.51C212.778 3.51 213.436 3.67333 214.015 4C214.603 4.31733 215.06 4.76533 215.387 5.344C215.723 5.91333 215.891 6.562 215.891 7.29C215.891 8.018 215.723 8.67133 215.387 9.25C215.06 9.81933 214.603 10.2673 214.015 10.594C213.436 10.9207 212.778 11.084 212.041 11.084ZM212.041 9.908C212.517 9.908 212.941 9.80067 213.315 9.586C213.697 9.362 213.996 9.054 214.211 8.662C214.425 8.26067 214.533 7.80333 214.533 7.29C214.533 6.77667 214.425 6.324 214.211 5.932C213.996 5.53067 213.697 5.22267 213.315 5.008C212.941 4.79333 212.517 4.686 212.041 4.686C211.565 4.686 211.135 4.79333 210.753 5.008C210.379 5.22267 210.081 5.53067 209.857 5.932C209.642 6.324 209.535 6.77667 209.535 7.29C209.535 7.80333 209.642 8.26067 209.857 8.662C210.081 9.054 210.379 9.362 210.753 9.586C211.135 9.80067 211.565 9.908 212.041 9.908ZM228.972 3.58L226.2 11H224.912L222.77 5.372L220.6 11H219.312L216.554 3.58H217.828L219.984 9.488L222.224 3.58H223.358L225.556 9.516L227.768 3.58H228.972ZM230.536 0.611999H231.88V11H230.536V0.611999ZM241.352 7.332C241.352 7.43467 241.343 7.57 241.324 7.738H235.304C235.388 8.39133 235.673 8.91867 236.158 9.32C236.653 9.712 237.264 9.908 237.992 9.908C238.879 9.908 239.593 9.60933 240.134 9.012L240.876 9.88C240.54 10.272 240.12 10.5707 239.616 10.776C239.122 10.9813 238.566 11.084 237.95 11.084C237.166 11.084 236.471 10.9253 235.864 10.608C235.258 10.2813 234.786 9.82867 234.45 9.25C234.124 8.67133 233.96 8.018 233.96 7.29C233.96 6.57133 234.119 5.92267 234.436 5.344C234.763 4.76533 235.206 4.31733 235.766 4C236.336 3.67333 236.975 3.51 237.684 3.51C238.394 3.51 239.024 3.67333 239.574 4C240.134 4.31733 240.568 4.76533 240.876 5.344C241.194 5.92267 241.352 6.58533 241.352 7.332ZM237.684 4.644C237.04 4.644 236.499 4.84 236.06 5.232C235.631 5.624 235.379 6.13733 235.304 6.772H240.064C239.99 6.14667 239.733 5.638 239.294 5.246C238.865 4.84467 238.328 4.644 237.684 4.644ZM250.419 0.611999V11H249.131V9.824C248.832 10.2347 248.454 10.5473 247.997 10.762C247.539 10.9767 247.035 11.084 246.485 11.084C245.766 11.084 245.122 10.9253 244.553 10.608C243.983 10.2907 243.535 9.84733 243.209 9.278C242.891 8.69933 242.733 8.03667 242.733 7.29C242.733 6.54333 242.891 5.88533 243.209 5.316C243.535 4.74667 243.983 4.30333 244.553 3.986C245.122 3.66867 245.766 3.51 246.485 3.51C247.017 3.51 247.507 3.61267 247.955 3.818C248.403 4.014 248.776 4.308 249.075 4.7V0.611999H250.419ZM246.597 9.908C247.063 9.908 247.488 9.80067 247.871 9.586C248.253 9.362 248.552 9.054 248.767 8.662C248.981 8.26067 249.089 7.80333 249.089 7.29C249.089 6.77667 248.981 6.324 248.767 5.932C248.552 5.53067 248.253 5.22267 247.871 5.008C247.488 4.79333 247.063 4.686 246.597 4.686C246.121 4.686 245.691 4.79333 245.309 5.008C244.935 5.22267 244.637 5.53067 244.413 5.932C244.198 6.324 244.091 6.77667 244.091 7.29C244.091 7.80333 244.198 8.26067 244.413 8.662C244.637 9.054 244.935 9.362 245.309 9.586C245.691 9.80067 246.121 9.908 246.597 9.908ZM260.259 3.58V9.992C260.259 11.2893 259.937 12.246 259.293 12.862C258.649 13.4873 257.688 13.8 256.409 13.8C255.709 13.8 255.042 13.702 254.407 13.506C253.773 13.3193 253.259 13.0487 252.867 12.694L253.511 11.658C253.857 11.9567 254.281 12.19 254.785 12.358C255.299 12.5353 255.826 12.624 256.367 12.624C257.235 12.624 257.875 12.4187 258.285 12.008C258.705 11.5973 258.915 10.972 258.915 10.132V9.544C258.598 9.92667 258.206 10.216 257.739 10.412C257.282 10.5987 256.783 10.692 256.241 10.692C255.532 10.692 254.888 10.5427 254.309 10.244C253.74 9.936 253.292 9.51133 252.965 8.97C252.639 8.41933 252.475 7.794 252.475 7.094C252.475 6.394 252.639 5.77333 252.965 5.232C253.292 4.68133 253.74 4.25667 254.309 3.958C254.888 3.65933 255.532 3.51 256.241 3.51C256.801 3.51 257.319 3.61267 257.795 3.818C258.281 4.02333 258.677 4.32667 258.985 4.728V3.58H260.259ZM256.395 9.516C256.881 9.516 257.315 9.41333 257.697 9.208C258.089 9.00267 258.393 8.718 258.607 8.354C258.831 7.98067 258.943 7.56067 258.943 7.094C258.943 6.37533 258.705 5.79667 258.229 5.358C257.753 4.91 257.142 4.686 256.395 4.686C255.639 4.686 255.023 4.91 254.547 5.358C254.071 5.79667 253.833 6.37533 253.833 7.094C253.833 7.56067 253.941 7.98067 254.155 8.354C254.379 8.718 254.683 9.00267 255.065 9.208C255.457 9.41333 255.901 9.516 256.395 9.516ZM269.734 7.332C269.734 7.43467 269.724 7.57 269.706 7.738H263.686C263.77 8.39133 264.054 8.91867 264.54 9.32C265.034 9.712 265.646 9.908 266.374 9.908C267.26 9.908 267.974 9.60933 268.516 9.012L269.258 9.88C268.922 10.272 268.502 10.5707 267.998 10.776C267.503 10.9813 266.948 11.084 266.332 11.084C265.548 11.084 264.852 10.9253 264.246 10.608C263.639 10.2813 263.168 9.82867 262.832 9.25C262.505 8.67133 262.342 8.018 262.342 7.29C262.342 6.57133 262.5 5.92267 262.818 5.344C263.144 4.76533 263.588 4.31733 264.148 4C264.717 3.67333 265.356 3.51 266.066 3.51C266.775 3.51 267.405 3.67333 267.956 4C268.516 4.31733 268.95 4.76533 269.258 5.344C269.575 5.92267 269.734 6.58533 269.734 7.332ZM266.066 4.644C265.422 4.644 264.88 4.84 264.442 5.232C264.012 5.624 263.76 6.13733 263.686 6.772H268.446C268.371 6.14667 268.114 5.638 267.676 5.246C267.246 4.84467 266.71 4.644 266.066 4.644ZM5.402 31.084C4.79533 31.084 4.212 31.0047 3.652 30.846C3.092 30.678 2.65333 30.468 2.336 30.216L2.896 29.152C3.22267 29.3853 3.61933 29.572 4.086 29.712C4.55267 29.852 5.024 29.922 5.5 29.922C6.676 29.922 7.264 29.586 7.264 28.914C7.264 28.69 7.18467 28.5127 7.026 28.382C6.86733 28.2513 6.66667 28.158 6.424 28.102C6.19067 28.0367 5.85467 27.9667 5.416 27.892C4.81867 27.7987 4.32867 27.6913 3.946 27.57C3.57267 27.4487 3.25067 27.2433 2.98 26.954C2.70933 26.6647 2.574 26.2587 2.574 25.736C2.574 25.064 2.854 24.5273 3.414 24.126C3.974 23.7153 4.72533 23.51 5.668 23.51C6.16267 23.51 6.65733 23.5707 7.152 23.692C7.64667 23.8133 8.05267 23.9767 8.37 24.182L7.796 25.246C7.18933 24.854 6.47533 24.658 5.654 24.658C5.08467 24.658 4.65067 24.7513 4.352 24.938C4.05333 25.1247 3.904 25.372 3.904 25.68C3.904 25.9227 3.988 26.114 4.156 26.254C4.324 26.394 4.52933 26.4967 4.772 26.562C5.024 26.6273 5.374 26.702 5.822 26.786C6.41933 26.8887 6.9 27.0007 7.264 27.122C7.63733 27.234 7.95467 27.43 8.216 27.71C8.47733 27.99 8.608 28.382 8.608 28.886C8.608 29.558 8.31867 30.0947 7.74 30.496C7.17067 30.888 6.39133 31.084 5.402 31.084ZM14.4497 23.51C15.3923 23.51 16.139 23.7853 16.6897 24.336C17.2497 24.8773 17.5297 25.6753 17.5297 26.73V31H16.1857V26.884C16.1857 26.1653 16.013 25.624 15.6677 25.26C15.3223 24.896 14.8277 24.714 14.1837 24.714C13.4557 24.714 12.8817 24.9287 12.4617 25.358C12.0417 25.778 11.8317 26.3847 11.8317 27.178V31H10.4877V20.612H11.8317V24.63C12.1117 24.2753 12.4757 24 12.9237 23.804C13.381 23.608 13.8897 23.51 14.4497 23.51ZM22.919 23.51C23.9456 23.51 24.7296 23.762 25.271 24.266C25.8216 24.77 26.097 25.5213 26.097 26.52V31H24.823V30.02C24.599 30.3653 24.277 30.6313 23.857 30.818C23.4463 30.9953 22.9563 31.084 22.387 31.084C21.5563 31.084 20.889 30.8833 20.385 30.482C19.8903 30.0807 19.643 29.5533 19.643 28.9C19.643 28.2467 19.881 27.724 20.357 27.332C20.833 26.9307 21.589 26.73 22.625 26.73H24.753V26.464C24.753 25.8853 24.585 25.442 24.249 25.134C23.913 24.826 23.4183 24.672 22.765 24.672C22.3263 24.672 21.897 24.7467 21.477 24.896C21.057 25.036 20.7023 25.2273 20.413 25.47L19.853 24.462C20.2356 24.154 20.693 23.9207 21.225 23.762C21.757 23.594 22.3216 23.51 22.919 23.51ZM22.611 30.048C23.1243 30.048 23.5676 29.936 23.941 29.712C24.3143 29.4787 24.585 29.152 24.753 28.732V27.696H22.681C21.5423 27.696 20.973 28.0787 20.973 28.844C20.973 29.2173 21.1176 29.5113 21.407 29.726C21.6963 29.9407 22.0976 30.048 22.611 30.048ZM30.0722 24.826C30.3055 24.3967 30.6508 24.07 31.1082 23.846C31.5655 23.622 32.1208 23.51 32.7742 23.51V24.812C32.6995 24.8027 32.5968 24.798 32.4662 24.798C31.7382 24.798 31.1642 25.0173 30.7442 25.456C30.3335 25.8853 30.1282 26.5013 30.1282 27.304V31H28.7842V23.58H30.0722V24.826ZM41.2683 27.332C41.2683 27.4347 41.2589 27.57 41.2403 27.738H35.2203C35.3043 28.3913 35.5889 28.9187 36.0743 29.32C36.5689 29.712 37.1803 29.908 37.9083 29.908C38.7949 29.908 39.5089 29.6093 40.0503 29.012L40.7923 29.88C40.4563 30.272 40.0363 30.5707 39.5323 30.776C39.0376 30.9813 38.4823 31.084 37.8663 31.084C37.0823 31.084 36.3869 30.9253 35.7803 30.608C35.1736 30.2813 34.7023 29.8287 34.3663 29.25C34.0396 28.6713 33.8763 28.018 33.8763 27.29C33.8763 26.5713 34.0349 25.9227 34.3523 25.344C34.6789 24.7653 35.1223 24.3173 35.6823 24C36.2516 23.6733 36.8909 23.51 37.6003 23.51C38.3096 23.51 38.9396 23.6733 39.4903 24C40.0503 24.3173 40.4843 24.7653 40.7923 25.344C41.1096 25.9227 41.2683 26.5853 41.2683 27.332ZM37.6003 24.644C36.9563 24.644 36.4149 24.84 35.9763 25.232C35.5469 25.624 35.2949 26.1373 35.2203 26.772H39.9803C39.9056 26.1467 39.6489 25.638 39.2103 25.246C38.7809 24.8447 38.2443 24.644 37.6003 24.644ZM50.3345 20.612V31H49.0465V29.824C48.7479 30.2347 48.3699 30.5473 47.9125 30.762C47.4552 30.9767 46.9512 31.084 46.4005 31.084C45.6819 31.084 45.0379 30.9253 44.4685 30.608C43.8992 30.2907 43.4512 29.8473 43.1245 29.278C42.8072 28.6993 42.6485 28.0367 42.6485 27.29C42.6485 26.5433 42.8072 25.8853 43.1245 25.316C43.4512 24.7467 43.8992 24.3033 44.4685 23.986C45.0379 23.6687 45.6819 23.51 46.4005 23.51C46.9325 23.51 47.4225 23.6127 47.8705 23.818C48.3185 24.014 48.6919 24.308 48.9905 24.7V20.612H50.3345ZM46.5125 29.908C46.9792 29.908 47.4039 29.8007 47.7865 29.586C48.1692 29.362 48.4679 29.054 48.6825 28.662C48.8972 28.2607 49.0045 27.8033 49.0045 27.29C49.0045 26.7767 48.8972 26.324 48.6825 25.932C48.4679 25.5307 48.1692 25.2227 47.7865 25.008C47.4039 24.7933 46.9792 24.686 46.5125 24.686C46.0365 24.686 45.6072 24.7933 45.2245 25.008C44.8512 25.2227 44.5525 25.5307 44.3285 25.932C44.1139 26.324 44.0065 26.7767 44.0065 27.29C44.0065 27.8033 44.1139 28.2607 44.3285 28.662C44.5525 29.054 44.8512 29.362 45.2245 29.586C45.6072 29.8007 46.0365 29.908 46.5125 29.908ZM60.9713 23.51C61.6899 23.51 62.3339 23.6687 62.9033 23.986C63.4726 24.3033 63.9159 24.7467 64.2333 25.316C64.5599 25.8853 64.7233 26.5433 64.7233 27.29C64.7233 28.0367 64.5599 28.6993 64.2333 29.278C63.9159 29.8473 63.4726 30.2907 62.9033 30.608C62.3339 30.9253 61.6899 31.084 60.9713 31.084C60.4206 31.084 59.9166 30.9767 59.4593 30.762C59.0019 30.5473 58.6239 30.2347 58.3253 29.824V31H57.0373V20.612H58.3813V24.7C58.6799 24.308 59.0533 24.014 59.5013 23.818C59.9493 23.6127 60.4393 23.51 60.9713 23.51ZM60.8593 29.908C61.3353 29.908 61.7599 29.8007 62.1333 29.586C62.5159 29.362 62.8146 29.054 63.0293 28.662C63.2533 28.2607 63.3653 27.8033 63.3653 27.29C63.3653 26.7767 63.2533 26.324 63.0293 25.932C62.8146 25.5307 62.5159 25.2227 62.1333 25.008C61.7599 24.7933 61.3353 24.686 60.8593 24.686C60.3926 24.686 59.9679 24.7933 59.5853 25.008C59.2026 25.2227 58.9039 25.5307 58.6893 25.932C58.4746 26.324 58.3673 26.7767 58.3673 27.29C58.3673 27.8033 58.4746 28.2607 58.6893 28.662C58.9039 29.054 59.2026 29.362 59.5853 29.586C59.9679 29.8007 60.3926 29.908 60.8593 29.908ZM73.1412 23.58L69.5432 31.742C69.2258 32.498 68.8525 33.03 68.4232 33.338C68.0032 33.646 67.4945 33.8 66.8972 33.8C66.5332 33.8 66.1785 33.7393 65.8332 33.618C65.4972 33.506 65.2172 33.338 64.9932 33.114L65.5672 32.106C65.9498 32.47 66.3932 32.652 66.8972 32.652C67.2238 32.652 67.4945 32.5633 67.7092 32.386C67.9332 32.218 68.1338 31.924 68.3112 31.504L68.5492 30.986L65.2732 23.58H66.6732L69.2632 29.516L71.8252 23.58H73.1412ZM82.4893 23.51C83.2079 23.51 83.8519 23.6687 84.4213 23.986C84.9906 24.3033 85.4339 24.7467 85.7513 25.316C86.0779 25.8853 86.2413 26.5433 86.2413 27.29C86.2413 28.0367 86.0779 28.6993 85.7513 29.278C85.4339 29.8473 84.9906 30.2907 84.4213 30.608C83.8519 30.9253 83.2079 31.084 82.4893 31.084C81.9573 31.084 81.4673 30.9813 81.0193 30.776C80.5806 30.5707 80.2073 30.272 79.8993 29.88V33.716H78.5553V23.58H79.8433V24.756C80.1419 24.3453 80.5199 24.0373 80.9772 23.832C81.4346 23.6173 81.9386 23.51 82.4893 23.51ZM82.3773 29.908C82.8533 29.908 83.2779 29.8007 83.6513 29.586C84.0339 29.362 84.3326 29.054 84.5473 28.662C84.7713 28.2607 84.8833 27.8033 84.8833 27.29C84.8833 26.7767 84.7713 26.324 84.5473 25.932C84.3326 25.5307 84.0339 25.2227 83.6513 25.008C83.2779 24.7933 82.8533 24.686 82.3773 24.686C81.9106 24.686 81.4859 24.798 81.1033 25.022C80.7299 25.2367 80.4313 25.54 80.2073 25.932C79.9926 26.324 79.8853 26.7767 79.8853 27.29C79.8853 27.8033 79.9926 28.2607 80.2073 28.662C80.4219 29.054 80.7206 29.362 81.1033 29.586C81.4859 29.8007 81.9106 29.908 82.3773 29.908ZM89.5862 24.826C89.8195 24.3967 90.1649 24.07 90.6222 23.846C91.0795 23.622 91.6349 23.51 92.2882 23.51V24.812C92.2135 24.8027 92.1109 24.798 91.9802 24.798C91.2522 24.798 90.6782 25.0173 90.2582 25.456C89.8475 25.8853 89.6422 26.5013 89.6422 27.304V31H88.2982V23.58H89.5862V24.826ZM97.2543 31.084C96.517 31.084 95.8543 30.9207 95.2663 30.594C94.6783 30.2673 94.2163 29.8193 93.8803 29.25C93.5537 28.6713 93.3903 28.018 93.3903 27.29C93.3903 26.562 93.5537 25.9133 93.8803 25.344C94.2163 24.7653 94.6783 24.3173 95.2663 24C95.8543 23.6733 96.517 23.51 97.2543 23.51C97.9917 23.51 98.6497 23.6733 99.2283 24C99.8163 24.3173 100.274 24.7653 100.6 25.344C100.936 25.9133 101.104 26.562 101.104 27.29C101.104 28.018 100.936 28.6713 100.6 29.25C100.274 29.8193 99.8163 30.2673 99.2283 30.594C98.6497 30.9207 97.9917 31.084 97.2543 31.084ZM97.2543 29.908C97.7303 29.908 98.155 29.8007 98.5283 29.586C98.911 29.362 99.2097 29.054 99.4243 28.662C99.639 28.2607 99.7463 27.8033 99.7463 27.29C99.7463 26.7767 99.639 26.324 99.4243 25.932C99.2097 25.5307 98.911 25.2227 98.5283 25.008C98.155 24.7933 97.7303 24.686 97.2543 24.686C96.7783 24.686 96.349 24.7933 95.9663 25.008C95.593 25.2227 95.2943 25.5307 95.0703 25.932C94.8557 26.324 94.7483 26.7767 94.7483 27.29C94.7483 27.8033 94.8557 28.2607 95.0703 28.662C95.2943 29.054 95.593 29.362 95.9663 29.586C96.349 29.8007 96.7783 29.908 97.2543 29.908ZM105.879 21.634C105.076 21.634 104.675 22.068 104.675 22.936V23.58H106.831V24.686H104.703V31H103.359V24.686H102.099V23.58H103.359V22.922C103.359 22.1847 103.574 21.6013 104.003 21.172C104.432 20.7427 105.034 20.528 105.809 20.528C106.108 20.528 106.388 20.5653 106.649 20.64C106.91 20.7147 107.134 20.822 107.321 20.962L106.915 21.984C106.607 21.7507 106.262 21.634 105.879 21.634ZM114.895 27.332C114.895 27.4347 114.886 27.57 114.867 27.738H108.847C108.931 28.3913 109.216 28.9187 109.701 29.32C110.196 29.712 110.807 29.908 111.535 29.908C112.422 29.908 113.136 29.6093 113.677 29.012L114.419 29.88C114.083 30.272 113.663 30.5707 113.159 30.776C112.665 30.9813 112.109 31.084 111.493 31.084C110.709 31.084 110.014 30.9253 109.407 30.608C108.801 30.2813 108.329 29.8287 107.993 29.25C107.667 28.6713 107.503 28.018 107.503 27.29C107.503 26.5713 107.662 25.9227 107.979 25.344C108.306 24.7653 108.749 24.3173 109.309 24C109.879 23.6733 110.518 23.51 111.227 23.51C111.937 23.51 112.567 23.6733 113.117 24C113.677 24.3173 114.111 24.7653 114.419 25.344C114.737 25.9227 114.895 26.5853 114.895 27.332ZM111.227 24.644C110.583 24.644 110.042 24.84 109.603 25.232C109.174 25.624 108.922 26.1373 108.847 26.772H113.607C113.533 26.1467 113.276 25.638 112.837 25.246C112.408 24.8447 111.871 24.644 111.227 24.644ZM119.09 31.084C118.483 31.084 117.9 31.0047 117.34 30.846C116.78 30.678 116.341 30.468 116.024 30.216L116.584 29.152C116.91 29.3853 117.307 29.572 117.774 29.712C118.24 29.852 118.712 29.922 119.188 29.922C120.364 29.922 120.952 29.586 120.952 28.914C120.952 28.69 120.872 28.5127 120.714 28.382C120.555 28.2513 120.354 28.158 120.112 28.102C119.878 28.0367 119.542 27.9667 119.104 27.892C118.506 27.7987 118.016 27.6913 117.634 27.57C117.26 27.4487 116.938 27.2433 116.668 26.954C116.397 26.6647 116.262 26.2587 116.262 25.736C116.262 25.064 116.542 24.5273 117.102 24.126C117.662 23.7153 118.413 23.51 119.356 23.51C119.85 23.51 120.345 23.5707 120.84 23.692C121.334 23.8133 121.74 23.9767 122.058 24.182L121.484 25.246C120.877 24.854 120.163 24.658 119.342 24.658C118.772 24.658 118.338 24.7513 118.04 24.938C117.741 25.1247 117.592 25.372 117.592 25.68C117.592 25.9227 117.676 26.114 117.844 26.254C118.012 26.394 118.217 26.4967 118.46 26.562C118.712 26.6273 119.062 26.702 119.51 26.786C120.107 26.8887 120.588 27.0007 120.952 27.122C121.325 27.234 121.642 27.43 121.904 27.71C122.165 27.99 122.296 28.382 122.296 28.886C122.296 29.558 122.006 30.0947 121.428 30.496C120.858 30.888 120.079 31.084 119.09 31.084ZM126.303 31.084C125.697 31.084 125.113 31.0047 124.553 30.846C123.993 30.678 123.555 30.468 123.237 30.216L123.797 29.152C124.124 29.3853 124.521 29.572 124.987 29.712C125.454 29.852 125.925 29.922 126.401 29.922C127.577 29.922 128.165 29.586 128.165 28.914C128.165 28.69 128.086 28.5127 127.927 28.382C127.769 28.2513 127.568 28.158 127.325 28.102C127.092 28.0367 126.756 27.9667 126.317 27.892C125.72 27.7987 125.23 27.6913 124.847 27.57C124.474 27.4487 124.152 27.2433 123.881 26.954C123.611 26.6647 123.475 26.2587 123.475 25.736C123.475 25.064 123.755 24.5273 124.315 24.126C124.875 23.7153 125.627 23.51 126.569 23.51C127.064 23.51 127.559 23.5707 128.053 23.692C128.548 23.8133 128.954 23.9767 129.271 24.182L128.697 25.246C128.091 24.854 127.377 24.658 126.555 24.658C125.986 24.658 125.552 24.7513 125.253 24.938C124.955 25.1247 124.805 25.372 124.805 25.68C124.805 25.9227 124.889 26.114 125.057 26.254C125.225 26.394 125.431 26.4967 125.673 26.562C125.925 26.6273 126.275 26.702 126.723 26.786C127.321 26.8887 127.801 27.0007 128.165 27.122C128.539 27.234 128.856 27.43 129.117 27.71C129.379 27.99 129.509 28.382 129.509 28.886C129.509 29.558 129.22 30.0947 128.641 30.496C128.072 30.888 127.293 31.084 126.303 31.084ZM131.389 23.58H132.733V31H131.389V23.58ZM132.061 22.152C131.8 22.152 131.58 22.068 131.403 21.9C131.235 21.732 131.151 21.5267 131.151 21.284C131.151 21.0413 131.235 20.836 131.403 20.668C131.58 20.4907 131.8 20.402 132.061 20.402C132.322 20.402 132.537 20.486 132.705 20.654C132.882 20.8127 132.971 21.0133 132.971 21.256C132.971 21.508 132.882 21.7227 132.705 21.9C132.537 22.068 132.322 22.152 132.061 22.152ZM138.677 31.084C137.94 31.084 137.277 30.9207 136.689 30.594C136.101 30.2673 135.639 29.8193 135.303 29.25C134.976 28.6713 134.813 28.018 134.813 27.29C134.813 26.562 134.976 25.9133 135.303 25.344C135.639 24.7653 136.101 24.3173 136.689 24C137.277 23.6733 137.94 23.51 138.677 23.51C139.414 23.51 140.072 23.6733 140.651 24C141.239 24.3173 141.696 24.7653 142.023 25.344C142.359 25.9133 142.527 26.562 142.527 27.29C142.527 28.018 142.359 28.6713 142.023 29.25C141.696 29.8193 141.239 30.2673 140.651 30.594C140.072 30.9207 139.414 31.084 138.677 31.084ZM138.677 29.908C139.153 29.908 139.578 29.8007 139.951 29.586C140.334 29.362 140.632 29.054 140.847 28.662C141.062 28.2607 141.169 27.8033 141.169 27.29C141.169 26.7767 141.062 26.324 140.847 25.932C140.632 25.5307 140.334 25.2227 139.951 25.008C139.578 24.7933 139.153 24.686 138.677 24.686C138.201 24.686 137.772 24.7933 137.389 25.008C137.016 25.2227 136.717 25.5307 136.493 25.932C136.278 26.324 136.171 26.7767 136.171 27.29C136.171 27.8033 136.278 28.2607 136.493 28.662C136.717 29.054 137.016 29.362 137.389 29.586C137.772 29.8007 138.201 29.908 138.677 29.908ZM148.548 23.51C149.49 23.51 150.237 23.7853 150.788 24.336C151.348 24.8773 151.628 25.6753 151.628 26.73V31H150.284V26.884C150.284 26.1653 150.111 25.624 149.766 25.26C149.42 24.896 148.926 24.714 148.282 24.714C147.554 24.714 146.98 24.9287 146.56 25.358C146.14 25.778 145.93 26.3847 145.93 27.178V31H144.586V23.58H145.874V24.7C146.144 24.3173 146.508 24.0233 146.966 23.818C147.432 23.6127 147.96 23.51 148.548 23.51ZM157.017 23.51C158.044 23.51 158.828 23.762 159.369 24.266C159.92 24.77 160.195 25.5213 160.195 26.52V31H158.921V30.02C158.697 30.3653 158.375 30.6313 157.955 30.818C157.544 30.9953 157.054 31.084 156.485 31.084C155.654 31.084 154.987 30.8833 154.483 30.482C153.988 30.0807 153.741 29.5533 153.741 28.9C153.741 28.2467 153.979 27.724 154.455 27.332C154.931 26.9307 155.687 26.73 156.723 26.73H158.851V26.464C158.851 25.8853 158.683 25.442 158.347 25.134C158.011 24.826 157.516 24.672 156.863 24.672C156.424 24.672 155.995 24.7467 155.575 24.896C155.155 25.036 154.8 25.2273 154.511 25.47L153.951 24.462C154.334 24.154 154.791 23.9207 155.323 23.762C155.855 23.594 156.42 23.51 157.017 23.51ZM156.709 30.048C157.222 30.048 157.666 29.936 158.039 29.712C158.412 29.4787 158.683 29.152 158.851 28.732V27.696H156.779C155.64 27.696 155.071 28.0787 155.071 28.844C155.071 29.2173 155.216 29.5113 155.505 29.726C155.794 29.9407 156.196 30.048 156.709 30.048ZM162.882 20.612H164.226V31H162.882V20.612ZM169.12 31.084C168.514 31.084 167.93 31.0047 167.37 30.846C166.81 30.678 166.372 30.468 166.054 30.216L166.614 29.152C166.941 29.3853 167.338 29.572 167.804 29.712C168.271 29.852 168.742 29.922 169.218 29.922C170.394 29.922 170.982 29.586 170.982 28.914C170.982 28.69 170.903 28.5127 170.744 28.382C170.586 28.2513 170.385 28.158 170.142 28.102C169.909 28.0367 169.573 27.9667 169.134 27.892C168.537 27.7987 168.047 27.6913 167.664 27.57C167.291 27.4487 166.969 27.2433 166.698 26.954C166.428 26.6647 166.292 26.2587 166.292 25.736C166.292 25.064 166.572 24.5273 167.132 24.126C167.692 23.7153 168.444 23.51 169.386 23.51C169.881 23.51 170.376 23.5707 170.87 23.692C171.365 23.8133 171.771 23.9767 172.088 24.182L171.514 25.246C170.908 24.854 170.194 24.658 169.372 24.658C168.803 24.658 168.369 24.7513 168.07 24.938C167.772 25.1247 167.622 25.372 167.622 25.68C167.622 25.9227 167.706 26.114 167.874 26.254C168.042 26.394 168.248 26.4967 168.49 26.562C168.742 26.6273 169.092 26.702 169.54 26.786C170.138 26.8887 170.618 27.0007 170.982 27.122C171.356 27.234 171.673 27.43 171.934 27.71C172.196 27.99 172.326 28.382 172.326 28.886C172.326 29.558 172.037 30.0947 171.458 30.496C170.889 30.888 170.11 31.084 169.12 31.084ZM182.338 30.566C182.142 30.734 181.899 30.8647 181.61 30.958C181.32 31.042 181.022 31.084 180.714 31.084C179.967 31.084 179.388 30.8833 178.978 30.482C178.567 30.0807 178.362 29.5067 178.362 28.76V24.686H177.102V23.58H178.362V21.956H179.706V23.58H181.834V24.686H179.706V28.704C179.706 29.1053 179.804 29.4133 180 29.628C180.205 29.8427 180.494 29.95 180.868 29.95C181.278 29.95 181.628 29.8333 181.918 29.6L182.338 30.566ZM187.095 31.084C186.357 31.084 185.695 30.9207 185.107 30.594C184.519 30.2673 184.057 29.8193 183.721 29.25C183.394 28.6713 183.231 28.018 183.231 27.29C183.231 26.562 183.394 25.9133 183.721 25.344C184.057 24.7653 184.519 24.3173 185.107 24C185.695 23.6733 186.357 23.51 187.095 23.51C187.832 23.51 188.49 23.6733 189.069 24C189.657 24.3173 190.114 24.7653 190.441 25.344C190.777 25.9133 190.945 26.562 190.945 27.29C190.945 28.018 190.777 28.6713 190.441 29.25C190.114 29.8193 189.657 30.2673 189.069 30.594C188.49 30.9207 187.832 31.084 187.095 31.084ZM187.095 29.908C187.571 29.908 187.995 29.8007 188.369 29.586C188.751 29.362 189.05 29.054 189.265 28.662C189.479 28.2607 189.587 27.8033 189.587 27.29C189.587 26.7767 189.479 26.324 189.265 25.932C189.05 25.5307 188.751 25.2227 188.369 25.008C187.995 24.7933 187.571 24.686 187.095 24.686C186.619 24.686 186.189 24.7933 185.807 25.008C185.433 25.2227 185.135 25.5307 184.911 25.932C184.696 26.324 184.589 26.7767 184.589 27.29C184.589 27.8033 184.696 28.2607 184.911 28.662C185.135 29.054 185.433 29.362 185.807 29.586C186.189 29.8007 186.619 29.908 187.095 29.908ZM199.847 27.542L198.307 28.97V31H196.963V20.612H198.307V27.276L202.353 23.58H203.977L200.855 26.646L204.285 31H202.633L199.847 27.542ZM212.182 27.332C212.182 27.4347 212.172 27.57 212.154 27.738H206.134C206.218 28.3913 206.502 28.9187 206.988 29.32C207.482 29.712 208.094 29.908 208.822 29.908C209.708 29.908 210.422 29.6093 210.964 29.012L211.706 29.88C211.37 30.272 210.95 30.5707 210.446 30.776C209.951 30.9813 209.396 31.084 208.78 31.084C207.996 31.084 207.3 30.9253 206.694 30.608C206.087 30.2813 205.616 29.8287 205.28 29.25C204.953 28.6713 204.79 28.018 204.79 27.29C204.79 26.5713 204.948 25.9227 205.266 25.344C205.592 24.7653 206.036 24.3173 206.596 24C207.165 23.6733 207.804 23.51 208.514 23.51C209.223 23.51 209.853 23.6733 210.404 24C210.964 24.3173 211.398 24.7653 211.706 25.344C212.023 25.9227 212.182 26.5853 212.182 27.332ZM208.514 24.644C207.87 24.644 207.328 24.84 206.89 25.232C206.46 25.624 206.208 26.1373 206.134 26.772H210.894C210.819 26.1467 210.562 25.638 210.124 25.246C209.694 24.8447 209.158 24.644 208.514 24.644ZM220.954 27.332C220.954 27.4347 220.944 27.57 220.926 27.738H214.906C214.99 28.3913 215.274 28.9187 215.76 29.32C216.254 29.712 216.866 29.908 217.594 29.908C218.48 29.908 219.194 29.6093 219.736 29.012L220.478 29.88C220.142 30.272 219.722 30.5707 219.218 30.776C218.723 30.9813 218.168 31.084 217.552 31.084C216.768 31.084 216.072 30.9253 215.466 30.608C214.859 30.2813 214.388 29.8287 214.052 29.25C213.725 28.6713 213.562 28.018 213.562 27.29C213.562 26.5713 213.72 25.9227 214.038 25.344C214.364 24.7653 214.808 24.3173 215.368 24C215.937 23.6733 216.576 23.51 217.286 23.51C217.995 23.51 218.625 23.6733 219.176 24C219.736 24.3173 220.17 24.7653 220.478 25.344C220.795 25.9227 220.954 26.5853 220.954 27.332ZM217.286 24.644C216.642 24.644 216.1 24.84 215.662 25.232C215.232 25.624 214.98 26.1373 214.906 26.772H219.666C219.591 26.1467 219.334 25.638 218.896 25.246C218.466 24.8447 217.93 24.644 217.286 24.644ZM226.954 23.51C227.673 23.51 228.317 23.6687 228.886 23.986C229.455 24.3033 229.899 24.7467 230.216 25.316C230.543 25.8853 230.706 26.5433 230.706 27.29C230.706 28.0367 230.543 28.6993 230.216 29.278C229.899 29.8473 229.455 30.2907 228.886 30.608C228.317 30.9253 227.673 31.084 226.954 31.084C226.422 31.084 225.932 30.9813 225.484 30.776C225.045 30.5707 224.672 30.272 224.364 29.88V33.716H223.02V23.58H224.308V24.756C224.607 24.3453 224.985 24.0373 225.442 23.832C225.899 23.6173 226.403 23.51 226.954 23.51ZM226.842 29.908C227.318 29.908 227.743 29.8007 228.116 29.586C228.499 29.362 228.797 29.054 229.012 28.662C229.236 28.2607 229.348 27.8033 229.348 27.29C229.348 26.7767 229.236 26.324 229.012 25.932C228.797 25.5307 228.499 25.2227 228.116 25.008C227.743 24.7933 227.318 24.686 226.842 24.686C226.375 24.686 225.951 24.798 225.568 25.022C225.195 25.2367 224.896 25.54 224.672 25.932C224.457 26.324 224.35 26.7767 224.35 27.29C224.35 27.8033 224.457 28.2607 224.672 28.662C224.887 29.054 225.185 29.362 225.568 29.586C225.951 29.8007 226.375 29.908 226.842 29.908ZM243.289 23.58L239.691 31.742C239.373 32.498 239 33.03 238.571 33.338C238.151 33.646 237.642 33.8 237.045 33.8C236.681 33.8 236.326 33.7393 235.981 33.618C235.645 33.506 235.365 33.338 235.141 33.114L235.715 32.106C236.097 32.47 236.541 32.652 237.045 32.652C237.371 32.652 237.642 32.5633 237.857 32.386C238.081 32.218 238.281 31.924 238.459 31.504L238.697 30.986L235.421 23.58H236.821L239.411 29.516L241.973 23.58H243.289ZM247.716 31.084C246.979 31.084 246.316 30.9207 245.728 30.594C245.14 30.2673 244.678 29.8193 244.342 29.25C244.015 28.6713 243.852 28.018 243.852 27.29C243.852 26.562 244.015 25.9133 244.342 25.344C244.678 24.7653 245.14 24.3173 245.728 24C246.316 23.6733 246.979 23.51 247.716 23.51C248.453 23.51 249.111 23.6733 249.69 24C250.278 24.3173 250.735 24.7653 251.062 25.344C251.398 25.9133 251.566 26.562 251.566 27.29C251.566 28.018 251.398 28.6713 251.062 29.25C250.735 29.8193 250.278 30.2673 249.69 30.594C249.111 30.9207 248.453 31.084 247.716 31.084ZM247.716 29.908C248.192 29.908 248.617 29.8007 248.99 29.586C249.373 29.362 249.671 29.054 249.886 28.662C250.101 28.2607 250.208 27.8033 250.208 27.29C250.208 26.7767 250.101 26.324 249.886 25.932C249.671 25.5307 249.373 25.2227 248.99 25.008C248.617 24.7933 248.192 24.686 247.716 24.686C247.24 24.686 246.811 24.7933 246.428 25.008C246.055 25.2227 245.756 25.5307 245.532 25.932C245.317 26.324 245.21 26.7767 245.21 27.29C245.21 27.8033 245.317 28.2607 245.532 28.662C245.756 29.054 246.055 29.362 246.428 29.586C246.811 29.8007 247.24 29.908 247.716 29.908ZM260.541 23.58V31H259.267V29.88C258.996 30.2627 258.637 30.5613 258.189 30.776C257.75 30.9813 257.269 31.084 256.747 31.084C255.757 31.084 254.978 30.8133 254.409 30.272C253.839 29.7213 253.555 28.914 253.555 27.85V23.58H254.899V27.696C254.899 28.4147 255.071 28.9607 255.417 29.334C255.762 29.698 256.257 29.88 256.901 29.88C257.61 29.88 258.17 29.6653 258.581 29.236C258.991 28.8067 259.197 28.2 259.197 27.416V23.58H260.541ZM264.587 24.826C264.821 24.3967 265.166 24.07 265.623 23.846C266.081 23.622 266.636 23.51 267.289 23.51V24.812C267.215 24.8027 267.112 24.798 266.981 24.798C266.253 24.798 265.679 25.0173 265.259 25.456C264.849 25.8853 264.643 26.5013 264.643 27.304V31H263.299V23.58H264.587V24.826ZM277.135 23.51C277.854 23.51 278.498 23.6687 279.067 23.986C279.637 24.3033 280.08 24.7467 280.397 25.316C280.724 25.8853 280.887 26.5433 280.887 27.29C280.887 28.0367 280.724 28.6993 280.397 29.278C280.08 29.8473 279.637 30.2907 279.067 30.608C278.498 30.9253 277.854 31.084 277.135 31.084C276.603 31.084 276.113 30.9813 275.665 30.776C275.227 30.5707 274.853 30.272 274.545 29.88V33.716H273.201V23.58H274.489V24.756C274.788 24.3453 275.166 24.0373 275.623 23.832C276.081 23.6173 276.585 23.51 277.135 23.51ZM277.023 29.908C277.499 29.908 277.924 29.8007 278.297 29.586C278.68 29.362 278.979 29.054 279.193 28.662C279.417 28.2607 279.529 27.8033 279.529 27.29C279.529 26.7767 279.417 26.324 279.193 25.932C278.979 25.5307 278.68 25.2227 278.297 25.008C277.924 24.7933 277.499 24.686 277.023 24.686C276.557 24.686 276.132 24.798 275.749 25.022C275.376 25.2367 275.077 25.54 274.853 25.932C274.639 26.324 274.531 26.7767 274.531 27.29C274.531 27.8033 274.639 28.2607 274.853 28.662C275.068 29.054 275.367 29.362 275.749 29.586C276.132 29.8007 276.557 29.908 277.023 29.908ZM289.65 27.332C289.65 27.4347 289.641 27.57 289.622 27.738H283.602C283.686 28.3913 283.971 28.9187 284.456 29.32C284.951 29.712 285.562 29.908 286.29 29.908C287.177 29.908 287.891 29.6093 288.432 29.012L289.174 29.88C288.838 30.272 288.418 30.5707 287.914 30.776C287.42 30.9813 286.864 31.084 286.248 31.084C285.464 31.084 284.769 30.9253 284.162 30.608C283.556 30.2813 283.084 29.8287 282.748 29.25C282.422 28.6713 282.258 28.018 282.258 27.29C282.258 26.5713 282.417 25.9227 282.734 25.344C283.061 24.7653 283.504 24.3173 284.064 24C284.634 23.6733 285.273 23.51 285.982 23.51C286.692 23.51 287.322 23.6733 287.872 24C288.432 24.3173 288.866 24.7653 289.174 25.344C289.492 25.9227 289.65 26.5853 289.65 27.332ZM285.982 24.644C285.338 24.644 284.797 24.84 284.358 25.232C283.929 25.624 283.677 26.1373 283.602 26.772H288.362C288.288 26.1467 288.031 25.638 287.592 25.246C287.163 24.8447 286.626 24.644 285.982 24.644ZM295.889 30.566C295.693 30.734 295.45 30.8647 295.161 30.958C294.871 31.042 294.573 31.084 294.265 31.084C293.518 31.084 292.939 30.8833 292.529 30.482C292.118 30.0807 291.913 29.5067 291.913 28.76V24.686H290.653V23.58H291.913V21.956H293.257V23.58H295.385V24.686H293.257V28.704C293.257 29.1053 293.355 29.4133 293.551 29.628C293.756 29.8427 294.045 29.95 294.419 29.95C294.829 29.95 295.179 29.8333 295.469 29.6L295.889 30.566ZM299.841 31.084C299.235 31.084 298.651 31.0047 298.091 30.846C297.531 30.678 297.093 30.468 296.775 30.216L297.335 29.152C297.662 29.3853 298.059 29.572 298.525 29.712C298.992 29.852 299.463 29.922 299.939 29.922C301.115 29.922 301.703 29.586 301.703 28.914C301.703 28.69 301.624 28.5127 301.465 28.382C301.307 28.2513 301.106 28.158 300.863 28.102C300.63 28.0367 300.294 27.9667 299.855 27.892C299.258 27.7987 298.768 27.6913 298.385 27.57C298.012 27.4487 297.69 27.2433 297.419 26.954C297.149 26.6647 297.013 26.2587 297.013 25.736C297.013 25.064 297.293 24.5273 297.853 24.126C298.413 23.7153 299.165 23.51 300.107 23.51C300.602 23.51 301.097 23.5707 301.591 23.692C302.086 23.8133 302.492 23.9767 302.809 24.182L302.235 25.246C301.629 24.854 300.915 24.658 300.093 24.658C299.524 24.658 299.09 24.7513 298.791 24.938C298.493 25.1247 298.343 25.372 298.343 25.68C298.343 25.9227 298.427 26.114 298.595 26.254C298.763 26.394 298.969 26.4967 299.211 26.562C299.463 26.6273 299.813 26.702 300.261 26.786C300.859 26.8887 301.339 27.0007 301.703 27.122C302.077 27.234 302.394 27.43 302.655 27.71C302.917 27.99 303.047 28.382 303.047 28.886C303.047 29.558 302.758 30.0947 302.179 30.496C301.61 30.888 300.831 31.084 299.841 31.084ZM7.236 43.51C8.17867 43.51 8.92533 43.7853 9.476 44.336C10.036 44.8773 10.316 45.6753 10.316 46.73V51H8.972V46.884C8.972 46.1653 8.79933 45.624 8.454 45.26C8.10867 44.896 7.614 44.714 6.97 44.714C6.242 44.714 5.668 44.9287 5.248 45.358C4.828 45.778 4.618 46.3847 4.618 47.178V51H3.274V40.612H4.618V44.63C4.898 44.2753 5.262 44 5.71 43.804C6.16733 43.608 6.676 43.51 7.236 43.51ZM19.7503 47.332C19.7503 47.4347 19.741 47.57 19.7223 47.738H13.7023C13.7863 48.3913 14.071 48.9187 14.5563 49.32C15.051 49.712 15.6623 49.908 16.3903 49.908C17.277 49.908 17.991 49.6093 18.5323 49.012L19.2743 49.88C18.9383 50.272 18.5183 50.5707 18.0143 50.776C17.5196 50.9813 16.9643 51.084 16.3483 51.084C15.5643 51.084 14.869 50.9253 14.2623 50.608C13.6556 50.2813 13.1843 49.8287 12.8483 49.25C12.5216 48.6713 12.3583 48.018 12.3583 47.29C12.3583 46.5713 12.517 45.9227 12.8343 45.344C13.161 44.7653 13.6043 44.3173 14.1643 44C14.7336 43.6733 15.373 43.51 16.0823 43.51C16.7916 43.51 17.4216 43.6733 17.9723 44C18.5323 44.3173 18.9663 44.7653 19.2743 45.344C19.5916 45.9227 19.7503 46.5853 19.7503 47.332ZM16.0823 44.644C15.4383 44.644 14.897 44.84 14.4583 45.232C14.029 45.624 13.777 46.1373 13.7023 46.772H18.4623C18.3876 46.1467 18.131 45.638 17.6923 45.246C17.263 44.8447 16.7263 44.644 16.0823 44.644ZM24.3135 43.51C25.3402 43.51 26.1242 43.762 26.6655 44.266C27.2162 44.77 27.4915 45.5213 27.4915 46.52V51H26.2175V50.02C25.9935 50.3653 25.6715 50.6313 25.2515 50.818C24.8408 50.9953 24.3508 51.084 23.7815 51.084C22.9508 51.084 22.2835 50.8833 21.7795 50.482C21.2848 50.0807 21.0375 49.5533 21.0375 48.9C21.0375 48.2467 21.2755 47.724 21.7515 47.332C22.2275 46.9307 22.9835 46.73 24.0195 46.73H26.1475V46.464C26.1475 45.8853 25.9795 45.442 25.6435 45.134C25.3075 44.826 24.8128 44.672 24.1595 44.672C23.7208 44.672 23.2915 44.7467 22.8715 44.896C22.4515 45.036 22.0968 45.2273 21.8075 45.47L21.2475 44.462C21.6302 44.154 22.0875 43.9207 22.6195 43.762C23.1515 43.594 23.7162 43.51 24.3135 43.51ZM24.0055 50.048C24.5188 50.048 24.9622 49.936 25.3355 49.712C25.7088 49.4787 25.9795 49.152 26.1475 48.732V47.696H24.0755C22.9368 47.696 22.3675 48.0787 22.3675 48.844C22.3675 49.2173 22.5122 49.5113 22.8015 49.726C23.0908 49.9407 23.4922 50.048 24.0055 50.048ZM30.1787 40.612H31.5227V51H30.1787V40.612ZM38.6386 50.566C38.4426 50.734 38.1999 50.8647 37.9106 50.958C37.6212 51.042 37.3226 51.084 37.0146 51.084C36.2679 51.084 35.6892 50.8833 35.2786 50.482C34.8679 50.0807 34.6626 49.5067 34.6626 48.76V44.686H33.4026V43.58H34.6626V41.956H36.0066V43.58H38.1346V44.686H36.0066V48.704C36.0066 49.1053 36.1046 49.4133 36.3006 49.628C36.5059 49.8427 36.7952 49.95 37.1686 49.95C37.5792 49.95 37.9292 49.8333 38.2186 49.6L38.6386 50.566ZM44.4255 43.51C45.3681 43.51 46.1148 43.7853 46.6655 44.336C47.2255 44.8773 47.5055 45.6753 47.5055 46.73V51H46.1615V46.884C46.1615 46.1653 45.9888 45.624 45.6435 45.26C45.2981 44.896 44.8035 44.714 44.1595 44.714C43.4315 44.714 42.8575 44.9287 42.4375 45.358C42.0175 45.778 41.8075 46.3847 41.8075 47.178V51H40.4635V40.612H41.8075V44.63C42.0875 44.2753 42.4515 44 42.8995 43.804C43.3568 43.608 43.8655 43.51 44.4255 43.51ZM56.622 43.58L53.024 51.742C52.7067 52.498 52.3334 53.03 51.904 53.338C51.484 53.646 50.9754 53.8 50.378 53.8C50.014 53.8 49.6594 53.7393 49.314 53.618C48.978 53.506 48.698 53.338 48.474 53.114L49.048 52.106C49.4307 52.47 49.874 52.652 50.378 52.652C50.7047 52.652 50.9754 52.5633 51.19 52.386C51.414 52.218 51.6147 51.924 51.792 51.504L52.03 50.986L48.754 43.58H50.154L52.744 49.516L55.306 43.58H56.622ZM64.7381 43.51C65.7648 43.51 66.5488 43.762 67.0901 44.266C67.6408 44.77 67.9161 45.5213 67.9161 46.52V51H66.6421V50.02C66.4181 50.3653 66.0961 50.6313 65.6761 50.818C65.2654 50.9953 64.7754 51.084 64.2061 51.084C63.3754 51.084 62.7081 50.8833 62.2041 50.482C61.7094 50.0807 61.4621 49.5533 61.4621 48.9C61.4621 48.2467 61.7001 47.724 62.1761 47.332C62.6521 46.9307 63.4081 46.73 64.4441 46.73H66.5721V46.464C66.5721 45.8853 66.4041 45.442 66.0681 45.134C65.7321 44.826 65.2374 44.672 64.5841 44.672C64.1454 44.672 63.7161 44.7467 63.2961 44.896C62.8761 45.036 62.5214 45.2273 62.2321 45.47L61.6721 44.462C62.0548 44.154 62.5121 43.9207 63.0441 43.762C63.5761 43.594 64.1408 43.51 64.7381 43.51ZM64.4301 50.048C64.9434 50.048 65.3868 49.936 65.7601 49.712C66.1334 49.4787 66.4041 49.152 66.5721 48.732V47.696H64.5001C63.3614 47.696 62.7921 48.0787 62.7921 48.844C62.7921 49.2173 62.9368 49.5113 63.2261 49.726C63.5154 49.9407 63.9168 50.048 64.4301 50.048ZM74.5653 43.51C75.508 43.51 76.2546 43.7853 76.8053 44.336C77.3653 44.8773 77.6453 45.6753 77.6453 46.73V51H76.3013V46.884C76.3013 46.1653 76.1286 45.624 75.7833 45.26C75.438 44.896 74.9433 44.714 74.2993 44.714C73.5713 44.714 72.9973 44.9287 72.5773 45.358C72.1573 45.778 71.9473 46.3847 71.9473 47.178V51H70.6033V43.58H71.8913V44.7C72.162 44.3173 72.526 44.0233 72.9833 43.818C73.45 43.6127 73.9773 43.51 74.5653 43.51ZM87.3736 40.612V51H86.0856V49.824C85.7869 50.2347 85.4089 50.5473 84.9516 50.762C84.4943 50.9767 83.9903 51.084 83.4396 51.084C82.7209 51.084 82.0769 50.9253 81.5076 50.608C80.9383 50.2907 80.4903 49.8473 80.1636 49.278C79.8463 48.6993 79.6876 48.0367 79.6876 47.29C79.6876 46.5433 79.8463 45.8853 80.1636 45.316C80.4903 44.7467 80.9383 44.3033 81.5076 43.986C82.0769 43.6687 82.7209 43.51 83.4396 43.51C83.9716 43.51 84.4616 43.6127 84.9096 43.818C85.3576 44.014 85.7309 44.308 86.0296 44.7V40.612H87.3736ZM83.5516 49.908C84.0183 49.908 84.4429 49.8007 84.8256 49.586C85.2083 49.362 85.5069 49.054 85.7216 48.662C85.9363 48.2607 86.0436 47.8033 86.0436 47.29C86.0436 46.7767 85.9363 46.324 85.7216 45.932C85.5069 45.5307 85.2083 45.2227 84.8256 45.008C84.4429 44.7933 84.0183 44.686 83.5516 44.686C83.0756 44.686 82.6463 44.7933 82.2636 45.008C81.8903 45.2227 81.5916 45.5307 81.3676 45.932C81.1529 46.324 81.0456 46.7767 81.0456 47.29C81.0456 47.8033 81.1529 48.2607 81.3676 48.662C81.5916 49.054 81.8903 49.362 82.2636 49.586C82.6463 49.8007 83.0756 49.908 83.5516 49.908ZM98.0383 43.51C98.981 43.51 99.7277 43.7853 100.278 44.336C100.838 44.8773 101.118 45.6753 101.118 46.73V51H99.7743V46.884C99.7743 46.1653 99.6017 45.624 99.2563 45.26C98.911 44.896 98.4163 44.714 97.7723 44.714C97.0443 44.714 96.4703 44.9287 96.0503 45.358C95.6303 45.778 95.4203 46.3847 95.4203 47.178V51H94.0763V40.612H95.4203V44.63C95.7003 44.2753 96.0643 44 96.5123 43.804C96.9697 43.608 97.4783 43.51 98.0383 43.51ZM106.508 43.51C107.534 43.51 108.318 43.762 108.86 44.266C109.41 44.77 109.686 45.5213 109.686 46.52V51H108.412V50.02C108.188 50.3653 107.866 50.6313 107.446 50.818C107.035 50.9953 106.545 51.084 105.976 51.084C105.145 51.084 104.478 50.8833 103.974 50.482C103.479 50.0807 103.232 49.5533 103.232 48.9C103.232 48.2467 103.47 47.724 103.946 47.332C104.422 46.9307 105.178 46.73 106.214 46.73H108.342V46.464C108.342 45.8853 108.174 45.442 107.838 45.134C107.502 44.826 107.007 44.672 106.354 44.672C105.915 44.672 105.486 44.7467 105.066 44.896C104.646 45.036 104.291 45.2273 104.002 45.47L103.442 44.462C103.824 44.154 104.282 43.9207 104.814 43.762C105.346 43.594 105.91 43.51 106.508 43.51ZM106.2 50.048C106.713 50.048 107.156 49.936 107.53 49.712C107.903 49.4787 108.174 49.152 108.342 48.732V47.696H106.27C105.131 47.696 104.562 48.0787 104.562 48.844C104.562 49.2173 104.706 49.5113 104.996 49.726C105.285 49.9407 105.686 50.048 106.2 50.048ZM116.307 43.51C117.025 43.51 117.669 43.6687 118.239 43.986C118.808 44.3033 119.251 44.7467 119.569 45.316C119.895 45.8853 120.059 46.5433 120.059 47.29C120.059 48.0367 119.895 48.6993 119.569 49.278C119.251 49.8473 118.808 50.2907 118.239 50.608C117.669 50.9253 117.025 51.084 116.307 51.084C115.775 51.084 115.285 50.9813 114.837 50.776C114.398 50.5707 114.025 50.272 113.717 49.88V53.716H112.373V43.58H113.661V44.756C113.959 44.3453 114.337 44.0373 114.795 43.832C115.252 43.6173 115.756 43.51 116.307 43.51ZM116.195 49.908C116.671 49.908 117.095 49.8007 117.469 49.586C117.851 49.362 118.15 49.054 118.365 48.662C118.589 48.2607 118.701 47.8033 118.701 47.29C118.701 46.7767 118.589 46.324 118.365 45.932C118.15 45.5307 117.851 45.2227 117.469 45.008C117.095 44.7933 116.671 44.686 116.195 44.686C115.728 44.686 115.303 44.798 114.921 45.022C114.547 45.2367 114.249 45.54 114.025 45.932C113.81 46.324 113.703 46.7767 113.703 47.29C113.703 47.8033 113.81 48.2607 114.025 48.662C114.239 49.054 114.538 49.362 114.921 49.586C115.303 49.8007 115.728 49.908 116.195 49.908ZM126.05 43.51C126.768 43.51 127.412 43.6687 127.982 43.986C128.551 44.3033 128.994 44.7467 129.312 45.316C129.638 45.8853 129.802 46.5433 129.802 47.29C129.802 48.0367 129.638 48.6993 129.312 49.278C128.994 49.8473 128.551 50.2907 127.982 50.608C127.412 50.9253 126.768 51.084 126.05 51.084C125.518 51.084 125.028 50.9813 124.58 50.776C124.141 50.5707 123.768 50.272 123.46 49.88V53.716H122.116V43.58H123.404V44.756C123.702 44.3453 124.08 44.0373 124.538 43.832C124.995 43.6173 125.499 43.51 126.05 43.51ZM125.938 49.908C126.414 49.908 126.838 49.8007 127.212 49.586C127.594 49.362 127.893 49.054 128.108 48.662C128.332 48.2607 128.444 47.8033 128.444 47.29C128.444 46.7767 128.332 46.324 128.108 45.932C127.893 45.5307 127.594 45.2227 127.212 45.008C126.838 44.7933 126.414 44.686 125.938 44.686C125.471 44.686 125.046 44.798 124.664 45.022C124.29 45.2367 123.992 45.54 123.768 45.932C123.553 46.324 123.446 46.7767 123.446 47.29C123.446 47.8033 123.553 48.2607 123.768 48.662C123.982 49.054 124.281 49.362 124.664 49.586C125.046 49.8007 125.471 49.908 125.938 49.908ZM138.22 43.58L134.622 51.742C134.304 52.498 133.931 53.03 133.502 53.338C133.082 53.646 132.573 53.8 131.976 53.8C131.612 53.8 131.257 53.7393 130.912 53.618C130.576 53.506 130.296 53.338 130.072 53.114L130.646 52.106C131.028 52.47 131.472 52.652 131.976 52.652C132.302 52.652 132.573 52.5633 132.788 52.386C133.012 52.218 133.212 51.924 133.39 51.504L133.628 50.986L130.352 43.58H131.752L134.342 49.516L136.904 43.58H138.22ZM139.531 51.084C139.27 51.084 139.046 50.9953 138.859 50.818C138.672 50.6313 138.579 50.398 138.579 50.118C138.579 49.8473 138.672 49.6233 138.859 49.446C139.046 49.2593 139.27 49.166 139.531 49.166C139.792 49.166 140.012 49.2547 140.189 49.432C140.366 49.6093 140.455 49.838 140.455 50.118C140.455 50.398 140.362 50.6313 140.175 50.818C139.998 50.9953 139.783 51.084 139.531 51.084ZM6.326 71.112C5.58867 71.112 4.87467 71 4.184 70.776C3.50267 70.5427 2.966 70.244 2.574 69.88L3.092 68.788C3.46533 69.124 3.94133 69.3993 4.52 69.614C5.108 69.8193 5.71 69.922 6.326 69.922C7.138 69.922 7.74467 69.7867 8.146 69.516C8.54733 69.236 8.748 68.8673 8.748 68.41C8.748 68.074 8.636 67.8033 8.412 67.598C8.19733 67.3833 7.92667 67.22 7.6 67.108C7.28267 66.996 6.83 66.87 6.242 66.73C5.50467 66.5527 4.90733 66.3753 4.45 66.198C4.002 66.0207 3.61467 65.75 3.288 65.386C2.97067 65.0127 2.812 64.5133 2.812 63.888C2.812 63.3653 2.94733 62.894 3.218 62.474C3.498 62.054 3.918 61.718 4.478 61.466C5.038 61.214 5.73333 61.088 6.564 61.088C7.14267 61.088 7.712 61.1627 8.272 61.312C8.832 61.4613 9.31267 61.676 9.714 61.956L9.252 63.076C8.84133 62.8147 8.40267 62.6187 7.936 62.488C7.46933 62.348 7.012 62.278 6.564 62.278C5.77067 62.278 5.17333 62.4227 4.772 62.712C4.38 63.0013 4.184 63.3747 4.184 63.832C4.184 64.168 4.296 64.4433 4.52 64.658C4.744 64.8633 5.01933 65.0267 5.346 65.148C5.682 65.26 6.13467 65.3813 6.704 65.512C7.44133 65.6893 8.034 65.8667 8.482 66.044C8.93 66.2213 9.31267 66.492 9.63 66.856C9.95667 67.22 10.12 67.71 10.12 68.326C10.12 68.8393 9.98 69.3107 9.7 69.74C9.42 70.16 8.99533 70.496 8.426 70.748C7.85667 70.9907 7.15667 71.112 6.326 71.112ZM16.1033 63.51C16.822 63.51 17.466 63.6687 18.0353 63.986C18.6046 64.3033 19.048 64.7467 19.3653 65.316C19.692 65.8853 19.8553 66.5433 19.8553 67.29C19.8553 68.0367 19.692 68.6993 19.3653 69.278C19.048 69.8473 18.6046 70.2907 18.0353 70.608C17.466 70.9253 16.822 71.084 16.1033 71.084C15.5713 71.084 15.0813 70.9813 14.6333 70.776C14.1946 70.5707 13.8213 70.272 13.5133 69.88V73.716H12.1693V63.58H13.4573V64.756C13.756 64.3453 14.134 64.0373 14.5913 63.832C15.0486 63.6173 15.5526 63.51 16.1033 63.51ZM15.9913 69.908C16.4673 69.908 16.892 69.8007 17.2653 69.586C17.648 69.362 17.9466 69.054 18.1613 68.662C18.3853 68.2607 18.4973 67.8033 18.4973 67.29C18.4973 66.7767 18.3853 66.324 18.1613 65.932C17.9466 65.5307 17.648 65.2227 17.2653 65.008C16.892 64.7933 16.4673 64.686 15.9913 64.686C15.5246 64.686 15.1 64.798 14.7173 65.022C14.344 65.2367 14.0453 65.54 13.8213 65.932C13.6066 66.324 13.4993 66.7767 13.4993 67.29C13.4993 67.8033 13.6066 68.2607 13.8213 68.662C14.036 69.054 14.3346 69.362 14.7173 69.586C15.1 69.8007 15.5246 69.908 15.9913 69.908ZM24.5459 63.51C25.5726 63.51 26.3566 63.762 26.8979 64.266C27.4486 64.77 27.7239 65.5213 27.7239 66.52V71H26.4499V70.02C26.2259 70.3653 25.9039 70.6313 25.4839 70.818C25.0733 70.9953 24.5833 71.084 24.0139 71.084C23.1833 71.084 22.5159 70.8833 22.0119 70.482C21.5173 70.0807 21.2699 69.5533 21.2699 68.9C21.2699 68.2467 21.5079 67.724 21.9839 67.332C22.4599 66.9307 23.2159 66.73 24.2519 66.73H26.3799V66.464C26.3799 65.8853 26.2119 65.442 25.8759 65.134C25.5399 64.826 25.0453 64.672 24.3919 64.672C23.9533 64.672 23.5239 64.7467 23.1039 64.896C22.6839 65.036 22.3293 65.2273 22.0399 65.47L21.4799 64.462C21.8626 64.154 22.3199 63.9207 22.8519 63.762C23.3839 63.594 23.9486 63.51 24.5459 63.51ZM24.2379 70.048C24.7513 70.048 25.1946 69.936 25.5679 69.712C25.9413 69.4787 26.2119 69.152 26.3799 68.732V67.696H24.3079C23.1693 67.696 22.5999 68.0787 22.5999 68.844C22.5999 69.2173 22.7446 69.5113 23.0339 69.726C23.3233 69.9407 23.7246 70.048 24.2379 70.048ZM33.6861 71.084C32.9301 71.084 32.2535 70.9207 31.6561 70.594C31.0681 70.2673 30.6061 69.8193 30.2701 69.25C29.9341 68.6713 29.7661 68.018 29.7661 67.29C29.7661 66.562 29.9341 65.9133 30.2701 65.344C30.6061 64.7653 31.0681 64.3173 31.6561 64C32.2535 63.6733 32.9301 63.51 33.6861 63.51C34.3581 63.51 34.9555 63.6453 35.4781 63.916C36.0101 64.1867 36.4208 64.5787 36.7101 65.092L35.6881 65.75C35.4548 65.3953 35.1655 65.1293 34.8201 64.952C34.4748 64.7747 34.0921 64.686 33.6721 64.686C33.1868 64.686 32.7481 64.7933 32.3561 65.008C31.9735 65.2227 31.6701 65.5307 31.4461 65.932C31.2315 66.324 31.1241 66.7767 31.1241 67.29C31.1241 67.8127 31.2315 68.2747 31.4461 68.676C31.6701 69.068 31.9735 69.3713 32.3561 69.586C32.7481 69.8007 33.1868 69.908 33.6721 69.908C34.0921 69.908 34.4748 69.8193 34.8201 69.642C35.1655 69.4647 35.4548 69.1987 35.6881 68.844L36.7101 69.488C36.4208 70.0013 36.0101 70.398 35.4781 70.678C34.9555 70.9487 34.3581 71.084 33.6861 71.084ZM45.2468 67.332C45.2468 67.4347 45.2375 67.57 45.2188 67.738H39.1988C39.2828 68.3913 39.5675 68.9187 40.0528 69.32C40.5475 69.712 41.1588 69.908 41.8868 69.908C42.7735 69.908 43.4875 69.6093 44.0288 69.012L44.7708 69.88C44.4348 70.272 44.0148 70.5707 43.5108 70.776C43.0161 70.9813 42.4608 71.084 41.8448 71.084C41.0608 71.084 40.3655 70.9253 39.7588 70.608C39.1521 70.2813 38.6808 69.8287 38.3448 69.25C38.0181 68.6713 37.8548 68.018 37.8548 67.29C37.8548 66.5713 38.0135 65.9227 38.3308 65.344C38.6575 64.7653 39.1008 64.3173 39.6608 64C40.2301 63.6733 40.8695 63.51 41.5788 63.51C42.2881 63.51 42.9181 63.6733 43.4688 64C44.0288 64.3173 44.4628 64.7653 44.7708 65.344C45.0881 65.9227 45.2468 66.5853 45.2468 67.332ZM41.5788 64.644C40.9348 64.644 40.3935 64.84 39.9548 65.232C39.5255 65.624 39.2735 66.1373 39.1988 66.772H43.9588C43.8841 66.1467 43.6275 65.638 43.1888 65.246C42.7595 64.8447 42.2228 64.644 41.5788 64.644ZM53.9888 61.634C53.1862 61.634 52.7848 62.068 52.7848 62.936V63.58H54.9408V64.686H52.8128V71H51.4688V64.686H50.2088V63.58H51.4688V62.922C51.4688 62.1847 51.6835 61.6013 52.1128 61.172C52.5422 60.7427 53.1442 60.528 53.9188 60.528C54.2175 60.528 54.4975 60.5653 54.7588 60.64C55.0202 60.7147 55.2442 60.822 55.4308 60.962L55.0248 61.984C54.7168 61.7507 54.3715 61.634 53.9888 61.634ZM59.477 71.084C58.7397 71.084 58.077 70.9207 57.489 70.594C56.901 70.2673 56.439 69.8193 56.103 69.25C55.7763 68.6713 55.613 68.018 55.613 67.29C55.613 66.562 55.7763 65.9133 56.103 65.344C56.439 64.7653 56.901 64.3173 57.489 64C58.077 63.6733 58.7397 63.51 59.477 63.51C60.2143 63.51 60.8723 63.6733 61.451 64C62.039 64.3173 62.4963 64.7653 62.823 65.344C63.159 65.9133 63.327 66.562 63.327 67.29C63.327 68.018 63.159 68.6713 62.823 69.25C62.4963 69.8193 62.039 70.2673 61.451 70.594C60.8723 70.9207 60.2143 71.084 59.477 71.084ZM59.477 69.908C59.953 69.908 60.3777 69.8007 60.751 69.586C61.1337 69.362 61.4323 69.054 61.647 68.662C61.8617 68.2607 61.969 67.8033 61.969 67.29C61.969 66.7767 61.8617 66.324 61.647 65.932C61.4323 65.5307 61.1337 65.2227 60.751 65.008C60.3777 64.7933 59.953 64.686 59.477 64.686C59.001 64.686 58.5717 64.7933 58.189 65.008C57.8157 65.2227 57.517 65.5307 57.293 65.932C57.0783 66.324 56.971 66.7767 56.971 67.29C56.971 67.8033 57.0783 68.2607 57.293 68.662C57.517 69.054 57.8157 69.362 58.189 69.586C58.5717 69.8007 59.001 69.908 59.477 69.908ZM66.6737 64.826C66.9071 64.3967 67.2524 64.07 67.7097 63.846C68.1671 63.622 68.7224 63.51 69.3757 63.51V64.812C69.3011 64.8027 69.1984 64.798 69.0677 64.798C68.3397 64.798 67.7657 65.0173 67.3457 65.456C66.9351 65.8853 66.7297 66.5013 66.7297 67.304V71H65.3857V63.58H66.6737V64.826ZM79.2217 63.51C79.9403 63.51 80.5843 63.6687 81.1537 63.986C81.723 64.3033 82.1663 64.7467 82.4837 65.316C82.8103 65.8853 82.9737 66.5433 82.9737 67.29C82.9737 68.0367 82.8103 68.6993 82.4837 69.278C82.1663 69.8473 81.723 70.2907 81.1537 70.608C80.5843 70.9253 79.9403 71.084 79.2217 71.084C78.6897 71.084 78.1997 70.9813 77.7517 70.776C77.313 70.5707 76.9397 70.272 76.6317 69.88V73.716H75.2877V63.58H76.5757V64.756C76.8743 64.3453 77.2523 64.0373 77.7097 63.832C78.167 63.6173 78.671 63.51 79.2217 63.51ZM79.1097 69.908C79.5857 69.908 80.0103 69.8007 80.3837 69.586C80.7663 69.362 81.065 69.054 81.2797 68.662C81.5037 68.2607 81.6157 67.8033 81.6157 67.29C81.6157 66.7767 81.5037 66.324 81.2797 65.932C81.065 65.5307 80.7663 65.2227 80.3837 65.008C80.0103 64.7933 79.5857 64.686 79.1097 64.686C78.643 64.686 78.2183 64.798 77.8357 65.022C77.4623 65.2367 77.1637 65.54 76.9397 65.932C76.725 66.324 76.6177 66.7767 76.6177 67.29C76.6177 67.8033 76.725 68.2607 76.9397 68.662C77.1543 69.054 77.453 69.362 77.8357 69.586C78.2183 69.8007 78.643 69.908 79.1097 69.908ZM86.3186 64.826C86.552 64.3967 86.8973 64.07 87.3546 63.846C87.812 63.622 88.3673 63.51 89.0206 63.51V64.812C88.946 64.8027 88.8433 64.798 88.7126 64.798C87.9846 64.798 87.4106 65.0173 86.9906 65.456C86.58 65.8853 86.3746 66.5013 86.3746 67.304V71H85.0306V63.58H86.3186V64.826ZM90.8771 63.58H92.2211V71H90.8771V63.58ZM91.5491 62.152C91.2878 62.152 91.0685 62.068 90.8911 61.9C90.7231 61.732 90.6391 61.5267 90.6391 61.284C90.6391 61.0413 90.7231 60.836 90.8911 60.668C91.0685 60.4907 91.2878 60.402 91.5491 60.402C91.8105 60.402 92.0251 60.486 92.1931 60.654C92.3705 60.8127 92.4591 61.0133 92.4591 61.256C92.4591 61.508 92.3705 61.7227 92.1931 61.9C92.0251 62.068 91.8105 62.152 91.5491 62.152ZM101.553 63.58L98.3053 71H96.9333L93.6853 63.58H95.0853L97.6333 69.53L100.237 63.58H101.553ZM105.477 63.51C106.504 63.51 107.288 63.762 107.829 64.266C108.38 64.77 108.655 65.5213 108.655 66.52V71H107.381V70.02C107.157 70.3653 106.835 70.6313 106.415 70.818C106.005 70.9953 105.515 71.084 104.945 71.084C104.115 71.084 103.447 70.8833 102.943 70.482C102.449 70.0807 102.201 69.5533 102.201 68.9C102.201 68.2467 102.439 67.724 102.915 67.332C103.391 66.9307 104.147 66.73 105.183 66.73H107.311V66.464C107.311 65.8853 107.143 65.442 106.807 65.134C106.471 64.826 105.977 64.672 105.323 64.672C104.885 64.672 104.455 64.7467 104.035 64.896C103.615 65.036 103.261 65.2273 102.971 65.47L102.411 64.462C102.794 64.154 103.251 63.9207 103.783 63.762C104.315 63.594 104.88 63.51 105.477 63.51ZM105.169 70.048C105.683 70.048 106.126 69.936 106.499 69.712C106.873 69.4787 107.143 69.152 107.311 68.732V67.696H105.239C104.101 67.696 103.531 68.0787 103.531 68.844C103.531 69.2173 103.676 69.5113 103.965 69.726C104.255 69.9407 104.656 70.048 105.169 70.048ZM115.514 70.566C115.318 70.734 115.076 70.8647 114.786 70.958C114.497 71.042 114.198 71.084 113.89 71.084C113.144 71.084 112.565 70.8833 112.154 70.482C111.744 70.0807 111.538 69.5067 111.538 68.76V64.686H110.278V63.58H111.538V61.956H112.882V63.58H115.01V64.686H112.882V68.704C112.882 69.1053 112.98 69.4133 113.176 69.628C113.382 69.8427 113.671 69.95 114.044 69.95C114.455 69.95 114.805 69.8333 115.094 69.6L115.514 70.566ZM123.799 67.332C123.799 67.4347 123.79 67.57 123.771 67.738H117.751C117.835 68.3913 118.12 68.9187 118.605 69.32C119.1 69.712 119.711 69.908 120.439 69.908C121.326 69.908 122.04 69.6093 122.581 69.012L123.323 69.88C122.987 70.272 122.567 70.5707 122.063 70.776C121.568 70.9813 121.013 71.084 120.397 71.084C119.613 71.084 118.918 70.9253 118.311 70.608C117.704 70.2813 117.233 69.8287 116.897 69.25C116.57 68.6713 116.407 68.018 116.407 67.29C116.407 66.5713 116.566 65.9227 116.883 65.344C117.21 64.7653 117.653 64.3173 118.213 64C118.782 63.6733 119.422 63.51 120.131 63.51C120.84 63.51 121.47 63.6733 122.021 64C122.581 64.3173 123.015 64.7653 123.323 65.344C123.64 65.9227 123.799 66.5853 123.799 67.332ZM120.131 64.644C119.487 64.644 118.946 64.84 118.507 65.232C118.078 65.624 117.826 66.1373 117.751 66.772H122.511C122.436 66.1467 122.18 65.638 121.741 65.246C121.312 64.8447 120.775 64.644 120.131 64.644ZM133.059 71.084C132.303 71.084 131.627 70.9207 131.029 70.594C130.441 70.2673 129.979 69.8193 129.643 69.25C129.307 68.6713 129.139 68.018 129.139 67.29C129.139 66.562 129.307 65.9133 129.643 65.344C129.979 64.7653 130.441 64.3173 131.029 64C131.627 63.6733 132.303 63.51 133.059 63.51C133.731 63.51 134.329 63.6453 134.851 63.916C135.383 64.1867 135.794 64.5787 136.083 65.092L135.061 65.75C134.828 65.3953 134.539 65.1293 134.193 64.952C133.848 64.7747 133.465 64.686 133.045 64.686C132.56 64.686 132.121 64.7933 131.729 65.008C131.347 65.2227 131.043 65.5307 130.819 65.932C130.605 66.324 130.497 66.7767 130.497 67.29C130.497 67.8127 130.605 68.2747 130.819 68.676C131.043 69.068 131.347 69.3713 131.729 69.586C132.121 69.8007 132.56 69.908 133.045 69.908C133.465 69.908 133.848 69.8193 134.193 69.642C134.539 69.4647 134.828 69.1987 135.061 68.844L136.083 69.488C135.794 70.0013 135.383 70.398 134.851 70.678C134.329 70.9487 133.731 71.084 133.059 71.084ZM141.092 71.084C140.355 71.084 139.692 70.9207 139.104 70.594C138.516 70.2673 138.054 69.8193 137.718 69.25C137.391 68.6713 137.228 68.018 137.228 67.29C137.228 66.562 137.391 65.9133 137.718 65.344C138.054 64.7653 138.516 64.3173 139.104 64C139.692 63.6733 140.355 63.51 141.092 63.51C141.829 63.51 142.487 63.6733 143.066 64C143.654 64.3173 144.111 64.7653 144.438 65.344C144.774 65.9133 144.942 66.562 144.942 67.29C144.942 68.018 144.774 68.6713 144.438 69.25C144.111 69.8193 143.654 70.2673 143.066 70.594C142.487 70.9207 141.829 71.084 141.092 71.084ZM141.092 69.908C141.568 69.908 141.993 69.8007 142.366 69.586C142.749 69.362 143.047 69.054 143.262 68.662C143.477 68.2607 143.584 67.8033 143.584 67.29C143.584 66.7767 143.477 66.324 143.262 65.932C143.047 65.5307 142.749 65.2227 142.366 65.008C141.993 64.7933 141.568 64.686 141.092 64.686C140.616 64.686 140.187 64.7933 139.804 65.008C139.431 65.2227 139.132 65.5307 138.908 65.932C138.693 66.324 138.586 66.7767 138.586 67.29C138.586 67.8033 138.693 68.2607 138.908 68.662C139.132 69.054 139.431 69.362 139.804 69.586C140.187 69.8007 140.616 69.908 141.092 69.908ZM150.963 63.51C151.905 63.51 152.652 63.7853 153.203 64.336C153.763 64.8773 154.043 65.6753 154.043 66.73V71H152.699V66.884C152.699 66.1653 152.526 65.624 152.181 65.26C151.835 64.896 151.341 64.714 150.697 64.714C149.969 64.714 149.395 64.9287 148.975 65.358C148.555 65.778 148.345 66.3847 148.345 67.178V71H147.001V63.58H148.289V64.7C148.559 64.3173 148.923 64.0233 149.381 63.818C149.847 63.6127 150.375 63.51 150.963 63.51ZM158.858 71.084C158.251 71.084 157.668 71.0047 157.108 70.846C156.548 70.678 156.109 70.468 155.792 70.216L156.352 69.152C156.679 69.3853 157.075 69.572 157.542 69.712C158.009 69.852 158.48 69.922 158.956 69.922C160.132 69.922 160.72 69.586 160.72 68.914C160.72 68.69 160.641 68.5127 160.482 68.382C160.323 68.2513 160.123 68.158 159.88 68.102C159.647 68.0367 159.311 67.9667 158.872 67.892C158.275 67.7987 157.785 67.6913 157.402 67.57C157.029 67.4487 156.707 67.2433 156.436 66.954C156.165 66.6647 156.03 66.2587 156.03 65.736C156.03 65.064 156.31 64.5273 156.87 64.126C157.43 63.7153 158.181 63.51 159.124 63.51C159.619 63.51 160.113 63.5707 160.608 63.692C161.103 63.8133 161.509 63.9767 161.826 64.182L161.252 65.246C160.645 64.854 159.931 64.658 159.11 64.658C158.541 64.658 158.107 64.7513 157.808 64.938C157.509 65.1247 157.36 65.372 157.36 65.68C157.36 65.9227 157.444 66.114 157.612 66.254C157.78 66.394 157.985 66.4967 158.228 66.562C158.48 66.6273 158.83 66.702 159.278 66.786C159.875 66.8887 160.356 67.0007 160.72 67.122C161.093 67.234 161.411 67.43 161.672 67.71C161.933 67.99 162.064 68.382 162.064 68.886C162.064 69.558 161.775 70.0947 161.196 70.496C160.627 70.888 159.847 71.084 158.858 71.084ZM170.86 63.58V71H169.586V69.88C169.315 70.2627 168.956 70.5613 168.508 70.776C168.069 70.9813 167.588 71.084 167.066 71.084C166.076 71.084 165.297 70.8133 164.728 70.272C164.158 69.7213 163.874 68.914 163.874 67.85V63.58H165.218V67.696C165.218 68.4147 165.39 68.9607 165.736 69.334C166.081 69.698 166.576 69.88 167.22 69.88C167.929 69.88 168.489 69.6653 168.9 69.236C169.31 68.8067 169.516 68.2 169.516 67.416V63.58H170.86ZM173.618 60.612H174.962V71H173.618V60.612ZM182.078 70.566C181.882 70.734 181.639 70.8647 181.35 70.958C181.061 71.042 180.762 71.084 180.454 71.084C179.707 71.084 179.129 70.8833 178.718 70.482C178.307 70.0807 178.102 69.5067 178.102 68.76V64.686H176.842V63.58H178.102V61.956H179.446V63.58H181.574V64.686H179.446V68.704C179.446 69.1053 179.544 69.4133 179.74 69.628C179.945 69.8427 180.235 69.95 180.608 69.95C181.019 69.95 181.369 69.8333 181.658 69.6L182.078 70.566ZM186.605 63.51C187.632 63.51 188.416 63.762 188.957 64.266C189.508 64.77 189.783 65.5213 189.783 66.52V71H188.509V70.02C188.285 70.3653 187.963 70.6313 187.543 70.818C187.132 70.9953 186.642 71.084 186.073 71.084C185.242 71.084 184.575 70.8833 184.071 70.482C183.576 70.0807 183.329 69.5533 183.329 68.9C183.329 68.2467 183.567 67.724 184.043 67.332C184.519 66.9307 185.275 66.73 186.311 66.73H188.439V66.464C188.439 65.8853 188.271 65.442 187.935 65.134C187.599 64.826 187.104 64.672 186.451 64.672C186.012 64.672 185.583 64.7467 185.163 64.896C184.743 65.036 184.388 65.2273 184.099 65.47L183.539 64.462C183.922 64.154 184.379 63.9207 184.911 63.762C185.443 63.594 186.008 63.51 186.605 63.51ZM186.297 70.048C186.81 70.048 187.254 69.936 187.627 69.712C188 69.4787 188.271 69.152 188.439 68.732V67.696H186.367C185.228 67.696 184.659 68.0787 184.659 68.844C184.659 69.2173 184.804 69.5113 185.093 69.726C185.382 69.9407 185.784 70.048 186.297 70.048ZM196.642 70.566C196.446 70.734 196.203 70.8647 195.914 70.958C195.625 71.042 195.326 71.084 195.018 71.084C194.271 71.084 193.693 70.8833 193.282 70.482C192.871 70.0807 192.666 69.5067 192.666 68.76V64.686H191.406V63.58H192.666V61.956H194.01V63.58H196.138V64.686H194.01V68.704C194.01 69.1053 194.108 69.4133 194.304 69.628C194.509 69.8427 194.799 69.95 195.172 69.95C195.583 69.95 195.933 69.8333 196.222 69.6L196.642 70.566ZM198.467 63.58H199.811V71H198.467V63.58ZM199.139 62.152C198.878 62.152 198.658 62.068 198.481 61.9C198.313 61.732 198.229 61.5267 198.229 61.284C198.229 61.0413 198.313 60.836 198.481 60.668C198.658 60.4907 198.878 60.402 199.139 60.402C199.4 60.402 199.615 60.486 199.783 60.654C199.96 60.8127 200.049 61.0133 200.049 61.256C200.049 61.508 199.96 61.7227 199.783 61.9C199.615 62.068 199.4 62.152 199.139 62.152ZM205.755 71.084C205.018 71.084 204.355 70.9207 203.767 70.594C203.179 70.2673 202.717 69.8193 202.381 69.25C202.054 68.6713 201.891 68.018 201.891 67.29C201.891 66.562 202.054 65.9133 202.381 65.344C202.717 64.7653 203.179 64.3173 203.767 64C204.355 63.6733 205.018 63.51 205.755 63.51C206.492 63.51 207.15 63.6733 207.729 64C208.317 64.3173 208.774 64.7653 209.101 65.344C209.437 65.9133 209.605 66.562 209.605 67.29C209.605 68.018 209.437 68.6713 209.101 69.25C208.774 69.8193 208.317 70.2673 207.729 70.594C207.15 70.9207 206.492 71.084 205.755 71.084ZM205.755 69.908C206.231 69.908 206.656 69.8007 207.029 69.586C207.412 69.362 207.71 69.054 207.925 68.662C208.14 68.2607 208.247 67.8033 208.247 67.29C208.247 66.7767 208.14 66.324 207.925 65.932C207.71 65.5307 207.412 65.2227 207.029 65.008C206.656 64.7933 206.231 64.686 205.755 64.686C205.279 64.686 204.85 64.7933 204.467 65.008C204.094 65.2227 203.795 65.5307 203.571 65.932C203.356 66.324 203.249 66.7767 203.249 67.29C203.249 67.8033 203.356 68.2607 203.571 68.662C203.795 69.054 204.094 69.362 204.467 69.586C204.85 69.8007 205.279 69.908 205.755 69.908ZM215.626 63.51C216.569 63.51 217.315 63.7853 217.866 64.336C218.426 64.8773 218.706 65.6753 218.706 66.73V71H217.362V66.884C217.362 66.1653 217.189 65.624 216.844 65.26C216.499 64.896 216.004 64.714 215.36 64.714C214.632 64.714 214.058 64.9287 213.638 65.358C213.218 65.778 213.008 66.3847 213.008 67.178V71H211.664V63.58H212.952V64.7C213.223 64.3173 213.587 64.0233 214.044 63.818C214.511 63.6127 215.038 63.51 215.626 63.51ZM236.581 63.58L233.809 71H232.521L230.379 65.372L228.209 71H226.921L224.163 63.58H225.437L227.593 69.488L229.833 63.58H230.967L233.165 69.516L235.377 63.58H236.581ZM238.145 63.58H239.489V71H238.145V63.58ZM238.817 62.152C238.555 62.152 238.336 62.068 238.159 61.9C237.991 61.732 237.907 61.5267 237.907 61.284C237.907 61.0413 237.991 60.836 238.159 60.668C238.336 60.4907 238.555 60.402 238.817 60.402C239.078 60.402 239.293 60.486 239.461 60.654C239.638 60.8127 239.727 61.0133 239.727 61.256C239.727 61.508 239.638 61.7227 239.461 61.9C239.293 62.068 239.078 62.152 238.817 62.152ZM246.427 70.566C246.231 70.734 245.988 70.8647 245.699 70.958C245.41 71.042 245.111 71.084 244.803 71.084C244.056 71.084 243.478 70.8833 243.067 70.482C242.656 70.0807 242.451 69.5067 242.451 68.76V64.686H241.191V63.58H242.451V61.956H243.795V63.58H245.923V64.686H243.795V68.704C243.795 69.1053 243.893 69.4133 244.089 69.628C244.294 69.8427 244.584 69.95 244.957 69.95C245.368 69.95 245.718 69.8333 246.007 69.6L246.427 70.566ZM252.214 63.51C253.156 63.51 253.903 63.7853 254.454 64.336C255.014 64.8773 255.294 65.6753 255.294 66.73V71H253.95V66.884C253.95 66.1653 253.777 65.624 253.432 65.26C253.086 64.896 252.592 64.714 251.948 64.714C251.22 64.714 250.646 64.9287 250.226 65.358C249.806 65.778 249.596 66.3847 249.596 67.178V71H248.252V60.612H249.596V64.63C249.876 64.2753 250.24 64 250.688 63.804C251.145 63.608 251.654 63.51 252.214 63.51ZM2.322 93.8C1.99533 93.8 1.692 93.7627 1.412 93.688C1.132 93.6133 0.898667 93.5013 0.712 93.352L1.146 92.316C1.426 92.5493 1.79 92.666 2.238 92.666C2.59267 92.666 2.86333 92.554 3.05 92.33C3.246 92.1153 3.344 91.7933 3.344 91.364V83.58H4.688V91.336C4.688 92.1013 4.48267 92.7033 4.072 93.142C3.66133 93.5807 3.078 93.8 2.322 93.8ZM4.016 82.152C3.75467 82.152 3.53533 82.068 3.358 81.9C3.19 81.732 3.106 81.5267 3.106 81.284C3.106 81.0413 3.19 80.836 3.358 80.668C3.53533 80.4907 3.75467 80.402 4.016 80.402C4.27733 80.402 4.492 80.486 4.66 80.654C4.83733 80.8127 4.926 81.0133 4.926 81.256C4.926 81.508 4.83733 81.7227 4.66 81.9C4.492 82.068 4.27733 82.152 4.016 82.152ZM14.3685 83.58V91H13.0945V89.88C12.8238 90.2627 12.4645 90.5613 12.0165 90.776C11.5778 90.9813 11.0972 91.084 10.5745 91.084C9.58518 91.084 8.80585 90.8133 8.23652 90.272C7.66718 89.7213 7.38252 88.914 7.38252 87.85V83.58H8.72652V87.696C8.72652 88.4147 8.89918 88.9607 9.24452 89.334C9.58985 89.698 10.0845 89.88 10.7285 89.88C11.4378 89.88 11.9978 89.6653 12.4085 89.236C12.8192 88.8067 13.0245 88.2 13.0245 87.416V83.58H14.3685ZM19.2551 91.084C18.6485 91.084 18.0651 91.0047 17.5051 90.846C16.9451 90.678 16.5065 90.468 16.1891 90.216L16.7491 89.152C17.0758 89.3853 17.4725 89.572 17.9391 89.712C18.4058 89.852 18.8771 89.922 19.3531 89.922C20.5291 89.922 21.1171 89.586 21.1171 88.914C21.1171 88.69 21.0378 88.5127 20.8791 88.382C20.7205 88.2513 20.5198 88.158 20.2771 88.102C20.0438 88.0367 19.7078 87.9667 19.2691 87.892C18.6718 87.7987 18.1818 87.6913 17.7991 87.57C17.4258 87.4487 17.1038 87.2433 16.8331 86.954C16.5625 86.6647 16.4271 86.2587 16.4271 85.736C16.4271 85.064 16.7071 84.5273 17.2671 84.126C17.8271 83.7153 18.5785 83.51 19.5211 83.51C20.0158 83.51 20.5105 83.5707 21.0051 83.692C21.4998 83.8133 21.9058 83.9767 22.2231 84.182L21.6491 85.246C21.0425 84.854 20.3285 84.658 19.5071 84.658C18.9378 84.658 18.5038 84.7513 18.2051 84.938C17.9065 85.1247 17.7571 85.372 17.7571 85.68C17.7571 85.9227 17.8411 86.114 18.0091 86.254C18.1771 86.394 18.3825 86.4967 18.6251 86.562C18.8771 86.6273 19.2271 86.702 19.6751 86.786C20.2725 86.8887 20.7531 87.0007 21.1171 87.122C21.4905 87.234 21.8078 87.43 22.0691 87.71C22.3305 87.99 22.4611 88.382 22.4611 88.886C22.4611 89.558 22.1718 90.0947 21.5931 90.496C21.0238 90.888 20.2445 91.084 19.2551 91.084ZM28.5128 90.566C28.3168 90.734 28.0741 90.8647 27.7848 90.958C27.4955 91.042 27.1968 91.084 26.8888 91.084C26.1421 91.084 25.5635 90.8833 25.1528 90.482C24.7421 90.0807 24.5368 89.5067 24.5368 88.76V84.686H23.2768V83.58H24.5368V81.956H25.8808V83.58H28.0088V84.686H25.8808V88.704C25.8808 89.1053 25.9788 89.4133 26.1748 89.628C26.3801 89.8427 26.6695 89.95 27.0428 89.95C27.4535 89.95 27.8035 89.8333 28.0928 89.6L28.5128 90.566ZM37.4754 91.084C36.7381 91.084 36.0754 90.9207 35.4874 90.594C34.8994 90.2673 34.4374 89.8193 34.1014 89.25C33.7748 88.6713 33.6114 88.018 33.6114 87.29C33.6114 86.562 33.7748 85.9133 34.1014 85.344C34.4374 84.7653 34.8994 84.3173 35.4874 84C36.0754 83.6733 36.7381 83.51 37.4754 83.51C38.2128 83.51 38.8708 83.6733 39.4494 84C40.0374 84.3173 40.4948 84.7653 40.8214 85.344C41.1574 85.9133 41.3254 86.562 41.3254 87.29C41.3254 88.018 41.1574 88.6713 40.8214 89.25C40.4948 89.8193 40.0374 90.2673 39.4494 90.594C38.8708 90.9207 38.2128 91.084 37.4754 91.084ZM37.4754 89.908C37.9514 89.908 38.3761 89.8007 38.7494 89.586C39.1321 89.362 39.4308 89.054 39.6454 88.662C39.8601 88.2607 39.9674 87.8033 39.9674 87.29C39.9674 86.7767 39.8601 86.324 39.6454 85.932C39.4308 85.5307 39.1321 85.2227 38.7494 85.008C38.3761 84.7933 37.9514 84.686 37.4754 84.686C36.9994 84.686 36.5701 84.7933 36.1874 85.008C35.8141 85.2227 35.5154 85.5307 35.2914 85.932C35.0768 86.324 34.9694 86.7767 34.9694 87.29C34.9694 87.8033 35.0768 88.2607 35.2914 88.662C35.5154 89.054 35.8141 89.362 36.1874 89.586C36.5701 89.8007 36.9994 89.908 37.4754 89.908ZM47.3462 83.51C48.2888 83.51 49.0355 83.7853 49.5862 84.336C50.1462 84.8773 50.4262 85.6753 50.4262 86.73V91H49.0822V86.884C49.0822 86.1653 48.9095 85.624 48.5642 85.26C48.2188 84.896 47.7242 84.714 47.0802 84.714C46.3522 84.714 45.7782 84.9287 45.3582 85.358C44.9382 85.778 44.7282 86.3847 44.7282 87.178V91H43.3842V83.58H44.6722V84.7C44.9428 84.3173 45.3068 84.0233 45.7642 83.818C46.2308 83.6127 46.7582 83.51 47.3462 83.51ZM59.8605 87.332C59.8605 87.4347 59.8511 87.57 59.8325 87.738H53.8125C53.8965 88.3913 54.1811 88.9187 54.6665 89.32C55.1611 89.712 55.7725 89.908 56.5005 89.908C57.3871 89.908 58.1011 89.6093 58.6425 89.012L59.3845 89.88C59.0485 90.272 58.6285 90.5707 58.1245 90.776C57.6298 90.9813 57.0745 91.084 56.4585 91.084C55.6745 91.084 54.9791 90.9253 54.3725 90.608C53.7658 90.2813 53.2945 89.8287 52.9585 89.25C52.6318 88.6713 52.4685 88.018 52.4685 87.29C52.4685 86.5713 52.6271 85.9227 52.9445 85.344C53.2711 84.7653 53.7145 84.3173 54.2745 84C54.8438 83.6733 55.4831 83.51 56.1925 83.51C56.9018 83.51 57.5318 83.6733 58.0825 84C58.6425 84.3173 59.0765 84.7653 59.3845 85.344C59.7018 85.9227 59.8605 86.5853 59.8605 87.332ZM56.1925 84.644C55.5485 84.644 55.0071 84.84 54.5685 85.232C54.1391 85.624 53.8871 86.1373 53.8125 86.772H58.5725C58.4978 86.1467 58.2411 85.638 57.8025 85.246C57.3731 84.8447 56.8365 84.644 56.1925 84.644ZM61.5875 86.576H65.3535V87.738H61.5875V86.576ZM70.9936 91.084C70.2376 91.084 69.5609 90.9207 68.9635 90.594C68.3756 90.2673 67.9136 89.8193 67.5775 89.25C67.2415 88.6713 67.0735 88.018 67.0735 87.29C67.0735 86.562 67.2415 85.9133 67.5775 85.344C67.9136 84.7653 68.3756 84.3173 68.9635 84C69.5609 83.6733 70.2376 83.51 70.9936 83.51C71.6656 83.51 72.2629 83.6453 72.7856 83.916C73.3176 84.1867 73.7282 84.5787 74.0176 85.092L72.9956 85.75C72.7622 85.3953 72.4729 85.1293 72.1276 84.952C71.7822 84.7747 71.3996 84.686 70.9796 84.686C70.4942 84.686 70.0556 84.7933 69.6636 85.008C69.2809 85.2227 68.9775 85.5307 68.7535 85.932C68.5389 86.324 68.4316 86.7767 68.4316 87.29C68.4316 87.8127 68.5389 88.2747 68.7535 88.676C68.9775 89.068 69.2809 89.3713 69.6636 89.586C70.0556 89.8007 70.4942 89.908 70.9796 89.908C71.3996 89.908 71.7822 89.8193 72.1276 89.642C72.4729 89.4647 72.7622 89.1987 72.9956 88.844L74.0176 89.488C73.7282 90.0013 73.3176 90.398 72.7856 90.678C72.2629 90.9487 71.6656 91.084 70.9936 91.084ZM75.8619 80.612H77.2059V91H75.8619V80.612ZM79.972 83.58H81.316V91H79.972V83.58ZM80.644 82.152C80.3827 82.152 80.1634 82.068 79.986 81.9C79.818 81.732 79.734 81.5267 79.734 81.284C79.734 81.0413 79.818 80.836 79.986 80.668C80.1634 80.4907 80.3827 80.402 80.644 80.402C80.9054 80.402 81.12 80.486 81.288 80.654C81.4654 80.8127 81.554 81.0133 81.554 81.256C81.554 81.508 81.4654 81.7227 81.288 81.9C81.12 82.068 80.9054 82.152 80.644 82.152ZM87.3162 91.084C86.5602 91.084 85.8835 90.9207 85.2862 90.594C84.6982 90.2673 84.2362 89.8193 83.9002 89.25C83.5642 88.6713 83.3962 88.018 83.3962 87.29C83.3962 86.562 83.5642 85.9133 83.9002 85.344C84.2362 84.7653 84.6982 84.3173 85.2862 84C85.8835 83.6733 86.5602 83.51 87.3162 83.51C87.9882 83.51 88.5855 83.6453 89.1082 83.916C89.6402 84.1867 90.0509 84.5787 90.3402 85.092L89.3182 85.75C89.0849 85.3953 88.7955 85.1293 88.4502 84.952C88.1049 84.7747 87.7222 84.686 87.3022 84.686C86.8169 84.686 86.3782 84.7933 85.9862 85.008C85.6035 85.2227 85.3002 85.5307 85.0762 85.932C84.8615 86.324 84.7542 86.7767 84.7542 87.29C84.7542 87.8127 84.8615 88.2747 85.0762 88.676C85.3002 89.068 85.6035 89.3713 85.9862 89.586C86.3782 89.8007 86.8169 89.908 87.3022 89.908C87.7222 89.908 88.1049 89.8193 88.4502 89.642C88.7955 89.4647 89.0849 89.1987 89.3182 88.844L90.3402 89.488C90.0509 90.0013 89.6402 90.398 89.1082 90.678C88.5855 90.9487 87.9882 91.084 87.3162 91.084ZM95.0685 87.542L93.5285 88.97V91H92.1845V80.612H93.5285V87.276L97.5745 83.58H99.1985L96.0765 86.646L99.5065 91H97.8545L95.0685 87.542ZM101.47 91.084C101.209 91.084 100.985 90.9953 100.798 90.818C100.612 90.6313 100.518 90.398 100.518 90.118C100.518 89.8473 100.612 89.6233 100.798 89.446C100.985 89.2593 101.209 89.166 101.47 89.166C101.732 89.166 101.951 89.2547 102.128 89.432C102.306 89.6093 102.394 89.838 102.394 90.118C102.394 90.398 102.301 90.6313 102.114 90.818C101.937 90.9953 101.722 91.084 101.47 91.084Z" fill="#737373"/>
</svg>
