<svg width="333" height="41" viewBox="0 0 333 41" fill="none" xmlns="http://www.w3.org/2000/svg">
<path d="M32.6 35C31.6933 36.12 30.5867 36.9733 29.28 37.56C28 38.1467 26.5867 38.44 25.04 38.44C22.96 38.44 21.08 37.9867 19.4 37.08C17.72 36.2 15.8 34.6267 13.64 32.36C11.1067 32.04 8.84 31.2267 6.84 29.92C4.86667 28.6133 3.32 26.9333 2.2 24.88C1.10667 22.8 0.56 20.5067 0.56 18C0.56 15.2533 1.21333 12.7867 2.52 10.6C3.85333 8.38667 5.68 6.65333 8 5.4C10.3467 4.14667 12.9733 3.52 15.88 3.52C18.7867 3.52 21.4 4.14667 23.72 5.4C26.04 6.65333 27.8667 8.38667 29.2 10.6C30.5333 12.7867 31.2 15.2533 31.2 18C31.2 21.2533 30.28 24.1067 28.44 26.56C26.6267 29.0133 24.2133 30.72 21.2 31.68C21.8667 32.3733 22.5067 32.8667 23.12 33.16C23.76 33.48 24.44 33.64 25.16 33.64C26.8933 33.64 28.4133 32.9467 29.72 31.56L32.6 35ZM7.12 18C7.12 19.7333 7.49333 21.28 8.24 22.64C9.01333 24 10.0667 25.0667 11.4 25.84C12.7333 26.5867 14.2267 26.96 15.88 26.96C17.5333 26.96 19.0267 26.5867 20.36 25.84C21.6933 25.0667 22.7333 24 23.48 22.64C24.2533 21.28 24.64 19.7333 24.64 18C24.64 16.2667 24.2533 14.72 23.48 13.36C22.7333 12 21.6933 10.9467 20.36 10.2C19.0267 9.42667 17.5333 9.04 15.88 9.04C14.2267 9.04 12.7333 9.42667 11.4 10.2C10.0667 10.9467 9.01333 12 8.24 13.36C7.49333 14.72 7.12 16.2667 7.12 18ZM57.51 10.48V32H51.59V29.44C50.7633 30.3733 49.7767 31.0933 48.63 31.6C47.4833 32.08 46.2433 32.32 44.91 32.32C42.0833 32.32 39.8433 31.5067 38.19 29.88C36.5367 28.2533 35.71 25.84 35.71 22.64V10.48H41.95V21.72C41.95 25.1867 43.4033 26.92 46.31 26.92C47.8033 26.92 49.0033 26.44 49.91 25.48C50.8167 24.4933 51.27 23.04 51.27 21.12V10.48H57.51ZM72.1709 10.16C75.5043 10.16 78.0643 10.96 79.8509 12.56C81.6376 14.1333 82.5309 16.52 82.5309 19.72V32H76.6909V29.32C75.5176 31.32 73.3309 32.32 70.1309 32.32C68.4776 32.32 67.0376 32.04 65.8109 31.48C64.6109 30.92 63.6909 30.1467 63.0509 29.16C62.4109 28.1733 62.0909 27.0533 62.0909 25.8C62.0909 23.8 62.8376 22.2267 64.3309 21.08C65.8509 19.9333 68.1843 19.36 71.3309 19.36H76.2909C76.2909 18 75.8776 16.96 75.0509 16.24C74.2243 15.4933 72.9843 15.12 71.3309 15.12C70.1843 15.12 69.0509 15.3067 67.9309 15.68C66.8376 16.0267 65.9043 16.5067 65.1309 17.12L62.8909 12.76C64.0643 11.9333 65.4643 11.2933 67.0909 10.84C68.7443 10.3867 70.4376 10.16 72.1709 10.16ZM71.6909 28.12C72.7576 28.12 73.7043 27.88 74.5309 27.4C75.3576 26.8933 75.9443 26.16 76.2909 25.2V23H72.0109C69.4509 23 68.1709 23.84 68.1709 25.52C68.1709 26.32 68.4776 26.96 69.0909 27.44C69.7309 27.8933 70.5976 28.12 71.6909 28.12ZM88.3784 2.32H94.6184V32H88.3784V2.32ZM100.61 10.48H106.85V32H100.61V10.48ZM103.73 7.48C102.583 7.48 101.65 7.14667 100.93 6.48C100.21 5.81333 99.8497 4.98666 99.8497 4C99.8497 3.01333 100.21 2.18667 100.93 1.52C101.65 0.853331 102.583 0.519998 103.73 0.519998C104.876 0.519998 105.81 0.839998 106.53 1.48C107.25 2.12 107.61 2.92 107.61 3.88C107.61 4.92 107.25 5.78667 106.53 6.48C105.81 7.14667 104.876 7.48 103.73 7.48ZM126.721 30.96C126.108 31.4133 125.348 31.76 124.441 32C123.561 32.2133 122.628 32.32 121.641 32.32C119.081 32.32 117.094 31.6667 115.681 30.36C114.294 29.0533 113.601 27.1333 113.601 24.6V15.76H110.281V10.96H113.601V5.72H119.841V10.96H125.201V15.76H119.841V24.52C119.841 25.4267 120.068 26.1333 120.521 26.64C121.001 27.12 121.668 27.36 122.521 27.36C123.508 27.36 124.348 27.0933 125.041 26.56L126.721 30.96ZM151.393 10.48L141.673 33.32C140.686 35.8 139.46 37.5467 137.993 38.56C136.553 39.5733 134.806 40.08 132.753 40.08C131.633 40.08 130.526 39.9067 129.433 39.56C128.34 39.2133 127.446 38.7333 126.753 38.12L129.033 33.68C129.513 34.1067 130.06 34.44 130.673 34.68C131.313 34.92 131.94 35.04 132.553 35.04C133.406 35.04 134.1 34.8267 134.633 34.4C135.166 34 135.646 33.32 136.073 32.36L136.153 32.16L126.833 10.48H133.273L139.313 25.08L145.393 10.48H151.393ZM179.508 32.48C176.654 32.48 174.068 31.8667 171.748 30.64C169.454 29.3867 167.641 27.6667 166.308 25.48C165.001 23.2667 164.348 20.7733 164.348 18C164.348 15.2267 165.001 12.7467 166.308 10.56C167.641 8.34667 169.454 6.62667 171.748 5.4C174.068 4.14667 176.668 3.52 179.548 3.52C181.974 3.52 184.161 3.94667 186.108 4.8C188.081 5.65333 189.734 6.88 191.068 8.48L186.908 12.32C185.014 10.1333 182.668 9.04 179.868 9.04C178.134 9.04 176.588 9.42667 175.228 10.2C173.868 10.9467 172.801 12 172.028 13.36C171.281 14.72 170.908 16.2667 170.908 18C170.908 19.7333 171.281 21.28 172.028 22.64C172.801 24 173.868 25.0667 175.228 25.84C176.588 26.5867 178.134 26.96 179.868 26.96C182.668 26.96 185.014 25.8533 186.908 23.64L191.068 27.48C189.734 29.1067 188.081 30.3467 186.108 31.2C184.134 32.0533 181.934 32.48 179.508 32.48ZM204.701 32.32C202.435 32.32 200.395 31.8533 198.581 30.92C196.795 29.96 195.395 28.64 194.381 26.96C193.368 25.28 192.861 23.3733 192.861 21.24C192.861 19.1067 193.368 17.2 194.381 15.52C195.395 13.84 196.795 12.5333 198.581 11.6C200.395 10.64 202.435 10.16 204.701 10.16C206.968 10.16 208.995 10.64 210.781 11.6C212.568 12.5333 213.968 13.84 214.981 15.52C215.995 17.2 216.501 19.1067 216.501 21.24C216.501 23.3733 215.995 25.28 214.981 26.96C213.968 28.64 212.568 29.96 210.781 30.92C208.995 31.8533 206.968 32.32 204.701 32.32ZM204.701 27.2C206.301 27.2 207.608 26.6667 208.621 25.6C209.661 24.5067 210.181 23.0533 210.181 21.24C210.181 19.4267 209.661 17.9867 208.621 16.92C207.608 15.8267 206.301 15.28 204.701 15.28C203.101 15.28 201.781 15.8267 200.741 16.92C199.701 17.9867 199.181 19.4267 199.181 21.24C199.181 23.0533 199.701 24.5067 200.741 25.6C201.781 26.6667 203.101 27.2 204.701 27.2ZM233.952 10.16C236.619 10.16 238.766 10.96 240.392 12.56C242.046 14.16 242.872 16.5333 242.872 19.68V32H236.632V20.64C236.632 18.9333 236.259 17.6667 235.512 16.84C234.766 15.9867 233.686 15.56 232.272 15.56C230.699 15.56 229.446 16.0533 228.512 17.04C227.579 18 227.112 19.44 227.112 21.36V32H220.872V10.48H226.832V13C227.659 12.0933 228.686 11.4 229.912 10.92C231.139 10.4133 232.486 10.16 233.952 10.16ZM262.608 30.96C261.995 31.4133 261.235 31.76 260.328 32C259.448 32.2133 258.515 32.32 257.528 32.32C254.968 32.32 252.982 31.6667 251.568 30.36C250.182 29.0533 249.488 27.1333 249.488 24.6V15.76H246.168V10.96H249.488V5.72H255.728V10.96H261.088V15.76H255.728V24.52C255.728 25.4267 255.955 26.1333 256.408 26.64C256.888 27.12 257.555 27.36 258.408 27.36C259.395 27.36 260.235 27.0933 260.928 26.56L262.608 30.96ZM286.727 21.32C286.727 21.4 286.687 21.96 286.607 23H270.327C270.621 24.3333 271.314 25.3867 272.407 26.16C273.501 26.9333 274.861 27.32 276.487 27.32C277.607 27.32 278.594 27.16 279.447 26.84C280.327 26.4933 281.141 25.96 281.887 25.24L285.207 28.84C283.181 31.16 280.221 32.32 276.327 32.32C273.901 32.32 271.754 31.8533 269.887 30.92C268.021 29.96 266.581 28.64 265.567 26.96C264.554 25.28 264.047 23.3733 264.047 21.24C264.047 19.1333 264.541 17.24 265.527 15.56C266.541 13.8533 267.914 12.5333 269.647 11.6C271.407 10.64 273.367 10.16 275.527 10.16C277.634 10.16 279.541 10.6133 281.247 11.52C282.954 12.4267 284.287 13.7333 285.247 15.44C286.234 17.12 286.727 19.08 286.727 21.32ZM275.567 14.88C274.154 14.88 272.967 15.28 272.007 16.08C271.047 16.88 270.461 17.9733 270.247 19.36H280.847C280.634 18 280.047 16.92 279.087 16.12C278.127 15.2933 276.954 14.88 275.567 14.88ZM304.162 10.16C306.828 10.16 308.975 10.96 310.602 12.56C312.255 14.16 313.082 16.5333 313.082 19.68V32H306.842V20.64C306.842 18.9333 306.468 17.6667 305.722 16.84C304.975 15.9867 303.895 15.56 302.482 15.56C300.908 15.56 299.655 16.0533 298.722 17.04C297.788 18 297.322 19.44 297.322 21.36V32H291.082V10.48H297.042V13C297.868 12.0933 298.895 11.4 300.122 10.92C301.348 10.4133 302.695 10.16 304.162 10.16ZM332.818 30.96C332.204 31.4133 331.444 31.76 330.538 32C329.658 32.2133 328.724 32.32 327.738 32.32C325.178 32.32 323.191 31.6667 321.778 30.36C320.391 29.0533 319.698 27.1333 319.698 24.6V15.76H316.378V10.96H319.698V5.72H325.938V10.96H331.298V15.76H325.938V24.52C325.938 25.4267 326.164 26.1333 326.618 26.64C327.098 27.12 327.764 27.36 328.618 27.36C329.604 27.36 330.444 27.0933 331.138 26.56L332.818 30.96Z" fill="#252B42"/>
</svg>
