<svg width="278" height="94" viewBox="0 0 278 94" fill="none" xmlns="http://www.w3.org/2000/svg">
<path d="M3.73 11.112C3.142 11.112 2.596 10.9907 2.092 10.748C1.588 10.496 1.182 10.146 0.874 9.698L1.686 8.746C2.22733 9.52067 2.90867 9.908 3.73 9.908C4.28067 9.908 4.696 9.74 4.976 9.404C5.26533 9.068 5.41 8.57333 5.41 7.92V2.418H1.868V1.2H6.796V7.85C6.796 8.93267 6.53467 9.74933 6.012 10.3C5.49867 10.8413 4.738 11.112 3.73 11.112ZM12.8297 11.084C12.0924 11.084 11.4297 10.9207 10.8417 10.594C10.2537 10.2673 9.79173 9.81933 9.45573 9.25C9.12907 8.67133 8.96573 8.018 8.96573 7.29C8.96573 6.562 9.12907 5.91333 9.45573 5.344C9.79173 4.76533 10.2537 4.31733 10.8417 4C11.4297 3.67333 12.0924 3.51 12.8297 3.51C13.5671 3.51 14.2251 3.67333 14.8037 4C15.3917 4.31733 15.8491 4.76533 16.1757 5.344C16.5117 5.91333 16.6797 6.562 16.6797 7.29C16.6797 8.018 16.5117 8.67133 16.1757 9.25C15.8491 9.81933 15.3917 10.2673 14.8037 10.594C14.2251 10.9207 13.5671 11.084 12.8297 11.084ZM12.8297 9.908C13.3057 9.908 13.7304 9.80067 14.1037 9.586C14.4864 9.362 14.7851 9.054 14.9997 8.662C15.2144 8.26067 15.3217 7.80333 15.3217 7.29C15.3217 6.77667 15.2144 6.324 14.9997 5.932C14.7851 5.53067 14.4864 5.22267 14.1037 5.008C13.7304 4.79333 13.3057 4.686 12.8297 4.686C12.3537 4.686 11.9244 4.79333 11.5417 5.008C11.1684 5.22267 10.8697 5.53067 10.6457 5.932C10.4311 6.324 10.3237 6.77667 10.3237 7.29C10.3237 7.80333 10.4311 8.26067 10.6457 8.662C10.8697 9.054 11.1684 9.362 11.5417 9.586C11.9244 9.80067 12.3537 9.908 12.8297 9.908ZM18.7385 3.58H20.0825V11H18.7385V3.58ZM19.4105 2.152C19.1491 2.152 18.9298 2.068 18.7525 1.9C18.5845 1.732 18.5005 1.52667 18.5005 1.284C18.5005 1.04133 18.5845 0.836 18.7525 0.668C18.9298 0.490666 19.1491 0.402 19.4105 0.402C19.6718 0.402 19.8865 0.486 20.0545 0.654C20.2318 0.812666 20.3205 1.01333 20.3205 1.256C20.3205 1.508 20.2318 1.72267 20.0545 1.9C19.8865 2.068 19.6718 2.152 19.4105 2.152ZM26.8106 3.51C27.7533 3.51 28.4999 3.78533 29.0506 4.336C29.6106 4.87733 29.8906 5.67533 29.8906 6.73V11H28.5466V6.884C28.5466 6.16533 28.3739 5.624 28.0286 5.26C27.6833 4.896 27.1886 4.714 26.5446 4.714C25.8166 4.714 25.2426 4.92867 24.8226 5.358C24.4026 5.778 24.1926 6.38467 24.1926 7.178V11H22.8486V3.58H24.1366V4.7C24.4073 4.31733 24.7713 4.02333 25.2286 3.818C25.6953 3.61267 26.2226 3.51 26.8106 3.51ZM39.2397 3.51C40.2663 3.51 41.0503 3.762 41.5917 4.266C42.1423 4.77 42.4177 5.52133 42.4177 6.52V11H41.1437V10.02C40.9197 10.3653 40.5977 10.6313 40.1777 10.818C39.767 10.9953 39.277 11.084 38.7077 11.084C37.877 11.084 37.2097 10.8833 36.7057 10.482C36.211 10.0807 35.9637 9.55333 35.9637 8.9C35.9637 8.24667 36.2017 7.724 36.6777 7.332C37.1537 6.93067 37.9097 6.73 38.9457 6.73H41.0737V6.464C41.0737 5.88533 40.9057 5.442 40.5697 5.134C40.2337 4.826 39.739 4.672 39.0857 4.672C38.647 4.672 38.2177 4.74667 37.7977 4.896C37.3777 5.036 37.023 5.22733 36.7337 5.47L36.1737 4.462C36.5563 4.154 37.0137 3.92067 37.5457 3.762C38.0777 3.594 38.6423 3.51 39.2397 3.51ZM38.9317 10.048C39.445 10.048 39.8883 9.936 40.2617 9.712C40.635 9.47867 40.9057 9.152 41.0737 8.732V7.696H39.0017C37.863 7.696 37.2937 8.07867 37.2937 8.844C37.2937 9.21733 37.4383 9.51133 37.7277 9.726C38.017 9.94067 38.4183 10.048 38.9317 10.048ZM49.0669 3.51C50.0095 3.51 50.7562 3.78533 51.3069 4.336C51.8669 4.87733 52.1469 5.67533 52.1469 6.73V11H50.8029V6.884C50.8029 6.16533 50.6302 5.624 50.2849 5.26C49.9395 4.896 49.4449 4.714 48.8009 4.714C48.0729 4.714 47.4989 4.92867 47.0789 5.358C46.6589 5.778 46.4489 6.38467 46.4489 7.178V11H45.1049V3.58H46.3929V4.7C46.6635 4.31733 47.0275 4.02333 47.4849 3.818C47.9515 3.61267 48.4789 3.51 49.0669 3.51ZM61.8752 0.611999V11H60.5872V9.824C60.2885 10.2347 59.9105 10.5473 59.4532 10.762C58.9958 10.9767 58.4918 11.084 57.9412 11.084C57.2225 11.084 56.5785 10.9253 56.0092 10.608C55.4398 10.2907 54.9918 9.84733 54.6652 9.278C54.3478 8.69933 54.1892 8.03667 54.1892 7.29C54.1892 6.54333 54.3478 5.88533 54.6652 5.316C54.9918 4.74667 55.4398 4.30333 56.0092 3.986C56.5785 3.66867 57.2225 3.51 57.9412 3.51C58.4732 3.51 58.9632 3.61267 59.4112 3.818C59.8592 4.014 60.2325 4.308 60.5312 4.7V0.611999H61.8752ZM58.0532 9.908C58.5198 9.908 58.9445 9.80067 59.3272 9.586C59.7098 9.362 60.0085 9.054 60.2232 8.662C60.4378 8.26067 60.5452 7.80333 60.5452 7.29C60.5452 6.77667 60.4378 6.324 60.2232 5.932C60.0085 5.53067 59.7098 5.22267 59.3272 5.008C58.9445 4.79333 58.5198 4.686 58.0532 4.686C57.5772 4.686 57.1478 4.79333 56.7652 5.008C56.3918 5.22267 56.0932 5.53067 55.8692 5.932C55.6545 6.324 55.5472 6.77667 55.5472 7.29C55.5472 7.80333 55.6545 8.26067 55.8692 8.662C56.0932 9.054 56.3918 9.362 56.7652 9.586C57.1478 9.80067 57.5772 9.908 58.0532 9.908ZM70.7059 11.084C70.0992 11.084 69.5159 11.0047 68.9559 10.846C68.3959 10.678 67.9572 10.468 67.6399 10.216L68.1999 9.152C68.5266 9.38533 68.9232 9.572 69.3899 9.712C69.8566 9.852 70.3279 9.922 70.8039 9.922C71.9799 9.922 72.5679 9.586 72.5679 8.914C72.5679 8.69 72.4886 8.51267 72.3299 8.382C72.1712 8.25133 71.9706 8.158 71.7279 8.102C71.4946 8.03667 71.1586 7.96667 70.7199 7.892C70.1226 7.79867 69.6326 7.69133 69.2499 7.57C68.8766 7.44867 68.5546 7.24333 68.2839 6.954C68.0132 6.66467 67.8779 6.25867 67.8779 5.736C67.8779 5.064 68.1579 4.52733 68.7179 4.126C69.2779 3.71533 70.0292 3.51 70.9719 3.51C71.4666 3.51 71.9612 3.57067 72.4559 3.692C72.9506 3.81333 73.3566 3.97667 73.6739 4.182L73.0999 5.246C72.4932 4.854 71.7792 4.658 70.9579 4.658C70.3886 4.658 69.9546 4.75133 69.6559 4.938C69.3572 5.12467 69.2079 5.372 69.2079 5.68C69.2079 5.92267 69.2919 6.114 69.4599 6.254C69.6279 6.394 69.8332 6.49667 70.0759 6.562C70.3279 6.62733 70.6779 6.702 71.1259 6.786C71.7232 6.88867 72.2039 7.00067 72.5679 7.122C72.9412 7.234 73.2586 7.43 73.5199 7.71C73.7812 7.99 73.9119 8.382 73.9119 8.886C73.9119 9.558 73.6226 10.0947 73.0439 10.496C72.4746 10.888 71.6952 11.084 70.7059 11.084ZM82.7076 3.58V11H81.4336V9.88C81.1629 10.2627 80.8036 10.5613 80.3556 10.776C79.9169 10.9813 79.4362 11.084 78.9136 11.084C77.9242 11.084 77.1449 10.8133 76.5756 10.272C76.0062 9.72133 75.7216 8.914 75.7216 7.85V3.58H77.0656V7.696C77.0656 8.41467 77.2382 8.96067 77.5836 9.334C77.9289 9.698 78.4236 9.88 79.0676 9.88C79.7769 9.88 80.3369 9.66533 80.7476 9.236C81.1582 8.80667 81.3636 8.2 81.3636 7.416V3.58H82.7076ZM89.4002 3.51C90.1189 3.51 90.7629 3.66867 91.3322 3.986C91.9015 4.30333 92.3449 4.74667 92.6622 5.316C92.9889 5.88533 93.1522 6.54333 93.1522 7.29C93.1522 8.03667 92.9889 8.69933 92.6622 9.278C92.3449 9.84733 91.9015 10.2907 91.3322 10.608C90.7629 10.9253 90.1189 11.084 89.4002 11.084C88.8495 11.084 88.3455 10.9767 87.8882 10.762C87.4309 10.5473 87.0529 10.2347 86.7542 9.824V11H85.4662V0.611999H86.8102V4.7C87.1089 4.308 87.4822 4.014 87.9302 3.818C88.3782 3.61267 88.8682 3.51 89.4002 3.51ZM89.2882 9.908C89.7642 9.908 90.1889 9.80067 90.5622 9.586C90.9449 9.362 91.2435 9.054 91.4582 8.662C91.6822 8.26067 91.7942 7.80333 91.7942 7.29C91.7942 6.77667 91.6822 6.324 91.4582 5.932C91.2435 5.53067 90.9449 5.22267 90.5622 5.008C90.1889 4.79333 89.7642 4.686 89.2882 4.686C88.8215 4.686 88.3969 4.79333 88.0142 5.008C87.6315 5.22267 87.3329 5.53067 87.1182 5.932C86.9035 6.324 86.7962 6.77667 86.7962 7.29C86.7962 7.80333 86.9035 8.26067 87.1182 8.662C87.3329 9.054 87.6315 9.362 88.0142 9.586C88.3969 9.80067 88.8215 9.908 89.2882 9.908ZM97.3372 11.084C96.7305 11.084 96.1472 11.0047 95.5872 10.846C95.0272 10.678 94.5885 10.468 94.2712 10.216L94.8312 9.152C95.1578 9.38533 95.5545 9.572 96.0212 9.712C96.4878 9.852 96.9592 9.922 97.4352 9.922C98.6112 9.922 99.1992 9.586 99.1992 8.914C99.1992 8.69 99.1198 8.51267 98.9612 8.382C98.8025 8.25133 98.6018 8.158 98.3592 8.102C98.1258 8.03667 97.7898 7.96667 97.3512 7.892C96.7538 7.79867 96.2638 7.69133 95.8812 7.57C95.5078 7.44867 95.1858 7.24333 94.9152 6.954C94.6445 6.66467 94.5092 6.25867 94.5092 5.736C94.5092 5.064 94.7892 4.52733 95.3492 4.126C95.9092 3.71533 96.6605 3.51 97.6032 3.51C98.0978 3.51 98.5925 3.57067 99.0872 3.692C99.5818 3.81333 99.9878 3.97667 100.305 4.182L99.7312 5.246C99.1245 4.854 98.4105 4.658 97.5892 4.658C97.0198 4.658 96.5858 4.75133 96.2872 4.938C95.9885 5.12467 95.8392 5.372 95.8392 5.68C95.8392 5.92267 95.9232 6.114 96.0912 6.254C96.2592 6.394 96.4645 6.49667 96.7072 6.562C96.9592 6.62733 97.3092 6.702 97.7572 6.786C98.3545 6.88867 98.8352 7.00067 99.1992 7.122C99.5725 7.234 99.8898 7.43 100.151 7.71C100.412 7.99 100.543 8.382 100.543 8.886C100.543 9.558 100.254 10.0947 99.6752 10.496C99.1058 10.888 98.3265 11.084 97.3372 11.084ZM105.657 11.084C104.901 11.084 104.224 10.9207 103.627 10.594C103.039 10.2673 102.577 9.81933 102.241 9.25C101.905 8.67133 101.737 8.018 101.737 7.29C101.737 6.562 101.905 5.91333 102.241 5.344C102.577 4.76533 103.039 4.31733 103.627 4C104.224 3.67333 104.901 3.51 105.657 3.51C106.329 3.51 106.926 3.64533 107.449 3.916C107.981 4.18667 108.391 4.57867 108.681 5.092L107.659 5.75C107.425 5.39533 107.136 5.12933 106.791 4.952C106.445 4.77467 106.063 4.686 105.643 4.686C105.157 4.686 104.719 4.79333 104.327 5.008C103.944 5.22267 103.641 5.53067 103.417 5.932C103.202 6.324 103.095 6.77667 103.095 7.29C103.095 7.81267 103.202 8.27467 103.417 8.676C103.641 9.068 103.944 9.37133 104.327 9.586C104.719 9.80067 105.157 9.908 105.643 9.908C106.063 9.908 106.445 9.81933 106.791 9.642C107.136 9.46467 107.425 9.19867 107.659 8.844L108.681 9.488C108.391 10.0013 107.981 10.398 107.449 10.678C106.926 10.9487 106.329 11.084 105.657 11.084ZM111.909 4.826C112.142 4.39667 112.488 4.07 112.945 3.846C113.402 3.622 113.958 3.51 114.611 3.51V4.812C114.536 4.80267 114.434 4.798 114.303 4.798C113.575 4.798 113.001 5.01733 112.581 5.456C112.17 5.88533 111.965 6.50133 111.965 7.304V11H110.621V3.58H111.909V4.826ZM116.467 3.58H117.811V11H116.467V3.58ZM117.139 2.152C116.878 2.152 116.659 2.068 116.481 1.9C116.313 1.732 116.229 1.52667 116.229 1.284C116.229 1.04133 116.313 0.836 116.481 0.668C116.659 0.490666 116.878 0.402 117.139 0.402C117.401 0.402 117.615 0.486 117.783 0.654C117.961 0.812666 118.049 1.01333 118.049 1.256C118.049 1.508 117.961 1.72267 117.783 1.9C117.615 2.068 117.401 2.152 117.139 2.152ZM124.512 3.51C125.23 3.51 125.874 3.66867 126.444 3.986C127.013 4.30333 127.456 4.74667 127.774 5.316C128.1 5.88533 128.264 6.54333 128.264 7.29C128.264 8.03667 128.1 8.69933 127.774 9.278C127.456 9.84733 127.013 10.2907 126.444 10.608C125.874 10.9253 125.23 11.084 124.512 11.084C123.961 11.084 123.457 10.9767 123 10.762C122.542 10.5473 122.164 10.2347 121.866 9.824V11H120.578V0.611999H121.922V4.7C122.22 4.308 122.594 4.014 123.042 3.818C123.49 3.61267 123.98 3.51 124.512 3.51ZM124.4 9.908C124.876 9.908 125.3 9.80067 125.674 9.586C126.056 9.362 126.355 9.054 126.57 8.662C126.794 8.26067 126.906 7.80333 126.906 7.29C126.906 6.77667 126.794 6.324 126.57 5.932C126.355 5.53067 126.056 5.22267 125.674 5.008C125.3 4.79333 124.876 4.686 124.4 4.686C123.933 4.686 123.508 4.79333 123.126 5.008C122.743 5.22267 122.444 5.53067 122.23 5.932C122.015 6.324 121.908 6.77667 121.908 7.29C121.908 7.80333 122.015 8.26067 122.23 8.662C122.444 9.054 122.743 9.362 123.126 9.586C123.508 9.80067 123.933 9.908 124.4 9.908ZM137.026 7.332C137.026 7.43467 137.017 7.57 136.998 7.738H130.978C131.062 8.39133 131.347 8.91867 131.832 9.32C132.327 9.712 132.938 9.908 133.666 9.908C134.553 9.908 135.267 9.60933 135.808 9.012L136.55 9.88C136.214 10.272 135.794 10.5707 135.29 10.776C134.796 10.9813 134.24 11.084 133.624 11.084C132.84 11.084 132.145 10.9253 131.538 10.608C130.932 10.2813 130.46 9.82867 130.124 9.25C129.798 8.67133 129.634 8.018 129.634 7.29C129.634 6.57133 129.793 5.92267 130.11 5.344C130.437 4.76533 130.88 4.31733 131.44 4C132.01 3.67333 132.649 3.51 133.358 3.51C134.068 3.51 134.698 3.67333 135.248 4C135.808 4.31733 136.242 4.76533 136.55 5.344C136.868 5.92267 137.026 6.58533 137.026 7.332ZM133.358 4.644C132.714 4.644 132.173 4.84 131.734 5.232C131.305 5.624 131.053 6.13733 130.978 6.772H135.738C135.664 6.14667 135.407 5.638 134.968 5.246C134.539 4.84467 134.002 4.644 133.358 4.644ZM145.755 3.51C146.781 3.51 147.565 3.762 148.107 4.266C148.657 4.77 148.933 5.52133 148.933 6.52V11H147.659V10.02C147.435 10.3653 147.113 10.6313 146.693 10.818C146.282 10.9953 145.792 11.084 145.223 11.084C144.392 11.084 143.725 10.8833 143.221 10.482C142.726 10.0807 142.479 9.55333 142.479 8.9C142.479 8.24667 142.717 7.724 143.193 7.332C143.669 6.93067 144.425 6.73 145.461 6.73H147.589V6.464C147.589 5.88533 147.421 5.442 147.085 5.134C146.749 4.826 146.254 4.672 145.601 4.672C145.162 4.672 144.733 4.74667 144.313 4.896C143.893 5.036 143.538 5.22733 143.249 5.47L142.689 4.462C143.071 4.154 143.529 3.92067 144.061 3.762C144.593 3.594 145.157 3.51 145.755 3.51ZM145.447 10.048C145.96 10.048 146.403 9.936 146.777 9.712C147.15 9.47867 147.421 9.152 147.589 8.732V7.696H145.517C144.378 7.696 143.809 8.07867 143.809 8.844C143.809 9.21733 143.953 9.51133 144.243 9.726C144.532 9.94067 144.933 10.048 145.447 10.048ZM158.813 11.084C158.057 11.084 157.381 10.9207 156.783 10.594C156.195 10.2673 155.733 9.81933 155.397 9.25C155.061 8.67133 154.893 8.018 154.893 7.29C154.893 6.562 155.061 5.91333 155.397 5.344C155.733 4.76533 156.195 4.31733 156.783 4C157.381 3.67333 158.057 3.51 158.813 3.51C159.485 3.51 160.083 3.64533 160.605 3.916C161.137 4.18667 161.548 4.57867 161.837 5.092L160.815 5.75C160.582 5.39533 160.293 5.12933 159.947 4.952C159.602 4.77467 159.219 4.686 158.799 4.686C158.314 4.686 157.875 4.79333 157.483 5.008C157.101 5.22267 156.797 5.53067 156.573 5.932C156.359 6.324 156.251 6.77667 156.251 7.29C156.251 7.81267 156.359 8.27467 156.573 8.676C156.797 9.068 157.101 9.37133 157.483 9.586C157.875 9.80067 158.314 9.908 158.799 9.908C159.219 9.908 159.602 9.81933 159.947 9.642C160.293 9.46467 160.582 9.19867 160.815 8.844L161.837 9.488C161.548 10.0013 161.137 10.398 160.605 10.678C160.083 10.9487 159.485 11.084 158.813 11.084ZM166.846 11.084C166.109 11.084 165.446 10.9207 164.858 10.594C164.27 10.2673 163.808 9.81933 163.472 9.25C163.145 8.67133 162.982 8.018 162.982 7.29C162.982 6.562 163.145 5.91333 163.472 5.344C163.808 4.76533 164.27 4.31733 164.858 4C165.446 3.67333 166.109 3.51 166.846 3.51C167.583 3.51 168.241 3.67333 168.82 4C169.408 4.31733 169.865 4.76533 170.192 5.344C170.528 5.91333 170.696 6.562 170.696 7.29C170.696 8.018 170.528 8.67133 170.192 9.25C169.865 9.81933 169.408 10.2673 168.82 10.594C168.241 10.9207 167.583 11.084 166.846 11.084ZM166.846 9.908C167.322 9.908 167.747 9.80067 168.12 9.586C168.503 9.362 168.801 9.054 169.016 8.662C169.231 8.26067 169.338 7.80333 169.338 7.29C169.338 6.77667 169.231 6.324 169.016 5.932C168.801 5.53067 168.503 5.22267 168.12 5.008C167.747 4.79333 167.322 4.686 166.846 4.686C166.37 4.686 165.941 4.79333 165.558 5.008C165.185 5.22267 164.886 5.53067 164.662 5.932C164.447 6.324 164.34 6.77667 164.34 7.29C164.34 7.80333 164.447 8.26067 164.662 8.662C164.886 9.054 165.185 9.362 165.558 9.586C165.941 9.80067 166.37 9.908 166.846 9.908ZM182.037 3.51C182.97 3.51 183.708 3.78067 184.249 4.322C184.8 4.86333 185.075 5.666 185.075 6.73V11H183.731V6.884C183.731 6.16533 183.563 5.624 183.227 5.26C182.9 4.896 182.429 4.714 181.813 4.714C181.132 4.714 180.59 4.92867 180.189 5.358C179.788 5.778 179.587 6.38467 179.587 7.178V11H178.243V6.884C178.243 6.16533 178.075 5.624 177.739 5.26C177.412 4.896 176.941 4.714 176.325 4.714C175.644 4.714 175.102 4.92867 174.701 5.358C174.3 5.778 174.099 6.38467 174.099 7.178V11H172.755V3.58H174.043V4.686C174.314 4.30333 174.668 4.014 175.107 3.818C175.546 3.61267 176.045 3.51 176.605 3.51C177.184 3.51 177.697 3.62667 178.145 3.86C178.593 4.09333 178.938 4.434 179.181 4.882C179.461 4.45267 179.848 4.11667 180.343 3.874C180.847 3.63133 181.412 3.51 182.037 3.51ZM197.03 3.51C197.963 3.51 198.7 3.78067 199.242 4.322C199.792 4.86333 200.068 5.666 200.068 6.73V11H198.724V6.884C198.724 6.16533 198.556 5.624 198.22 5.26C197.893 4.896 197.422 4.714 196.806 4.714C196.124 4.714 195.583 4.92867 195.182 5.358C194.78 5.778 194.58 6.38467 194.58 7.178V11H193.236V6.884C193.236 6.16533 193.068 5.624 192.732 5.26C192.405 4.896 191.934 4.714 191.318 4.714C190.636 4.714 190.095 4.92867 189.694 5.358C189.292 5.778 189.092 6.38467 189.092 7.178V11H187.748V3.58H189.036V4.686C189.306 4.30333 189.661 4.014 190.1 3.818C190.538 3.61267 191.038 3.51 191.598 3.51C192.176 3.51 192.69 3.62667 193.138 3.86C193.586 4.09333 193.931 4.434 194.174 4.882C194.454 4.45267 194.841 4.11667 195.336 3.874C195.84 3.63133 196.404 3.51 197.03 3.51ZM209.657 3.58V11H208.383V9.88C208.112 10.2627 207.753 10.5613 207.305 10.776C206.866 10.9813 206.385 11.084 205.863 11.084C204.873 11.084 204.094 10.8133 203.525 10.272C202.955 9.72133 202.671 8.914 202.671 7.85V3.58H204.015V7.696C204.015 8.41467 204.187 8.96067 204.533 9.334C204.878 9.698 205.373 9.88 206.017 9.88C206.726 9.88 207.286 9.66533 207.697 9.236C208.107 8.80667 208.313 8.2 208.313 7.416V3.58H209.657ZM216.377 3.51C217.32 3.51 218.067 3.78533 218.617 4.336C219.177 4.87733 219.457 5.67533 219.457 6.73V11H218.113V6.884C218.113 6.16533 217.941 5.624 217.595 5.26C217.25 4.896 216.755 4.714 216.111 4.714C215.383 4.714 214.809 4.92867 214.389 5.358C213.969 5.778 213.759 6.38467 213.759 7.178V11H212.415V3.58H213.703V4.7C213.974 4.31733 214.338 4.02333 214.795 3.818C215.262 3.61267 215.789 3.51 216.377 3.51ZM222.145 3.58H223.489V11H222.145V3.58ZM222.817 2.152C222.555 2.152 222.336 2.068 222.159 1.9C221.991 1.732 221.907 1.52667 221.907 1.284C221.907 1.04133 221.991 0.836 222.159 0.668C222.336 0.490666 222.555 0.402 222.817 0.402C223.078 0.402 223.293 0.486 223.461 0.654C223.638 0.812666 223.727 1.01333 223.727 1.256C223.727 1.508 223.638 1.72267 223.461 1.9C223.293 2.068 223.078 2.152 222.817 2.152ZM230.427 10.566C230.231 10.734 229.988 10.8647 229.699 10.958C229.41 11.042 229.111 11.084 228.803 11.084C228.056 11.084 227.478 10.8833 227.067 10.482C226.656 10.0807 226.451 9.50667 226.451 8.76V4.686H225.191V3.58H226.451V1.956H227.795V3.58H229.923V4.686H227.795V8.704C227.795 9.10533 227.893 9.41333 228.089 9.628C228.294 9.84267 228.584 9.95 228.957 9.95C229.368 9.95 229.718 9.83333 230.007 9.6L230.427 10.566ZM238.681 3.58L235.083 11.742C234.766 12.498 234.392 13.03 233.963 13.338C233.543 13.646 233.034 13.8 232.437 13.8C232.073 13.8 231.718 13.7393 231.373 13.618C231.037 13.506 230.757 13.338 230.533 13.114L231.107 12.106C231.49 12.47 231.933 12.652 232.437 12.652C232.764 12.652 233.034 12.5633 233.249 12.386C233.473 12.218 233.674 11.924 233.851 11.504L234.089 10.986L230.813 3.58H232.213L234.803 9.516L237.365 3.58H238.681ZM248.267 10.566C248.071 10.734 247.828 10.8647 247.539 10.958C247.25 11.042 246.951 11.084 246.643 11.084C245.896 11.084 245.318 10.8833 244.907 10.482C244.496 10.0807 244.291 9.50667 244.291 8.76V4.686H243.031V3.58H244.291V1.956H245.635V3.58H247.763V4.686H245.635V8.704C245.635 9.10533 245.733 9.41333 245.929 9.628C246.134 9.84267 246.424 9.95 246.797 9.95C247.208 9.95 247.558 9.83333 247.847 9.6L248.267 10.566ZM253.024 11.084C252.287 11.084 251.624 10.9207 251.036 10.594C250.448 10.2673 249.986 9.81933 249.65 9.25C249.323 8.67133 249.16 8.018 249.16 7.29C249.16 6.562 249.323 5.91333 249.65 5.344C249.986 4.76533 250.448 4.31733 251.036 4C251.624 3.67333 252.287 3.51 253.024 3.51C253.761 3.51 254.419 3.67333 254.998 4C255.586 4.31733 256.043 4.76533 256.37 5.344C256.706 5.91333 256.874 6.562 256.874 7.29C256.874 8.018 256.706 8.67133 256.37 9.25C256.043 9.81933 255.586 10.2673 254.998 10.594C254.419 10.9207 253.761 11.084 253.024 11.084ZM253.024 9.908C253.5 9.908 253.925 9.80067 254.298 9.586C254.681 9.362 254.979 9.054 255.194 8.662C255.409 8.26067 255.516 7.80333 255.516 7.29C255.516 6.77667 255.409 6.324 255.194 5.932C254.979 5.53067 254.681 5.22267 254.298 5.008C253.925 4.79333 253.5 4.686 253.024 4.686C252.548 4.686 252.119 4.79333 251.736 5.008C251.363 5.22267 251.064 5.53067 250.84 5.932C250.625 6.324 250.518 6.77667 250.518 7.29C250.518 7.80333 250.625 8.26067 250.84 8.662C251.064 9.054 251.363 9.362 251.736 9.586C252.119 9.80067 252.548 9.908 253.024 9.908ZM2.274 20.612H3.618V31H2.274V20.612ZM13.0902 27.332C13.0902 27.4347 13.0808 27.57 13.0622 27.738H7.04216C7.12616 28.3913 7.41082 28.9187 7.89616 29.32C8.39082 29.712 9.00216 29.908 9.73016 29.908C10.6168 29.908 11.3308 29.6093 11.8722 29.012L12.6142 29.88C12.2782 30.272 11.8582 30.5707 11.3542 30.776C10.8595 30.9813 10.3042 31.084 9.68816 31.084C8.90416 31.084 8.20882 30.9253 7.60216 30.608C6.99549 30.2813 6.52416 29.8287 6.18816 29.25C5.86149 28.6713 5.69816 28.018 5.69816 27.29C5.69816 26.5713 5.85682 25.9227 6.17416 25.344C6.50082 24.7653 6.94416 24.3173 7.50416 24C8.07349 23.6733 8.71282 23.51 9.42216 23.51C10.1315 23.51 10.7615 23.6733 11.3122 24C11.8722 24.3173 12.3062 24.7653 12.6142 25.344C12.9315 25.9227 13.0902 26.5853 13.0902 27.332ZM9.42216 24.644C8.77816 24.644 8.23682 24.84 7.79816 25.232C7.36882 25.624 7.11682 26.1373 7.04216 26.772H11.8022C11.7275 26.1467 11.4708 25.638 11.0322 25.246C10.6028 24.8447 10.0662 24.644 9.42216 24.644ZM17.6533 23.51C18.68 23.51 19.464 23.762 20.0053 24.266C20.556 24.77 20.8313 25.5213 20.8313 26.52V31H19.5573V30.02C19.3333 30.3653 19.0113 30.6313 18.5913 30.818C18.1807 30.9953 17.6907 31.084 17.1213 31.084C16.2907 31.084 15.6233 30.8833 15.1193 30.482C14.6247 30.0807 14.3773 29.5533 14.3773 28.9C14.3773 28.2467 14.6153 27.724 15.0913 27.332C15.5673 26.9307 16.3233 26.73 17.3593 26.73H19.4873V26.464C19.4873 25.8853 19.3193 25.442 18.9833 25.134C18.6473 24.826 18.1527 24.672 17.4993 24.672C17.0607 24.672 16.6313 24.7467 16.2113 24.896C15.7913 25.036 15.4367 25.2273 15.1473 25.47L14.5873 24.462C14.97 24.154 15.4273 23.9207 15.9593 23.762C16.4913 23.594 17.056 23.51 17.6533 23.51ZM17.3453 30.048C17.8587 30.048 18.302 29.936 18.6753 29.712C19.0487 29.4787 19.3193 29.152 19.4873 28.732V27.696H17.4153C16.2767 27.696 15.7073 28.0787 15.7073 28.844C15.7073 29.2173 15.852 29.5113 16.1413 29.726C16.4307 29.9407 16.832 30.048 17.3453 30.048ZM24.8065 24.826C25.0399 24.3967 25.3852 24.07 25.8425 23.846C26.2999 23.622 26.8552 23.51 27.5085 23.51V24.812C27.4339 24.8027 27.3312 24.798 27.2005 24.798C26.4725 24.798 25.8985 25.0173 25.4785 25.456C25.0679 25.8853 24.8625 26.5013 24.8625 27.304V31H23.5185V23.58H24.8065V24.826ZM33.327 23.51C34.2697 23.51 35.0163 23.7853 35.567 24.336C36.127 24.8773 36.407 25.6753 36.407 26.73V31H35.063V26.884C35.063 26.1653 34.8903 25.624 34.545 25.26C34.1997 24.896 33.705 24.714 33.061 24.714C32.333 24.714 31.759 24.9287 31.339 25.358C30.919 25.778 30.709 26.3847 30.709 27.178V31H29.365V23.58H30.653V24.7C30.9237 24.3173 31.2877 24.0233 31.745 23.818C32.2117 23.6127 32.739 23.51 33.327 23.51ZM47.2261 30.566C47.0301 30.734 46.7874 30.8647 46.4981 30.958C46.2087 31.042 45.9101 31.084 45.6021 31.084C44.8554 31.084 44.2767 30.8833 43.8661 30.482C43.4554 30.0807 43.2501 29.5067 43.2501 28.76V24.686H41.9901V23.58H43.2501V21.956H44.5941V23.58H46.7221V24.686H44.5941V28.704C44.5941 29.1053 44.6921 29.4133 44.8881 29.628C45.0934 29.8427 45.3827 29.95 45.7561 29.95C46.1667 29.95 46.5167 29.8333 46.8061 29.6L47.2261 30.566ZM53.013 23.51C53.9556 23.51 54.7023 23.7853 55.253 24.336C55.813 24.8773 56.093 25.6753 56.093 26.73V31H54.749V26.884C54.749 26.1653 54.5763 25.624 54.231 25.26C53.8856 24.896 53.391 24.714 52.747 24.714C52.019 24.714 51.445 24.9287 51.025 25.358C50.605 25.778 50.395 26.3847 50.395 27.178V31H49.051V20.612H50.395V24.63C50.675 24.2753 51.039 24 51.487 23.804C51.9443 23.608 52.453 23.51 53.013 23.51ZM65.5273 27.332C65.5273 27.4347 65.5179 27.57 65.4993 27.738H59.4793C59.5633 28.3913 59.8479 28.9187 60.3333 29.32C60.8279 29.712 61.4393 29.908 62.1673 29.908C63.0539 29.908 63.7679 29.6093 64.3093 29.012L65.0513 29.88C64.7153 30.272 64.2953 30.5707 63.7913 30.776C63.2966 30.9813 62.7413 31.084 62.1253 31.084C61.3413 31.084 60.6459 30.9253 60.0393 30.608C59.4326 30.2813 58.9613 29.8287 58.6253 29.25C58.2986 28.6713 58.1353 28.018 58.1353 27.29C58.1353 26.5713 58.2939 25.9227 58.6113 25.344C58.9379 24.7653 59.3813 24.3173 59.9413 24C60.5106 23.6733 61.1499 23.51 61.8593 23.51C62.5686 23.51 63.1986 23.6733 63.7493 24C64.3093 24.3173 64.7433 24.7653 65.0513 25.344C65.3686 25.9227 65.5273 26.5853 65.5273 27.332ZM61.8593 24.644C61.2153 24.644 60.6739 24.84 60.2353 25.232C59.8059 25.624 59.5539 26.1373 59.4793 26.772H64.2393C64.1646 26.1467 63.9079 25.638 63.4693 25.246C63.0399 24.8447 62.5033 24.644 61.8593 24.644ZM75.7253 30.566C75.5293 30.734 75.2866 30.8647 74.9973 30.958C74.708 31.042 74.4093 31.084 74.1013 31.084C73.3546 31.084 72.776 30.8833 72.3653 30.482C71.9546 30.0807 71.7493 29.5067 71.7493 28.76V24.686H70.4893V23.58H71.7493V21.956H73.0933V23.58H75.2213V24.686H73.0933V28.704C73.0933 29.1053 73.1913 29.4133 73.3873 29.628C73.5926 29.8427 73.882 29.95 74.2553 29.95C74.666 29.95 75.016 29.8333 75.3053 29.6L75.7253 30.566ZM78.8382 24.826C79.0715 24.3967 79.4168 24.07 79.8742 23.846C80.3315 23.622 80.8868 23.51 81.5402 23.51V24.812C81.4655 24.8027 81.3628 24.798 81.2322 24.798C80.5042 24.798 79.9302 25.0173 79.5102 25.456C79.0995 25.8853 78.8942 26.5013 78.8942 27.304V31H77.5502V23.58H78.8382V24.826ZM90.0343 27.332C90.0343 27.4347 90.025 27.57 90.0063 27.738H83.9863C84.0703 28.3913 84.355 28.9187 84.8403 29.32C85.335 29.712 85.9463 29.908 86.6743 29.908C87.561 29.908 88.275 29.6093 88.8163 29.012L89.5583 29.88C89.2223 30.272 88.8023 30.5707 88.2983 30.776C87.8036 30.9813 87.2483 31.084 86.6323 31.084C85.8483 31.084 85.153 30.9253 84.5463 30.608C83.9396 30.2813 83.4683 29.8287 83.1323 29.25C82.8056 28.6713 82.6423 28.018 82.6423 27.29C82.6423 26.5713 82.801 25.9227 83.1183 25.344C83.445 24.7653 83.8883 24.3173 84.4483 24C85.0176 23.6733 85.657 23.51 86.3663 23.51C87.0756 23.51 87.7056 23.6733 88.2563 24C88.8163 24.3173 89.2503 24.7653 89.5583 25.344C89.8756 25.9227 90.0343 26.5853 90.0343 27.332ZM86.3663 24.644C85.7223 24.644 85.181 24.84 84.7423 25.232C84.313 25.624 84.061 26.1373 83.9863 26.772H88.7463C88.6716 26.1467 88.415 25.638 87.9763 25.246C87.547 24.8447 87.0103 24.644 86.3663 24.644ZM96.0626 23.51C97.0052 23.51 97.7519 23.7853 98.3026 24.336C98.8626 24.8773 99.1426 25.6753 99.1426 26.73V31H97.7986V26.884C97.7986 26.1653 97.6259 25.624 97.2806 25.26C96.9352 24.896 96.4406 24.714 95.7966 24.714C95.0686 24.714 94.4946 24.9287 94.0746 25.358C93.6546 25.778 93.4446 26.3847 93.4446 27.178V31H92.1006V23.58H93.3886V24.7C93.6592 24.3173 94.0232 24.0233 94.4806 23.818C94.9472 23.6127 95.4746 23.51 96.0626 23.51ZM108.871 20.612V31H107.583V29.824C107.284 30.2347 106.906 30.5473 106.449 30.762C105.992 30.9767 105.488 31.084 104.937 31.084C104.218 31.084 103.574 30.9253 103.005 30.608C102.436 30.2907 101.988 29.8473 101.661 29.278C101.344 28.6993 101.185 28.0367 101.185 27.29C101.185 26.5433 101.344 25.8853 101.661 25.316C101.988 24.7467 102.436 24.3033 103.005 23.986C103.574 23.6687 104.218 23.51 104.937 23.51C105.469 23.51 105.959 23.6127 106.407 23.818C106.855 24.014 107.228 24.308 107.527 24.7V20.612H108.871ZM105.049 29.908C105.516 29.908 105.94 29.8007 106.323 29.586C106.706 29.362 107.004 29.054 107.219 28.662C107.434 28.2607 107.541 27.8033 107.541 27.29C107.541 26.7767 107.434 26.324 107.219 25.932C107.004 25.5307 106.706 25.2227 106.323 25.008C105.94 24.7933 105.516 24.686 105.049 24.686C104.573 24.686 104.144 24.7933 103.761 25.008C103.388 25.2227 103.089 25.5307 102.865 25.932C102.65 26.324 102.543 26.7767 102.543 27.29C102.543 27.8033 102.65 28.2607 102.865 28.662C103.089 29.054 103.388 29.362 103.761 29.586C104.144 29.8007 104.573 29.908 105.049 29.908ZM111.614 23.58H112.958V31H111.614V23.58ZM112.286 22.152C112.025 22.152 111.805 22.068 111.628 21.9C111.46 21.732 111.376 21.5267 111.376 21.284C111.376 21.0413 111.46 20.836 111.628 20.668C111.805 20.4907 112.025 20.402 112.286 20.402C112.547 20.402 112.762 20.486 112.93 20.654C113.107 20.8127 113.196 21.0133 113.196 21.256C113.196 21.508 113.107 21.7227 112.93 21.9C112.762 22.068 112.547 22.152 112.286 22.152ZM119.686 23.51C120.629 23.51 121.375 23.7853 121.926 24.336C122.486 24.8773 122.766 25.6753 122.766 26.73V31H121.422V26.884C121.422 26.1653 121.249 25.624 120.904 25.26C120.559 24.896 120.064 24.714 119.42 24.714C118.692 24.714 118.118 24.9287 117.698 25.358C117.278 25.778 117.068 26.3847 117.068 27.178V31H115.724V23.58H117.012V24.7C117.283 24.3173 117.647 24.0233 118.104 23.818C118.571 23.6127 119.098 23.51 119.686 23.51ZM132.592 23.58V29.992C132.592 31.2893 132.27 32.246 131.626 32.862C130.982 33.4873 130.021 33.8 128.742 33.8C128.042 33.8 127.375 33.702 126.74 33.506C126.106 33.3193 125.592 33.0487 125.2 32.694L125.844 31.658C126.19 31.9567 126.614 32.19 127.118 32.358C127.632 32.5353 128.159 32.624 128.7 32.624C129.568 32.624 130.208 32.4187 130.618 32.008C131.038 31.5973 131.248 30.972 131.248 30.132V29.544C130.931 29.9267 130.539 30.216 130.072 30.412C129.615 30.5987 129.116 30.692 128.574 30.692C127.865 30.692 127.221 30.5427 126.642 30.244C126.073 29.936 125.625 29.5113 125.298 28.97C124.972 28.4193 124.808 27.794 124.808 27.094C124.808 26.394 124.972 25.7733 125.298 25.232C125.625 24.6813 126.073 24.2567 126.642 23.958C127.221 23.6593 127.865 23.51 128.574 23.51C129.134 23.51 129.652 23.6127 130.128 23.818C130.614 24.0233 131.01 24.3267 131.318 24.728V23.58H132.592ZM128.728 29.516C129.214 29.516 129.648 29.4133 130.03 29.208C130.422 29.0027 130.726 28.718 130.94 28.354C131.164 27.9807 131.276 27.5607 131.276 27.094C131.276 26.3753 131.038 25.7967 130.562 25.358C130.086 24.91 129.475 24.686 128.728 24.686C127.972 24.686 127.356 24.91 126.88 25.358C126.404 25.7967 126.166 26.3753 126.166 27.094C126.166 27.5607 126.274 27.9807 126.488 28.354C126.712 28.718 127.016 29.0027 127.398 29.208C127.79 29.4133 128.234 29.516 128.728 29.516ZM143.492 30.566C143.296 30.734 143.053 30.8647 142.764 30.958C142.475 31.042 142.176 31.084 141.868 31.084C141.121 31.084 140.543 30.8833 140.132 30.482C139.721 30.0807 139.516 29.5067 139.516 28.76V24.686H138.256V23.58H139.516V21.956H140.86V23.58H142.988V24.686H140.86V28.704C140.86 29.1053 140.958 29.4133 141.154 29.628C141.359 29.8427 141.649 29.95 142.022 29.95C142.433 29.95 142.783 29.8333 143.072 29.6L143.492 30.566ZM148.249 31.084C147.512 31.084 146.849 30.9207 146.261 30.594C145.673 30.2673 145.211 29.8193 144.875 29.25C144.548 28.6713 144.385 28.018 144.385 27.29C144.385 26.562 144.548 25.9133 144.875 25.344C145.211 24.7653 145.673 24.3173 146.261 24C146.849 23.6733 147.512 23.51 148.249 23.51C148.986 23.51 149.644 23.6733 150.223 24C150.811 24.3173 151.268 24.7653 151.595 25.344C151.931 25.9133 152.099 26.562 152.099 27.29C152.099 28.018 151.931 28.6713 151.595 29.25C151.268 29.8193 150.811 30.2673 150.223 30.594C149.644 30.9207 148.986 31.084 148.249 31.084ZM148.249 29.908C148.725 29.908 149.15 29.8007 149.523 29.586C149.906 29.362 150.204 29.054 150.419 28.662C150.634 28.2607 150.741 27.8033 150.741 27.29C150.741 26.7767 150.634 26.324 150.419 25.932C150.204 25.5307 149.906 25.2227 149.523 25.008C149.15 24.7933 148.725 24.686 148.249 24.686C147.773 24.686 147.344 24.7933 146.961 25.008C146.588 25.2227 146.289 25.5307 146.065 25.932C145.85 26.324 145.743 26.7767 145.743 27.29C145.743 27.8033 145.85 28.2607 146.065 28.662C146.289 29.054 146.588 29.362 146.961 29.586C147.344 29.8007 147.773 29.908 148.249 29.908ZM158.092 23.51C158.81 23.51 159.454 23.6687 160.024 23.986C160.593 24.3033 161.036 24.7467 161.354 25.316C161.68 25.8853 161.844 26.5433 161.844 27.29C161.844 28.0367 161.68 28.6993 161.354 29.278C161.036 29.8473 160.593 30.2907 160.024 30.608C159.454 30.9253 158.81 31.084 158.092 31.084C157.56 31.084 157.07 30.9813 156.622 30.776C156.183 30.5707 155.81 30.272 155.502 29.88V33.716H154.158V23.58H155.446V24.756C155.744 24.3453 156.122 24.0373 156.58 23.832C157.037 23.6173 157.541 23.51 158.092 23.51ZM157.98 29.908C158.456 29.908 158.88 29.8007 159.254 29.586C159.636 29.362 159.935 29.054 160.15 28.662C160.374 28.2607 160.486 27.8033 160.486 27.29C160.486 26.7767 160.374 26.324 160.15 25.932C159.935 25.5307 159.636 25.2227 159.254 25.008C158.88 24.7933 158.456 24.686 157.98 24.686C157.513 24.686 157.088 24.798 156.706 25.022C156.332 25.2367 156.034 25.54 155.81 25.932C155.595 26.324 155.488 26.7767 155.488 27.29C155.488 27.8033 155.595 28.2607 155.81 28.662C156.024 29.054 156.323 29.362 156.706 29.586C157.088 29.8007 157.513 29.908 157.98 29.908ZM163.901 23.58H165.245V31H163.901V23.58ZM164.573 22.152C164.311 22.152 164.092 22.068 163.915 21.9C163.747 21.732 163.663 21.5267 163.663 21.284C163.663 21.0413 163.747 20.836 163.915 20.668C164.092 20.4907 164.311 20.402 164.573 20.402C164.834 20.402 165.049 20.486 165.217 20.654C165.394 20.8127 165.483 21.0133 165.483 21.256C165.483 21.508 165.394 21.7227 165.217 21.9C165.049 22.068 164.834 22.152 164.573 22.152ZM171.245 31.084C170.489 31.084 169.812 30.9207 169.215 30.594C168.627 30.2673 168.165 29.8193 167.829 29.25C167.493 28.6713 167.325 28.018 167.325 27.29C167.325 26.562 167.493 25.9133 167.829 25.344C168.165 24.7653 168.627 24.3173 169.215 24C169.812 23.6733 170.489 23.51 171.245 23.51C171.917 23.51 172.514 23.6453 173.037 23.916C173.569 24.1867 173.979 24.5787 174.269 25.092L173.247 25.75C173.013 25.3953 172.724 25.1293 172.379 24.952C172.033 24.7747 171.651 24.686 171.231 24.686C170.745 24.686 170.307 24.7933 169.915 25.008C169.532 25.2227 169.229 25.5307 169.005 25.932C168.79 26.324 168.683 26.7767 168.683 27.29C168.683 27.8127 168.79 28.2747 169.005 28.676C169.229 29.068 169.532 29.3713 169.915 29.586C170.307 29.8007 170.745 29.908 171.231 29.908C171.651 29.908 172.033 29.8193 172.379 29.642C172.724 29.4647 173.013 29.1987 173.247 28.844L174.269 29.488C173.979 30.0013 173.569 30.398 173.037 30.678C172.514 30.9487 171.917 31.084 171.245 31.084ZM178.337 31.084C177.73 31.084 177.147 31.0047 176.587 30.846C176.027 30.678 175.588 30.468 175.271 30.216L175.831 29.152C176.157 29.3853 176.554 29.572 177.021 29.712C177.487 29.852 177.959 29.922 178.435 29.922C179.611 29.922 180.199 29.586 180.199 28.914C180.199 28.69 180.119 28.5127 179.961 28.382C179.802 28.2513 179.601 28.158 179.359 28.102C179.125 28.0367 178.789 27.9667 178.351 27.892C177.753 27.7987 177.263 27.6913 176.881 27.57C176.507 27.4487 176.185 27.2433 175.915 26.954C175.644 26.6647 175.509 26.2587 175.509 25.736C175.509 25.064 175.789 24.5273 176.349 24.126C176.909 23.7153 177.66 23.51 178.603 23.51C179.097 23.51 179.592 23.5707 180.087 23.692C180.581 23.8133 180.987 23.9767 181.305 24.182L180.731 25.246C180.124 24.854 179.41 24.658 178.589 24.658C178.019 24.658 177.585 24.7513 177.287 24.938C176.988 25.1247 176.839 25.372 176.839 25.68C176.839 25.9227 176.923 26.114 177.091 26.254C177.259 26.394 177.464 26.4967 177.707 26.562C177.959 26.6273 178.309 26.702 178.757 26.786C179.354 26.8887 179.835 27.0007 180.199 27.122C180.572 27.234 180.889 27.43 181.151 27.71C181.412 27.99 181.543 28.382 181.543 28.886C181.543 29.558 181.253 30.0947 180.675 30.496C180.105 30.888 179.326 31.084 178.337 31.084ZM4.976 43.51C6.00267 43.51 6.78667 43.762 7.328 44.266C7.87867 44.77 8.154 45.5213 8.154 46.52V51H6.88V50.02C6.656 50.3653 6.334 50.6313 5.914 50.818C5.50333 50.9953 5.01333 51.084 4.444 51.084C3.61333 51.084 2.946 50.8833 2.442 50.482C1.94733 50.0807 1.7 49.5533 1.7 48.9C1.7 48.2467 1.938 47.724 2.414 47.332C2.89 46.9307 3.646 46.73 4.682 46.73H6.81V46.464C6.81 45.8853 6.642 45.442 6.306 45.134C5.97 44.826 5.47533 44.672 4.822 44.672C4.38333 44.672 3.954 44.7467 3.534 44.896C3.114 45.036 2.75933 45.2273 2.47 45.47L1.91 44.462C2.29267 44.154 2.75 43.9207 3.282 43.762C3.814 43.594 4.37867 43.51 4.976 43.51ZM4.668 50.048C5.18133 50.048 5.62467 49.936 5.998 49.712C6.37133 49.4787 6.642 49.152 6.81 48.732V47.696H4.738C3.59933 47.696 3.03 48.0787 3.03 48.844C3.03 49.2173 3.17467 49.5113 3.464 49.726C3.75333 49.9407 4.15467 50.048 4.668 50.048ZM14.8032 43.51C15.7459 43.51 16.4925 43.7853 17.0432 44.336C17.6032 44.8773 17.8832 45.6753 17.8832 46.73V51H16.5392V46.884C16.5392 46.1653 16.3665 45.624 16.0212 45.26C15.6759 44.896 15.1812 44.714 14.5372 44.714C13.8092 44.714 13.2352 44.9287 12.8152 45.358C12.3952 45.778 12.1852 46.3847 12.1852 47.178V51H10.8412V43.58H12.1292V44.7C12.3999 44.3173 12.7639 44.0233 13.2212 43.818C13.6879 43.6127 14.2152 43.51 14.8032 43.51ZM27.6115 40.612V51H26.3235V49.824C26.0248 50.2347 25.6468 50.5473 25.1895 50.762C24.7322 50.9767 24.2282 51.084 23.6775 51.084C22.9588 51.084 22.3148 50.9253 21.7455 50.608C21.1762 50.2907 20.7282 49.8473 20.4015 49.278C20.0842 48.6993 19.9255 48.0367 19.9255 47.29C19.9255 46.5433 20.0842 45.8853 20.4015 45.316C20.7282 44.7467 21.1762 44.3033 21.7455 43.986C22.3148 43.6687 22.9588 43.51 23.6775 43.51C24.2095 43.51 24.6995 43.6127 25.1475 43.818C25.5955 44.014 25.9688 44.308 26.2675 44.7V40.612H27.6115ZM23.7895 49.908C24.2562 49.908 24.6808 49.8007 25.0635 49.586C25.4462 49.362 25.7448 49.054 25.9595 48.662C26.1742 48.2607 26.2815 47.8033 26.2815 47.29C26.2815 46.7767 26.1742 46.324 25.9595 45.932C25.7448 45.5307 25.4462 45.2227 25.0635 45.008C24.6808 44.7933 24.2562 44.686 23.7895 44.686C23.3135 44.686 22.8842 44.7933 22.5015 45.008C22.1282 45.2227 21.8295 45.5307 21.6055 45.932C21.3908 46.324 21.2835 46.7767 21.2835 47.29C21.2835 47.8033 21.3908 48.2607 21.6055 48.662C21.8295 49.054 22.1282 49.362 22.5015 49.586C22.8842 49.8007 23.3135 49.908 23.7895 49.908ZM41.4122 43.58V49.992C41.4122 51.2893 41.0902 52.246 40.4462 52.862C39.8022 53.4873 38.8409 53.8 37.5622 53.8C36.8622 53.8 36.1949 53.702 35.5602 53.506C34.9256 53.3193 34.4122 53.0487 34.0202 52.694L34.6642 51.658C35.0096 51.9567 35.4342 52.19 35.9382 52.358C36.4516 52.5353 36.9789 52.624 37.5202 52.624C38.3882 52.624 39.0276 52.4187 39.4382 52.008C39.8582 51.5973 40.0682 50.972 40.0682 50.132V49.544C39.7509 49.9267 39.3589 50.216 38.8922 50.412C38.4349 50.5987 37.9356 50.692 37.3942 50.692C36.6849 50.692 36.0409 50.5427 35.4622 50.244C34.8929 49.936 34.4449 49.5113 34.1182 48.97C33.7916 48.4193 33.6282 47.794 33.6282 47.094C33.6282 46.394 33.7916 45.7733 34.1182 45.232C34.4449 44.6813 34.8929 44.2567 35.4622 43.958C36.0409 43.6593 36.6849 43.51 37.3942 43.51C37.9542 43.51 38.4722 43.6127 38.9482 43.818C39.4336 44.0233 39.8302 44.3267 40.1382 44.728V43.58H41.4122ZM37.5482 49.516C38.0336 49.516 38.4676 49.4133 38.8502 49.208C39.2422 49.0027 39.5456 48.718 39.7602 48.354C39.9842 47.9807 40.0962 47.5607 40.0962 47.094C40.0962 46.3753 39.8582 45.7967 39.3822 45.358C38.9062 44.91 38.2949 44.686 37.5482 44.686C36.7922 44.686 36.1762 44.91 35.7002 45.358C35.2242 45.7967 34.9862 46.3753 34.9862 47.094C34.9862 47.5607 35.0936 47.9807 35.3082 48.354C35.5322 48.718 35.8356 49.0027 36.2182 49.208C36.6102 49.4133 37.0536 49.516 37.5482 49.516ZM50.8863 47.332C50.8863 47.4347 50.8769 47.57 50.8583 47.738H44.8383C44.9223 48.3913 45.2069 48.9187 45.6923 49.32C46.1869 49.712 46.7983 49.908 47.5263 49.908C48.4129 49.908 49.1269 49.6093 49.6683 49.012L50.4103 49.88C50.0743 50.272 49.6543 50.5707 49.1503 50.776C48.6556 50.9813 48.1003 51.084 47.4843 51.084C46.7003 51.084 46.0049 50.9253 45.3983 50.608C44.7916 50.2813 44.3203 49.8287 43.9843 49.25C43.6576 48.6713 43.4943 48.018 43.4943 47.29C43.4943 46.5713 43.6529 45.9227 43.9703 45.344C44.2969 44.7653 44.7403 44.3173 45.3003 44C45.8696 43.6733 46.5089 43.51 47.2183 43.51C47.9276 43.51 48.5576 43.6733 49.1083 44C49.6683 44.3173 50.1023 44.7653 50.4103 45.344C50.7276 45.9227 50.8863 46.5853 50.8863 47.332ZM47.2183 44.644C46.5743 44.644 46.0329 44.84 45.5943 45.232C45.1649 45.624 44.9129 46.1373 44.8383 46.772H49.5983C49.5236 46.1467 49.2669 45.638 48.8283 45.246C48.3989 44.8447 47.8623 44.644 47.2183 44.644ZM57.1245 50.566C56.9285 50.734 56.6859 50.8647 56.3965 50.958C56.1072 51.042 55.8085 51.084 55.5005 51.084C54.7538 51.084 54.1752 50.8833 53.7645 50.482C53.3538 50.0807 53.1485 49.5067 53.1485 48.76V44.686H51.8885V43.58H53.1485V41.956H54.4925V43.58H56.6205V44.686H54.4925V48.704C54.4925 49.1053 54.5905 49.4133 54.7865 49.628C54.9918 49.8427 55.2812 49.95 55.6545 49.95C56.0652 49.95 56.4152 49.8333 56.7045 49.6L57.1245 50.566ZM62.9092 43.58H64.2532V51H62.9092V43.58ZM63.5812 42.152C63.3198 42.152 63.1005 42.068 62.9232 41.9C62.7552 41.732 62.6712 41.5267 62.6712 41.284C62.6712 41.0413 62.7552 40.836 62.9232 40.668C63.1005 40.4907 63.3198 40.402 63.5812 40.402C63.8425 40.402 64.0572 40.486 64.2252 40.654C64.4025 40.8127 64.4912 41.0133 64.4912 41.256C64.4912 41.508 64.4025 41.7227 64.2252 41.9C64.0572 42.068 63.8425 42.152 63.5812 42.152ZM70.9813 43.51C71.924 43.51 72.6706 43.7853 73.2213 44.336C73.7813 44.8773 74.0613 45.6753 74.0613 46.73V51H72.7173V46.884C72.7173 46.1653 72.5446 45.624 72.1993 45.26C71.854 44.896 71.3593 44.714 70.7153 44.714C69.9873 44.714 69.4133 44.9287 68.9933 45.358C68.5733 45.778 68.3633 46.3847 68.3633 47.178V51H67.0193V43.58H68.3073V44.7C68.578 44.3173 68.942 44.0233 69.3993 43.818C69.866 43.6127 70.3933 43.51 70.9813 43.51ZM78.8766 51.084C78.2699 51.084 77.6866 51.0047 77.1266 50.846C76.5666 50.678 76.1279 50.468 75.8106 50.216L76.3706 49.152C76.6973 49.3853 77.0939 49.572 77.5606 49.712C78.0273 49.852 78.4986 49.922 78.9746 49.922C80.1506 49.922 80.7386 49.586 80.7386 48.914C80.7386 48.69 80.6593 48.5127 80.5006 48.382C80.3419 48.2513 80.1413 48.158 79.8986 48.102C79.6653 48.0367 79.3293 47.9667 78.8906 47.892C78.2933 47.7987 77.8033 47.6913 77.4206 47.57C77.0473 47.4487 76.7253 47.2433 76.4546 46.954C76.1839 46.6647 76.0486 46.2587 76.0486 45.736C76.0486 45.064 76.3286 44.5273 76.8886 44.126C77.4486 43.7153 78.1999 43.51 79.1426 43.51C79.6373 43.51 80.1319 43.5707 80.6266 43.692C81.1213 43.8133 81.5273 43.9767 81.8446 44.182L81.2706 45.246C80.6639 44.854 79.9499 44.658 79.1286 44.658C78.5593 44.658 78.1253 44.7513 77.8266 44.938C77.5279 45.1247 77.3786 45.372 77.3786 45.68C77.3786 45.9227 77.4626 46.114 77.6306 46.254C77.7986 46.394 78.0039 46.4967 78.2466 46.562C78.4986 46.6273 78.8486 46.702 79.2966 46.786C79.8939 46.8887 80.3746 47.0007 80.7386 47.122C81.1119 47.234 81.4293 47.43 81.6906 47.71C81.9519 47.99 82.0826 48.382 82.0826 48.886C82.0826 49.558 81.7933 50.0947 81.2146 50.496C80.6453 50.888 79.8659 51.084 78.8766 51.084ZM83.9623 43.58H85.3063V51H83.9623V43.58ZM84.6343 42.152C84.3729 42.152 84.1536 42.068 83.9763 41.9C83.8083 41.732 83.7243 41.5267 83.7243 41.284C83.7243 41.0413 83.8083 40.836 83.9763 40.668C84.1536 40.4907 84.3729 40.402 84.6343 40.402C84.8956 40.402 85.1103 40.486 85.2783 40.654C85.4556 40.8127 85.5443 41.0133 85.5443 41.256C85.5443 41.508 85.4556 41.7227 85.2783 41.9C85.1103 42.068 84.8956 42.152 84.6343 42.152ZM95.1704 43.58V49.992C95.1704 51.2893 94.8484 52.246 94.2044 52.862C93.5604 53.4873 92.5991 53.8 91.3204 53.8C90.6204 53.8 89.9531 53.702 89.3184 53.506C88.6838 53.3193 88.1704 53.0487 87.7784 52.694L88.4224 51.658C88.7678 51.9567 89.1924 52.19 89.6964 52.358C90.2098 52.5353 90.7371 52.624 91.2784 52.624C92.1464 52.624 92.7858 52.4187 93.1964 52.008C93.6164 51.5973 93.8264 50.972 93.8264 50.132V49.544C93.5091 49.9267 93.1171 50.216 92.6504 50.412C92.1931 50.5987 91.6938 50.692 91.1524 50.692C90.4431 50.692 89.7991 50.5427 89.2204 50.244C88.6511 49.936 88.2031 49.5113 87.8764 48.97C87.5498 48.4193 87.3864 47.794 87.3864 47.094C87.3864 46.394 87.5498 45.7733 87.8764 45.232C88.2031 44.6813 88.6511 44.2567 89.2204 43.958C89.7991 43.6593 90.4431 43.51 91.1524 43.51C91.7124 43.51 92.2304 43.6127 92.7064 43.818C93.1918 44.0233 93.5884 44.3267 93.8964 44.728V43.58H95.1704ZM91.3064 49.516C91.7918 49.516 92.2258 49.4133 92.6084 49.208C93.0004 49.0027 93.3038 48.718 93.5184 48.354C93.7424 47.9807 93.8544 47.5607 93.8544 47.094C93.8544 46.3753 93.6164 45.7967 93.1404 45.358C92.6644 44.91 92.0531 44.686 91.3064 44.686C90.5504 44.686 89.9344 44.91 89.4584 45.358C88.9824 45.7967 88.7444 46.3753 88.7444 47.094C88.7444 47.5607 88.8518 47.9807 89.0664 48.354C89.2904 48.718 89.5938 49.0027 89.9764 49.208C90.3684 49.4133 90.8118 49.516 91.3064 49.516ZM101.9 43.51C102.843 43.51 103.59 43.7853 104.14 44.336C104.7 44.8773 104.98 45.6753 104.98 46.73V51H103.636V46.884C103.636 46.1653 103.464 45.624 103.118 45.26C102.773 44.896 102.278 44.714 101.634 44.714C100.906 44.714 100.332 44.9287 99.9125 45.358C99.4925 45.778 99.2825 46.3847 99.2825 47.178V51H97.9385V40.612H99.2825V44.63C99.5625 44.2753 99.9265 44 100.374 43.804C100.832 43.608 101.34 43.51 101.9 43.51ZM111.84 50.566C111.644 50.734 111.401 50.8647 111.112 50.958C110.822 51.042 110.524 51.084 110.216 51.084C109.469 51.084 108.89 50.8833 108.48 50.482C108.069 50.0807 107.864 49.5067 107.864 48.76V44.686H106.604V43.58H107.864V41.956H109.208V43.58H111.336V44.686H109.208V48.704C109.208 49.1053 109.306 49.4133 109.502 49.628C109.707 49.8427 109.996 49.95 110.37 49.95C110.78 49.95 111.13 49.8333 111.42 49.6L111.84 50.566ZM115.793 51.084C115.186 51.084 114.603 51.0047 114.043 50.846C113.483 50.678 113.044 50.468 112.727 50.216L113.287 49.152C113.613 49.3853 114.01 49.572 114.477 49.712C114.943 49.852 115.415 49.922 115.891 49.922C117.067 49.922 117.655 49.586 117.655 48.914C117.655 48.69 117.575 48.5127 117.417 48.382C117.258 48.2513 117.057 48.158 116.815 48.102C116.581 48.0367 116.245 47.9667 115.807 47.892C115.209 47.7987 114.719 47.6913 114.337 47.57C113.963 47.4487 113.641 47.2433 113.371 46.954C113.1 46.6647 112.965 46.2587 112.965 45.736C112.965 45.064 113.245 44.5273 113.805 44.126C114.365 43.7153 115.116 43.51 116.059 43.51C116.553 43.51 117.048 43.5707 117.543 43.692C118.037 43.8133 118.443 43.9767 118.761 44.182L118.187 45.246C117.58 44.854 116.866 44.658 116.045 44.658C115.475 44.658 115.041 44.7513 114.743 44.938C114.444 45.1247 114.295 45.372 114.295 45.68C114.295 45.9227 114.379 46.114 114.547 46.254C114.715 46.394 114.92 46.4967 115.163 46.562C115.415 46.6273 115.765 46.702 116.213 46.786C116.81 46.8887 117.291 47.0007 117.655 47.122C118.028 47.234 118.345 47.43 118.607 47.71C118.868 47.99 118.999 48.382 118.999 48.886C118.999 49.558 118.709 50.0947 118.131 50.496C117.561 50.888 116.782 51.084 115.793 51.084ZM127.554 41.634C126.751 41.634 126.35 42.068 126.35 42.936V43.58H128.506V44.686H126.378V51H125.034V44.686H123.774V43.58H125.034V42.922C125.034 42.1847 125.249 41.6013 125.678 41.172C126.107 40.7427 126.709 40.528 127.484 40.528C127.783 40.528 128.063 40.5653 128.324 40.64C128.585 40.7147 128.809 40.822 128.996 40.962L128.59 41.984C128.282 41.7507 127.937 41.634 127.554 41.634ZM132.383 44.826C132.616 44.3967 132.961 44.07 133.419 43.846C133.876 43.622 134.431 43.51 135.085 43.51V44.812C135.01 44.8027 134.907 44.798 134.777 44.798C134.049 44.798 133.475 45.0173 133.055 45.456C132.644 45.8853 132.439 46.5013 132.439 47.304V51H131.095V43.58H132.383V44.826ZM140.051 51.084C139.313 51.084 138.651 50.9207 138.063 50.594C137.475 50.2673 137.013 49.8193 136.677 49.25C136.35 48.6713 136.187 48.018 136.187 47.29C136.187 46.562 136.35 45.9133 136.677 45.344C137.013 44.7653 137.475 44.3173 138.063 44C138.651 43.6733 139.313 43.51 140.051 43.51C140.788 43.51 141.446 43.6733 142.025 44C142.613 44.3173 143.07 44.7653 143.397 45.344C143.733 45.9133 143.901 46.562 143.901 47.29C143.901 48.018 143.733 48.6713 143.397 49.25C143.07 49.8193 142.613 50.2673 142.025 50.594C141.446 50.9207 140.788 51.084 140.051 51.084ZM140.051 49.908C140.527 49.908 140.951 49.8007 141.325 49.586C141.707 49.362 142.006 49.054 142.221 48.662C142.435 48.2607 142.543 47.8033 142.543 47.29C142.543 46.7767 142.435 46.324 142.221 45.932C142.006 45.5307 141.707 45.2227 141.325 45.008C140.951 44.7933 140.527 44.686 140.051 44.686C139.575 44.686 139.145 44.7933 138.763 45.008C138.389 45.2227 138.091 45.5307 137.867 45.932C137.652 46.324 137.545 46.7767 137.545 47.29C137.545 47.8033 137.652 48.2607 137.867 48.662C138.091 49.054 138.389 49.362 138.763 49.586C139.145 49.8007 139.575 49.908 140.051 49.908ZM155.242 43.51C156.175 43.51 156.912 43.7807 157.454 44.322C158.004 44.8633 158.28 45.666 158.28 46.73V51H156.936V46.884C156.936 46.1653 156.768 45.624 156.432 45.26C156.105 44.896 155.634 44.714 155.018 44.714C154.336 44.714 153.795 44.9287 153.394 45.358C152.992 45.778 152.792 46.3847 152.792 47.178V51H151.448V46.884C151.448 46.1653 151.28 45.624 150.944 45.26C150.617 44.896 150.146 44.714 149.53 44.714C148.848 44.714 148.307 44.9287 147.906 45.358C147.504 45.778 147.304 46.3847 147.304 47.178V51H145.96V43.58H147.248V44.686C147.518 44.3033 147.873 44.014 148.312 43.818C148.75 43.6127 149.25 43.51 149.81 43.51C150.388 43.51 150.902 43.6267 151.35 43.86C151.798 44.0933 152.143 44.434 152.386 44.882C152.666 44.4527 153.053 44.1167 153.548 43.874C154.052 43.6313 154.616 43.51 155.242 43.51ZM171.828 43.58V51H170.554V49.88C170.284 50.2627 169.924 50.5613 169.476 50.776C169.038 50.9813 168.557 51.084 168.034 51.084C167.045 51.084 166.266 50.8133 165.696 50.272C165.127 49.7213 164.842 48.914 164.842 47.85V43.58H166.186V47.696C166.186 48.4147 166.359 48.9607 166.704 49.334C167.05 49.698 167.544 49.88 168.188 49.88C168.898 49.88 169.458 49.6653 169.868 49.236C170.279 48.8067 170.484 48.2 170.484 47.416V43.58H171.828ZM176.715 51.084C176.108 51.084 175.525 51.0047 174.965 50.846C174.405 50.678 173.966 50.468 173.649 50.216L174.209 49.152C174.536 49.3853 174.932 49.572 175.399 49.712C175.866 49.852 176.337 49.922 176.813 49.922C177.989 49.922 178.577 49.586 178.577 48.914C178.577 48.69 178.498 48.5127 178.339 48.382C178.18 48.2513 177.98 48.158 177.737 48.102C177.504 48.0367 177.168 47.9667 176.729 47.892C176.132 47.7987 175.642 47.6913 175.259 47.57C174.886 47.4487 174.564 47.2433 174.293 46.954C174.022 46.6647 173.887 46.2587 173.887 45.736C173.887 45.064 174.167 44.5273 174.727 44.126C175.287 43.7153 176.038 43.51 176.981 43.51C177.476 43.51 177.97 43.5707 178.465 43.692C178.96 43.8133 179.366 43.9767 179.683 44.182L179.109 45.246C178.502 44.854 177.788 44.658 176.967 44.658C176.398 44.658 175.964 44.7513 175.665 44.938C175.366 45.1247 175.217 45.372 175.217 45.68C175.217 45.9227 175.301 46.114 175.469 46.254C175.637 46.394 175.842 46.4967 176.085 46.562C176.337 46.6273 176.687 46.702 177.135 46.786C177.732 46.8887 178.213 47.0007 178.577 47.122C178.95 47.234 179.268 47.43 179.529 47.71C179.79 47.99 179.921 48.382 179.921 48.886C179.921 49.558 179.632 50.0947 179.053 50.496C178.484 50.888 177.704 51.084 176.715 51.084ZM188.507 47.332C188.507 47.4347 188.497 47.57 188.479 47.738H182.459C182.543 48.3913 182.827 48.9187 183.313 49.32C183.807 49.712 184.419 49.908 185.147 49.908C186.033 49.908 186.747 49.6093 187.289 49.012L188.031 49.88C187.695 50.272 187.275 50.5707 186.771 50.776C186.276 50.9813 185.721 51.084 185.105 51.084C184.321 51.084 183.625 50.9253 183.019 50.608C182.412 50.2813 181.941 49.8287 181.605 49.25C181.278 48.6713 181.115 48.018 181.115 47.29C181.115 46.5713 181.273 45.9227 181.591 45.344C181.917 44.7653 182.361 44.3173 182.921 44C183.49 43.6733 184.129 43.51 184.839 43.51C185.548 43.51 186.178 43.6733 186.729 44C187.289 44.3173 187.723 44.7653 188.031 45.344C188.348 45.9227 188.507 46.5853 188.507 47.332ZM184.839 44.644C184.195 44.644 183.653 44.84 183.215 45.232C182.785 45.624 182.533 46.1373 182.459 46.772H187.219C187.144 46.1467 186.887 45.638 186.449 45.246C186.019 44.8447 185.483 44.644 184.839 44.644ZM191.861 44.826C192.094 44.3967 192.439 44.07 192.897 43.846C193.354 43.622 193.909 43.51 194.563 43.51V44.812C194.488 44.8027 194.385 44.798 194.255 44.798C193.527 44.798 192.953 45.0173 192.533 45.456C192.122 45.8853 191.917 46.5013 191.917 47.304V51H190.573V43.58H191.861V44.826ZM198.602 51.084C197.995 51.084 197.412 51.0047 196.852 50.846C196.292 50.678 195.853 50.468 195.536 50.216L196.096 49.152C196.423 49.3853 196.819 49.572 197.286 49.712C197.753 49.852 198.224 49.922 198.7 49.922C199.876 49.922 200.464 49.586 200.464 48.914C200.464 48.69 200.385 48.5127 200.226 48.382C200.067 48.2513 199.867 48.158 199.624 48.102C199.391 48.0367 199.055 47.9667 198.616 47.892C198.019 47.7987 197.529 47.6913 197.146 47.57C196.773 47.4487 196.451 47.2433 196.18 46.954C195.909 46.6647 195.774 46.2587 195.774 45.736C195.774 45.064 196.054 44.5273 196.614 44.126C197.174 43.7153 197.925 43.51 198.868 43.51C199.363 43.51 199.857 43.5707 200.352 43.692C200.847 43.8133 201.253 43.9767 201.57 44.182L200.996 45.246C200.389 44.854 199.675 44.658 198.854 44.658C198.285 44.658 197.851 44.7513 197.552 44.938C197.253 45.1247 197.104 45.372 197.104 45.68C197.104 45.9227 197.188 46.114 197.356 46.254C197.524 46.394 197.729 46.4967 197.972 46.562C198.224 46.6273 198.574 46.702 199.022 46.786C199.619 46.8887 200.1 47.0007 200.464 47.122C200.837 47.234 201.155 47.43 201.416 47.71C201.677 47.99 201.808 48.382 201.808 48.886C201.808 49.558 201.519 50.0947 200.94 50.496C200.371 50.888 199.591 51.084 198.602 51.084ZM204.01 51.084C203.748 51.084 203.524 50.9953 203.338 50.818C203.151 50.6313 203.058 50.398 203.058 50.118C203.058 49.8473 203.151 49.6233 203.338 49.446C203.524 49.2593 203.748 49.166 204.01 49.166C204.271 49.166 204.49 49.2547 204.668 49.432C204.845 49.6093 204.934 49.838 204.934 50.118C204.934 50.398 204.84 50.6313 204.654 50.818C204.476 50.9953 204.262 51.084 204.01 51.084ZM5.326 71.112C4.58867 71.112 3.87467 71 3.184 70.776C2.50267 70.5427 1.966 70.244 1.574 69.88L2.092 68.788C2.46533 69.124 2.94133 69.3993 3.52 69.614C4.108 69.8193 4.71 69.922 5.326 69.922C6.138 69.922 6.74467 69.7867 7.146 69.516C7.54733 69.236 7.748 68.8673 7.748 68.41C7.748 68.074 7.636 67.8033 7.412 67.598C7.19733 67.3833 6.92667 67.22 6.6 67.108C6.28267 66.996 5.83 66.87 5.242 66.73C4.50467 66.5527 3.90733 66.3753 3.45 66.198C3.002 66.0207 2.61467 65.75 2.288 65.386C1.97067 65.0127 1.812 64.5133 1.812 63.888C1.812 63.3653 1.94733 62.894 2.218 62.474C2.498 62.054 2.918 61.718 3.478 61.466C4.038 61.214 4.73333 61.088 5.564 61.088C6.14267 61.088 6.712 61.1627 7.272 61.312C7.832 61.4613 8.31267 61.676 8.714 61.956L8.252 63.076C7.84133 62.8147 7.40267 62.6187 6.936 62.488C6.46933 62.348 6.012 62.278 5.564 62.278C4.77067 62.278 4.17333 62.4227 3.772 62.712C3.38 63.0013 3.184 63.3747 3.184 63.832C3.184 64.168 3.296 64.4433 3.52 64.658C3.744 64.8633 4.01933 65.0267 4.346 65.148C4.682 65.26 5.13467 65.3813 5.704 65.512C6.44133 65.6893 7.034 65.8667 7.482 66.044C7.93 66.2213 8.31267 66.492 8.63 66.856C8.95667 67.22 9.12 67.71 9.12 68.326C9.12 68.8393 8.98 69.3107 8.7 69.74C8.42 70.16 7.99533 70.496 7.426 70.748C6.85667 70.9907 6.15667 71.112 5.326 71.112ZM15.1313 63.51C16.074 63.51 16.8206 63.7853 17.3713 64.336C17.9313 64.8773 18.2113 65.6753 18.2113 66.73V71H16.8673V66.884C16.8673 66.1653 16.6946 65.624 16.3493 65.26C16.004 64.896 15.5093 64.714 14.8653 64.714C14.1373 64.714 13.5633 64.9287 13.1433 65.358C12.7233 65.778 12.5133 66.3847 12.5133 67.178V71H11.1693V60.612H12.5133V64.63C12.7933 64.2753 13.1573 64 13.6053 63.804C14.0626 63.608 14.5713 63.51 15.1313 63.51ZM23.6006 63.51C24.6273 63.51 25.4113 63.762 25.9526 64.266C26.5033 64.77 26.7786 65.5213 26.7786 66.52V71H25.5046V70.02C25.2806 70.3653 24.9586 70.6313 24.5386 70.818C24.1279 70.9953 23.6379 71.084 23.0686 71.084C22.2379 71.084 21.5706 70.8833 21.0666 70.482C20.5719 70.0807 20.3246 69.5533 20.3246 68.9C20.3246 68.2467 20.5626 67.724 21.0386 67.332C21.5146 66.9307 22.2706 66.73 23.3066 66.73H25.4346V66.464C25.4346 65.8853 25.2666 65.442 24.9306 65.134C24.5946 64.826 24.0999 64.672 23.4466 64.672C23.0079 64.672 22.5786 64.7467 22.1586 64.896C21.7386 65.036 21.3839 65.2273 21.0946 65.47L20.5346 64.462C20.9173 64.154 21.3746 63.9207 21.9066 63.762C22.4386 63.594 23.0033 63.51 23.6006 63.51ZM23.2926 70.048C23.8059 70.048 24.2493 69.936 24.6226 69.712C24.9959 69.4787 25.2666 69.152 25.4346 68.732V67.696H23.3626C22.2239 67.696 21.6546 68.0787 21.6546 68.844C21.6546 69.2173 21.7993 69.5113 22.0886 69.726C22.3779 69.9407 22.7793 70.048 23.2926 70.048ZM30.7538 64.826C30.9871 64.3967 31.3325 64.07 31.7898 63.846C32.2471 63.622 32.8025 63.51 33.4558 63.51V64.812C33.3811 64.8027 33.2785 64.798 33.1478 64.798C32.4198 64.798 31.8458 65.0173 31.4258 65.456C31.0151 65.8853 30.8098 66.5013 30.8098 67.304V71H29.4658V63.58H30.7538V64.826ZM41.9499 67.332C41.9499 67.4347 41.9406 67.57 41.9219 67.738H35.9019C35.9859 68.3913 36.2706 68.9187 36.7559 69.32C37.2506 69.712 37.8619 69.908 38.5899 69.908C39.4766 69.908 40.1906 69.6093 40.7319 69.012L41.4739 69.88C41.1379 70.272 40.7179 70.5707 40.2139 70.776C39.7193 70.9813 39.1639 71.084 38.5479 71.084C37.7639 71.084 37.0686 70.9253 36.4619 70.608C35.8553 70.2813 35.3839 69.8287 35.0479 69.25C34.7213 68.6713 34.5579 68.018 34.5579 67.29C34.5579 66.5713 34.7166 65.9227 35.0339 65.344C35.3606 64.7653 35.8039 64.3173 36.3639 64C36.9333 63.6733 37.5726 63.51 38.2819 63.51C38.9913 63.51 39.6213 63.6733 40.1719 64C40.7319 64.3173 41.1659 64.7653 41.4739 65.344C41.7913 65.9227 41.9499 66.5853 41.9499 67.332ZM38.2819 64.644C37.6379 64.644 37.0966 64.84 36.6579 65.232C36.2286 65.624 35.9766 66.1373 35.9019 66.772H40.6619C40.5873 66.1467 40.3306 65.638 39.8919 65.246C39.4626 64.8447 38.9259 64.644 38.2819 64.644ZM54.542 63.58L50.944 71.742C50.6266 72.498 50.2533 73.03 49.824 73.338C49.404 73.646 48.8953 73.8 48.298 73.8C47.934 73.8 47.5793 73.7393 47.234 73.618C46.898 73.506 46.618 73.338 46.394 73.114L46.968 72.106C47.3506 72.47 47.794 72.652 48.298 72.652C48.6246 72.652 48.8953 72.5633 49.11 72.386C49.334 72.218 49.5346 71.924 49.712 71.504L49.95 70.986L46.674 63.58H48.074L50.664 69.516L53.226 63.58H54.542ZM58.9692 71.084C58.2319 71.084 57.5692 70.9207 56.9812 70.594C56.3932 70.2673 55.9312 69.8193 55.5952 69.25C55.2685 68.6713 55.1052 68.018 55.1052 67.29C55.1052 66.562 55.2685 65.9133 55.5952 65.344C55.9312 64.7653 56.3932 64.3173 56.9812 64C57.5692 63.6733 58.2319 63.51 58.9692 63.51C59.7065 63.51 60.3645 63.6733 60.9432 64C61.5312 64.3173 61.9885 64.7653 62.3152 65.344C62.6512 65.9133 62.8192 66.562 62.8192 67.29C62.8192 68.018 62.6512 68.6713 62.3152 69.25C61.9885 69.8193 61.5312 70.2673 60.9432 70.594C60.3645 70.9207 59.7065 71.084 58.9692 71.084ZM58.9692 69.908C59.4452 69.908 59.8699 69.8007 60.2432 69.586C60.6259 69.362 60.9245 69.054 61.1392 68.662C61.3539 68.2607 61.4612 67.8033 61.4612 67.29C61.4612 66.7767 61.3539 66.324 61.1392 65.932C60.9245 65.5307 60.6259 65.2227 60.2432 65.008C59.8699 64.7933 59.4452 64.686 58.9692 64.686C58.4932 64.686 58.0639 64.7933 57.6812 65.008C57.3079 65.2227 57.0092 65.5307 56.7852 65.932C56.5705 66.324 56.4632 66.7767 56.4632 67.29C56.4632 67.8033 56.5705 68.2607 56.7852 68.662C57.0092 69.054 57.3079 69.362 57.6812 69.586C58.0639 69.8007 58.4932 69.908 58.9692 69.908ZM71.7939 63.58V71H70.5199V69.88C70.2492 70.2627 69.8899 70.5613 69.4419 70.776C69.0032 70.9813 68.5226 71.084 67.9999 71.084C67.0106 71.084 66.2312 70.8133 65.6619 70.272C65.0926 69.7213 64.8079 68.914 64.8079 67.85V63.58H66.1519V67.696C66.1519 68.4147 66.3246 68.9607 66.6699 69.334C67.0152 69.698 67.5099 69.88 68.1539 69.88C68.8632 69.88 69.4232 69.6653 69.8339 69.236C70.2446 68.8067 70.4499 68.2 70.4499 67.416V63.58H71.7939ZM75.8405 64.826C76.0739 64.3967 76.4192 64.07 76.8765 63.846C77.3339 63.622 77.8892 63.51 78.5425 63.51V64.812C78.4679 64.8027 78.3652 64.798 78.2345 64.798C77.5065 64.798 76.9325 65.0173 76.5125 65.456C76.1019 65.8853 75.8965 66.5013 75.8965 67.304V71H74.5525V63.58H75.8405V64.826ZM91.1605 67.332C91.1605 67.4347 91.1511 67.57 91.1325 67.738H85.1125C85.1965 68.3913 85.4811 68.9187 85.9665 69.32C86.4611 69.712 87.0725 69.908 87.8005 69.908C88.6871 69.908 89.4011 69.6093 89.9425 69.012L90.6845 69.88C90.3485 70.272 89.9285 70.5707 89.4245 70.776C88.9298 70.9813 88.3745 71.084 87.7585 71.084C86.9745 71.084 86.2791 70.9253 85.6725 70.608C85.0658 70.2813 84.5945 69.8287 84.2585 69.25C83.9318 68.6713 83.7685 68.018 83.7685 67.29C83.7685 66.5713 83.9271 65.9227 84.2445 65.344C84.5711 64.7653 85.0145 64.3173 85.5745 64C86.1438 63.6733 86.7831 63.51 87.4925 63.51C88.2018 63.51 88.8318 63.6733 89.3825 64C89.9425 64.3173 90.3765 64.7653 90.6845 65.344C91.0018 65.9227 91.1605 66.5853 91.1605 67.332ZM87.4925 64.644C86.8485 64.644 86.3071 64.84 85.8685 65.232C85.4391 65.624 85.1871 66.1373 85.1125 66.772H89.8725C89.7978 66.1467 89.5411 65.638 89.1025 65.246C88.6731 64.8447 88.1365 64.644 87.4925 64.644ZM97.7537 71L95.6117 68.158L93.4417 71H91.9437L94.8697 67.206L92.0837 63.58H93.5817L95.6257 66.254L97.6557 63.58H99.1257L96.3257 67.206L99.2797 71H97.7537ZM104.88 63.51C105.599 63.51 106.243 63.6687 106.812 63.986C107.382 64.3033 107.825 64.7467 108.142 65.316C108.469 65.8853 108.632 66.5433 108.632 67.29C108.632 68.0367 108.469 68.6993 108.142 69.278C107.825 69.8473 107.382 70.2907 106.812 70.608C106.243 70.9253 105.599 71.084 104.88 71.084C104.348 71.084 103.858 70.9813 103.41 70.776C102.972 70.5707 102.598 70.272 102.29 69.88V73.716H100.946V63.58H102.234V64.756C102.533 64.3453 102.911 64.0373 103.368 63.832C103.826 63.6173 104.33 63.51 104.88 63.51ZM104.768 69.908C105.244 69.908 105.669 69.8007 106.042 69.586C106.425 69.362 106.724 69.054 106.938 68.662C107.162 68.2607 107.274 67.8033 107.274 67.29C107.274 66.7767 107.162 66.324 106.938 65.932C106.724 65.5307 106.425 65.2227 106.042 65.008C105.669 64.7933 105.244 64.686 104.768 64.686C104.302 64.686 103.877 64.798 103.494 65.022C103.121 65.2367 102.822 65.54 102.598 65.932C102.384 66.324 102.276 66.7767 102.276 67.29C102.276 67.8033 102.384 68.2607 102.598 68.662C102.813 69.054 103.112 69.362 103.494 69.586C103.877 69.8007 104.302 69.908 104.768 69.908ZM117.395 67.332C117.395 67.4347 117.386 67.57 117.367 67.738H111.347C111.431 68.3913 111.716 68.9187 112.201 69.32C112.696 69.712 113.307 69.908 114.035 69.908C114.922 69.908 115.636 69.6093 116.177 69.012L116.919 69.88C116.583 70.272 116.163 70.5707 115.659 70.776C115.165 70.9813 114.609 71.084 113.993 71.084C113.209 71.084 112.514 70.9253 111.907 70.608C111.301 70.2813 110.829 69.8287 110.493 69.25C110.167 68.6713 110.003 68.018 110.003 67.29C110.003 66.5713 110.162 65.9227 110.479 65.344C110.806 64.7653 111.249 64.3173 111.809 64C112.379 63.6733 113.018 63.51 113.727 63.51C114.437 63.51 115.067 63.6733 115.617 64C116.177 64.3173 116.611 64.7653 116.919 65.344C117.237 65.9227 117.395 66.5853 117.395 67.332ZM113.727 64.644C113.083 64.644 112.542 64.84 112.103 65.232C111.674 65.624 111.422 66.1373 111.347 66.772H116.107C116.033 66.1467 115.776 65.638 115.337 65.246C114.908 64.8447 114.371 64.644 113.727 64.644ZM120.75 64.826C120.983 64.3967 121.328 64.07 121.785 63.846C122.243 63.622 122.798 63.51 123.452 63.51V64.812C123.377 64.8027 123.274 64.798 123.144 64.798C122.416 64.798 121.842 65.0173 121.422 65.456C121.011 65.8853 120.806 66.5013 120.806 67.304V71H119.462V63.58H120.75V64.826ZM125.308 63.58H126.652V71H125.308V63.58ZM125.98 62.152C125.719 62.152 125.499 62.068 125.322 61.9C125.154 61.732 125.07 61.5267 125.07 61.284C125.07 61.0413 125.154 60.836 125.322 60.668C125.499 60.4907 125.719 60.402 125.98 60.402C126.241 60.402 126.456 60.486 126.624 60.654C126.801 60.8127 126.89 61.0133 126.89 61.256C126.89 61.508 126.801 61.7227 126.624 61.9C126.456 62.068 126.241 62.152 125.98 62.152ZM136.124 67.332C136.124 67.4347 136.115 67.57 136.096 67.738H130.076C130.16 68.3913 130.445 68.9187 130.93 69.32C131.425 69.712 132.036 69.908 132.764 69.908C133.651 69.908 134.365 69.6093 134.906 69.012L135.648 69.88C135.312 70.272 134.892 70.5707 134.388 70.776C133.893 70.9813 133.338 71.084 132.722 71.084C131.938 71.084 131.243 70.9253 130.636 70.608C130.029 70.2813 129.558 69.8287 129.222 69.25C128.895 68.6713 128.732 68.018 128.732 67.29C128.732 66.5713 128.891 65.9227 129.208 65.344C129.535 64.7653 129.978 64.3173 130.538 64C131.107 63.6733 131.747 63.51 132.456 63.51C133.165 63.51 133.795 63.6733 134.346 64C134.906 64.3173 135.34 64.7653 135.648 65.344C135.965 65.9227 136.124 66.5853 136.124 67.332ZM132.456 64.644C131.812 64.644 131.271 64.84 130.832 65.232C130.403 65.624 130.151 66.1373 130.076 66.772H134.836C134.761 66.1467 134.505 65.638 134.066 65.246C133.637 64.8447 133.1 64.644 132.456 64.644ZM142.152 63.51C143.095 63.51 143.842 63.7853 144.392 64.336C144.952 64.8773 145.232 65.6753 145.232 66.73V71H143.888V66.884C143.888 66.1653 143.716 65.624 143.37 65.26C143.025 64.896 142.53 64.714 141.886 64.714C141.158 64.714 140.584 64.9287 140.164 65.358C139.744 65.778 139.534 66.3847 139.534 67.178V71H138.19V63.58H139.478V64.7C139.749 64.3173 140.113 64.0233 140.57 63.818C141.037 63.6127 141.564 63.51 142.152 63.51ZM151.195 71.084C150.439 71.084 149.762 70.9207 149.165 70.594C148.577 70.2673 148.115 69.8193 147.779 69.25C147.443 68.6713 147.275 68.018 147.275 67.29C147.275 66.562 147.443 65.9133 147.779 65.344C148.115 64.7653 148.577 64.3173 149.165 64C149.762 63.6733 150.439 63.51 151.195 63.51C151.867 63.51 152.464 63.6453 152.987 63.916C153.519 64.1867 153.929 64.5787 154.219 65.092L153.197 65.75C152.963 65.3953 152.674 65.1293 152.329 64.952C151.983 64.7747 151.601 64.686 151.181 64.686C150.695 64.686 150.257 64.7933 149.865 65.008C149.482 65.2227 149.179 65.5307 148.955 65.932C148.74 66.324 148.633 66.7767 148.633 67.29C148.633 67.8127 148.74 68.2747 148.955 68.676C149.179 69.068 149.482 69.3713 149.865 69.586C150.257 69.8007 150.695 69.908 151.181 69.908C151.601 69.908 151.983 69.8193 152.329 69.642C152.674 69.4647 152.963 69.1987 153.197 68.844L154.219 69.488C153.929 70.0013 153.519 70.398 152.987 70.678C152.464 70.9487 151.867 71.084 151.195 71.084ZM162.755 67.332C162.755 67.4347 162.746 67.57 162.727 67.738H156.707C156.791 68.3913 157.076 68.9187 157.561 69.32C158.056 69.712 158.667 69.908 159.395 69.908C160.282 69.908 160.996 69.6093 161.537 69.012L162.279 69.88C161.943 70.272 161.523 70.5707 161.019 70.776C160.525 70.9813 159.969 71.084 159.353 71.084C158.569 71.084 157.874 70.9253 157.267 70.608C156.661 70.2813 156.189 69.8287 155.853 69.25C155.527 68.6713 155.363 68.018 155.363 67.29C155.363 66.5713 155.522 65.9227 155.839 65.344C156.166 64.7653 156.609 64.3173 157.169 64C157.739 63.6733 158.378 63.51 159.087 63.51C159.797 63.51 160.427 63.6733 160.977 64C161.537 64.3173 161.971 64.7653 162.279 65.344C162.597 65.9227 162.755 66.5853 162.755 67.332ZM159.087 64.644C158.443 64.644 157.902 64.84 157.463 65.232C157.034 65.624 156.782 66.1373 156.707 66.772H161.467C161.393 66.1467 161.136 65.638 160.697 65.246C160.268 64.8447 159.731 64.644 159.087 64.644ZM171.483 63.51C172.51 63.51 173.294 63.762 173.835 64.266C174.386 64.77 174.661 65.5213 174.661 66.52V71H173.387V70.02C173.163 70.3653 172.841 70.6313 172.421 70.818C172.011 70.9953 171.521 71.084 170.951 71.084C170.121 71.084 169.453 70.8833 168.949 70.482C168.455 70.0807 168.207 69.5533 168.207 68.9C168.207 68.2467 168.445 67.724 168.921 67.332C169.397 66.9307 170.153 66.73 171.189 66.73H173.317V66.464C173.317 65.8853 173.149 65.442 172.813 65.134C172.477 64.826 171.983 64.672 171.329 64.672C170.891 64.672 170.461 64.7467 170.041 64.896C169.621 65.036 169.267 65.2273 168.977 65.47L168.417 64.462C168.8 64.154 169.257 63.9207 169.789 63.762C170.321 63.594 170.886 63.51 171.483 63.51ZM171.175 70.048C171.689 70.048 172.132 69.936 172.505 69.712C172.879 69.4787 173.149 69.152 173.317 68.732V67.696H171.245C170.107 67.696 169.537 68.0787 169.537 68.844C169.537 69.2173 169.682 69.5113 169.971 69.726C170.261 69.9407 170.662 70.048 171.175 70.048ZM181.311 63.51C182.253 63.51 183 63.7853 183.551 64.336C184.111 64.8773 184.391 65.6753 184.391 66.73V71H183.047V66.884C183.047 66.1653 182.874 65.624 182.529 65.26C182.183 64.896 181.689 64.714 181.045 64.714C180.317 64.714 179.743 64.9287 179.323 65.358C178.903 65.778 178.693 66.3847 178.693 67.178V71H177.349V63.58H178.637V64.7C178.907 64.3173 179.271 64.0233 179.729 63.818C180.195 63.6127 180.723 63.51 181.311 63.51ZM194.119 60.612V71H192.831V69.824C192.532 70.2347 192.154 70.5473 191.697 70.762C191.24 70.9767 190.736 71.084 190.185 71.084C189.466 71.084 188.822 70.9253 188.253 70.608C187.684 70.2907 187.236 69.8473 186.909 69.278C186.592 68.6993 186.433 68.0367 186.433 67.29C186.433 66.5433 186.592 65.8853 186.909 65.316C187.236 64.7467 187.684 64.3033 188.253 63.986C188.822 63.6687 189.466 63.51 190.185 63.51C190.717 63.51 191.207 63.6127 191.655 63.818C192.103 64.014 192.476 64.308 192.775 64.7V60.612H194.119ZM190.297 69.908C190.764 69.908 191.188 69.8007 191.571 69.586C191.954 69.362 192.252 69.054 192.467 68.662C192.682 68.2607 192.789 67.8033 192.789 67.29C192.789 66.7767 192.682 66.324 192.467 65.932C192.252 65.5307 191.954 65.2227 191.571 65.008C191.188 64.7933 190.764 64.686 190.297 64.686C189.821 64.686 189.392 64.7933 189.009 65.008C188.636 65.2227 188.337 65.5307 188.113 65.932C187.898 66.324 187.791 66.7767 187.791 67.29C187.791 67.8033 187.898 68.2607 188.113 68.662C188.337 69.054 188.636 69.362 189.009 69.586C189.392 69.8007 189.821 69.908 190.297 69.908ZM203.524 63.51C204.55 63.51 205.334 63.762 205.876 64.266C206.426 64.77 206.702 65.5213 206.702 66.52V71H205.428V70.02C205.204 70.3653 204.882 70.6313 204.462 70.818C204.051 70.9953 203.561 71.084 202.992 71.084C202.161 71.084 201.494 70.8833 200.99 70.482C200.495 70.0807 200.248 69.5533 200.248 68.9C200.248 68.2467 200.486 67.724 200.962 67.332C201.438 66.9307 202.194 66.73 203.23 66.73H205.358V66.464C205.358 65.8853 205.19 65.442 204.854 65.134C204.518 64.826 204.023 64.672 203.37 64.672C202.931 64.672 202.502 64.7467 202.082 64.896C201.662 65.036 201.307 65.2273 201.018 65.47L200.458 64.462C200.84 64.154 201.298 63.9207 201.83 63.762C202.362 63.594 202.926 63.51 203.524 63.51ZM203.216 70.048C203.729 70.048 204.172 69.936 204.546 69.712C204.919 69.4787 205.19 69.152 205.358 68.732V67.696H203.286C202.147 67.696 201.578 68.0787 201.578 68.844C201.578 69.2173 201.722 69.5113 202.012 69.726C202.301 69.9407 202.702 70.048 203.216 70.048ZM216.43 60.612V71H215.142V69.824C214.843 70.2347 214.465 70.5473 214.008 70.762C213.551 70.9767 213.047 71.084 212.496 71.084C211.777 71.084 211.133 70.9253 210.564 70.608C209.995 70.2907 209.547 69.8473 209.22 69.278C208.903 68.6993 208.744 68.0367 208.744 67.29C208.744 66.5433 208.903 65.8853 209.22 65.316C209.547 64.7467 209.995 64.3033 210.564 63.986C211.133 63.6687 211.777 63.51 212.496 63.51C213.028 63.51 213.518 63.6127 213.966 63.818C214.414 64.014 214.787 64.308 215.086 64.7V60.612H216.43ZM212.608 69.908C213.075 69.908 213.499 69.8007 213.882 69.586C214.265 69.362 214.563 69.054 214.778 68.662C214.993 68.2607 215.1 67.8033 215.1 67.29C215.1 66.7767 214.993 66.324 214.778 65.932C214.563 65.5307 214.265 65.2227 213.882 65.008C213.499 64.7933 213.075 64.686 212.608 64.686C212.132 64.686 211.703 64.7933 211.32 65.008C210.947 65.2227 210.648 65.5307 210.424 65.932C210.209 66.324 210.102 66.7767 210.102 67.29C210.102 67.8033 210.209 68.2607 210.424 68.662C210.648 69.054 210.947 69.362 211.32 69.586C211.703 69.8007 212.132 69.908 212.608 69.908ZM225.739 63.58L222.491 71H221.119L217.871 63.58H219.271L221.819 69.53L224.423 63.58H225.739ZM227.193 63.58H228.537V71H227.193V63.58ZM227.865 62.152C227.604 62.152 227.384 62.068 227.207 61.9C227.039 61.732 226.955 61.5267 226.955 61.284C226.955 61.0413 227.039 60.836 227.207 60.668C227.384 60.4907 227.604 60.402 227.865 60.402C228.126 60.402 228.341 60.486 228.509 60.654C228.686 60.8127 228.775 61.0133 228.775 61.256C228.775 61.508 228.686 61.7227 228.509 61.9C228.341 62.068 228.126 62.152 227.865 62.152ZM234.537 71.084C233.781 71.084 233.105 70.9207 232.507 70.594C231.919 70.2673 231.457 69.8193 231.121 69.25C230.785 68.6713 230.617 68.018 230.617 67.29C230.617 66.562 230.785 65.9133 231.121 65.344C231.457 64.7653 231.919 64.3173 232.507 64C233.105 63.6733 233.781 63.51 234.537 63.51C235.209 63.51 235.807 63.6453 236.329 63.916C236.861 64.1867 237.272 64.5787 237.561 65.092L236.539 65.75C236.306 65.3953 236.017 65.1293 235.671 64.952C235.326 64.7747 234.943 64.686 234.523 64.686C234.038 64.686 233.599 64.7933 233.207 65.008C232.825 65.2227 232.521 65.5307 232.297 65.932C232.083 66.324 231.975 66.7767 231.975 67.29C231.975 67.8127 232.083 68.2747 232.297 68.676C232.521 69.068 232.825 69.3713 233.207 69.586C233.599 69.8007 234.038 69.908 234.523 69.908C234.943 69.908 235.326 69.8193 235.671 69.642C236.017 69.4647 236.306 69.1987 236.539 68.844L237.561 69.488C237.272 70.0013 236.861 70.398 236.329 70.678C235.807 70.9487 235.209 71.084 234.537 71.084ZM246.098 67.332C246.098 67.4347 246.089 67.57 246.07 67.738H240.05C240.134 68.3913 240.419 68.9187 240.904 69.32C241.399 69.712 242.01 69.908 242.738 69.908C243.625 69.908 244.339 69.6093 244.88 69.012L245.622 69.88C245.286 70.272 244.866 70.5707 244.362 70.776C243.867 70.9813 243.312 71.084 242.696 71.084C241.912 71.084 241.217 70.9253 240.61 70.608C240.003 70.2813 239.532 69.8287 239.196 69.25C238.869 68.6713 238.706 68.018 238.706 67.29C238.706 66.5713 238.865 65.9227 239.182 65.344C239.509 64.7653 239.952 64.3173 240.512 64C241.081 63.6733 241.721 63.51 242.43 63.51C243.139 63.51 243.769 63.6733 244.32 64C244.88 64.3173 245.314 64.7653 245.622 65.344C245.939 65.9227 246.098 66.5853 246.098 67.332ZM242.43 64.644C241.786 64.644 241.245 64.84 240.806 65.232C240.377 65.624 240.125 66.1373 240.05 66.772H244.81C244.735 66.1467 244.479 65.638 244.04 65.246C243.611 64.8447 243.074 64.644 242.43 64.644ZM254.826 63.51C255.853 63.51 256.637 63.762 257.178 64.266C257.729 64.77 258.004 65.5213 258.004 66.52V71H256.73V70.02C256.506 70.3653 256.184 70.6313 255.764 70.818C255.353 70.9953 254.863 71.084 254.294 71.084C253.463 71.084 252.796 70.8833 252.292 70.482C251.797 70.0807 251.55 69.5533 251.55 68.9C251.55 68.2467 251.788 67.724 252.264 67.332C252.74 66.9307 253.496 66.73 254.532 66.73H256.66V66.464C256.66 65.8853 256.492 65.442 256.156 65.134C255.82 64.826 255.325 64.672 254.672 64.672C254.233 64.672 253.804 64.7467 253.384 64.896C252.964 65.036 252.609 65.2273 252.32 65.47L251.76 64.462C252.143 64.154 252.6 63.9207 253.132 63.762C253.664 63.594 254.229 63.51 254.826 63.51ZM254.518 70.048C255.031 70.048 255.475 69.936 255.848 69.712C256.221 69.4787 256.492 69.152 256.66 68.732V67.696H254.588C253.449 67.696 252.88 68.0787 252.88 68.844C252.88 69.2173 253.025 69.5113 253.314 69.726C253.603 69.9407 254.005 70.048 254.518 70.048ZM264.653 63.51C265.596 63.51 266.343 63.7853 266.893 64.336C267.453 64.8773 267.733 65.6753 267.733 66.73V71H266.389V66.884C266.389 66.1653 266.217 65.624 265.871 65.26C265.526 64.896 265.031 64.714 264.387 64.714C263.659 64.714 263.085 64.9287 262.665 65.358C262.245 65.778 262.035 66.3847 262.035 67.178V71H260.691V63.58H261.979V64.7C262.25 64.3173 262.614 64.0233 263.071 63.818C263.538 63.6127 264.065 63.51 264.653 63.51ZM277.462 60.612V71H276.174V69.824C275.875 70.2347 275.497 70.5473 275.04 70.762C274.582 70.9767 274.078 71.084 273.528 71.084C272.809 71.084 272.165 70.9253 271.596 70.608C271.026 70.2907 270.578 69.8473 270.252 69.278C269.934 68.6993 269.776 68.0367 269.776 67.29C269.776 66.5433 269.934 65.8853 270.252 65.316C270.578 64.7467 271.026 64.3033 271.596 63.986C272.165 63.6687 272.809 63.51 273.528 63.51C274.06 63.51 274.55 63.6127 274.998 63.818C275.446 64.014 275.819 64.308 276.118 64.7V60.612H277.462ZM273.64 69.908C274.106 69.908 274.531 69.8007 274.914 69.586C275.296 69.362 275.595 69.054 275.81 68.662C276.024 68.2607 276.132 67.8033 276.132 67.29C276.132 66.7767 276.024 66.324 275.81 65.932C275.595 65.5307 275.296 65.2227 274.914 65.008C274.531 64.7933 274.106 64.686 273.64 64.686C273.164 64.686 272.734 64.7933 272.352 65.008C271.978 65.2227 271.68 65.5307 271.456 65.932C271.241 66.324 271.134 66.7767 271.134 67.29C271.134 67.8033 271.241 68.2607 271.456 68.662C271.68 69.054 271.978 69.362 272.352 69.586C272.734 69.8007 273.164 69.908 273.64 69.908ZM5.508 91.084C4.752 91.084 4.07533 90.9207 3.478 90.594C2.89 90.2673 2.428 89.8193 2.092 89.25C1.756 88.6713 1.588 88.018 1.588 87.29C1.588 86.562 1.756 85.9133 2.092 85.344C2.428 84.7653 2.89 84.3173 3.478 84C4.07533 83.6733 4.752 83.51 5.508 83.51C6.18 83.51 6.77733 83.6453 7.3 83.916C7.832 84.1867 8.24267 84.5787 8.532 85.092L7.51 85.75C7.27667 85.3953 6.98733 85.1293 6.642 84.952C6.29667 84.7747 5.914 84.686 5.494 84.686C5.00867 84.686 4.57 84.7933 4.178 85.008C3.79533 85.2227 3.492 85.5307 3.268 85.932C3.05333 86.324 2.946 86.7767 2.946 87.29C2.946 87.8127 3.05333 88.2747 3.268 88.676C3.492 89.068 3.79533 89.3713 4.178 89.586C4.57 89.8007 5.00867 89.908 5.494 89.908C5.914 89.908 6.29667 89.8193 6.642 89.642C6.98733 89.4647 7.27667 89.1987 7.51 88.844L8.532 89.488C8.24267 90.0013 7.832 90.398 7.3 90.678C6.77733 90.9487 6.18 91.084 5.508 91.084ZM13.5407 91.084C12.8033 91.084 12.1407 90.9207 11.5527 90.594C10.9647 90.2673 10.5027 89.8193 10.1667 89.25C9.84001 88.6713 9.67667 88.018 9.67667 87.29C9.67667 86.562 9.84001 85.9133 10.1667 85.344C10.5027 84.7653 10.9647 84.3173 11.5527 84C12.1407 83.6733 12.8033 83.51 13.5407 83.51C14.278 83.51 14.936 83.6733 15.5147 84C16.1027 84.3173 16.56 84.7653 16.8867 85.344C17.2227 85.9133 17.3907 86.562 17.3907 87.29C17.3907 88.018 17.2227 88.6713 16.8867 89.25C16.56 89.8193 16.1027 90.2673 15.5147 90.594C14.936 90.9207 14.278 91.084 13.5407 91.084ZM13.5407 89.908C14.0167 89.908 14.4413 89.8007 14.8147 89.586C15.1973 89.362 15.496 89.054 15.7107 88.662C15.9253 88.2607 16.0327 87.8033 16.0327 87.29C16.0327 86.7767 15.9253 86.324 15.7107 85.932C15.496 85.5307 15.1973 85.2227 14.8147 85.008C14.4413 84.7933 14.0167 84.686 13.5407 84.686C13.0647 84.686 12.6353 84.7933 12.2527 85.008C11.8793 85.2227 11.5807 85.5307 11.3567 85.932C11.142 86.324 11.0347 86.7767 11.0347 87.29C11.0347 87.8033 11.142 88.2607 11.3567 88.662C11.5807 89.054 11.8793 89.362 12.2527 89.586C12.6353 89.8007 13.0647 89.908 13.5407 89.908ZM28.7314 83.51C29.6647 83.51 30.4021 83.7807 30.9434 84.322C31.4941 84.8633 31.7694 85.666 31.7694 86.73V91H30.4254V86.884C30.4254 86.1653 30.2574 85.624 29.9214 85.26C29.5947 84.896 29.1234 84.714 28.5074 84.714C27.8261 84.714 27.2847 84.9287 26.8834 85.358C26.4821 85.778 26.2814 86.3847 26.2814 87.178V91H24.9374V86.884C24.9374 86.1653 24.7694 85.624 24.4334 85.26C24.1067 84.896 23.6354 84.714 23.0194 84.714C22.3381 84.714 21.7967 84.9287 21.3954 85.358C20.9941 85.778 20.7934 86.3847 20.7934 87.178V91H19.4494V83.58H20.7374V84.686C21.0081 84.3033 21.3627 84.014 21.8014 83.818C22.2401 83.6127 22.7394 83.51 23.2994 83.51C23.8781 83.51 24.3914 83.6267 24.8394 83.86C25.2874 84.0933 25.6327 84.434 25.8754 84.882C26.1554 84.4527 26.5427 84.1167 27.0374 83.874C27.5414 83.6313 28.1061 83.51 28.7314 83.51ZM43.7244 83.51C44.6577 83.51 45.395 83.7807 45.9364 84.322C46.487 84.8633 46.7624 85.666 46.7624 86.73V91H45.4184V86.884C45.4184 86.1653 45.2504 85.624 44.9144 85.26C44.5877 84.896 44.1164 84.714 43.5004 84.714C42.819 84.714 42.2777 84.9287 41.8764 85.358C41.475 85.778 41.2744 86.3847 41.2744 87.178V91H39.9304V86.884C39.9304 86.1653 39.7624 85.624 39.4264 85.26C39.0997 84.896 38.6284 84.714 38.0124 84.714C37.331 84.714 36.7897 84.9287 36.3884 85.358C35.987 85.778 35.7864 86.3847 35.7864 87.178V91H34.4424V83.58H35.7304V84.686C36.001 84.3033 36.3557 84.014 36.7944 83.818C37.233 83.6127 37.7324 83.51 38.2924 83.51C38.871 83.51 39.3844 83.6267 39.8324 83.86C40.2804 84.0933 40.6257 84.434 40.8684 84.882C41.1484 84.4527 41.5357 84.1167 42.0304 83.874C42.5344 83.6313 43.099 83.51 43.7244 83.51ZM56.3513 83.58V91H55.0773V89.88C54.8067 90.2627 54.4473 90.5613 53.9993 90.776C53.5607 90.9813 53.08 91.084 52.5573 91.084C51.568 91.084 50.7887 90.8133 50.2193 90.272C49.65 89.7213 49.3653 88.914 49.3653 87.85V83.58H50.7093V87.696C50.7093 88.4147 50.882 88.9607 51.2273 89.334C51.5727 89.698 52.0673 89.88 52.7113 89.88C53.4207 89.88 53.9807 89.6653 54.3913 89.236C54.802 88.8067 55.0073 88.2 55.0073 87.416V83.58H56.3513ZM63.0719 83.51C64.0146 83.51 64.7613 83.7853 65.3119 84.336C65.8719 84.8773 66.1519 85.6753 66.1519 86.73V91H64.8079V86.884C64.8079 86.1653 64.6353 85.624 64.2899 85.26C63.9446 84.896 63.4499 84.714 62.8059 84.714C62.0779 84.714 61.5039 84.9287 61.0839 85.358C60.6639 85.778 60.4539 86.3847 60.4539 87.178V91H59.1099V83.58H60.3979V84.7C60.6686 84.3173 61.0326 84.0233 61.4899 83.818C61.9566 83.6127 62.4839 83.51 63.0719 83.51ZM68.8392 83.58H70.1832V91H68.8392V83.58ZM69.5112 82.152C69.2499 82.152 69.0306 82.068 68.8532 81.9C68.6852 81.732 68.6012 81.5267 68.6012 81.284C68.6012 81.0413 68.6852 80.836 68.8532 80.668C69.0306 80.4907 69.2499 80.402 69.5112 80.402C69.7726 80.402 69.9872 80.486 70.1552 80.654C70.3326 80.8127 70.4212 81.0133 70.4212 81.256C70.4212 81.508 70.3326 81.7227 70.1552 81.9C69.9872 82.068 69.7726 82.152 69.5112 82.152ZM76.1834 91.084C75.4274 91.084 74.7507 90.9207 74.1534 90.594C73.5654 90.2673 73.1034 89.8193 72.7674 89.25C72.4314 88.6713 72.2634 88.018 72.2634 87.29C72.2634 86.562 72.4314 85.9133 72.7674 85.344C73.1034 84.7653 73.5654 84.3173 74.1534 84C74.7507 83.6733 75.4274 83.51 76.1834 83.51C76.8554 83.51 77.4527 83.6453 77.9754 83.916C78.5074 84.1867 78.9181 84.5787 79.2074 85.092L78.1854 85.75C77.9521 85.3953 77.6627 85.1293 77.3174 84.952C76.9721 84.7747 76.5894 84.686 76.1694 84.686C75.6841 84.686 75.2454 84.7933 74.8534 85.008C74.4707 85.2227 74.1674 85.5307 73.9434 85.932C73.7287 86.324 73.6214 86.7767 73.6214 87.29C73.6214 87.8127 73.7287 88.2747 73.9434 88.676C74.1674 89.068 74.4707 89.3713 74.8534 89.586C75.2454 89.8007 75.6841 89.908 76.1694 89.908C76.5894 89.908 76.9721 89.8193 77.3174 89.642C77.6627 89.4647 77.9521 89.1987 78.1854 88.844L79.2074 89.488C78.9181 90.0013 78.5074 90.398 77.9754 90.678C77.4527 90.9487 76.8554 91.084 76.1834 91.084ZM83.8494 83.51C84.8761 83.51 85.6601 83.762 86.2014 84.266C86.7521 84.77 87.0274 85.5213 87.0274 86.52V91H85.7534V90.02C85.5294 90.3653 85.2074 90.6313 84.7874 90.818C84.3768 90.9953 83.8868 91.084 83.3174 91.084C82.4868 91.084 81.8194 90.8833 81.3154 90.482C80.8208 90.0807 80.5734 89.5533 80.5734 88.9C80.5734 88.2467 80.8114 87.724 81.2874 87.332C81.7634 86.9307 82.5194 86.73 83.5554 86.73H85.6834V86.464C85.6834 85.8853 85.5154 85.442 85.1794 85.134C84.8434 84.826 84.3488 84.672 83.6954 84.672C83.2568 84.672 82.8274 84.7467 82.4074 84.896C81.9874 85.036 81.6328 85.2273 81.3434 85.47L80.7834 84.462C81.1661 84.154 81.6234 83.9207 82.1554 83.762C82.6874 83.594 83.2521 83.51 83.8494 83.51ZM83.5414 90.048C84.0548 90.048 84.4981 89.936 84.8714 89.712C85.2448 89.4787 85.5154 89.152 85.6834 88.732V87.696H83.6114C82.4728 87.696 81.9034 88.0787 81.9034 88.844C81.9034 89.2173 82.0481 89.5113 82.3374 89.726C82.6268 89.9407 83.0281 90.048 83.5414 90.048ZM93.8866 90.566C93.6906 90.734 93.448 90.8647 93.1586 90.958C92.8693 91.042 92.5706 91.084 92.2626 91.084C91.516 91.084 90.9373 90.8833 90.5266 90.482C90.116 90.0807 89.9106 89.5067 89.9106 88.76V84.686H88.6506V83.58H89.9106V81.956H91.2546V83.58H93.3826V84.686H91.2546V88.704C91.2546 89.1053 91.3526 89.4133 91.5486 89.628C91.754 89.8427 92.0433 89.95 92.4166 89.95C92.8273 89.95 93.1773 89.8333 93.4666 89.6L93.8866 90.566ZM102.171 87.332C102.171 87.4347 102.162 87.57 102.143 87.738H96.1234C96.2074 88.3913 96.4921 88.9187 96.9774 89.32C97.4721 89.712 98.0834 89.908 98.8114 89.908C99.6981 89.908 100.412 89.6093 100.953 89.012L101.695 89.88C101.359 90.272 100.939 90.5707 100.435 90.776C99.9407 90.9813 99.3854 91.084 98.7694 91.084C97.9854 91.084 97.2901 90.9253 96.6834 90.608C96.0767 90.2813 95.6054 89.8287 95.2694 89.25C94.9427 88.6713 94.7794 88.018 94.7794 87.29C94.7794 86.5713 94.9381 85.9227 95.2554 85.344C95.5821 84.7653 96.0254 84.3173 96.5854 84C97.1547 83.6733 97.7941 83.51 98.5034 83.51C99.2127 83.51 99.8427 83.6733 100.393 84C100.953 84.3173 101.387 84.7653 101.695 85.344C102.013 85.9227 102.171 86.5853 102.171 87.332ZM98.5034 84.644C97.8594 84.644 97.3181 84.84 96.8794 85.232C96.4501 85.624 96.1981 86.1373 96.1234 86.772H100.883C100.809 86.1467 100.552 85.638 100.113 85.246C99.6841 84.8447 99.1474 84.644 98.5034 84.644ZM119.425 83.58L116.653 91H115.365L113.223 85.372L111.053 91H109.765L107.007 83.58H108.281L110.437 89.488L112.677 83.58H113.811L116.009 89.516L118.221 83.58H119.425ZM120.989 83.58H122.333V91H120.989V83.58ZM121.661 82.152C121.4 82.152 121.181 82.068 121.003 81.9C120.835 81.732 120.751 81.5267 120.751 81.284C120.751 81.0413 120.835 80.836 121.003 80.668C121.181 80.4907 121.4 80.402 121.661 80.402C121.923 80.402 122.137 80.486 122.305 80.654C122.483 80.8127 122.571 81.0133 122.571 81.256C122.571 81.508 122.483 81.7227 122.305 81.9C122.137 82.068 121.923 82.152 121.661 82.152ZM129.271 90.566C129.075 90.734 128.833 90.8647 128.543 90.958C128.254 91.042 127.955 91.084 127.647 91.084C126.901 91.084 126.322 90.8833 125.911 90.482C125.501 90.0807 125.295 89.5067 125.295 88.76V84.686H124.035V83.58H125.295V81.956H126.639V83.58H128.767V84.686H126.639V88.704C126.639 89.1053 126.737 89.4133 126.933 89.628C127.139 89.8427 127.428 89.95 127.801 89.95C128.212 89.95 128.562 89.8333 128.851 89.6L129.271 90.566ZM135.058 83.51C136.001 83.51 136.748 83.7853 137.298 84.336C137.858 84.8773 138.138 85.6753 138.138 86.73V91H136.794V86.884C136.794 86.1653 136.622 85.624 136.276 85.26C135.931 84.896 135.436 84.714 134.792 84.714C134.064 84.714 133.49 84.9287 133.07 85.358C132.65 85.778 132.44 86.3847 132.44 87.178V91H131.096V80.612H132.44V84.63C132.72 84.2753 133.084 84 133.532 83.804C133.99 83.608 134.498 83.51 135.058 83.51ZM148.719 83.51C149.438 83.51 150.082 83.6687 150.651 83.986C151.221 84.3033 151.664 84.7467 151.981 85.316C152.308 85.8853 152.471 86.5433 152.471 87.29C152.471 88.0367 152.308 88.6993 151.981 89.278C151.664 89.8473 151.221 90.2907 150.651 90.608C150.082 90.9253 149.438 91.084 148.719 91.084C148.187 91.084 147.697 90.9813 147.249 90.776C146.811 90.5707 146.437 90.272 146.129 89.88V93.716H144.785V83.58H146.073V84.756C146.372 84.3453 146.75 84.0373 147.207 83.832C147.665 83.6173 148.169 83.51 148.719 83.51ZM148.607 89.908C149.083 89.908 149.508 89.8007 149.881 89.586C150.264 89.362 150.563 89.054 150.777 88.662C151.001 88.2607 151.113 87.8033 151.113 87.29C151.113 86.7767 151.001 86.324 150.777 85.932C150.563 85.5307 150.264 85.2227 149.881 85.008C149.508 84.7933 149.083 84.686 148.607 84.686C148.141 84.686 147.716 84.798 147.333 85.022C146.96 85.2367 146.661 85.54 146.437 85.932C146.223 86.324 146.115 86.7767 146.115 87.29C146.115 87.8033 146.223 88.2607 146.437 88.662C146.652 89.054 146.951 89.362 147.333 89.586C147.716 89.8007 148.141 89.908 148.607 89.908ZM155.816 84.826C156.05 84.3967 156.395 84.07 156.852 83.846C157.31 83.622 157.865 83.51 158.518 83.51V84.812C158.444 84.8027 158.341 84.798 158.21 84.798C157.482 84.798 156.908 85.0173 156.488 85.456C156.078 85.8853 155.872 86.5013 155.872 87.304V91H154.528V83.58H155.816V84.826ZM163.484 91.084C162.747 91.084 162.084 90.9207 161.496 90.594C160.908 90.2673 160.446 89.8193 160.11 89.25C159.784 88.6713 159.62 88.018 159.62 87.29C159.62 86.562 159.784 85.9133 160.11 85.344C160.446 84.7653 160.908 84.3173 161.496 84C162.084 83.6733 162.747 83.51 163.484 83.51C164.222 83.51 164.88 83.6733 165.458 84C166.046 84.3173 166.504 84.7653 166.83 85.344C167.166 85.9133 167.334 86.562 167.334 87.29C167.334 88.018 167.166 88.6713 166.83 89.25C166.504 89.8193 166.046 90.2673 165.458 90.594C164.88 90.9207 164.222 91.084 163.484 91.084ZM163.484 89.908C163.96 89.908 164.385 89.8007 164.758 89.586C165.141 89.362 165.44 89.054 165.654 88.662C165.869 88.2607 165.976 87.8033 165.976 87.29C165.976 86.7767 165.869 86.324 165.654 85.932C165.44 85.5307 165.141 85.2227 164.758 85.008C164.385 84.7933 163.96 84.686 163.484 84.686C163.008 84.686 162.579 84.7933 162.196 85.008C161.823 85.2227 161.524 85.5307 161.3 85.932C161.086 86.324 160.978 86.7767 160.978 87.29C160.978 87.8033 161.086 88.2607 161.3 88.662C161.524 89.054 161.823 89.362 162.196 89.586C162.579 89.8007 163.008 89.908 163.484 89.908ZM172.109 81.634C171.306 81.634 170.905 82.068 170.905 82.936V83.58H173.061V84.686H170.933V91H169.589V84.686H168.329V83.58H169.589V82.922C169.589 82.1847 169.804 81.6013 170.233 81.172C170.662 80.7427 171.264 80.528 172.039 80.528C172.338 80.528 172.618 80.5653 172.879 80.64C173.14 80.7147 173.364 80.822 173.551 80.962L173.145 81.984C172.837 81.7507 172.492 81.634 172.109 81.634ZM181.125 87.332C181.125 87.4347 181.116 87.57 181.097 87.738H175.077C175.161 88.3913 175.446 88.9187 175.931 89.32C176.426 89.712 177.037 89.908 177.765 89.908C178.652 89.908 179.366 89.6093 179.907 89.012L180.649 89.88C180.313 90.272 179.893 90.5707 179.389 90.776C178.895 90.9813 178.339 91.084 177.723 91.084C176.939 91.084 176.244 90.9253 175.637 90.608C175.031 90.2813 174.559 89.8287 174.223 89.25C173.897 88.6713 173.733 88.018 173.733 87.29C173.733 86.5713 173.892 85.9227 174.209 85.344C174.536 84.7653 174.979 84.3173 175.539 84C176.109 83.6733 176.748 83.51 177.457 83.51C178.167 83.51 178.797 83.6733 179.347 84C179.907 84.3173 180.341 84.7653 180.649 85.344C180.967 85.9227 181.125 86.5853 181.125 87.332ZM177.457 84.644C176.813 84.644 176.272 84.84 175.833 85.232C175.404 85.624 175.152 86.1373 175.077 86.772H179.837C179.763 86.1467 179.506 85.638 179.067 85.246C178.638 84.8447 178.101 84.644 177.457 84.644ZM185.32 91.084C184.713 91.084 184.13 91.0047 183.57 90.846C183.01 90.678 182.571 90.468 182.254 90.216L182.814 89.152C183.14 89.3853 183.537 89.572 184.004 89.712C184.47 89.852 184.942 89.922 185.418 89.922C186.594 89.922 187.182 89.586 187.182 88.914C187.182 88.69 187.102 88.5127 186.944 88.382C186.785 88.2513 186.584 88.158 186.342 88.102C186.108 88.0367 185.772 87.9667 185.334 87.892C184.736 87.7987 184.246 87.6913 183.864 87.57C183.49 87.4487 183.168 87.2433 182.898 86.954C182.627 86.6647 182.492 86.2587 182.492 85.736C182.492 85.064 182.772 84.5273 183.332 84.126C183.892 83.7153 184.643 83.51 185.586 83.51C186.08 83.51 186.575 83.5707 187.07 83.692C187.564 83.8133 187.97 83.9767 188.288 84.182L187.714 85.246C187.107 84.854 186.393 84.658 185.572 84.658C185.002 84.658 184.568 84.7513 184.27 84.938C183.971 85.1247 183.822 85.372 183.822 85.68C183.822 85.9227 183.906 86.114 184.074 86.254C184.242 86.394 184.447 86.4967 184.69 86.562C184.942 86.6273 185.292 86.702 185.74 86.786C186.337 86.8887 186.818 87.0007 187.182 87.122C187.555 87.234 187.872 87.43 188.134 87.71C188.395 87.99 188.526 88.382 188.526 88.886C188.526 89.558 188.236 90.0947 187.658 90.496C187.088 90.888 186.309 91.084 185.32 91.084ZM192.533 91.084C191.927 91.084 191.343 91.0047 190.783 90.846C190.223 90.678 189.785 90.468 189.467 90.216L190.027 89.152C190.354 89.3853 190.751 89.572 191.217 89.712C191.684 89.852 192.155 89.922 192.631 89.922C193.807 89.922 194.395 89.586 194.395 88.914C194.395 88.69 194.316 88.5127 194.157 88.382C193.999 88.2513 193.798 88.158 193.555 88.102C193.322 88.0367 192.986 87.9667 192.547 87.892C191.95 87.7987 191.46 87.6913 191.077 87.57C190.704 87.4487 190.382 87.2433 190.111 86.954C189.841 86.6647 189.705 86.2587 189.705 85.736C189.705 85.064 189.985 84.5273 190.545 84.126C191.105 83.7153 191.857 83.51 192.799 83.51C193.294 83.51 193.789 83.5707 194.283 83.692C194.778 83.8133 195.184 83.9767 195.501 84.182L194.927 85.246C194.321 84.854 193.607 84.658 192.785 84.658C192.216 84.658 191.782 84.7513 191.483 84.938C191.185 85.1247 191.035 85.372 191.035 85.68C191.035 85.9227 191.119 86.114 191.287 86.254C191.455 86.394 191.661 86.4967 191.903 86.562C192.155 86.6273 192.505 86.702 192.953 86.786C193.551 86.8887 194.031 87.0007 194.395 87.122C194.769 87.234 195.086 87.43 195.347 87.71C195.609 87.99 195.739 88.382 195.739 88.886C195.739 89.558 195.45 90.0947 194.871 90.496C194.302 90.888 193.523 91.084 192.533 91.084ZM197.619 83.58H198.963V91H197.619V83.58ZM198.291 82.152C198.03 82.152 197.81 82.068 197.633 81.9C197.465 81.732 197.381 81.5267 197.381 81.284C197.381 81.0413 197.465 80.836 197.633 80.668C197.81 80.4907 198.03 80.402 198.291 80.402C198.552 80.402 198.767 80.486 198.935 80.654C199.112 80.8127 199.201 81.0133 199.201 81.256C199.201 81.508 199.112 81.7227 198.935 81.9C198.767 82.068 198.552 82.152 198.291 82.152ZM204.907 91.084C204.17 91.084 203.507 90.9207 202.919 90.594C202.331 90.2673 201.869 89.8193 201.533 89.25C201.206 88.6713 201.043 88.018 201.043 87.29C201.043 86.562 201.206 85.9133 201.533 85.344C201.869 84.7653 202.331 84.3173 202.919 84C203.507 83.6733 204.17 83.51 204.907 83.51C205.644 83.51 206.302 83.6733 206.881 84C207.469 84.3173 207.926 84.7653 208.253 85.344C208.589 85.9133 208.757 86.562 208.757 87.29C208.757 88.018 208.589 88.6713 208.253 89.25C207.926 89.8193 207.469 90.2673 206.881 90.594C206.302 90.9207 205.644 91.084 204.907 91.084ZM204.907 89.908C205.383 89.908 205.808 89.8007 206.181 89.586C206.564 89.362 206.862 89.054 207.077 88.662C207.292 88.2607 207.399 87.8033 207.399 87.29C207.399 86.7767 207.292 86.324 207.077 85.932C206.862 85.5307 206.564 85.2227 206.181 85.008C205.808 84.7933 205.383 84.686 204.907 84.686C204.431 84.686 204.002 84.7933 203.619 85.008C203.246 85.2227 202.947 85.5307 202.723 85.932C202.508 86.324 202.401 86.7767 202.401 87.29C202.401 87.8033 202.508 88.2607 202.723 88.662C202.947 89.054 203.246 89.362 203.619 89.586C204.002 89.8007 204.431 89.908 204.907 89.908ZM214.778 83.51C215.72 83.51 216.467 83.7853 217.018 84.336C217.578 84.8773 217.858 85.6753 217.858 86.73V91H216.514V86.884C216.514 86.1653 216.341 85.624 215.996 85.26C215.65 84.896 215.156 84.714 214.512 84.714C213.784 84.714 213.21 84.9287 212.79 85.358C212.37 85.778 212.16 86.3847 212.16 87.178V91H210.816V83.58H212.104V84.7C212.374 84.3173 212.738 84.0233 213.196 83.818C213.662 83.6127 214.19 83.51 214.778 83.51ZM223.247 83.51C224.274 83.51 225.058 83.762 225.599 84.266C226.15 84.77 226.425 85.5213 226.425 86.52V91H225.151V90.02C224.927 90.3653 224.605 90.6313 224.185 90.818C223.774 90.9953 223.284 91.084 222.715 91.084C221.884 91.084 221.217 90.8833 220.713 90.482C220.218 90.0807 219.971 89.5533 219.971 88.9C219.971 88.2467 220.209 87.724 220.685 87.332C221.161 86.9307 221.917 86.73 222.953 86.73H225.081V86.464C225.081 85.8853 224.913 85.442 224.577 85.134C224.241 84.826 223.746 84.672 223.093 84.672C222.654 84.672 222.225 84.7467 221.805 84.896C221.385 85.036 221.03 85.2273 220.741 85.47L220.181 84.462C220.564 84.154 221.021 83.9207 221.553 83.762C222.085 83.594 222.65 83.51 223.247 83.51ZM222.939 90.048C223.452 90.048 223.896 89.936 224.269 89.712C224.642 89.4787 224.913 89.152 225.081 88.732V87.696H223.009C221.87 87.696 221.301 88.0787 221.301 88.844C221.301 89.2173 221.446 89.5113 221.735 89.726C222.024 89.9407 222.426 90.048 222.939 90.048ZM229.112 80.612H230.456V91H229.112V80.612ZM235.35 91.084C234.744 91.084 234.16 91.0047 233.6 90.846C233.04 90.678 232.602 90.468 232.284 90.216L232.844 89.152C233.171 89.3853 233.568 89.572 234.034 89.712C234.501 89.852 234.972 89.922 235.448 89.922C236.624 89.922 237.212 89.586 237.212 88.914C237.212 88.69 237.133 88.5127 236.974 88.382C236.816 88.2513 236.615 88.158 236.372 88.102C236.139 88.0367 235.803 87.9667 235.364 87.892C234.767 87.7987 234.277 87.6913 233.894 87.57C233.521 87.4487 233.199 87.2433 232.928 86.954C232.658 86.6647 232.522 86.2587 232.522 85.736C232.522 85.064 232.802 84.5273 233.362 84.126C233.922 83.7153 234.674 83.51 235.616 83.51C236.111 83.51 236.606 83.5707 237.1 83.692C237.595 83.8133 238.001 83.9767 238.318 84.182L237.744 85.246C237.138 84.854 236.424 84.658 235.602 84.658C235.033 84.658 234.599 84.7513 234.3 84.938C234.002 85.1247 233.852 85.372 233.852 85.68C233.852 85.9227 233.936 86.114 234.104 86.254C234.272 86.394 234.478 86.4967 234.72 86.562C234.972 86.6273 235.322 86.702 235.77 86.786C236.368 86.8887 236.848 87.0007 237.212 87.122C237.586 87.234 237.903 87.43 238.164 87.71C238.426 87.99 238.556 88.382 238.556 88.886C238.556 89.558 238.267 90.0947 237.688 90.496C237.119 90.888 236.34 91.084 235.35 91.084ZM240.758 91.084C240.497 91.084 240.273 90.9953 240.086 90.818C239.899 90.6313 239.806 90.398 239.806 90.118C239.806 89.8473 239.899 89.6233 240.086 89.446C240.273 89.2593 240.497 89.166 240.758 89.166C241.019 89.166 241.239 89.2547 241.416 89.432C241.593 89.6093 241.682 89.838 241.682 90.118C241.682 90.398 241.589 90.6313 241.402 90.818C241.225 90.9953 241.01 91.084 240.758 91.084Z" fill="#737373"/>
</svg>
