<svg width="210" height="88" viewBox="0 0 210 88" fill="none" xmlns="http://www.w3.org/2000/svg">
<path d="M11.52 30.48C9.30667 30.48 7.16 30.1867 5.08 29.6C3.02667 28.9867 1.37333 28.2 0.12 27.24L2.32 22.36C3.52 23.24 4.94667 23.9467 6.6 24.48C8.25333 25.0133 9.90667 25.28 11.56 25.28C13.4 25.28 14.76 25.0133 15.64 24.48C16.52 23.92 16.96 23.1867 16.96 22.28C16.96 21.6133 16.6933 21.0667 16.16 20.64C15.6533 20.1867 14.9867 19.8267 14.16 19.56C13.36 19.2933 12.2667 19 10.88 18.68C8.74667 18.1733 7 17.6667 5.64 17.16C4.28 16.6533 3.10667 15.84 2.12 14.72C1.16 13.6 0.68 12.1067 0.68 10.24C0.68 8.61333 1.12 7.14667 2 5.84C2.88 4.50667 4.2 3.45333 5.96 2.68C7.74667 1.90667 9.92 1.52 12.48 1.52C14.2667 1.52 16.0133 1.73333 17.72 2.16C19.4267 2.58667 20.92 3.2 22.2 4L20.2 8.92C17.6133 7.45333 15.0267 6.72 12.44 6.72C10.6267 6.72 9.28 7.01333 8.4 7.6C7.54667 8.18667 7.12 8.96 7.12 9.92C7.12 10.88 7.61333 11.6 8.6 12.08C9.61333 12.5333 11.1467 12.9867 13.2 13.44C15.3333 13.9467 17.08 14.4533 18.44 14.96C19.8 15.4667 20.96 16.2667 21.92 17.36C22.9067 18.4533 23.4 19.9333 23.4 21.8C23.4 23.4 22.9467 24.8667 22.04 26.2C21.16 27.5067 19.8267 28.5467 18.04 29.32C16.2533 30.0933 14.08 30.48 11.52 30.48ZM40.6678 8.16C43.3345 8.16 45.4811 8.96 47.1078 10.56C48.7611 12.16 49.5878 14.5333 49.5878 17.68V30H43.3478V18.64C43.3478 16.9333 42.9745 15.6667 42.2278 14.84C41.4811 13.9867 40.4011 13.56 38.9878 13.56C37.4145 13.56 36.1611 14.0533 35.2278 15.04C34.2945 16 33.8278 17.44 33.8278 19.36V30H27.5878V0.319998H33.8278V10.72C34.6545 9.89333 35.6545 9.26667 36.8278 8.84C38.0011 8.38667 39.2811 8.16 40.6678 8.16ZM64.1241 8.16C67.4574 8.16 70.0174 8.96 71.8041 10.56C73.5907 12.1333 74.4841 14.52 74.4841 17.72V30H68.6441V27.32C67.4707 29.32 65.2841 30.32 62.0841 30.32C60.4307 30.32 58.9907 30.04 57.7641 29.48C56.5641 28.92 55.6441 28.1467 55.0041 27.16C54.3641 26.1733 54.0441 25.0533 54.0441 23.8C54.0441 21.8 54.7907 20.2267 56.2841 19.08C57.8041 17.9333 60.1374 17.36 63.2841 17.36H68.2441C68.2441 16 67.8307 14.96 67.0041 14.24C66.1774 13.4933 64.9374 13.12 63.2841 13.12C62.1374 13.12 61.0041 13.3067 59.8841 13.68C58.7907 14.0267 57.8574 14.5067 57.0841 15.12L54.8441 10.76C56.0174 9.93333 57.4174 9.29333 59.0441 8.84C60.6974 8.38667 62.3907 8.16 64.1241 8.16ZM63.6441 26.12C64.7107 26.12 65.6574 25.88 66.4841 25.4C67.3107 24.8933 67.8974 24.16 68.2441 23.2V21H63.9641C61.4041 21 60.1241 21.84 60.1241 23.52C60.1241 24.32 60.4307 24.96 61.0441 25.44C61.6841 25.8933 62.5507 26.12 63.6441 26.12ZM86.2916 11.32C87.0382 10.28 88.0382 9.49333 89.2916 8.96C90.5716 8.42667 92.0382 8.16 93.6916 8.16V13.92C92.9982 13.8667 92.5316 13.84 92.2916 13.84C90.5049 13.84 89.1049 14.3467 88.0916 15.36C87.0782 16.3467 86.5716 17.84 86.5716 19.84V30H80.3316V8.48H86.2916V11.32ZM118.487 19.32C118.487 19.4 118.447 19.96 118.367 21H102.087C102.38 22.3333 103.073 23.3867 104.167 24.16C105.26 24.9333 106.62 25.32 108.247 25.32C109.367 25.32 110.353 25.16 111.207 24.84C112.087 24.4933 112.9 23.96 113.647 23.24L116.967 26.84C114.94 29.16 111.98 30.32 108.087 30.32C105.66 30.32 103.513 29.8533 101.647 28.92C99.7799 27.96 98.3399 26.64 97.3266 24.96C96.3132 23.28 95.8066 21.3733 95.8066 19.24C95.8066 17.1333 96.2999 15.24 97.2866 13.56C98.2999 11.8533 99.6732 10.5333 101.407 9.6C103.167 8.64 105.127 8.16 107.287 8.16C109.393 8.16 111.3 8.61333 113.007 9.52C114.713 10.4267 116.047 11.7333 117.007 13.44C117.993 15.12 118.487 17.08 118.487 19.32ZM107.327 12.88C105.913 12.88 104.727 13.28 103.767 14.08C102.807 14.88 102.22 15.9733 102.007 17.36H112.607C112.393 16 111.807 14.92 110.847 14.12C109.887 13.2933 108.713 12.88 107.327 12.88ZM143.049 8.16C146.382 8.16 148.942 8.96 150.729 10.56C152.516 12.1333 153.409 14.52 153.409 17.72V30H147.569V27.32C146.396 29.32 144.209 30.32 141.009 30.32C139.356 30.32 137.916 30.04 136.689 29.48C135.489 28.92 134.569 28.1467 133.929 27.16C133.289 26.1733 132.969 25.0533 132.969 23.8C132.969 21.8 133.716 20.2267 135.209 19.08C136.729 17.9333 139.062 17.36 142.209 17.36H147.169C147.169 16 146.756 14.96 145.929 14.24C145.102 13.4933 143.862 13.12 142.209 13.12C141.062 13.12 139.929 13.3067 138.809 13.68C137.716 14.0267 136.782 14.5067 136.009 15.12L133.769 10.76C134.942 9.93333 136.342 9.29333 137.969 8.84C139.622 8.38667 141.316 8.16 143.049 8.16ZM142.569 26.12C143.636 26.12 144.582 25.88 145.409 25.4C146.236 24.8933 146.822 24.16 147.169 23.2V21H142.889C140.329 21 139.049 21.84 139.049 23.52C139.049 24.32 139.356 24.96 139.969 25.44C140.609 25.8933 141.476 26.12 142.569 26.12ZM172.337 8.16C175.003 8.16 177.15 8.96 178.777 10.56C180.43 12.16 181.257 14.5333 181.257 17.68V30H175.017V18.64C175.017 16.9333 174.643 15.6667 173.897 14.84C173.15 13.9867 172.07 13.56 170.657 13.56C169.083 13.56 167.83 14.0533 166.897 15.04C165.963 16 165.497 17.44 165.497 19.36V30H159.257V8.48H165.217V11C166.043 10.0933 167.07 9.4 168.297 8.92C169.523 8.41333 170.87 8.16 172.337 8.16ZM209.267 0.319998V30H203.307V27.52C201.761 29.3867 199.521 30.32 196.587 30.32C194.561 30.32 192.721 29.8667 191.067 28.96C189.441 28.0533 188.161 26.76 187.227 25.08C186.294 23.4 185.827 21.4533 185.827 19.24C185.827 17.0267 186.294 15.08 187.227 13.4C188.161 11.72 189.441 10.4267 191.067 9.52C192.721 8.61333 194.561 8.16 196.587 8.16C199.334 8.16 201.481 9.02667 203.027 10.76V0.319998H209.267ZM197.667 25.2C199.241 25.2 200.547 24.6667 201.587 23.6C202.627 22.5067 203.147 21.0533 203.147 19.24C203.147 17.4267 202.627 15.9867 201.587 14.92C200.547 13.8267 199.241 13.28 197.667 13.28C196.067 13.28 194.747 13.8267 193.707 14.92C192.667 15.9867 192.147 17.4267 192.147 19.24C192.147 21.0533 192.667 22.5067 193.707 23.6C194.747 24.6667 196.067 25.2 197.667 25.2ZM2.32 59H8.8V81.72H22.84V87H2.32V59ZM47.1444 76.32C47.1444 76.4 47.1044 76.96 47.0244 78H30.7444C31.0377 79.3333 31.731 80.3867 32.8244 81.16C33.9177 81.9333 35.2777 82.32 36.9044 82.32C38.0244 82.32 39.011 82.16 39.8644 81.84C40.7444 81.4933 41.5577 80.96 42.3044 80.24L45.6244 83.84C43.5977 86.16 40.6377 87.32 36.7444 87.32C34.3177 87.32 32.171 86.8533 30.3044 85.92C28.4377 84.96 26.9977 83.64 25.9844 81.96C24.971 80.28 24.4644 78.3733 24.4644 76.24C24.4644 74.1333 24.9577 72.24 25.9444 70.56C26.9577 68.8533 28.331 67.5333 30.0644 66.6C31.8244 65.64 33.7844 65.16 35.9444 65.16C38.051 65.16 39.9577 65.6133 41.6644 66.52C43.371 67.4267 44.7044 68.7333 45.6644 70.44C46.651 72.12 47.1444 74.08 47.1444 76.32ZM35.9844 69.88C34.571 69.88 33.3844 70.28 32.4244 71.08C31.4644 71.88 30.8777 72.9733 30.6644 74.36H41.2644C41.051 73 40.4644 71.92 39.5044 71.12C38.5444 70.2933 37.371 69.88 35.9844 69.88ZM59.5928 65.16C62.9261 65.16 65.4861 65.96 67.2728 67.56C69.0595 69.1333 69.9528 71.52 69.9528 74.72V87H64.1128V84.32C62.9395 86.32 60.7528 87.32 57.5528 87.32C55.8995 87.32 54.4595 87.04 53.2328 86.48C52.0328 85.92 51.1128 85.1467 50.4728 84.16C49.8328 83.1733 49.5128 82.0533 49.5128 80.8C49.5128 78.8 50.2595 77.2267 51.7528 76.08C53.2728 74.9333 55.6061 74.36 58.7528 74.36H63.7128C63.7128 73 63.2995 71.96 62.4728 71.24C61.6461 70.4933 60.4061 70.12 58.7528 70.12C57.6061 70.12 56.4728 70.3067 55.3528 70.68C54.2595 71.0267 53.3261 71.5067 52.5528 72.12L50.3128 67.76C51.4861 66.9333 52.8861 66.2933 54.5128 65.84C56.1661 65.3867 57.8595 65.16 59.5928 65.16ZM59.1128 83.12C60.1795 83.12 61.1261 82.88 61.9528 82.4C62.7795 81.8933 63.3661 81.16 63.7128 80.2V78H59.4328C56.8728 78 55.5928 78.84 55.5928 80.52C55.5928 81.32 55.8995 81.96 56.5128 82.44C57.1528 82.8933 58.0195 83.12 59.1128 83.12ZM81.7603 68.32C82.507 67.28 83.507 66.4933 84.7603 65.96C86.0403 65.4267 87.507 65.16 89.1603 65.16V70.92C88.467 70.8667 88.0003 70.84 87.7603 70.84C85.9736 70.84 84.5736 71.3467 83.5603 72.36C82.547 73.3467 82.0403 74.84 82.0403 76.84V87H75.8003V65.48H81.7603V68.32ZM106.151 65.16C108.817 65.16 110.964 65.96 112.591 67.56C114.244 69.16 115.071 71.5333 115.071 74.68V87H108.831V75.64C108.831 73.9333 108.457 72.6667 107.711 71.84C106.964 70.9867 105.884 70.56 104.471 70.56C102.897 70.56 101.644 71.0533 100.711 72.04C99.7773 73 99.3106 74.44 99.3106 76.36V87H93.0706V65.48H99.0306V68C99.8573 67.0933 100.884 66.4 102.111 65.92C103.337 65.4133 104.684 65.16 106.151 65.16Z" fill="#252B42"/>
</svg>
